<?xml version="1.0" encoding="utf-8"?>
<!-- Generator: Adobe Illustrator 16.0.4, SVG Export Plug-In . SVG Version: 6.00 Build 0)  -->
<!DOCTYPE svg PUBLIC "-//W3C//DTD SVG 1.1//EN" "http://www.w3.org/Graphics/SVG/1.1/DTD/svg11.dtd">
<svg version="1.1" xmlns="http://www.w3.org/2000/svg" xmlns:xlink="http://www.w3.org/1999/xlink" x="0px" y="0px" width="300px"
	 height="300px" viewBox="0 0 300 300" enable-background="new 0 0 300 300" xml:space="preserve">
<g id="fond">
	<g id="btn-shadow">
		<path fill="#37657E" d="M227.27,78.5c-19.045-16.565-43.902-26.618-71.125-26.618C96.25,51.883,47.693,100.438,47.693,160.334
			c0,27.221,10.051,52.076,26.613,71.119c19.883,22.859,49.162,37.332,81.838,37.332c59.896,0,108.451-48.555,108.451-108.451
			C264.596,127.659,250.127,98.384,227.27,78.5z"/>
	</g>
	<g id="btn-down" display="none">
		<path display="inline" fill="#A30D0D" d="M227.27,78.5c16.562,19.042,26.612,43.899,26.612,71.119
			c0,59.896-48.556,108.451-108.451,108.451c-27.222,0-52.081-10.055-71.124-26.617c19.883,22.857,49.162,37.332,81.837,37.332
			c59.896,0,108.451-48.557,108.451-108.451C264.596,127.659,250.125,98.383,227.27,78.5z"/>
		<path display="inline" fill="#FF0000" d="M253.882,149.619c0-27.22-10.052-52.077-26.612-71.119
			c-19.045-16.565-43.901-26.618-71.125-26.618c-59.896,0-108.451,48.555-108.451,108.451c0,27.22,10.051,52.076,26.613,71.119
			c19.043,16.563,43.902,26.616,71.124,26.616C205.326,258.068,253.882,209.516,253.882,149.619z"/>
		
			<polygon display="inline" fill="#FFFFFF" stroke="#FFFFFF" stroke-width="5.0875" stroke-linecap="round" stroke-linejoin="round" stroke-miterlimit="10" points="
			160.066,124.558 160.066,137.698 115.902,137.698 115.902,172.105 160.066,172.105 160.066,185.395 203.66,155.148 		"/>
	</g>
</g>
<g id="btn-ok-up">
	<g>
		<g id="btn-up_1_">
			<path fill="#6B8E19" d="M218.942,68.847c16.562,19.042,26.613,43.899,26.613,71.119c0,59.896-48.556,108.452-108.451,108.452
				c-27.222,0-52.081-10.055-71.124-26.618c19.883,22.858,49.162,37.332,81.838,37.332c59.896,0,108.451-48.556,108.451-108.451
				C256.27,118.005,241.799,88.729,218.942,68.847z"/>
			<path fill="#99D01D" d="M245.556,139.966c0-27.22-10.052-52.077-26.613-71.119c-19.044-16.565-43.901-26.618-71.124-26.618
				c-59.896,0-108.451,48.555-108.451,108.451c0,27.22,10.05,52.076,26.613,71.119c19.043,16.562,43.902,26.617,71.124,26.617
				C197,248.416,245.556,199.861,245.556,139.966z"/>
			<g id="Calque_2" display="none">
				<path display="inline" fill="#A30D0D" d="M225.306,82.155c16.562,19.042,26.612,43.899,26.612,71.119
					c0,59.896-48.557,108.452-108.45,108.452c-27.222,0-52.081-10.054-71.124-26.618c19.883,22.859,49.162,37.332,81.838,37.332
					c59.896,0,108.451-48.555,108.451-108.451C262.633,131.313,248.164,102.039,225.306,82.155z"/>
				<path display="inline" fill="#FF0000" d="M251.918,153.273c0-27.219-10.051-52.076-26.612-71.119
					c-19.044-16.565-43.902-26.618-71.124-26.618C94.287,55.538,45.73,104.093,45.73,163.988c0,27.221,10.051,52.077,26.613,71.119
					c19.043,16.564,43.902,26.618,71.124,26.618C203.363,261.726,251.918,213.17,251.918,153.273z"/>
				
					<polygon display="inline" fill="#FFFFFF" stroke="#FFFFFF" stroke-width="5.0875" stroke-linecap="round" stroke-linejoin="round" stroke-miterlimit="10" points="
					158.103,128.213 158.103,141.353 113.938,141.353 113.938,175.761 158.103,175.761 158.103,189.047 201.697,158.803 				"/>
			</g>
		</g>
		<g>
			
				<rect x="150.89" y="101.064" transform="matrix(0.6949 0.7191 -0.7191 0.6949 162.0129 -71.7481)" fill="#FFFFFF" stroke="#FFFFFF" stroke-width="5.0875" stroke-linecap="round" stroke-linejoin="round" stroke-miterlimit="10" width="29.348" height="107.998"/>
			
				<polygon fill="#FFFFFF" stroke="#FFFFFF" stroke-width="5.0875" stroke-linecap="round" stroke-linejoin="round" stroke-miterlimit="10" points="
				157.78,183.095 136.677,203.489 88.328,152.533 109.432,132.138 			"/>
		</g>
	</g>
</g>
<g id="btn-ok-down" display="none">
	<g display="inline">
		<g id="btn-up_2_">
			<path fill="#6B8E19" d="M227.269,78.5c16.562,19.042,26.613,43.899,26.613,71.119c0,59.896-48.556,108.452-108.451,108.452
				c-27.222,0-52.081-10.055-71.124-26.618c19.883,22.858,49.162,37.332,81.838,37.332c59.896,0,108.451-48.556,108.451-108.451
				C264.596,127.659,250.125,98.383,227.269,78.5z"/>
			<path fill="#99D01D" d="M253.882,149.619c0-27.22-10.052-52.077-26.613-71.119c-19.044-16.565-43.901-26.618-71.124-26.618
				c-59.896,0-108.451,48.555-108.451,108.451c0,27.22,10.05,52.076,26.613,71.119c19.043,16.562,43.902,26.617,71.124,26.617
				C205.326,258.069,253.882,209.515,253.882,149.619z"/>
			<g id="Calque_2_1_" display="none">
				<path display="inline" fill="#A30D0D" d="M233.632,91.808c16.562,19.042,26.612,43.899,26.612,71.119
					c0,59.896-48.557,108.452-108.45,108.452c-27.222,0-52.081-10.054-71.124-26.618c19.883,22.859,49.162,37.332,81.838,37.332
					c59.896,0,108.451-48.555,108.451-108.451C270.959,140.967,256.49,111.692,233.632,91.808z"/>
				<path display="inline" fill="#FF0000" d="M260.244,162.927c0-27.219-10.051-52.076-26.612-71.119
					c-19.044-16.565-43.902-26.618-71.124-26.618c-59.895,0.001-108.451,48.556-108.451,108.452
					c0,27.221,10.051,52.077,26.613,71.119c19.043,16.564,43.902,26.618,71.124,26.618
					C211.689,271.379,260.244,222.823,260.244,162.927z"/>
				
					<polygon display="inline" fill="#FFFFFF" stroke="#FFFFFF" stroke-width="5.0875" stroke-linecap="round" stroke-linejoin="round" stroke-miterlimit="10" points="
					166.429,137.867 166.429,151.006 122.265,151.006 122.265,185.414 166.429,185.414 166.429,198.7 210.023,168.456 				"/>
			</g>
		</g>
		<g>
			
				<rect x="159.216" y="110.718" transform="matrix(0.6949 0.7191 -0.7191 0.6949 171.4946 -74.7903)" fill="#FFFFFF" stroke="#FFFFFF" stroke-width="5.0875" stroke-linecap="round" stroke-linejoin="round" stroke-miterlimit="10" width="29.348" height="107.998"/>
			
				<polygon fill="#FFFFFF" stroke="#FFFFFF" stroke-width="5.0875" stroke-linecap="round" stroke-linejoin="round" stroke-miterlimit="10" points="
				166.106,192.748 145.003,213.143 96.654,162.187 117.758,141.791 			"/>
		</g>
	</g>
</g>
</svg>
