<?xml version="1.0" encoding="utf-8"?>
<!-- Generator: Adobe Illustrator 16.0.4, SVG Export Plug-In . SVG Version: 6.00 Build 0)  -->
<!DOCTYPE svg PUBLIC "-//W3C//DTD SVG 1.1//EN" "http://www.w3.org/Graphics/SVG/1.1/DTD/svg11.dtd">
<svg version="1.1" xmlns="http://www.w3.org/2000/svg" xmlns:xlink="http://www.w3.org/1999/xlink" x="0px" y="0px" width="auto"
	 height="80%" viewBox="0 0 300 300" enable-background="new 0 0 300 300" xml:space="preserve">
<g id="button-calque-1">
	<path fill="#2E58A6" d="M227.995,81.262c-19.044-16.565-43.902-26.618-71.124-26.618C96.976,54.645,48.42,103.2,48.42,163.096
		c0,27.22,10.051,52.077,26.613,71.119c19.883,22.859,49.162,37.332,81.838,37.332c59.896,0,108.451-48.555,108.451-108.451
		C265.322,130.421,250.853,101.146,227.995,81.262z"/>
	<path fill="#A30D0D" d="M221.632,67.954c16.562,19.042,26.613,43.899,26.613,71.119c0,59.896-48.556,108.452-108.451,108.452
		c-27.222,0-52.081-10.054-71.124-26.618c19.883,22.859,49.162,37.332,81.838,37.332c59.896,0,108.451-48.555,108.451-108.451
		C258.959,117.113,244.489,87.837,221.632,67.954z"/>
	<path fill="#FF0000" d="M248.245,139.073c0-27.22-10.051-52.077-26.613-71.119c-19.044-16.565-43.902-26.618-71.124-26.618
		c-59.896,0-108.451,48.555-108.451,108.451c0,27.22,10.051,52.077,26.613,71.119c19.043,16.564,43.902,26.618,71.124,26.618
		C199.689,247.524,248.245,198.969,248.245,139.073z"/>

		<polygon fill="#FFFFFF" stroke="#FFFFFF" stroke-width="5.0875" stroke-linecap="round" stroke-linejoin="round" stroke-miterlimit="10" points="
		154.429,114.012 154.429,127.152 110.265,127.152 110.265,161.56 154.429,161.56 154.429,174.847 198.023,144.602 	"/>
</g>
<g id="button-calque-2" display="none">
	<path display="inline" fill="#A30D0D" d="M227.995,81.262c16.562,19.042,26.613,43.899,26.613,71.119
		c0,59.896-48.556,108.452-108.451,108.452c-27.222,0-52.081-10.054-71.124-26.618c19.883,22.859,49.162,37.332,81.838,37.332
		c59.896,0,108.451-48.555,108.451-108.451C265.322,130.421,250.853,101.146,227.995,81.262z"/>
	<path display="inline" fill="#FF0000" d="M254.608,152.381c0-27.219-10.051-52.076-26.613-71.119
		c-19.044-16.565-43.902-26.618-71.124-26.618C96.976,54.645,48.42,103.2,48.42,163.096c0,27.22,10.051,52.077,26.613,71.119
		c19.043,16.564,43.902,26.618,71.124,26.618C206.053,260.833,254.608,212.277,254.608,152.381z"/>

		<polygon display="inline" fill="#FFFFFF" stroke="#FFFFFF" stroke-width="5.0875" stroke-linecap="round" stroke-linejoin="round" stroke-miterlimit="10" points="
		160.792,127.321 160.792,140.46 116.628,140.46 116.628,174.868 160.792,174.868 160.792,188.155 204.387,157.91 	"/>
</g>
</svg>
