<?xml version="1.0" encoding="utf-8"?>
<!-- Generator: Adobe Illustrator 16.0.4, SVG Export Plug-In . SVG Version: 6.00 Build 0)  -->
<!DOCTYPE svg PUBLIC "-//W3C//DTD SVG 1.1//EN" "http://www.w3.org/Graphics/SVG/1.1/DTD/svg11.dtd">
<svg version="1.1" id="Calque_1" xmlns="http://www.w3.org/2000/svg" xmlns:xlink="http://www.w3.org/1999/xlink" x="0px" y="0px"
	 width="600px" height="1000px" viewBox="0 0 600 1000" enable-background="new 0 0 600 1000" xml:space="preserve">
<g id="Calque_1_1_">
	<rect fill="#579BCC" width="600" height="1000"/>
</g>
<g id="Calque_2">
</g>
<g id="texte">
</g>
<path fill="none" stroke="#000000" stroke-width="7.4238" stroke-miterlimit="10" d="M-12.111,385.103
	c0,0,120.433,95.672,332.811,95.672c212.377,0,287.396-36.783,287.396-36.783"/>
<g>
	<path fill="#FFFFFF" d="M419.674,423.486c-0.005,0.036-0.01,0.07-0.016,0.107c0.002-0.015,0.005-0.025,0.008-0.041
		C419.668,423.532,419.672,423.51,419.674,423.486z"/>
	<path fill="#FFFFFF" d="M374.287,430.833l-2.062-3.956c0.012,0.018,0.021,0.04,0.032,0.071
		C372.454,427.376,373.176,428.915,374.287,430.833z"/>
	<path fill="#FFFFFF" d="M392.067,360.896c0.102,0.203,0.192,0.409,0.3,0.612l2.631,5.057c0,0.002,0.014,0.021,0.035,0.048
		C393.841,364.314,392.826,362.355,392.067,360.896z"/>
	<path fill="#FFFFFF" d="M417.541,409.952c0.031,0.063,0.064,0.128,0.095,0.194c-0.055-0.116-0.095-0.192-0.095-0.192V409.952z"/>
	<path fill="#FFFFFF" d="M260.242,274.023c-10.078,5.241-16.735,7.328-21.117,7.94c5.623,10.813,11.344,21.812,17.05,32.779
		c4.245-0.216,10.393-1.769,19.159-6.33c22.283-11.592,23.416-22.792,23.417-22.798l-16.316-31.37
		C282.62,254.668,284.947,261.173,260.242,274.023z"/>
	<path fill="#FFFFFF" d="M330.871,409.811c-10.078,5.244-16.737,7.327-21.117,7.939c14.045,27.002,23.609,45.391,24.563,47.228
		c6.494-0.55,16.729-3.064,26.723-12.362c15.39-14.324,11.747-24.437,11.219-25.665c-0.02-0.044-0.028-0.064-0.038-0.085
		l-19.158-36.832C353.242,390.44,355.604,396.944,330.871,409.811z"/>
	<path fill="#FFFFFF" d="M226.109,208.401c-10.078,5.243-16.735,7.329-21.117,7.943c4.99,9.592,10.375,19.943,16.016,30.788
		c4.245-0.214,10.395-1.768,19.16-6.329c22.29-11.595,23.416-22.8,23.416-22.8l2.906,5.588l-18.196-34.981
		C248.353,188.725,251.448,195.223,226.109,208.401z"/>
	<path fill="#FFFFFF" d="M173.113,155.051c1.02,1.96,6.055,11.644,13.764,26.46c4.243-0.216,10.393-1.771,19.157-6.329
		c22.241-11.568,23.413-22.745,23.419-22.796l-8.69-16.707c-7.343-14.12-24.745-19.612-38.86-12.271
		c-4.303,2.239-7.801,5.414-10.382,9.141c0.64-0.902,1.337-1.803,2.124-2.702C173.645,129.847,166.906,143.121,173.113,155.051z"/>
	<path fill="#FFFFFF" d="M295.409,341.635c-10.078,5.241-16.737,7.326-21.118,7.938c5.992,11.519,11.822,22.726,17.343,33.343
		c4.245-0.213,10.396-1.77,19.161-6.328c22.197-11.547,23.407-22.703,23.418-22.793l-16.614-31.947
		C317.745,322.171,320.321,328.675,295.409,341.635z"/>
	<path fill="#FFFFFF" d="M370.11,497.711c-4.688-1.597-8.939-3.458-12.77-5.475C361.441,494.427,365.717,496.247,370.11,497.711z"/>
	<path fill="#FFFFFF" d="M167.778,157.834c-0.156-0.491-0.312-1.016-0.459-1.573C167.458,156.788,167.609,157.312,167.778,157.834z"
		/>
	<path fill="#FFFFFF" d="M168.002,158.498c-0.065-0.188-0.129-0.375-0.194-0.574C167.869,158.115,167.936,158.307,168.002,158.498z"
		/>
	<path fill="#FFFFFF" d="M391.046,337.859c-2.133,5.548-2.551,11.729-0.979,17.678C387.956,346.871,390.782,338.597,391.046,337.859
		z"/>
	<path fill="#FFFFFF" d="M474.058,443.682c-0.604,1.967-1.236,3.845-1.898,5.629C472.86,447.459,473.491,445.58,474.058,443.682z"/>
	<path fill="#FFFFFF" d="M417.966,410.891c-0.047-0.113-0.087-0.206-0.128-0.299C417.882,410.689,417.924,410.79,417.966,410.891z"
		/>
	<path fill="#FFFFFF" d="M390.209,356.096c-0.003-0.012-0.006-0.025-0.01-0.037C390.203,356.07,390.206,356.084,390.209,356.096z"/>
	<path fill="#FFFFFF" d="M419.766,422.734c0.015-0.152,0.029-0.303,0.041-0.451C419.794,422.434,419.78,422.584,419.766,422.734z"/>
	<path fill="#FFFFFF" d="M167.255,156.011c-0.064-0.249-0.126-0.501-0.185-0.761C167.127,155.505,167.19,155.758,167.255,156.011z"
		/>
	<path fill="#FFFFFF" d="M317.688,446.913c-3.584-6.888-9.129-17.546-16.004-30.765c-0.002-0.002-0.003-0.008-0.003-0.008
		l-18.6-35.756c0,0,0.003,0.005,0.004,0.007c-5.347-10.28-11.017-21.179-16.857-32.409c-0.008-0.014-0.012-0.021-0.012-0.021
		l-6.747-12.971l63.979,123.003c0,0,0.003,0.001,0.002,0.001l-0.002-0.001L317.688,446.913z"/>
	<path fill="#FFFFFF" d="M212.457,244.602c-5.517-10.605-10.738-20.647-15.521-29.837c-0.002-0.003-0.006-0.008-0.007-0.012
		l20.943,40.268l-5.42-10.423C212.453,244.598,212.455,244.601,212.457,244.602z"/>
	<path fill="#FFFFFF" d="M440.812,443.815c-10.329-14.866-24.599-10.741-24.599-10.741c0.002-0.002,0.002-0.004,0.003-0.006
		c-2.192,3.512-5.317,6.506-9.252,8.551c-4.872,2.534-10.22,3.222-15.248,2.331c0.062,0.013,0.103,0.02,0.103,0.02
		s9.769,19.735-0.493,34.935c-10.061,14.898-19.966,18.938-20.358,19.096c20.028,6.428,42.502,5.202,62.598-5.249
		c6.304-3.278,11.997-7.275,17.042-11.831C450.607,480.826,451.123,458.659,440.812,443.815z"/>
	<path fill="#FFFFFF" d="M231.069,280.387c-0.001-0.003-0.007-0.008-0.007-0.011l16.561,31.839c0.002,0.002,0.004,0.005,0.005,0.007
		C242.081,301.558,236.522,290.872,231.069,280.387z"/>
	<path fill="#FFFFFF" d="M169.635,162.274c0,0-0.008-0.013-0.009-0.016c0.002,0.005,0.004,0.01,0.007,0.016l8.693,16.715
		c0.003,0.001,0.004,0.003,0.004,0.006C172.848,168.448,169.635,162.274,169.635,162.274z"/>
	<path fill="#FFFFFF" d="M442.785,395.989c-11.941,6.214-19.095,8.001-23.328,8.145c0.831,1.627,1.523,2.973,2.028,3.944
		c2.108,4.057,1.841,8.312,0.874,11.811c4.283-1.242,13.688-3.449,24.343-2.67c14.406,1.053,27.378,24.852,27.667,25.389
		c5.505-19.354,3.949-40.753-6.047-59.969l-3.352-6.44C465.024,376.301,468.146,382.798,442.785,395.989z"/>
	<path fill="#FFFFFF" d="M404.636,322.643c-6.474,3.367-11.127,8.852-13.567,15.164c0.363,9.184,4.021,18.133,4.021,18.133
		s2.814,5.592,6.636,13.169c4.238,0.188,10.874-1.075,20.991-6.338c22.286-11.593,23.416-22.796,23.417-22.802l-2.634-5.059
		C436.157,320.793,418.756,315.3,404.636,322.643z"/>
	<polygon fill="#FF0000" points="248.291,188.605 229.453,152.383 229.453,152.386 248.294,188.611 	"/>
	<path fill="#FF0000" d="M178.32,178.98l18.599,35.756c0,0,0.005,0.007,0.011,0.017l-18.604-35.764
		C178.325,178.987,178.32,178.98,178.32,178.98z"/>
	<path fill="#FF0000" d="M178.33,178.995c0-0.003-0.001-0.004-0.004-0.006l18.604,35.764c0.001,0.004,0.005,0.009,0.007,0.012
		C189.445,200.362,183.047,188.062,178.33,178.995z"/>
	<path fill="#FF0000" d="M206.034,175.182c-8.765,4.559-14.914,6.113-19.157,6.329c5.026,9.665,11.191,21.518,18.115,34.833
		c4.382-0.614,11.039-2.7,21.117-7.943c25.339-13.179,22.243-19.677,22.185-19.791l-18.841-36.225
		C229.447,152.438,228.275,163.614,206.034,175.182z"/>
	<path fill="#FF0000" d="M282.424,254.222l-15.934-30.63l15.944,30.654C282.428,254.23,282.424,254.222,282.424,254.222z"/>
	<path fill="#FF0000" d="M231.05,280.354c0,0,0.004,0.009,0.013,0.021l-13.189-25.355L231.05,280.354z"/>
	<path fill="#FF0000" d="M212.457,244.602c-0.002-0.001-0.004-0.004-0.004-0.004l5.42,10.423l13.189,25.355
		c0,0.003,0.006,0.008,0.007,0.011C224.656,268.056,218.388,256.006,212.457,244.602z"/>
	<path fill="#FF0000" d="M240.168,240.804c-8.766,4.561-14.915,6.114-19.16,6.329c5.818,11.187,11.907,22.895,18.117,34.832
		c4.382-0.612,11.039-2.699,21.117-7.94c24.705-12.851,22.378-19.355,22.192-19.778l-15.944-30.654l-2.906-5.588
		C263.584,218.003,262.458,229.209,240.168,240.804z"/>
	<path fill="#FF0000" d="M317.591,321.833l-18.84-36.218l0,0l18.848,36.232C317.594,321.839,317.591,321.833,317.591,321.833z"/>
	<polygon fill="#FF0000" points="247.62,312.209 259.469,334.99 247.623,312.215 	"/>
	<path fill="#FF0000" d="M266.228,347.982c-6.07-11.673-12.327-23.702-18.6-35.76c-0.001-0.002-0.003-0.005-0.005-0.007
		l11.846,22.775l6.747,12.971C266.216,347.961,266.22,347.969,266.228,347.982z"/>
	<path fill="#FF0000" d="M275.334,308.413c-8.767,4.561-14.914,6.114-19.159,6.33c6.104,11.737,12.19,23.436,18.116,34.831
		c4.381-0.612,11.04-2.697,21.118-7.938c24.912-12.96,22.336-19.463,22.188-19.787l-18.848-36.232
		C298.75,285.621,297.617,296.821,275.334,308.413z"/>
	<path fill="#FF0000" d="M353.053,390.01l-18.838-36.222l-0.002,0.007l18.85,36.236C353.057,390.018,353.053,390.01,353.053,390.01z
		"/>
	<path fill="#FF0000" d="M310.795,376.588c-8.767,4.559-14.916,6.115-19.161,6.328c6.554,12.598,12.673,24.362,18.12,34.834
		c4.38-0.612,11.039-2.695,21.117-7.939c24.731-12.866,22.371-19.37,22.191-19.779l-18.852-36.236
		C334.202,353.885,332.992,365.041,310.795,376.588z"/>
	<path fill="#FF0000" d="M283.081,380.385l18.6,35.756c0,0,0.001,0.006,0.003,0.008c-5.461-10.504-11.768-22.626-18.599-35.757
		C283.084,380.39,283.081,380.385,283.081,380.385z"/>
	<polygon fill="#FF0000" points="446.121,339.97 464.96,376.196 464.96,376.196 	"/>
	<path fill="#FF0000" d="M394.998,366.564l-0.002-0.002l6.426,12.351c-0.006-0.007-0.009-0.015-0.012-0.021L394.998,366.564z"/>
	<path fill="#FF0000" d="M395.033,366.612c-0.021-0.026-0.035-0.046-0.035-0.048l6.412,12.328
		C399.072,374.395,396.852,370.111,395.033,366.612z"/>
	<path fill="#FF0000" d="M422.714,362.771c-10.117,5.263-16.753,6.525-20.991,6.338c5.653,11.21,13.514,26.77,17.734,35.025
		c4.233-0.144,11.387-1.931,23.328-8.145c25.358-13.191,22.239-19.688,22.188-19.793l-18.842-36.228
		C446.13,339.975,445,351.178,422.714,362.771z"/>
	<path fill="#FF0000" d="M346.854,485.695c0,0-1.398-1.086-4.264-3.576c-0.513-0.439-1.021-0.884-1.522-1.338
		c-1.271-1.127-2.763-2.469-4.469-4.037c4.763,4.946,11.544,10.646,20.743,15.492c-3.718-1.986-7.283-4.275-10.676-6.833
		C346.787,485.59,346.854,485.695,346.854,485.695z"/>
	<path fill="#FF0000" d="M370.951,498.004c0,0,0.009-0.005,0.017-0.006c-0.285-0.092-0.568-0.19-0.855-0.287
		C370.394,497.809,370.665,497.91,370.951,498.004z"/>
	<path fill="#FF0000" d="M391.719,443.95c-0.809-0.164-6.64-1.443-11.137-5.131c-2.588-2.12-4.794-5.394-6.295-7.986l0.292,0.563
		C378.156,438.271,384.618,442.69,391.719,443.95z"/>
	<path fill="#FF0000" d="M372.202,426.821c0,0,0.014,0.027,0.019,0.042l0.006,0.014
		C372.214,426.843,372.202,426.821,372.202,426.821z"/>
	<path fill="#FF0000" d="M372.227,426.877l-0.006-0.014c0.012,0.021,0.021,0.041,0.038,0.085
		C372.245,426.917,372.236,426.895,372.227,426.877z"/>
	<path fill="#FF0000" d="M342.591,482.119c-0.47-0.408-0.974-0.852-1.522-1.338C341.569,481.235,342.078,481.68,342.591,482.119z"/>
	<path fill="#FF0000" d="M391.326,478.902c10.262-15.197,0.493-34.935,0.493-34.935s-0.04-0.007-0.103-0.02
		c-7.101-1.26-13.562-5.681-17.14-12.556l-0.292-0.562c-1.111-1.918-1.833-3.457-2.028-3.885
		c0.528,1.229,4.171,11.341-11.219,25.665c-9.993,9.298-20.228,11.812-26.723,12.362c0.053,0.102,0.085,0.161,0.085,0.161
		c3.164,6.082,10.968,18.25,12.265,20.267c3.393,2.558,6.958,4.847,10.676,6.833c3.828,2.017,8.08,3.878,12.77,5.475
		c0.287,0.097,0.57,0.195,0.855,0.287C371.36,497.842,381.268,493.803,391.326,478.902z"/>
	<path fill="#FF0000" d="M450.605,480.922c0,0,12.92-8.323,21.552-31.611c-4.525,11.916-11.815,22.812-21.552,31.607
		C450.604,480.918,450.605,480.922,450.605,480.922z"/>
	<path fill="#FF0000" d="M474.383,442.63c0,0-0.009-0.019-0.014-0.022c-0.103,0.355-0.203,0.716-0.312,1.074
		C474.167,443.329,474.278,442.986,474.383,442.63z"/>
	<path fill="#FF0000" d="M419.136,426.26c0.078-0.3,0.151-0.604,0.218-0.908c0.017-0.069,0.027-0.141,0.043-0.212
		c0.104-0.512,0.191-1.024,0.264-1.544c-0.373,2.068-1.279,5.224-3.439,9.475c1.079-1.728,1.938-3.574,2.547-5.502
		C418.91,427.127,419.023,426.693,419.136,426.26z"/>
	<path fill="#FF0000" d="M419.354,425.352c-0.064,0.307-0.14,0.608-0.218,0.908C419.216,425.956,419.287,425.654,419.354,425.352z"
		/>
	<path fill="#FF0000" d="M446.702,417.219c-10.655-0.779-20.06,1.428-24.343,2.67c-1.232,4.461-3.6,7.691-3.6,7.691
		c0.001-0.006,0.002-0.008,0.004-0.014c-0.608,1.928-1.468,3.774-2.547,5.502c-0.001,0.002-0.001,0.004-0.003,0.006
		c0,0,14.27-4.125,24.599,10.741c10.311,14.844,9.795,37.011,9.793,37.103c9.734-8.796,17.024-19.691,21.552-31.607
		c0.662-1.784,1.296-3.662,1.898-5.629c0.108-0.358,0.211-0.719,0.312-1.074C474.08,442.068,461.108,418.271,446.702,417.219z"/>
	<path fill="#FF0000" d="M419.666,423.555c-0.003,0.016-0.006,0.026-0.008,0.041c-0.07,0.52-0.157,1.032-0.262,1.544
		C419.505,424.605,419.597,424.076,419.666,423.555z"/>
	<path fill="#B3B3B3" d="M167.808,157.924c-0.009-0.029-0.019-0.06-0.029-0.089C167.788,157.864,167.799,157.895,167.808,157.924z"
		/>
	<path fill="#B3B3B3" d="M169.626,162.259c-0.639-1.232-1.177-2.489-1.624-3.761C168.795,160.784,169.571,162.163,169.626,162.259z"
		/>
	<path fill="#B3B3B3" d="M327.488,464.865c0,0,0.019,0.004,0.028,0.006c-1.176-1.807-2.306-3.656-3.353-5.582
		c-0.251-0.422-0.488-0.854-0.717-1.295c0.016,0.035,6.113,12.266,13.083,18.686c0.021,0.022,0.044,0.043,0.065,0.064
		C330.232,470.126,327.488,464.865,327.488,464.865z"/>
	<path fill="#B3B3B3" d="M167.319,156.262c-0.022-0.084-0.043-0.167-0.064-0.25C167.277,156.095,167.297,156.179,167.319,156.262z"
		/>
	<path fill="#B3B3B3" d="M171.521,132.549c-6,8.483-5.764,16.978-4.45,22.701C165.297,147.329,166.995,139.085,171.521,132.549z"/>
	<path fill="#B3B3B3" d="M291.634,382.916c-5.521-10.617-11.351-21.824-17.343-33.343c-6.386,0.892-7.923-1.356-8.063-1.591
		c5.841,11.23,11.511,22.129,16.857,32.409C283.15,380.479,285.191,383.242,291.634,382.916z"/>
	<path fill="#B3B3B3" d="M221.008,247.132c-5.641-10.845-11.025-21.196-16.016-30.788c-6.325,0.884-7.89-1.31-8.056-1.579
		c4.782,9.19,10.004,19.232,15.521,29.837C212.494,244.656,214.52,247.461,221.008,247.132z"/>
	<path fill="#B3B3B3" d="M178.33,178.995c0.143,0.191,2.231,2.836,8.547,2.516c-7.709-14.816-12.744-24.5-13.764-26.46
		c-6.207-11.93,0.531-25.204,0.531-25.204c-0.787,0.899-1.484,1.8-2.124,2.702c-4.525,6.536-6.224,14.779-4.45,22.701
		c0.059,0.26,0.12,0.513,0.185,0.761c0.021,0.083,0.042,0.167,0.064,0.25c0.146,0.557,0.303,1.082,0.459,1.573
		c0.011,0.03,0.021,0.06,0.029,0.089c0.065,0.199,0.129,0.386,0.194,0.574c0.447,1.272,0.985,2.529,1.624,3.761
		c0.001,0.003,0.009,0.016,0.009,0.016S172.848,168.448,178.33,178.995z"/>
	<path fill="#B3B3B3" d="M256.175,314.743c-5.706-10.967-11.427-21.965-17.05-32.779c-6.307,0.882-7.883-1.295-8.056-1.577
		c5.453,10.485,11.012,21.171,16.559,31.835C247.737,312.372,249.807,315.065,256.175,314.743z"/>
	<path fill="#B3B3B3" d="M327.519,464.871c0.246,0.041,2.815,0.441,6.801,0.104c-0.954-1.837-10.521-20.226-24.563-47.228
		c-6.604,0.924-8.02-1.508-8.07-1.602c6.875,13.219,12.422,23.877,16.005,30.765l5.761,11.08l0.002,0.001
		c0.229,0.438,0.466,0.873,0.717,1.295C325.213,461.215,326.343,463.064,327.519,464.871z"/>
	<path fill="#890000" d="M204.992,216.344c-6.924-13.315-13.089-25.168-18.115-34.833c-6.315,0.32-8.404-2.325-8.547-2.516
		c4.717,9.066,11.115,21.367,18.606,35.77C197.103,215.034,198.667,217.229,204.992,216.344z"/>
	<path fill="#890000" d="M239.125,281.964c-6.21-11.937-12.299-23.645-18.117-34.832c-6.488,0.329-8.514-2.476-8.551-2.53
		c5.931,11.404,12.199,23.454,18.612,35.785C231.242,280.668,232.818,282.846,239.125,281.964z"/>
	<path fill="#890000" d="M274.291,349.573c-5.926-11.395-12.012-23.094-18.116-34.831c-6.368,0.323-8.438-2.371-8.547-2.52
		c6.272,12.058,12.529,24.086,18.6,35.76C266.368,348.217,267.905,350.465,274.291,349.573z"/>
	<path fill="#890000" d="M283.085,380.392c6.831,13.131,13.136,25.253,18.599,35.757c0.053,0.094,1.467,2.525,8.07,1.602
		c-5.447-10.472-11.566-22.236-18.12-34.834C285.191,383.242,283.15,380.479,283.085,380.392z"/>
	<path fill="#B3B3B3" d="M346.854,485.695c0,0-0.065-0.105-0.188-0.292c-1.39-1.048-2.748-2.144-4.076-3.284
		C345.454,484.609,346.854,485.695,346.854,485.695z"/>
	<path fill="#B3B3B3" d="M327.519,464.871c-0.012-0.002-0.028-0.006-0.028-0.006s2.744,5.261,9.109,11.879
		c1.706,1.566,3.195,2.91,4.469,4.037C335.969,476.168,331.404,470.844,327.519,464.871z"/>
	<path fill="#890000" d="M341.066,480.781c0.551,0.486,1.055,0.93,1.522,1.338c1.328,1.143,2.688,2.236,4.076,3.284
		c-1.297-2.017-9.101-14.185-12.265-20.267c0,0-0.032-0.062-0.085-0.161c-3.983,0.335-6.555-0.063-6.801-0.104
		C331.404,470.844,335.969,476.168,341.066,480.781z"/>
	<path fill="#B3B3B3" d="M390.199,356.059c-0.048-0.174-0.088-0.348-0.133-0.521C390.107,355.71,390.154,355.887,390.199,356.059z"
		/>
	<path fill="#B3B3B3" d="M391.067,337.799c0,0-0.011,0.026-0.021,0.06c0.007-0.019,0.014-0.036,0.021-0.053
		C391.067,337.805,391.065,337.801,391.067,337.799z"/>
	<path fill="#B3B3B3" d="M401.749,379.545l-0.327-0.632c7.469,14.387,16.074,30.95,16.119,31.039
		c-0.115-0.241-0.229-0.481-0.351-0.72L401.749,379.545z"/>
	<path fill="#B3B3B3" d="M419.674,423.486c0.033-0.249,0.064-0.5,0.092-0.752C419.741,422.982,419.707,423.235,419.674,423.486z"/>
	<path fill="#B3B3B3" d="M419.807,422.283c0.318-3.795-0.263-7.701-1.841-11.393C418.725,412.708,420.202,417.027,419.807,422.283z"
		/>
	<path fill="#B3B3B3" d="M392.013,360.789c0.02,0.033,0.038,0.071,0.057,0.106c-0.771-1.569-1.396-3.174-1.858-4.8
		C390.631,357.665,391.212,359.245,392.013,360.789z"/>
	<path fill="#B3B3B3" d="M417.838,410.592c-0.063-0.149-0.133-0.297-0.202-0.445C417.688,410.249,417.754,410.4,417.838,410.592z"/>
	<path fill="#B3B3B3" d="M419.896,420.672c0,0,0.889-0.325,2.463-0.783c0.967-3.498,1.234-7.754-0.874-11.811
		c-0.505-0.972-1.197-2.317-2.028-3.944c-4.83,0.165-5.862-1.812-5.862-1.812l-11.846-22.776l15.441,29.688
		c0.122,0.238,0.233,0.479,0.351,0.72v0.002c0,0,0.04,0.076,0.095,0.192c0.069,0.148,0.139,0.296,0.202,0.445
		c0.041,0.093,0.081,0.186,0.128,0.299c1.578,3.691,2.159,7.598,1.841,11.393c-0.012,0.148-0.026,0.299-0.041,0.451
		c-0.025,0.252-0.059,0.503-0.092,0.752c-0.002,0.021-0.006,0.046-0.008,0.066C420.008,421.644,419.896,420.672,419.896,420.672z"/>
	<path fill="#B3B3B3" d="M401.723,369.108c-3.819-7.577-6.636-13.169-6.636-13.169s-3.655-8.949-4.021-18.133
		c-0.009,0.017-0.016,0.034-0.021,0.053c-0.264,0.737-3.09,9.012-0.979,17.678c0.045,0.174,0.085,0.348,0.133,0.521
		c0.004,0.012,0.007,0.025,0.01,0.037c0.465,1.626,1.089,3.23,1.858,4.8c0.759,1.46,1.771,3.419,2.966,5.717
		C395.287,366.932,397.037,368.902,401.723,369.108z"/>
	<path fill="#B3B3B3" d="M401.41,378.893c0.003,0.006,0.006,0.014,0.012,0.021l0.327,0.632L401.41,378.893z"/>
	<path fill="#890000" d="M395.033,366.612c1.816,3.499,4.039,7.782,6.377,12.28l0.339,0.652l11.846,22.776
		c0,0,1.032,1.978,5.862,1.812c-4.223-8.256-12.081-23.815-17.734-35.025C397.037,368.902,395.287,366.932,395.033,366.612z"/>
	<path fill="#B3B3B3" d="M419.396,425.14c-0.018,0.071-0.028,0.143-0.045,0.212C419.368,425.28,419.381,425.209,419.396,425.14z"/>
	<path fill="#B3B3B3" d="M418.766,427.566c0.139-0.432,0.26-0.867,0.37-1.309C419.023,426.693,418.91,427.127,418.766,427.566z"/>
	<path fill="#890000" d="M419.666,423.555c-0.069,0.521-0.161,1.053-0.27,1.585c-0.018,0.069-0.028,0.143-0.045,0.212
		c-0.064,0.305-0.138,0.604-0.218,0.908c-0.11,0.439-0.231,0.877-0.37,1.309c-0.002,0.006-0.003,0.008-0.004,0.014
		c0,0,2.365-3.229,3.6-7.691c-1.574,0.458-2.463,0.783-2.463,0.783S420.008,421.644,419.666,423.555z"/>
</g>
<circle fill="#FFFFFF" stroke="#FFFFFF" stroke-width="4.803" stroke-linecap="round" stroke-linejoin="round" stroke-miterlimit="10" cx="247.633" cy="158.518" r="29.932"/>
<path stroke="#FFFFFF" stroke-width="4.803" stroke-linecap="round" stroke-linejoin="round" stroke-miterlimit="10" d="
	M267.16,152.086c6.142,11.809,1.549,26.359-10.26,32.499c-11.808,6.142-26.355,1.551-32.498-10.257
	c-6.141-11.809-1.55-26.357,10.259-32.501C246.468,135.687,261.02,140.279,267.16,152.086z"/>
<circle stroke="#FFFFFF" stroke-width="4.803" stroke-linecap="round" stroke-linejoin="round" stroke-miterlimit="10" cx="258.048" cy="155.523" r="2.148"/>
<path fill="#FFFFFF" stroke="#FFFFFF" stroke-width="4.803" stroke-linecap="round" stroke-linejoin="round" stroke-miterlimit="10" d="
	M202.83,181.822c7.626,14.664,1.921,32.736-12.738,40.361c-14.668,7.628-32.739,1.925-40.365-12.74
	c-7.629-14.665-1.924-32.736,12.74-40.364C177.131,161.453,195.201,167.158,202.83,181.822z"/>
<path stroke="#FFFFFF" stroke-width="4.803" stroke-linecap="round" stroke-linejoin="round" stroke-miterlimit="10" d="
	M200.688,186.663c6.141,11.808,1.546,26.358-10.258,32.497c-11.807,6.142-26.358,1.551-32.499-10.259
	c-6.141-11.807-1.55-26.358,10.259-32.5C179.994,170.262,194.546,174.854,200.688,186.663z"/>
<circle stroke="#FFFFFF" stroke-width="4.803" stroke-linecap="round" stroke-linejoin="round" stroke-miterlimit="10" cx="190.69" cy="191.635" r="3.106"/>
<line fill="none" stroke="#000000" stroke-width="12.7551" stroke-miterlimit="10" x1="103.389" y1="373.951" x2="451.856" y2="192.701"/>
<circle fill="#FFFFFF" stroke="#000000" stroke-width="12.7551" stroke-miterlimit="10" cx="457.701" cy="189.658" r="26.361"/>
<circle fill="#FFFFFF" stroke="#000000" stroke-width="12.7551" stroke-miterlimit="10" cx="103.386" cy="373.953" r="28.997"/>
<path fill="#FFFFFF" d="M376.489,249.239c-2.502,10.08-12.7,16.225-22.781,13.723l-18.81-4.665
	c-10.08-2.504-16.222-12.702-13.723-22.783l0,0c2.502-10.082,12.699-16.225,22.779-13.723l18.81,4.665
	C372.847,228.959,378.991,239.157,376.489,249.239L376.489,249.239z"/>
<path fill="#FFFFFF" d="M187.109,297.447c9.901,3.265,15.287,13.938,12.019,23.846l-6.092,18.477
	c-3.263,9.904-13.937,15.284-23.845,12.02l0,0c-9.902-3.266-15.282-13.94-12.019-23.845l6.091-18.475
	C166.53,299.562,177.205,294.184,187.109,297.447L187.109,297.447z"/>
<path fill="none" stroke="#FFFFFF" stroke-width="8.9285" stroke-linecap="round" stroke-linejoin="round" stroke-miterlimit="10" d="
	M213.578,267.34"/>
<path fill="none" stroke="#FFFFFF" stroke-width="8.9285" stroke-linecap="round" stroke-linejoin="round" stroke-miterlimit="10" d="
	M193.824,294.227"/>
<path fill="none" stroke="#FFFFFF" stroke-width="8.9285" stroke-linecap="round" stroke-linejoin="round" stroke-miterlimit="10" d="
	M279.961,224.062c0,0,26.493-19.088,48.521,5.468"/>
<path fill="none" stroke="#FFFFFF" stroke-width="8.9285" stroke-linecap="round" stroke-linejoin="round" stroke-miterlimit="10" d="
	M177.773,294.588c0,0-7.486-20.553,27.455-37.168"/>
<circle cx="238.38" cy="224.649" r="8.364"/>
<polyline fill="none" stroke="#FFFFFF" stroke-width="20" stroke-linecap="round" stroke-linejoin="round" stroke-miterlimit="10" points="
	107.085,607.825 219.772,541.819 481.443,739.839 "/>
<polygon fill="#FFFFFF" stroke="#FFFFFF" stroke-width="20" stroke-linecap="round" stroke-linejoin="round" stroke-miterlimit="10" points="
	495.467,720.051 465.684,756.533 512.801,764.601 "/>
<path d="M111.042,244.505c0,0,16.396-3.226,16.782-33.955c0.388-30.728-8.494-29.88-13.832-19.847L111.042,244.505z"/>
<path fill="#0B0146" d="M86.939,251.603c0.186-0.056,0.372-0.112,0.563-0.181c16.899-6.112,23.54-6.917,23.54-6.917
	s6.26-13.372,7.99-25.685c1.731-12.313-5.04-28.117-5.04-28.117s-10.377-16.248-19.167-15.69c1.109,7.524,0.911,20.654-1.309,41.821
	C91.632,234.804,89.222,245.39,86.939,251.603z"/>
<path fill="#0B0117" d="M85.935,185.431c-7.847,25.935-15.16,71.056,1.004,66.172c2.283-6.213,4.693-16.799,6.578-34.77
	c2.22-21.167,2.418-34.297,1.309-41.821C91.376,175.231,88.172,178.037,85.935,185.431z"/>
<circle fill="#579BCC" cx="103.704" cy="202.77" r="3.4"/>
<g>
	<ellipse fill="#FFFFFF" cx="469.287" cy="568.03" rx="57.525" ry="51.198"/>
	<ellipse fill="#FFFFFF" cx="527.671" cy="588.569" rx="45.505" ry="40.528"/>
	<circle fill="#FFFFFF" cx="527.545" cy="543.755" r="33.36"/>
</g>
<g>
	<ellipse fill="#FFFFFF" cx="93.194" cy="86.532" rx="24.257" ry="18.658"/>
	<ellipse fill="#FFFFFF" cx="119.318" cy="94.213" rx="26.124" ry="20.63"/>
	<ellipse fill="#FFFFFF" cx="73.602" cy="98.842" rx="27.057" ry="25.259"/>
	<circle fill="#FFFFFF" cx="84.798" cy="75.76" r="15.861"/>
	<circle fill="#FFFFFF" cx="105.323" cy="109.887" r="12.129"/>
</g>
<path fill="#FFFFFF" stroke="#000000" stroke-miterlimit="10" d="M236.275,231.837c0,0,1.045-1.722,4.575-3.34
	c3.53-1.618,4.601-1.529,4.601-1.529s-1.166,2.202-3.545,3.924C239.527,232.614,236.275,231.837,236.275,231.837z"/>
<path fill="none" stroke="#FFFFFF" stroke-width="8.9285" stroke-linecap="square" stroke-linejoin="round" stroke-miterlimit="10" d="
	M222.209,175.167c0,0-4.791,3.238-18.441,10.257"/>
</svg>
