<?xml version="1.0" encoding="utf-8"?>
<!-- Generator: Adobe Illustrator 16.0.4, SVG Export Plug-In . SVG Version: 6.00 Build 0)  -->
<!DOCTYPE svg PUBLIC "-//W3C//DTD SVG 1.1//EN" "http://www.w3.org/Graphics/SVG/1.1/DTD/svg11.dtd">
<svg version="1.1" id="Calque_1" xmlns="http://www.w3.org/2000/svg" xmlns:xlink="http://www.w3.org/1999/xlink" x="0px" y="0px"
	 width="600px" height="1000px" viewBox="0 0 600 1000" enable-background="new 0 0 600 1000" xml:space="preserve">
<g id="Calque_1_1_">
	<rect fill="#579BCC" width="600" height="1000"/>
</g>
<g id="Calque_2">
</g>
<g id="texte">
</g>
<path fill="none" stroke="#000000" stroke-width="7.4045" stroke-miterlimit="10" d="M-10.5,387.607
	c0,0,119.807,95.672,331.081,95.672c211.272,0,285.904-36.783,285.904-36.783"/>
<g>
	<path fill="#FFFFFF" d="M353.594,431.873c-0.021,0.028-0.049,0.056-0.069,0.083c0.01-0.011,0.018-0.021,0.024-0.03
		C353.564,431.908,353.578,431.892,353.594,431.873z"/>
	<path fill="#FFFFFF" d="M311.56,413.241l0.438-4.441c-0.003,0.021-0.007,0.045-0.013,0.079
		C311.913,409.343,311.677,411.028,311.56,413.241z"/>
	<path fill="#FFFFFF" d="M364.65,364.364c-0.027,0.226-0.062,0.449-0.084,0.676l-0.562,5.674c0,0.002,0.002,0.025,0.005,0.06
		C364.269,368.196,364.487,366,364.65,364.364z"/>
	<path fill="#FFFFFF" d="M359.198,419.369c-0.009,0.071-0.02,0.144-0.026,0.216c0.02-0.125,0.026-0.213,0.026-0.213V419.369z"/>
	<path fill="#FFFFFF" d="M301.663,219.597c-11.305-1.112-18.022-3-22.027-4.88c-1.194,12.129-2.408,24.466-3.619,36.769
		c3.673,2.138,9.673,4.193,19.506,5.162c25,2.459,32.063-6.304,32.068-6.31l3.463-35.188
		C330.979,215.604,329.377,222.325,301.663,219.597z"/>
	<path fill="#FFFFFF" d="M286.671,371.92c-11.305-1.112-18.021-3.002-22.026-4.882c-2.981,30.289-5.011,50.916-5.214,52.977
		c5.741,3.09,15.688,6.568,29.136,4.237c20.717-3.596,23.186-14.055,23.417-15.373c0.008-0.049,0.011-0.071,0.014-0.092
		l4.067-41.318C315.991,367.91,314.417,374.648,286.671,371.92z"/>
	<path fill="#FFFFFF" d="M308.907,145.985c-11.308-1.112-18.021-3-22.026-4.879c-1.059,10.76-2.202,22.373-3.399,34.538
		c3.673,2.139,9.673,4.195,19.507,5.163c25.005,2.46,32.063-6.313,32.063-6.313l-0.614,6.269l3.859-39.241
		C338.286,141.649,337.331,148.783,308.907,145.985z"/>
	<path fill="#FFFFFF" d="M293.649,72.351c-0.217,2.198-1.286,13.061-2.922,29.681c3.674,2.138,9.674,4.193,19.507,5.161
		c24.944,2.456,32.03-6.266,32.062-6.307l1.845-18.74c1.562-15.839-10.018-29.944-25.854-31.503
		c-4.826-0.475-9.489,0.275-13.688,1.988c1.027-0.407,2.105-0.78,3.257-1.104C307.857,51.527,294.965,58.966,293.649,72.351z"/>
	<path fill="#FFFFFF" d="M294.198,295.44c-11.305-1.113-18.022-3.002-22.026-4.882c-1.271,12.922-2.509,25.493-3.681,37.403
		c3.673,2.139,9.673,4.194,19.507,5.162c24.901,2.45,32.008-6.232,32.066-6.305l3.524-35.835
		C323.538,291.336,322.144,298.19,294.198,295.44z"/>
	<path fill="#FFFFFF" d="M271.538,466.984c-3.054-3.899-5.6-7.78-7.706-11.562C266.068,459.498,268.656,463.358,271.538,466.984z"/>
	<path fill="#FFFFFF" d="M287.661,71.769c0.136-0.497,0.293-1.022,0.474-1.569C287.963,70.717,287.804,71.239,287.661,71.769z"/>
	<path fill="#FFFFFF" d="M287.485,72.446c0.048-0.192,0.096-0.385,0.15-0.587C287.583,72.054,287.533,72.25,287.485,72.446z"/>
	<path fill="#FFFFFF" d="M376.375,344.509c-4.816,3.482-8.542,8.433-10.476,14.272C368.865,350.371,375.752,344.982,376.375,344.509
		z"/>
	<path fill="#FFFFFF" d="M388.123,478.491c-1.58,1.314-3.138,2.542-4.669,3.678C385.056,481.001,386.61,479.771,388.123,478.491z"/>
	<path fill="#FFFFFF" d="M359.042,420.388c0.021-0.118,0.039-0.219,0.056-0.317C359.08,420.176,359.061,420.281,359.042,420.388z"/>
	<path fill="#FFFFFF" d="M365.715,359.328c0.004-0.012,0.008-0.023,0.012-0.035C365.723,359.305,365.719,359.316,365.715,359.328z"
		/>
	<path fill="#FFFFFF" d="M354.08,431.293c0.095-0.119,0.188-0.236,0.281-0.354C354.269,431.058,354.175,431.176,354.08,431.293z"/>
	<path fill="#FFFFFF" d="M288.217,69.955c0.083-0.243,0.168-0.488,0.261-0.738C288.386,69.461,288.302,69.708,288.217,69.955z"/>
	<path fill="#FFFFFF" d="M255.364,395.799c0.76-7.726,1.937-19.683,3.396-34.511c0-0.002,0-0.008,0-0.008l3.947-40.111
		c0,0,0,0.007,0,0.009c1.135-11.532,2.338-23.758,3.578-36.355c0-0.015,0.001-0.022,0.001-0.022l1.432-14.552l-13.581,137.98
		c0,0.001,0,0.002,0,0.003v-0.002L255.364,395.799z"/>
	<path fill="#FFFFFF" d="M277.701,168.854c1.17-11.896,2.279-23.161,3.294-33.47c0-0.004,0-0.01,0-0.013l-4.446,45.17l1.151-11.692
		C277.7,168.849,277.701,168.853,277.701,168.854z"/>
	<path fill="#FFFFFF" d="M360.199,460.449c-0.534-18.099-14.738-22.435-14.738-22.435c0.002-0.002,0.004-0.003,0.006-0.004
		c-3.757,1.743-8.009,2.543-12.42,2.109c-5.466-0.538-10.322-2.882-14.048-6.375c0.045,0.044,0.074,0.072,0.074,0.072
		s-2.598,21.865-19.491,28.991c-16.564,6.988-27.07,4.964-27.481,4.881c13.265,16.319,32.762,27.565,55.301,29.785
		c7.069,0.695,14.022,0.459,20.736-0.604C348.192,496.8,360.729,478.513,360.199,460.449z"/>
	<path fill="#FFFFFF" d="M273.75,208.996c0-0.003,0-0.01,0-0.014l-3.515,35.717c0,0.001,0,0.005,0,0.008
		C271.412,232.745,272.592,220.758,273.75,208.996z"/>
	<path fill="#FFFFFF" d="M286.79,76.502c0,0,0.001-0.014,0.001-0.018C286.791,76.49,286.79,76.495,286.79,76.502l-1.847,18.75
		c0,0.002,0,0.003,0,0.007C286.108,83.428,286.79,76.502,286.79,76.502z"/>
	<path fill="#FFFFFF" d="M387.972,421.461c-13.396-1.316-20.363-3.726-23.989-5.917c-0.19,1.816-0.349,3.322-0.453,4.411
		c-0.448,4.552-2.999,7.969-5.722,10.371c4.271,1.299,13.353,4.585,21.853,11.058c11.494,8.749,9.363,35.771,9.312,36.377
		c15.183-13.207,25.563-31.979,27.688-53.539l0.711-7.225C417.354,417.112,416.419,424.262,387.972,421.461z"/>
	<path fill="#FFFFFF" d="M396.068,339.183c-7.265-0.714-14.155,1.34-19.646,5.293c-4.711,7.895-6.536,17.388-6.536,17.388
		s-0.693,6.22-1.633,14.655c3.448,2.47,9.696,5.036,21.046,6.152c25,2.46,32.064-6.308,32.068-6.312l0.559-5.677
		C423.485,354.849,411.908,340.743,396.068,339.183z"/>
	<polygon fill="#FF0000" points="338.302,141.516 342.302,100.884 342.3,100.886 338.301,141.522 	"/>
	<path fill="#FF0000" d="M284.943,95.239l-3.947,40.111c0,0,0,0.008-0.001,0.021l3.948-40.119
		C284.943,95.247,284.943,95.239,284.943,95.239z"/>
	<path fill="#FF0000" d="M284.944,95.258c0-0.003,0-0.005,0-0.007l-3.948,40.119c0,0.003,0,0.009,0,0.013
		C282.585,119.227,283.943,105.429,284.944,95.258z"/>
	<path fill="#FF0000" d="M310.234,107.193c-9.833-0.968-15.833-3.023-19.507-5.161c-1.067,10.842-2.376,24.138-3.846,39.074
		c4.004,1.879,10.721,3.767,22.026,4.879c28.424,2.798,29.379-4.336,29.394-4.463l3.999-40.636
		C342.268,100.927,335.182,109.649,310.234,107.193z"/>
	<path fill="#FF0000" d="M331.059,215.124l3.383-34.361l-3.387,34.386C331.058,215.134,331.059,215.124,331.059,215.124z"/>
	<path fill="#FF0000" d="M273.751,208.959c0,0-0.001,0.009-0.001,0.024l2.799-28.442L273.751,208.959z"/>
	<path fill="#FF0000" d="M277.701,168.854v-0.005l-1.151,11.692l-2.799,28.442c0,0.003,0,0.01,0,0.014
		C275.111,195.163,276.441,181.647,277.701,168.854z"/>
	<path fill="#FF0000" d="M302.989,180.807c-9.834-0.968-15.834-3.024-19.507-5.163c-1.235,12.549-2.528,25.682-3.846,39.073
		c4.005,1.879,10.722,3.768,22.027,4.88c27.714,2.728,29.315-3.993,29.392-4.448l3.387-34.386l0.614-6.269
		C335.056,174.494,327.994,183.267,302.989,180.807z"/>
	<path fill="#FF0000" d="M323.594,290.967l3.998-40.629l0,0l-4,40.646C323.593,290.974,323.594,290.967,323.594,290.967z"/>
	<polygon fill="#FF0000" points="270.234,244.693 267.72,270.247 270.234,244.7 	"/>
	<path fill="#FF0000" d="M266.287,284.821c1.289-13.094,2.617-26.586,3.948-40.113c0-0.003,0-0.007,0-0.008l-2.515,25.547
		l-1.432,14.552C266.288,284.799,266.287,284.808,266.287,284.821z"/>
	<path fill="#FF0000" d="M295.524,256.648c-9.833-0.968-15.833-3.024-19.506-5.162c-1.296,13.166-2.587,26.29-3.846,39.072
		c4.004,1.88,10.721,3.77,22.026,4.882c27.945,2.75,29.34-4.104,29.394-4.457l4-40.646
		C327.587,250.344,320.522,259.107,295.524,256.648z"/>
	<path fill="#FF0000" d="M316.067,367.445l4-40.63l-0.003,0.003l-4,40.649C316.066,367.454,316.067,367.445,316.067,367.445z"/>
	<path fill="#FF0000" d="M287.998,333.124c-9.834-0.968-15.834-3.023-19.507-5.162c-1.391,14.132-2.689,27.328-3.846,39.076
		c4.004,1.88,10.721,3.77,22.026,4.882c27.746,2.729,29.32-4.01,29.396-4.451l4-40.649
		C320.006,326.892,312.899,335.574,287.998,333.124z"/>
	<path fill="#FF0000" d="M262.708,321.169l-3.947,40.111c0,0,0,0.006,0,0.008c1.16-11.781,2.498-25.379,3.948-40.11
		C262.708,321.176,262.708,321.169,262.708,321.169z"/>
	<polygon fill="#FF0000" points="421.349,376.344 417.347,416.978 417.347,416.978 	"/>
	<path fill="#FF0000" d="M364.008,370.714v-0.002l-1.363,13.854c0.004-0.009,0.005-0.017,0.005-0.023L364.008,370.714z"/>
	<path fill="#FF0000" d="M364.013,370.772c-0.003-0.033-0.005-0.058-0.005-0.06l-1.358,13.828
		C363.146,379.497,363.623,374.696,364.013,370.772z"/>
	<path fill="#FF0000" d="M389.299,382.671c-11.35-1.116-17.598-3.684-21.046-6.152c-1.387,12.479-3.302,29.803-4.271,39.025
		c3.626,2.191,10.595,4.601,23.989,5.917c28.447,2.801,29.382-4.349,29.396-4.464l4.001-40.639
		C421.363,376.363,414.299,385.131,389.299,382.671z"/>
	<path fill="#FF0000" d="M258.619,444.219c0,0-0.581-1.675-1.619-5.324c-0.188-0.646-0.374-1.3-0.546-1.951
		c-0.451-1.643-0.965-3.576-1.537-5.822c1.286,6.743,3.854,15.226,8.915,24.307c-2.029-3.691-3.766-7.559-5.21-11.555
		C258.62,444.092,258.619,444.219,258.619,444.219z"/>
	<path fill="#FF0000" d="M272.081,467.688c0,0,0.011,0.004,0.02,0.006c-0.19-0.234-0.375-0.475-0.563-0.708
		C271.722,467.22,271.894,467.454,272.081,467.688z"/>
	<path fill="#FF0000" d="M318.999,433.748c-0.587-0.578-4.773-4.835-6.527-10.379c-1.01-3.189-1.068-7.135-0.912-10.128
		l-0.062,0.631C310.739,421.586,313.739,428.815,318.999,433.748z"/>
	<path fill="#FF0000" d="M312.005,408.74c0,0-0.005,0.032-0.008,0.047l-0.001,0.013C312.002,408.765,312.005,408.74,312.005,408.74z
		"/>
	<path fill="#FF0000" d="M311.996,408.8l0.001-0.013c-0.003,0.021-0.006,0.043-0.014,0.092
		C311.989,408.845,311.993,408.821,311.996,408.8z"/>
	<path fill="#FF0000" d="M257,438.894c-0.17-0.602-0.351-1.242-0.546-1.951C256.626,437.595,256.812,438.245,257,438.894z"/>
	<path fill="#FF0000" d="M299.582,462.812c16.896-7.127,19.491-28.992,19.491-28.992s-0.029-0.028-0.074-0.072
		c-5.26-4.933-8.26-12.162-7.502-19.876l0.062-0.631c0.117-2.213,0.354-3.898,0.427-4.362c-0.23,1.318-2.699,11.777-23.417,15.373
		c-13.448,2.331-23.395-1.146-29.136-4.237c-0.011,0.113-0.018,0.185-0.018,0.185c-0.671,6.818-0.779,21.273-0.792,23.672
		c1.444,3.996,3.182,7.86,5.21,11.555c2.106,3.779,4.652,7.66,7.706,11.562c0.188,0.233,0.373,0.474,0.563,0.708
		C272.512,467.775,283.018,469.803,299.582,462.812z"/>
	<path fill="#FF0000" d="M348.138,496.88c0,0,15.368,0.084,35.316-14.711c-10.297,7.512-22.354,12.658-35.313,14.707
		C348.14,496.877,348.138,496.88,348.138,496.88z"/>
	<path fill="#FF0000" d="M388.969,477.789c0,0,0.002-0.021,0.002-0.028c-0.278,0.244-0.562,0.489-0.848,0.73
		C388.405,478.256,388.686,478.03,388.969,477.789z"/>
	<path fill="#FF0000" d="M351.628,433.903c0.229-0.21,0.457-0.425,0.678-0.646c0.056-0.052,0.104-0.104,0.152-0.152
		c0.367-0.371,0.721-0.757,1.063-1.149c-1.443,1.527-3.929,3.677-8.058,6.058c1.845-0.854,3.572-1.938,5.137-3.219
		C350.965,434.506,351.297,434.205,351.628,433.903z"/>
	<path fill="#FF0000" d="M352.306,433.261c-0.221,0.222-0.445,0.436-0.678,0.646C351.861,433.691,352.087,433.478,352.306,433.261z"
		/>
	<path fill="#FF0000" d="M379.657,441.384c-8.5-6.473-17.581-9.759-21.853-11.058c-3.47,3.063-7.214,4.478-7.214,4.478
		c0.004-0.003,0.006-0.006,0.011-0.009c-1.562,1.281-3.293,2.362-5.138,3.22c-0.002,0-0.004,0.002-0.006,0.003
		c0,0,14.204,4.336,14.738,22.435c0.528,18.062-12.007,36.351-12.062,36.427c12.959-2.049,25.02-7.194,35.313-14.707
		c1.53-1.136,3.089-2.359,4.669-3.678c0.285-0.241,0.564-0.486,0.848-0.729C389.021,477.151,391.151,450.133,379.657,441.384z"/>
	<path fill="#FF0000" d="M353.549,431.926c-0.01,0.012-0.018,0.021-0.024,0.03c-0.346,0.396-0.696,0.778-1.063,1.149
		C352.842,432.718,353.207,432.325,353.549,431.926z"/>
	<path fill="#B3B3B3" d="M287.635,71.859c0.008-0.03,0.017-0.06,0.025-0.09C287.652,71.799,287.643,71.83,287.635,71.859z"/>
	<path fill="#B3B3B3" d="M286.791,76.484c0.137-1.381,0.374-2.729,0.694-4.038C286.9,74.794,286.797,76.374,286.791,76.484z"/>
	<path fill="#B3B3B3" d="M253.77,416.192c0,0,0.014,0.013,0.023,0.021c0.002-2.155,0.064-4.323,0.239-6.507
		c0.022-0.49,0.059-0.984,0.107-1.477c-0.004,0.037-1.577,13.613,0.755,22.798c0.008,0.028,0.015,0.059,0.023,0.09
		C253.197,422.097,253.77,416.192,253.77,416.192z"/>
	<path fill="#B3B3B3" d="M288.135,70.2c0.027-0.082,0.054-0.163,0.082-0.245C288.189,70.037,288.161,70.119,288.135,70.2z"/>
	<path fill="#B3B3B3" d="M304.604,52.631c-9.659,3.83-14.1,11.075-16.125,16.586C291.319,61.612,297.243,55.635,304.604,52.631z"/>
	<path fill="#B3B3B3" d="M268.491,327.962c1.172-11.91,2.41-24.48,3.681-37.403c-5.836-2.741-5.896-5.464-5.885-5.737
		c-1.24,12.598-2.443,24.823-3.578,36.355C262.713,321.287,262.915,324.716,268.491,327.962z"/>
	<path fill="#B3B3B3" d="M283.482,175.644c1.197-12.165,2.34-23.777,3.399-34.538c-5.783-2.714-5.896-5.406-5.887-5.723
		c-1.015,10.31-2.124,21.574-3.294,33.47C277.703,168.919,277.869,172.376,283.482,175.644z"/>
	<path fill="#B3B3B3" d="M284.944,95.258c0.014,0.238,0.319,3.594,5.783,6.774c1.636-16.62,2.705-27.483,2.922-29.681
		c1.316-13.385,14.208-20.824,14.208-20.824c-1.148,0.324-2.229,0.697-3.257,1.104c-7.358,3.003-13.285,8.98-16.125,16.586
		c-0.092,0.25-0.178,0.496-0.261,0.738c-0.028,0.082-0.055,0.163-0.082,0.245c-0.181,0.547-0.338,1.072-0.474,1.569
		c-0.008,0.03-0.017,0.06-0.025,0.09c-0.055,0.202-0.103,0.395-0.15,0.587c-0.32,1.31-0.557,2.657-0.694,4.038
		c0,0.004-0.001,0.018-0.001,0.018S286.108,83.428,284.944,95.258z"/>
	<path fill="#B3B3B3" d="M276.018,251.486c1.211-12.303,2.425-24.64,3.619-36.769c-5.765-2.706-5.895-5.391-5.887-5.721
		c-1.158,11.761-2.337,23.749-3.515,35.711C270.245,244.893,270.507,248.279,276.018,251.486z"/>
	<path fill="#B3B3B3" d="M253.793,416.214c0.184,0.168,2.118,1.907,5.638,3.801c0.203-2.061,2.233-22.688,5.214-52.977
		c-6.037-2.834-5.893-5.644-5.884-5.75c-1.459,14.828-2.636,26.785-3.396,34.511l-1.225,12.431v0.002
		c-0.048,0.492-0.085,0.985-0.107,1.477C253.857,411.892,253.795,414.058,253.793,416.214z"/>
	<path fill="#890000" d="M286.881,141.106c1.47-14.936,2.778-28.232,3.846-39.074c-5.464-3.18-5.769-6.536-5.783-6.774
		c-1.001,10.17-2.359,23.969-3.949,40.125C280.986,135.7,281.098,138.392,286.881,141.106z"/>
	<path fill="#890000" d="M279.636,214.717c1.318-13.392,2.611-26.524,3.846-39.073c-5.613-3.268-5.779-6.725-5.781-6.79
		c-1.259,12.793-2.589,26.31-3.951,40.143C273.741,209.327,273.871,212.011,279.636,214.717z"/>
	<path fill="#890000" d="M272.172,290.558c1.258-12.781,2.55-25.905,3.846-39.071c-5.511-3.207-5.773-6.593-5.783-6.778
		c-1.332,13.527-2.659,27.021-3.948,40.113C266.276,285.095,266.336,287.817,272.172,290.558z"/>
	<path fill="#890000" d="M262.708,321.178c-1.45,14.731-2.788,28.329-3.948,40.11c-0.008,0.106-0.152,2.916,5.884,5.75
		c1.156-11.748,2.455-24.944,3.846-39.076C262.915,324.716,262.713,321.287,262.708,321.178z"/>
	<path fill="#B3B3B3" d="M258.619,444.219c0,0,0-0.127,0.002-0.349c-0.592-1.637-1.133-3.296-1.621-4.979
		C258.038,442.544,258.619,444.219,258.619,444.219z"/>
	<path fill="#B3B3B3" d="M253.793,416.214c-0.009-0.009-0.023-0.021-0.023-0.021s-0.573,5.903,1.147,14.926
		c0.571,2.246,1.086,4.183,1.537,5.822C254.703,430.29,253.787,423.338,253.793,416.214z"/>
	<path fill="#890000" d="M256.454,436.94c0.195,0.709,0.376,1.353,0.546,1.951c0.488,1.683,1.029,3.342,1.621,4.979
		c0.013-2.396,0.121-16.854,0.792-23.672c0,0,0.007-0.07,0.018-0.185c-3.52-1.894-5.455-3.633-5.638-3.801
		C253.787,423.338,254.703,430.29,256.454,436.94z"/>
	<path fill="#B3B3B3" d="M365.727,359.293c0.057-0.173,0.116-0.341,0.176-0.512C365.84,358.95,365.783,359.122,365.727,359.293z"/>
	<path fill="#B3B3B3" d="M376.425,344.471c0,0-0.021,0.017-0.05,0.038c0.016-0.012,0.031-0.021,0.047-0.033
		C376.423,344.474,376.424,344.472,376.425,344.471z"/>
	<path fill="#B3B3B3" d="M362.575,385.274l0.066-0.709c-1.599,16.132-3.437,34.708-3.443,34.804
		c0.035-0.264,0.069-0.526,0.099-0.792L362.575,385.274z"/>
	<path fill="#B3B3B3" d="M353.594,431.873c0.164-0.19,0.327-0.384,0.486-0.58C353.925,431.487,353.758,431.681,353.594,431.873z"/>
	<path fill="#B3B3B3" d="M354.361,430.938c2.339-3.005,3.983-6.595,4.681-10.549C358.685,422.325,357.562,426.751,354.361,430.938z"
		/>
	<path fill="#B3B3B3" d="M364.662,364.245c-0.004,0.038-0.008,0.081-0.012,0.119c0.212-1.734,0.562-3.42,1.062-5.036
		C365.21,360.874,364.835,362.515,364.662,364.245z"/>
	<path fill="#B3B3B3" d="M359.098,420.069c0.026-0.161,0.054-0.322,0.074-0.484C359.157,419.699,359.132,419.862,359.098,420.069z"
		/>
	<path fill="#B3B3B3" d="M355.316,429.638c0,0,0.924,0.213,2.488,0.688c2.723-2.402,5.271-5.819,5.722-10.371
		c0.104-1.089,0.263-2.595,0.45-4.411c-4.136-2.5-3.919-4.72-3.919-4.72l2.518-25.55l-3.278,33.303
		c-0.024,0.266-0.062,0.528-0.099,0.792v0.003c0,0-0.013,0.088-0.026,0.213c-0.021,0.162-0.048,0.323-0.074,0.484
		c-0.017,0.1-0.031,0.199-0.056,0.317c-0.694,3.956-2.342,7.546-4.681,10.551c-0.095,0.118-0.188,0.235-0.281,0.354
		c-0.159,0.196-0.322,0.391-0.486,0.58c-0.016,0.018-0.026,0.035-0.045,0.053C354.88,430.512,355.316,429.638,355.316,429.638z"/>
	<path fill="#B3B3B3" d="M368.253,376.517c0.938-8.436,1.633-14.654,1.633-14.654s1.825-9.493,6.536-17.389
		c-0.016,0.013-0.031,0.022-0.047,0.034c-2.761,1.442-7.51,5.862-10.476,14.272c-0.06,0.171-0.119,0.339-0.176,0.512
		c-0.004,0.012-0.008,0.023-0.012,0.035c-0.499,1.616-0.853,3.302-1.062,5.036c-0.163,1.636-0.385,3.832-0.641,6.408
		C364.05,371.18,364.44,373.786,368.253,376.517z"/>
	<path fill="#B3B3B3" d="M362.646,384.542c0,0.008-0.004,0.016-0.005,0.023l-0.066,0.709L362.646,384.542z"/>
	<path fill="#890000" d="M364.013,370.772c-0.39,3.924-0.863,8.725-1.363,13.77l-0.071,0.732l-2.518,25.55
		c0,0-0.217,2.22,3.922,4.72c0.972-9.224,2.887-26.548,4.271-39.025C364.44,373.786,364.05,371.18,364.013,370.772z"/>
	<path fill="#B3B3B3" d="M352.458,433.105c-0.052,0.052-0.1,0.104-0.152,0.152C352.357,433.21,352.407,433.157,352.458,433.105z"/>
	<path fill="#B3B3B3" d="M350.604,434.795c0.354-0.286,0.69-0.585,1.024-0.892C351.297,434.205,350.965,434.506,350.604,434.795z"/>
	<path fill="#890000" d="M353.549,431.926c-0.342,0.399-0.707,0.792-1.091,1.183c-0.051,0.052-0.101,0.104-0.152,0.152
		c-0.219,0.218-0.441,0.434-0.678,0.646c-0.334,0.307-0.674,0.604-1.024,0.892c-0.004,0.003-0.006,0.006-0.01,0.01
		c0,0,3.744-1.411,7.214-4.479c-1.564-0.479-2.488-0.688-2.488-0.688S354.88,430.512,353.549,431.926z"/>
</g>
<circle fill="#FFFFFF" stroke="#FFFFFF" stroke-width="4.803" stroke-linecap="round" stroke-linejoin="round" stroke-miterlimit="10" cx="354.181" cy="115.952" r="29.932"/>
<path stroke="#FFFFFF" stroke-width="4.803" stroke-linecap="round" stroke-linejoin="round" stroke-miterlimit="10" d="
	M374.052,121.229c-1.305,13.246-13.098,22.926-26.342,21.622c-13.247-1.304-22.927-13.096-21.624-26.342
	c1.306-13.246,13.097-22.926,26.344-21.623C365.674,96.191,375.355,107.984,374.052,121.229z"/>
<circle fill="#FFFFFF" stroke="#FFFFFF" stroke-width="4.803" stroke-linecap="round" stroke-linejoin="round" stroke-miterlimit="10" cx="364.541" cy="119.131" r="2.148"/>
<path fill="#FFFFFF" stroke="#FFFFFF" stroke-width="4.803" stroke-linecap="round" stroke-linejoin="round" stroke-miterlimit="10" d="
	M303.923,111.006c-1.62,16.449-16.269,28.473-32.715,26.854c-16.452-1.62-28.476-16.268-26.856-32.718
	c1.62-16.45,16.268-28.473,32.718-26.854C293.518,79.907,305.541,94.556,303.923,111.006z"/>
<path stroke="#FFFFFF" stroke-width="4.803" stroke-linecap="round" stroke-linejoin="round" stroke-miterlimit="10" d="
	M299.484,113.891c-1.308,13.245-13.104,22.925-26.341,21.621c-13.245-1.304-22.927-13.096-21.622-26.342
	c1.304-13.245,13.097-22.927,26.343-21.623C291.105,88.851,300.788,100.645,299.484,113.891z"/>
<circle fill="#FFFFFF" stroke="#FFFFFF" stroke-width="4.803" stroke-linecap="round" stroke-linejoin="round" stroke-miterlimit="10" cx="288.394" cy="112.596" r="3.105"/>
<path d="M297.288,158.517c0,0,13.603,2.657,23.538,1.578c0,0-3.214,14.258-13.581,13.497
	C296.883,172.832,297.288,158.517,297.288,158.517z"/>
<line fill="none" stroke="#000000" stroke-width="12.7551" stroke-miterlimit="10" x1="115.693" y1="217.646" x2="506.591" y2="256.119"/>
<circle fill="#FFFFFF" stroke="#000000" stroke-width="12.7551" stroke-miterlimit="10" cx="513.148" cy="256.763" r="26.362"/>
<circle fill="#FFFFFF" stroke="#000000" stroke-width="12.7551" stroke-miterlimit="10" cx="115.69" cy="217.645" r="28.997"/>
<path fill="#FFFFFF" d="M412.579,262.32c-7.604,7.079-19.5,6.656-26.578-0.946l-13.209-14.18c-7.077-7.602-6.65-19.498,0.948-26.578
	l0,0c7.602-7.078,19.498-6.657,26.576,0.945l13.209,14.18C420.603,243.342,420.18,255.242,412.579,262.32L412.579,262.32z"/>
<path fill="#FFFFFF" d="M227.606,199.28c6.513,8.142,5.194,20.023-2.954,26.539l-15.193,12.151
	c-8.143,6.515-20.021,5.191-26.539-2.955l0,0c-6.512-8.144-5.189-20.021,2.954-26.537l15.192-12.15
	C209.213,189.811,221.093,191.136,227.606,199.28L227.606,199.28z"/>
<path fill="none" stroke="#FFFFFF" stroke-width="8.9285" stroke-linecap="round" stroke-linejoin="round" stroke-miterlimit="10" d="
	M266.222,188.514"/>
<path fill="none" stroke="#FFFFFF" stroke-width="8.9285" stroke-linecap="round" stroke-linejoin="round" stroke-miterlimit="10" d="
	M234.991,200.249"/>
<path fill="none" stroke="#FFFFFF" stroke-width="8.9285" stroke-linecap="round" stroke-linejoin="round" stroke-miterlimit="10" d="
	M345.467,188.514c0,0,32.618-1.522,37.659,31.079"/>
<path fill="none" stroke="#FFFFFF" stroke-width="8.9285" stroke-linecap="round" stroke-linejoin="round" stroke-miterlimit="10" d="
	M221.348,191.786c0,0,4.953-21.305,43.297-16.142"/>
<path d="M282.255,64.883c0,0,5.174,21.133,45.17,19.804c39.996-1.328,38.363-12.832,24.994-19.177L282.255,64.883z"/>
<path fill="#0B0146" d="M271.584,33.951c0.083,0.239,0.167,0.477,0.269,0.722c8.959,21.619,10.402,30.21,10.402,30.21
	s17.77,7.344,33.89,8.861c16.12,1.517,36.274-8.234,36.274-8.234s20.516-14.468,19.267-25.868
	c-9.721,1.892-26.812,2.417-54.479,0.792C293.716,39.054,279.802,36.55,271.584,33.951z"/>
<path fill="#0B0117" d="M357.604,28.696c-34.203-8.659-93.335-15.481-86.02,5.254c8.218,2.599,22.132,5.103,45.622,6.483
	c27.665,1.625,44.759,1.1,54.479-0.792C371.195,35.167,367.354,31.166,357.604,28.696z"/>
<circle fill="#579BCC" cx="336.108" cy="52.846" r="4.428"/>
<g>
	<ellipse fill="#FFFFFF" cx="504.437" cy="598.455" rx="63.796" ry="51.197"/>
	<ellipse fill="#FFFFFF" cx="439.688" cy="618.994" rx="50.465" ry="40.527"/>
	<ellipse fill="#FFFFFF" cx="439.828" cy="574.18" rx="36.997" ry="33.36"/>
</g>
<g>
	<ellipse fill="#FFFFFF" cx="120.43" cy="360.495" rx="24.257" ry="18.658"/>
	<ellipse fill="#FFFFFF" cx="146.553" cy="368.175" rx="26.124" ry="20.631"/>
	<ellipse fill="#FFFFFF" cx="100.837" cy="372.804" rx="27.057" ry="25.26"/>
	<circle fill="#FFFFFF" cx="112.033" cy="349.722" r="15.861"/>
	<circle fill="#FFFFFF" cx="132.558" cy="383.849" r="12.129"/>
</g>
<path fill="none" stroke="#000000" stroke-miterlimit="10" d="M516.29,441.556v25.071c0,0-2.105,0.992-2.105,3.18"/>
<path fill="#FED45B" d="M500.014,393.742c-7.11,0-12.938,5.467-13.526,12.426l-7.759-2.131l6.148,3.74l-5.021,4.9l6.736-3.319
	c0.981,6.539,6.606,11.558,13.419,11.558c7.504,0,13.587-6.083,13.587-13.587S507.518,393.742,500.014,393.742z"/>
<circle cx="496.565" cy="404.037" r="3.74"/>
<circle fill="#FFFFFF" cx="496.008" cy="402.269" r="0.557"/>
<path fill="none" stroke="#000000" stroke-miterlimit="10" d="M516.29,466.485c0,0-2.105-1.348-4.981,0.735"/>
<path fill="none" stroke="#000000" stroke-miterlimit="10" d="M519.208,467.822c0.567-1.863,2.09-2.265,2.09-2.265
	s-2.17-1.303-3.387,0.498"/>
<circle fill="#FED45B" cx="519.506" cy="425.014" r="23.302"/>
<path fill="none" stroke="#000000" stroke-miterlimit="10" d="M521.298,441.556v24.003c0,0,2.107,0.059,2.802,0.183"/>
<path d="M521.298,446.644c0,0-2.455-5.375,0-5.375S521.298,446.644,521.298,446.644z"/>
<path fill="#FFFFFF" d="M298.073,159.177c0,0,5.571,1.772,12.337,1.772s9.324,0,9.324,0s-0.455,1.43-1.535,3.26
	c0,0-4.434,1.201-10.518,0.4c-6.083-0.801-9.267-2.117-9.267-2.117S298.13,160.206,298.073,159.177z"/>
<path fill="none" stroke="#FFFFFF" stroke-width="8.9285" stroke-linecap="square" stroke-linejoin="round" stroke-miterlimit="10" d="
	M323.168,119.687c0,0-5.232-0.394-21.11-0.818"/>
</svg>
