<?xml version="1.0" encoding="utf-8"?>
<!-- Generator: Adobe Illustrator 16.0.4, SVG Export Plug-In . SVG Version: 6.00 Build 0)  -->
<!DOCTYPE svg PUBLIC "-//W3C//DTD SVG 1.1//EN" "http://www.w3.org/Graphics/SVG/1.1/DTD/svg11.dtd">
<svg version="1.1" xmlns="http://www.w3.org/2000/svg" xmlns:xlink="http://www.w3.org/1999/xlink" x="0px" y="0px" width="600px"
	 height="1000px" viewBox="0 0 600 1000" enable-background="new 0 0 600 1000" xml:space="preserve">
<g id="Calque_1">
	<g id="Calque_1_1_">
		<rect fill="#579BCC" width="600" height="1000"/>
	</g>
	<g id="Calque_2">
	</g>
	<g id="texte">
	</g>
	<path fill="none" stroke="#000000" stroke-width="7.4045" stroke-miterlimit="10" d="M-10.5,387.607
		c0,0,119.807,95.672,331.081,95.672c211.272,0,285.904-36.783,285.904-36.783"/>
	<g>
		<ellipse fill="#FFFFFF" cx="504.438" cy="598.455" rx="63.796" ry="51.197"/>
		<ellipse fill="#FFFFFF" cx="439.688" cy="618.994" rx="50.466" ry="40.527"/>
		<ellipse fill="#FFFFFF" cx="439.828" cy="574.18" rx="36.997" ry="33.36"/>
	</g>
	<g>
		<ellipse fill="#FFFFFF" cx="120.43" cy="360.495" rx="24.257" ry="18.658"/>
		<ellipse fill="#FFFFFF" cx="146.553" cy="368.175" rx="26.124" ry="20.631"/>
		<ellipse fill="#FFFFFF" cx="100.837" cy="372.804" rx="27.057" ry="25.26"/>
		<circle fill="#FFFFFF" cx="112.033" cy="349.722" r="15.861"/>
		<circle fill="#FFFFFF" cx="132.558" cy="383.849" r="12.129"/>
	</g>
	<path fill="none" stroke="#000000" stroke-miterlimit="10" d="M516.29,441.556v25.071c0,0-2.105,0.992-2.105,3.18"/>
	<path fill="#FED45B" d="M500.014,393.742c-7.109,0-12.938,5.467-13.525,12.426l-7.76-2.131l6.148,3.74l-5.021,4.9l6.735-3.319
		c0.981,6.539,6.606,11.558,13.419,11.558c7.504,0,13.587-6.083,13.587-13.587S507.518,393.742,500.014,393.742z"/>
	<circle cx="496.565" cy="404.037" r="3.74"/>
	<circle fill="#FFFFFF" cx="496.008" cy="402.269" r="0.557"/>
	<path fill="none" stroke="#000000" stroke-miterlimit="10" d="M516.29,466.485c0,0-2.105-1.349-4.981,0.734"/>
	<path fill="none" stroke="#000000" stroke-miterlimit="10" d="M519.208,467.822c0.567-1.863,2.09-2.266,2.09-2.266
		s-2.17-1.303-3.387,0.498"/>
	<circle fill="#FED45B" cx="519.506" cy="425.014" r="23.302"/>
	<path fill="none" stroke="#000000" stroke-miterlimit="10" d="M521.298,441.556v24.003c0,0,2.107,0.06,2.802,0.184"/>
	<path d="M521.298,446.644c0,0-2.455-5.375,0-5.375S521.298,446.644,521.298,446.644z"/>
</g>
<g id="loopy-ok-img">
	<g>
		<path fill="#FFFFFF" d="M342.787,431.019c-0.021,0.028-0.049,0.056-0.068,0.083c0.01-0.011,0.018-0.021,0.023-0.03
			C342.758,431.054,342.771,431.038,342.787,431.019z"/>
		<path fill="#FFFFFF" d="M300.752,412.387l0.439-4.441c-0.004,0.021-0.008,0.045-0.014,0.079
			C301.105,408.489,300.869,410.174,300.752,412.387z"/>
		<path fill="#FFFFFF" d="M353.844,363.51c-0.027,0.226-0.062,0.449-0.084,0.676l-0.562,5.674c0,0.002,0.002,0.025,0.004,0.06
			C353.461,367.342,353.68,365.146,353.844,363.51z"/>
		<path fill="#FFFFFF" d="M348.391,418.515c-0.008,0.071-0.02,0.144-0.025,0.216c0.02-0.125,0.025-0.213,0.025-0.213V418.515z"/>
		<path fill="#FFFFFF" d="M290.856,218.743c-11.306-1.112-18.022-3-22.027-4.88c-1.194,12.129-2.407,24.466-3.618,36.769
			c3.672,2.138,9.672,4.193,19.506,5.162c25,2.459,32.063-6.304,32.067-6.31l3.463-35.188
			C320.172,214.75,318.57,221.471,290.856,218.743z"/>
		<path fill="#FFFFFF" d="M275.864,371.066c-11.305-1.112-18.021-3.002-22.026-4.882c-2.98,30.289-5.011,50.916-5.213,52.977
			c5.74,3.09,15.688,6.568,29.135,4.237c20.718-3.596,23.186-14.055,23.418-15.373c0.008-0.049,0.01-0.071,0.014-0.092l4.066-41.318
			C305.184,367.056,303.609,373.794,275.864,371.066z"/>
		<path fill="#FFFFFF" d="M298.1,145.131c-11.309-1.112-18.021-3-22.026-4.879c-1.059,10.76-2.201,22.373-3.398,34.538
			c3.673,2.139,9.673,4.195,19.507,5.163c25.005,2.46,32.062-6.313,32.062-6.313l-0.613,6.269l3.859-39.241
			C327.479,140.795,326.523,147.929,298.1,145.131z"/>
		<path fill="#FFFFFF" d="M282.841,71.497c-0.217,2.198-1.285,13.061-2.922,29.681c3.674,2.138,9.675,4.193,19.508,5.161
			c24.944,2.456,32.03-6.266,32.061-6.307l1.846-18.74c1.562-15.839-10.018-29.944-25.854-31.503
			c-4.826-0.475-9.49,0.275-13.689,1.988c1.027-0.407,2.105-0.78,3.258-1.104C297.05,50.673,284.158,58.112,282.841,71.497z"/>
		<path fill="#FFFFFF" d="M283.391,294.586c-11.306-1.113-18.022-3.002-22.026-4.882c-1.271,12.922-2.509,25.493-3.681,37.403
			c3.673,2.139,9.673,4.194,19.507,5.162c24.901,2.45,32.008-6.232,32.067-6.305l3.523-35.835
			C312.73,290.482,311.336,297.336,283.391,294.586z"/>
		<path fill="#FFFFFF" d="M260.731,466.13c-3.054-3.899-5.601-7.78-7.706-11.562C255.261,458.644,257.849,462.504,260.731,466.13z"
			/>
		<path fill="#FFFFFF" d="M276.854,70.915c0.136-0.497,0.293-1.022,0.474-1.569C277.156,69.863,276.998,70.385,276.854,70.915z"/>
		<path fill="#FFFFFF" d="M276.677,71.592c0.049-0.192,0.097-0.385,0.15-0.587C276.776,71.2,276.726,71.396,276.677,71.592z"/>
		<path fill="#FFFFFF" d="M365.568,343.655c-4.816,3.482-8.543,8.433-10.477,14.272
			C358.059,349.517,364.945,344.128,365.568,343.655z"/>
		<path fill="#FFFFFF" d="M377.316,477.637c-1.58,1.313-3.139,2.542-4.67,3.678C374.248,480.147,375.803,478.917,377.316,477.637z"
			/>
		<path fill="#FFFFFF" d="M348.234,419.534c0.021-0.118,0.039-0.219,0.057-0.317C348.273,419.322,348.254,419.427,348.234,419.534z"
			/>
		<path fill="#FFFFFF" d="M354.908,358.474c0.004-0.012,0.008-0.023,0.012-0.035C354.916,358.451,354.912,358.462,354.908,358.474z"
			/>
		<path fill="#FFFFFF" d="M343.273,430.439c0.094-0.119,0.188-0.236,0.281-0.354C343.461,430.204,343.367,430.322,343.273,430.439z"
			/>
		<path fill="#FFFFFF" d="M277.41,69.101c0.083-0.243,0.168-0.488,0.262-0.738C277.579,68.607,277.495,68.854,277.41,69.101z"/>
		<path fill="#FFFFFF" d="M244.556,394.945c0.761-7.726,1.938-19.683,3.396-34.511c0-0.002,0-0.008,0-0.008l3.947-40.111
			c0,0,0,0.007,0,0.009c1.135-11.532,2.338-23.758,3.578-36.355c0-0.015,0.001-0.022,0.001-0.022l1.432-14.552l-13.581,137.98
			c0,0.001,0,0.002,0,0.003v-0.002L244.556,394.945z"/>
		<path fill="#FFFFFF" d="M266.894,168c1.17-11.896,2.279-23.161,3.294-33.47c0-0.004,0-0.01,0-0.013l-4.446,45.17l1.151-11.692
			C266.893,167.995,266.894,167.999,266.894,168z"/>
		<path fill="#FFFFFF" d="M349.393,459.595c-0.535-18.1-14.738-22.436-14.738-22.436c0.002-0.002,0.004-0.003,0.006-0.004
			c-3.758,1.743-8.01,2.543-12.42,2.109c-5.467-0.538-10.322-2.882-14.049-6.375c0.045,0.044,0.074,0.072,0.074,0.072
			s-2.598,21.864-19.491,28.99c-16.564,6.988-27.07,4.965-27.48,4.882c13.265,16.318,32.762,27.564,55.301,29.784
			c7.068,0.695,14.021,0.459,20.734-0.604C337.385,495.946,349.922,477.659,349.393,459.595z"/>
		<path fill="#FFFFFF" d="M262.943,208.142c0-0.003,0-0.01,0-0.014l-3.516,35.717c0,0.001,0,0.005,0,0.008
			C260.605,231.891,261.785,219.904,262.943,208.142z"/>
		<path fill="#FFFFFF" d="M275.983,75.648c0,0,0.001-0.014,0.001-0.018C275.984,75.636,275.983,75.641,275.983,75.648l-1.847,18.75
			c0,0.002,0,0.003,0,0.007C275.3,82.574,275.983,75.648,275.983,75.648z"/>
		<path fill="#FFFFFF" d="M377.164,420.607c-13.395-1.316-20.361-3.726-23.988-5.917c-0.189,1.816-0.35,3.322-0.453,4.411
			c-0.447,4.552-2.998,7.969-5.723,10.371c4.271,1.299,13.354,4.585,21.854,11.058c11.494,8.749,9.363,35.771,9.312,36.377
			c15.184-13.207,25.562-31.979,27.688-53.539l0.711-7.225C406.547,416.258,405.611,423.408,377.164,420.607z"/>
		<path fill="#FFFFFF" d="M385.262,338.329c-7.266-0.714-14.156,1.34-19.646,5.293c-4.711,7.895-6.537,17.388-6.537,17.388
			s-0.691,6.22-1.633,14.655c3.449,2.47,9.697,5.036,21.047,6.152c25,2.46,32.064-6.308,32.068-6.312l0.559-5.677
			C412.678,353.995,401.102,339.889,385.262,338.329z"/>
		<polygon fill="#FF0000" points="327.494,140.662 331.494,100.03 331.492,100.032 327.494,140.668 		"/>
		<path fill="#FF0000" d="M274.136,94.385l-3.947,40.111c0,0,0,0.008-0.001,0.021l3.948-40.119
			C274.136,94.393,274.136,94.385,274.136,94.385z"/>
		<path fill="#FF0000" d="M274.136,94.404c0-0.003,0-0.005,0-0.007l-3.947,40.119c0,0.003,0,0.009,0,0.013
			C271.778,118.373,273.136,104.575,274.136,94.404z"/>
		<path fill="#FF0000" d="M299.427,106.339c-9.833-0.968-15.834-3.023-19.508-5.161c-1.066,10.842-2.375,24.138-3.846,39.074
			c4.004,1.879,10.721,3.767,22.026,4.879c28.423,2.798,29.378-4.336,29.394-4.463l3.998-40.636
			C331.461,100.073,324.375,108.795,299.427,106.339z"/>
		<path fill="#FF0000" d="M320.252,214.27l3.383-34.361l-3.387,34.386C320.25,214.28,320.252,214.27,320.252,214.27z"/>
		<path fill="#FF0000" d="M262.944,208.105c0,0-0.001,0.009-0.001,0.024l2.799-28.442L262.944,208.105z"/>
		<path fill="#FF0000" d="M266.894,168v-0.005l-1.151,11.692l-2.799,28.442c0,0.003,0,0.01,0,0.014
			C264.304,194.309,265.634,180.793,266.894,168z"/>
		<path fill="#FF0000" d="M292.182,179.953c-9.834-0.968-15.834-3.024-19.507-5.163c-1.235,12.549-2.528,25.682-3.846,39.073
			c4.004,1.879,10.721,3.768,22.026,4.88c27.714,2.728,29.316-3.993,29.392-4.448l3.387-34.386l0.613-6.269
			C324.248,173.64,317.188,182.413,292.182,179.953z"/>
		<path fill="#FF0000" d="M312.787,290.113l3.998-40.629l0,0l-4,40.646C312.785,290.12,312.787,290.113,312.787,290.113z"/>
		<polygon fill="#FF0000" points="259.427,243.839 256.914,269.393 259.427,243.846 		"/>
		<path fill="#FF0000" d="M255.48,283.967c1.289-13.094,2.617-26.586,3.947-40.113c0-0.003,0-0.007,0-0.008l-2.515,25.547
			l-1.432,14.552C255.481,283.945,255.48,283.954,255.48,283.967z"/>
		<path fill="#FF0000" d="M284.716,255.794c-9.832-0.968-15.832-3.024-19.506-5.162c-1.295,13.166-2.586,26.29-3.846,39.072
			c4.004,1.88,10.721,3.77,22.025,4.882c27.946,2.75,29.34-4.104,29.395-4.457l4-40.646
			C316.779,249.49,309.715,258.253,284.716,255.794z"/>
		<path fill="#FF0000" d="M305.26,366.591l4-40.63l-0.002,0.003l-4,40.649C305.26,366.6,305.26,366.591,305.26,366.591z"/>
		<path fill="#FF0000" d="M277.191,332.27c-9.834-0.968-15.834-3.023-19.507-5.162c-1.392,14.132-2.689,27.328-3.847,39.076
			c4.004,1.88,10.722,3.77,22.026,4.882c27.746,2.729,29.32-4.01,29.396-4.451l4-40.649
			C309.199,326.038,302.092,334.72,277.191,332.27z"/>
		<path fill="#FF0000" d="M251.901,320.315l-3.946,40.111c0,0,0,0.006,0,0.008c1.159-11.781,2.497-25.379,3.947-40.11
			C251.901,320.322,251.901,320.315,251.901,320.315z"/>
		<polygon fill="#FF0000" points="410.541,375.49 406.539,416.124 406.539,416.124 		"/>
		<path fill="#FF0000" d="M353.201,369.86v-0.002l-1.363,13.854c0.004-0.009,0.006-0.017,0.006-0.023L353.201,369.86z"/>
		<path fill="#FF0000" d="M353.205,369.918c-0.002-0.033-0.004-0.058-0.004-0.06l-1.357,13.828
			C352.34,378.643,352.816,373.842,353.205,369.918z"/>
		<path fill="#FF0000" d="M378.492,381.817c-11.35-1.116-17.598-3.684-21.047-6.152c-1.387,12.479-3.301,29.803-4.27,39.025
			c3.625,2.191,10.594,4.601,23.988,5.917c28.447,2.801,29.383-4.349,29.396-4.464l4-40.639
			C410.557,375.509,403.492,384.277,378.492,381.817z"/>
		<path fill="#FF0000" d="M247.812,443.365c0,0-0.581-1.675-1.619-5.324c-0.188-0.646-0.374-1.3-0.546-1.95
			c-0.451-1.644-0.965-3.576-1.537-5.822c1.286,6.743,3.854,15.226,8.915,24.307c-2.029-3.69-3.766-7.559-5.21-11.555
			C247.813,443.238,247.812,443.365,247.812,443.365z"/>
		<path fill="#FF0000" d="M261.274,466.833c0,0,0.011,0.005,0.021,0.007c-0.19-0.234-0.375-0.476-0.563-0.708
			C260.916,466.366,261.087,466.6,261.274,466.833z"/>
		<path fill="#FF0000" d="M308.191,432.894c-0.586-0.578-4.773-4.835-6.527-10.379c-1.01-3.189-1.066-7.135-0.912-10.128
			l-0.061,0.631C299.932,420.732,302.932,427.961,308.191,432.894z"/>
		<path fill="#FF0000" d="M301.197,407.886c0,0-0.004,0.032-0.008,0.047v0.013C301.195,407.911,301.197,407.886,301.197,407.886z"/>
		<path fill="#FF0000" d="M301.189,407.946v-0.013c-0.002,0.021-0.006,0.043-0.014,0.092
			C301.182,407.991,301.186,407.967,301.189,407.946z"/>
		<path fill="#FF0000" d="M246.193,438.04c-0.17-0.602-0.352-1.241-0.546-1.95C245.819,436.741,246.005,437.391,246.193,438.04z"/>
		<path fill="#FF0000" d="M288.775,461.958c16.895-7.128,19.491-28.992,19.491-28.992s-0.029-0.028-0.074-0.072
			c-5.26-4.933-8.259-12.162-7.502-19.876l0.062-0.631c0.117-2.213,0.354-3.898,0.428-4.362c-0.23,1.318-2.7,11.777-23.418,15.373
			c-13.447,2.331-23.395-1.146-29.135-4.237c-0.012,0.113-0.019,0.185-0.019,0.185c-0.671,6.817-0.778,21.272-0.792,23.672
			c1.443,3.996,3.182,7.86,5.21,11.555c2.106,3.779,4.651,7.66,7.706,11.562c0.188,0.232,0.373,0.474,0.562,0.708
			C261.705,466.921,272.21,468.949,288.775,461.958z"/>
		<path fill="#FF0000" d="M337.33,496.026c0,0,15.369,0.084,35.316-14.711c-10.297,7.512-22.354,12.658-35.312,14.707
			C337.332,496.023,337.33,496.026,337.33,496.026z"/>
		<path fill="#FF0000" d="M378.162,476.935c0,0,0.002-0.021,0.002-0.028c-0.277,0.244-0.562,0.489-0.848,0.73
			C377.598,477.402,377.879,477.176,378.162,476.935z"/>
		<path fill="#FF0000" d="M340.82,433.049c0.23-0.21,0.457-0.425,0.678-0.646c0.057-0.052,0.105-0.104,0.152-0.151
			c0.367-0.371,0.721-0.758,1.064-1.149c-1.443,1.527-3.93,3.677-8.059,6.058c1.844-0.854,3.572-1.938,5.137-3.219
			C340.158,433.652,340.49,433.351,340.82,433.049z"/>
		<path fill="#FF0000" d="M341.498,432.407c-0.221,0.223-0.443,0.437-0.678,0.646C341.055,432.837,341.279,432.624,341.498,432.407z
			"/>
		<path fill="#FF0000" d="M368.85,440.53c-8.5-6.473-17.58-9.759-21.854-11.058c-3.469,3.062-7.213,4.478-7.213,4.478
			c0.004-0.003,0.006-0.006,0.01-0.009c-1.561,1.281-3.293,2.362-5.137,3.22c-0.002,0-0.004,0.002-0.006,0.003
			c0,0,14.203,4.336,14.738,22.436c0.527,18.062-12.008,36.351-12.062,36.427c12.959-2.049,25.02-7.194,35.312-14.707
			c1.529-1.136,3.09-2.358,4.67-3.678c0.285-0.241,0.562-0.486,0.848-0.729C378.215,476.297,380.344,449.279,368.85,440.53z"/>
		<path fill="#FF0000" d="M342.742,431.072c-0.01,0.012-0.018,0.021-0.023,0.03c-0.348,0.396-0.697,0.778-1.064,1.149
			C342.035,431.864,342.4,431.471,342.742,431.072z"/>
		<path fill="#B3B3B3" d="M276.828,71.005c0.008-0.03,0.018-0.06,0.025-0.09C276.845,70.945,276.835,70.976,276.828,71.005z"/>
		<path fill="#B3B3B3" d="M275.984,75.63c0.137-1.381,0.374-2.729,0.693-4.038C276.093,73.94,275.99,75.52,275.984,75.63z"/>
		<path fill="#B3B3B3" d="M242.962,415.338c0,0,0.015,0.013,0.023,0.021c0.002-2.155,0.064-4.323,0.239-6.507
			c0.022-0.49,0.059-0.984,0.106-1.477c-0.004,0.037-1.576,13.613,0.756,22.798c0.008,0.027,0.015,0.059,0.022,0.09
			C242.39,421.243,242.962,415.338,242.962,415.338z"/>
		<path fill="#B3B3B3" d="M277.328,69.346c0.027-0.082,0.055-0.163,0.082-0.245C277.382,69.183,277.354,69.265,277.328,69.346z"/>
		<path fill="#B3B3B3" d="M293.796,51.777c-9.658,3.83-14.1,11.075-16.125,16.586C280.511,60.758,286.436,54.781,293.796,51.777z"/>
		<path fill="#B3B3B3" d="M257.684,327.108c1.172-11.91,2.409-24.48,3.681-37.403c-5.836-2.741-5.896-5.464-5.885-5.737
			c-1.24,12.598-2.443,24.823-3.578,36.355C251.906,320.433,252.108,323.862,257.684,327.108z"/>
		<path fill="#B3B3B3" d="M272.675,174.79c1.197-12.165,2.34-23.777,3.398-34.538c-5.783-2.714-5.896-5.406-5.887-5.723
			c-1.016,10.31-2.124,21.574-3.294,33.47C266.896,168.065,267.062,171.522,272.675,174.79z"/>
		<path fill="#B3B3B3" d="M274.136,94.404c0.015,0.238,0.32,3.594,5.783,6.774c1.637-16.62,2.705-27.483,2.922-29.681
			c1.316-13.385,14.209-20.824,14.209-20.824c-1.148,0.324-2.229,0.697-3.258,1.104c-7.357,3.003-13.285,8.98-16.125,16.586
			c-0.092,0.25-0.178,0.496-0.261,0.738c-0.028,0.082-0.055,0.163-0.082,0.245c-0.181,0.547-0.338,1.072-0.474,1.569
			c-0.008,0.03-0.018,0.06-0.025,0.09c-0.055,0.202-0.103,0.395-0.15,0.587c-0.319,1.31-0.557,2.657-0.693,4.038
			c0,0.004-0.001,0.018-0.001,0.018S275.3,82.574,274.136,94.404z"/>
		<path fill="#B3B3B3" d="M265.21,250.632c1.211-12.303,2.426-24.64,3.619-36.769c-5.765-2.706-5.895-5.391-5.887-5.721
			c-1.158,11.761-2.337,23.749-3.516,35.711C259.438,244.039,259.7,247.425,265.21,250.632z"/>
		<path fill="#B3B3B3" d="M242.986,415.36c0.184,0.168,2.118,1.907,5.639,3.801c0.202-2.061,2.232-22.688,5.213-52.977
			c-6.037-2.834-5.893-5.644-5.884-5.75c-1.459,14.828-2.636,26.785-3.396,34.511l-1.225,12.431v0.002
			c-0.049,0.492-0.086,0.985-0.107,1.477C243.05,411.038,242.988,413.204,242.986,415.36z"/>
		<path fill="#890000" d="M276.074,140.252c1.471-14.936,2.778-28.232,3.846-39.074c-5.463-3.18-5.769-6.536-5.783-6.774
			c-1,10.17-2.358,23.969-3.948,40.125C270.179,134.846,270.291,137.538,276.074,140.252z"/>
		<path fill="#890000" d="M268.829,213.863c1.318-13.392,2.611-26.524,3.847-39.073c-5.613-3.268-5.779-6.725-5.781-6.79
			c-1.26,12.793-2.59,26.31-3.951,40.143C262.934,208.473,263.064,211.157,268.829,213.863z"/>
		<path fill="#890000" d="M261.365,289.704c1.258-12.781,2.551-25.905,3.846-39.071c-5.511-3.207-5.772-6.593-5.783-6.778
			c-1.332,13.527-2.658,27.021-3.947,40.113C255.468,284.241,255.529,286.963,261.365,289.704z"/>
		<path fill="#890000" d="M251.901,320.324c-1.45,14.731-2.788,28.329-3.948,40.11c-0.008,0.106-0.152,2.916,5.885,5.75
			c1.155-11.748,2.455-24.944,3.846-39.076C252.108,323.862,251.906,320.433,251.901,320.324z"/>
		<path fill="#B3B3B3" d="M247.812,443.365c0,0,0-0.127,0.002-0.349c-0.592-1.637-1.133-3.296-1.621-4.979
			C247.231,441.69,247.812,443.365,247.812,443.365z"/>
		<path fill="#B3B3B3" d="M242.986,415.36c-0.009-0.009-0.023-0.021-0.023-0.021s-0.572,5.903,1.147,14.926
			c0.571,2.246,1.086,4.183,1.537,5.822C243.896,429.436,242.98,422.484,242.986,415.36z"/>
		<path fill="#890000" d="M245.647,436.086c0.194,0.709,0.376,1.353,0.546,1.95c0.488,1.684,1.029,3.343,1.621,4.979
			c0.013-2.396,0.121-16.854,0.792-23.672c0,0,0.007-0.07,0.019-0.185c-3.521-1.894-5.455-3.633-5.639-3.801
			C242.98,422.484,243.896,429.436,245.647,436.086z"/>
		<path fill="#B3B3B3" d="M354.92,358.439c0.057-0.173,0.115-0.341,0.176-0.512C355.033,358.096,354.977,358.268,354.92,358.439z"/>
		<path fill="#B3B3B3" d="M365.617,343.617c0,0-0.02,0.017-0.049,0.038c0.016-0.012,0.031-0.021,0.047-0.033
			C365.615,343.62,365.617,343.618,365.617,343.617z"/>
		<path fill="#B3B3B3" d="M351.768,384.42l0.066-0.709c-1.6,16.132-3.438,34.708-3.443,34.804c0.035-0.264,0.068-0.526,0.1-0.792
			L351.768,384.42z"/>
		<path fill="#B3B3B3" d="M342.787,431.019c0.164-0.19,0.326-0.384,0.486-0.58C343.117,430.633,342.951,430.827,342.787,431.019z"/>
		<path fill="#B3B3B3" d="M343.555,430.083c2.338-3.005,3.982-6.595,4.68-10.548C347.877,421.471,346.756,425.897,343.555,430.083z"
			/>
		<path fill="#B3B3B3" d="M353.855,363.391c-0.004,0.038-0.008,0.081-0.012,0.119c0.211-1.734,0.561-3.42,1.061-5.036
			C354.402,360.02,354.027,361.661,353.855,363.391z"/>
		<path fill="#B3B3B3" d="M348.291,419.215c0.025-0.161,0.055-0.322,0.074-0.484C348.35,418.845,348.324,419.008,348.291,419.215z"
			/>
		<path fill="#B3B3B3" d="M344.51,428.784c0,0,0.924,0.213,2.486,0.688c2.725-2.402,5.271-5.819,5.723-10.371
			c0.104-1.089,0.264-2.595,0.449-4.411c-4.135-2.5-3.918-4.72-3.918-4.72l2.518-25.55l-3.277,33.303
			c-0.023,0.266-0.062,0.528-0.1,0.792v0.003c0,0-0.014,0.088-0.025,0.213c-0.021,0.162-0.049,0.323-0.074,0.484
			c-0.018,0.1-0.031,0.199-0.057,0.317c-0.693,3.956-2.342,7.546-4.68,10.551c-0.096,0.118-0.189,0.235-0.281,0.354
			c-0.16,0.196-0.322,0.391-0.486,0.58c-0.016,0.018-0.025,0.035-0.045,0.053C344.072,429.658,344.51,428.784,344.51,428.784z"/>
		<path fill="#B3B3B3" d="M357.445,375.663c0.939-8.436,1.633-14.654,1.633-14.654s1.826-9.493,6.537-17.389
			c-0.016,0.013-0.031,0.022-0.047,0.034c-2.762,1.442-7.51,5.862-10.477,14.272c-0.061,0.171-0.119,0.339-0.176,0.512
			c-0.004,0.012-0.008,0.023-0.012,0.035c-0.5,1.616-0.854,3.302-1.062,5.036c-0.162,1.636-0.385,3.832-0.641,6.408
			C353.242,370.326,353.633,372.932,357.445,375.663z"/>
		<path fill="#B3B3B3" d="M351.84,383.688c0,0.008-0.006,0.016-0.006,0.023l-0.066,0.709L351.84,383.688z"/>
		<path fill="#890000" d="M353.205,369.918c-0.389,3.924-0.861,8.725-1.361,13.77l-0.072,0.732l-2.518,25.55
			c0,0-0.217,2.22,3.922,4.72c0.973-9.224,2.887-26.548,4.271-39.025C353.633,372.932,353.242,370.326,353.205,369.918z"/>
		<path fill="#B3B3B3" d="M341.65,432.251c-0.051,0.052-0.1,0.104-0.152,0.151C341.551,432.356,341.6,432.303,341.65,432.251z"/>
		<path fill="#B3B3B3" d="M339.797,433.941c0.354-0.286,0.689-0.585,1.023-0.892C340.49,433.351,340.158,433.652,339.797,433.941z"
			/>
		<path fill="#890000" d="M342.742,431.072c-0.342,0.399-0.707,0.792-1.092,1.184c-0.051,0.052-0.1,0.104-0.152,0.151
			c-0.219,0.218-0.439,0.435-0.678,0.646c-0.334,0.307-0.674,0.604-1.023,0.892c-0.004,0.003-0.006,0.006-0.01,0.01
			c0,0,3.744-1.41,7.213-4.479c-1.562-0.479-2.486-0.688-2.486-0.688S344.072,429.658,342.742,431.072z"/>
	</g>
	
		<circle fill="#FFFFFF" stroke="#FFFFFF" stroke-width="4.803" stroke-linecap="round" stroke-linejoin="round" stroke-miterlimit="10" cx="343.373" cy="115.098" r="29.932"/>
	<path stroke="#FFFFFF" stroke-width="4.803" stroke-linecap="round" stroke-linejoin="round" stroke-miterlimit="10" d="
		M363.244,120.375c-1.305,13.246-13.098,22.926-26.342,21.622c-13.246-1.304-22.926-13.096-21.623-26.342
		c1.305-13.246,13.096-22.926,26.344-21.623C354.867,95.337,364.549,107.13,363.244,120.375z"/>
	
		<circle fill="#FFFFFF" stroke="#FFFFFF" stroke-width="4.803" stroke-linecap="round" stroke-linejoin="round" stroke-miterlimit="10" cx="353.734" cy="118.277" r="2.148"/>
	
		<path fill="#FFFFFF" stroke="#FFFFFF" stroke-width="4.803" stroke-linecap="round" stroke-linejoin="round" stroke-miterlimit="10" d="
		M293.116,110.152c-1.62,16.449-16.269,28.473-32.715,26.854c-16.452-1.62-28.476-16.268-26.856-32.718
		c1.621-16.45,16.269-28.473,32.719-26.854C282.71,79.053,294.734,93.702,293.116,110.152z"/>
	<path stroke="#FFFFFF" stroke-width="4.803" stroke-linecap="round" stroke-linejoin="round" stroke-miterlimit="10" d="
		M288.677,113.037c-1.309,13.245-13.104,22.925-26.342,21.621c-13.244-1.304-22.927-13.096-21.621-26.342
		c1.304-13.245,13.097-22.927,26.343-21.623C280.298,87.997,289.981,99.791,288.677,113.037z"/>
	
		<circle fill="#FFFFFF" stroke="#FFFFFF" stroke-width="4.803" stroke-linecap="round" stroke-linejoin="round" stroke-miterlimit="10" cx="277.587" cy="111.742" r="3.105"/>
	<path d="M286.481,157.663c0,0,13.603,2.657,23.539,1.578c0,0-3.215,14.258-13.582,13.497
		C286.076,171.978,286.481,157.663,286.481,157.663z"/>
	
		<path fill="none" stroke="#FFFFFF" stroke-width="8.9285" stroke-linecap="round" stroke-linejoin="round" stroke-miterlimit="10" d="
		M255.416,187.66"/>
	
		<path fill="none" stroke="#FFFFFF" stroke-width="8.9285" stroke-linecap="round" stroke-linejoin="round" stroke-miterlimit="10" d="
		M224.184,199.395"/>
	
		<path fill="none" stroke="#FFFFFF" stroke-width="8.9285" stroke-linecap="round" stroke-linejoin="round" stroke-miterlimit="10" d="
		M334.66,187.66c0,0,32.617-1.522,37.658,31.079"/>
	
		<path fill="none" stroke="#FFFFFF" stroke-width="8.9285" stroke-linecap="round" stroke-linejoin="round" stroke-miterlimit="10" d="
		M210.541,190.932c0,0,4.953-21.305,43.297-16.142"/>
	<path d="M271.448,64.029c0,0,5.175,21.133,45.169,19.804c39.996-1.328,38.363-12.832,24.994-19.177L271.448,64.029z"/>
	<path fill="#0B0146" d="M260.777,33.097c0.083,0.239,0.167,0.477,0.27,0.722c8.959,21.619,10.401,30.21,10.401,30.21
		s17.771,7.344,33.89,8.861c16.119,1.517,36.273-8.234,36.273-8.234s20.516-14.468,19.268-25.868
		c-9.721,1.892-26.812,2.417-54.479,0.792C282.909,38.2,268.995,35.696,260.777,33.097z"/>
	<path fill="#0B0117" d="M346.797,27.842c-34.203-8.659-93.334-15.481-86.02,5.254c8.218,2.599,22.132,5.103,45.622,6.483
		c27.666,1.625,44.76,1.1,54.479-0.792C360.389,34.313,356.547,30.312,346.797,27.842z"/>
	<circle fill="#579BCC" cx="325.301" cy="51.992" r="4.428"/>
	<path fill="#FFFFFF" d="M287.266,158.323c0,0,5.57,1.772,12.337,1.772c6.766,0,9.325,0,9.325,0s-0.455,1.43-1.535,3.26
		c0,0-4.436,1.201-10.519,0.4c-6.083-0.801-9.267-2.117-9.267-2.117S287.323,159.352,287.266,158.323z"/>
	
		<path fill="none" stroke="#FFFFFF" stroke-width="8.9285" stroke-linecap="square" stroke-linejoin="round" stroke-miterlimit="10" d="
		M312.361,118.833c0,0-5.232-0.394-21.111-0.818"/>
</g>
<g id="loopy-baton">
	
		<line fill="none" stroke="#000000" stroke-width="12.7551" stroke-miterlimit="10" x1="102.13" y1="214.806" x2="493.027" y2="253.279"/>
	<circle fill="#FFFFFF" stroke="#000000" stroke-width="12.7551" stroke-miterlimit="10" cx="499.586" cy="253.923" r="26.362"/>
	<circle fill="#FFFFFF" stroke="#000000" stroke-width="12.7551" stroke-miterlimit="10" cx="102.127" cy="214.805" r="28.997"/>
	<path fill="#FFFFFF" d="M386.574,266.255c-10.073,2.543-20.296-3.557-22.838-13.629l-4.748-18.788
		c-2.541-10.07,3.562-20.291,13.631-22.835l0,0c10.071-2.543,20.295,3.555,22.837,13.625l4.747,18.789
		C402.745,253.486,396.645,263.713,386.574,266.255L386.574,266.255z"/>
	<path fill="#FFFFFF" d="M214.042,196.439c6.514,8.142,5.194,20.023-2.953,26.539l-15.193,12.151
		c-8.143,6.515-20.021,5.191-26.539-2.955l0,0c-6.512-8.144-5.189-20.021,2.954-26.537l15.192-12.15
		C195.65,186.971,207.53,188.295,214.042,196.439L214.042,196.439z"/>
</g>
</svg>
