<?xml version="1.0" encoding="utf-8"?>
<!-- Generator: Adobe Illustrator 16.0.4, SVG Export Plug-In . SVG Version: 6.00 Build 0)  -->
<!DOCTYPE svg PUBLIC "-//W3C//DTD SVG 1.1//EN" "http://www.w3.org/Graphics/SVG/1.1/DTD/svg11.dtd">
<svg version="1.1" xmlns="http://www.w3.org/2000/svg" xmlns:xlink="http://www.w3.org/1999/xlink" x="0px" y="0px" width="600px"
	 height="1000px" viewBox="0 0 600 1000" enable-background="new 0 0 600 1000" xml:space="preserve">
<g id="Calque_1">
	<g id="Calque_1_1_">
		<rect fill="#579BCC" width="600" height="1000"/>
	</g>
	<polygon fill="#437A99" points="579.514,594.997 569.023,654.449 53.743,654.449 66.042,598.606 	"/>
	<polygon fill="#437A99" points="579.514,350.075 569.023,409.527 53.743,409.527 66.042,353.684 	"/>
	<g id="Calque_2">
	</g>
	<g id="texte">
	</g>
	<g>
		<ellipse fill="#FFFFFF" cx="453.709" cy="139.083" rx="51.635" ry="41.438"/>
		<ellipse fill="#FFFFFF" cx="401.302" cy="155.707" rx="40.847" ry="32.802"/>
		<ellipse fill="#FFFFFF" cx="401.416" cy="119.436" rx="29.944" ry="27"/>
	</g>
	<g>
		<ellipse fill="#FFFFFF" cx="120.43" cy="80.126" rx="24.257" ry="18.658"/>
		<ellipse fill="#FFFFFF" cx="146.553" cy="87.806" rx="26.124" ry="20.631"/>
		<ellipse fill="#FFFFFF" cx="100.837" cy="92.435" rx="27.057" ry="25.26"/>
		<circle fill="#FFFFFF" cx="112.033" cy="69.353" r="15.861"/>
		<circle fill="#FFFFFF" cx="132.558" cy="103.48" r="12.129"/>
	</g>
	<rect x="16.471" y="343.938" fill="#8B2D00" width="536.231" height="16.228"/>
	<polygon fill="#A25400" points="552.702,343.938 16.471,343.938 43.283,332.648 579.514,332.648 	"/>
	<polygon fill="#732500" points="552.702,343.938 552.702,360.166 579.514,349.582 579.514,332.648 	"/>
	<rect x="16.471" y="587.503" fill="#8B2D00" width="536.231" height="16.229"/>
	<polygon fill="#A25400" points="552.702,587.503 16.471,587.503 43.283,576.214 579.514,576.214 	"/>
	<polygon fill="#732500" points="552.702,587.503 552.702,603.731 579.514,593.147 579.514,576.214 	"/>
	<g>
		<path fill="none" stroke="#000000" stroke-miterlimit="10" d="M270.99,243.972v25.071c0,0-2.105,0.992-2.105,3.18"/>
		<path fill="#FED45B" d="M254.714,196.158c-7.108,0-12.938,5.467-13.524,12.426l-7.761-2.131l6.148,3.74l-5.021,4.9l6.734-3.319
			c0.981,6.539,6.606,11.558,13.419,11.558c7.504,0,13.587-6.083,13.587-13.587S262.218,196.158,254.714,196.158z"/>
		<circle cx="251.266" cy="206.453" r="3.74"/>
		<circle fill="#FFFFFF" cx="250.708" cy="204.685" r="0.557"/>
		<path fill="none" stroke="#000000" stroke-miterlimit="10" d="M270.99,268.901c0,0-2.105-1.35-4.981,0.733"/>
		<path fill="none" stroke="#000000" stroke-miterlimit="10" d="M273.908,270.238c0.567-1.863,2.09-2.267,2.09-2.267
			s-2.17-1.303-3.387,0.498"/>
		<circle fill="#FED45B" cx="274.206" cy="227.43" r="23.302"/>
		<path fill="none" stroke="#000000" stroke-miterlimit="10" d="M275.998,243.972v24.003c0,0,2.107,0.061,2.802,0.185"/>
		<path d="M275.998,249.06c0,0-2.455-5.375,0-5.375S275.998,249.06,275.998,249.06z"/>
	</g>
</g>
<g id="Calque_8">
	<path fill="none" d="M347.165,904.772c-0.225,0.286-0.64,0.773-1.291,1.388l0,0C346.525,905.546,346.94,905.059,347.165,904.772z"
		/>
	<path fill="none" d="M316.592,916.693c-0.04,0-0.076,0.007-0.113,0.013C316.516,916.7,316.558,916.693,316.592,916.693z"/>
	<path fill="none" d="M320.004,916.286c4.926-0.679,9.029-1.662,12.427-2.774l0,0C329.033,914.624,324.93,915.607,320.004,916.286z"
		/>
	<path fill="none" d="M305.002,917.241c-13.367,0-21.736-1.966-26.966-4.359l0,0C283.272,915.275,291.638,917.241,305.002,917.241
		L305.002,917.241z"/>
	<path fill="#FFFFFF" d="M345.88,906.166c0.646-0.62,1.061-1.104,1.291-1.388c0.134-0.183,0.204-0.286,0.204-0.286l0,0h0.003
		v-44.875c0,0,0,0.703-0.73,1.731c-0.195,0.28-0.45,0.579-0.773,0.898v43.919H345.88z"/>
	<path fill="#FFFFFF" d="M316.479,916.706c0.037,0,0.073-0.013,0.113-0.013c1.184-0.115,2.313-0.256,3.412-0.407
		c4.926-0.679,9.029-1.662,12.427-2.774v-45.794c-5.638,1.083-13.385,1.826-24.074,1.826c-15.37,0-24.683-1.649-30.323-3.653
		c0,14.644,0,30.438,0,46.991c5.232,2.394,13.599,4.365,26.963,4.365C309.212,917.241,313.026,917.044,316.479,916.706z"/>
	<path fill="#FFFFFF" d="M281.196,758.636c-1.86,3.979-3.156,8.591-3.156,13.709c0,2.989,0,17.771,0,40.388
		c5.232,2.393,13.598,4.359,26.968,4.359c34.017,0,42.373-12.756,42.373-12.756v-25.492c0-21.551-17.471-39.019-39.019-39.019
		c-6.557,0-12.724,1.62-18.143,4.479c1.321-0.679,2.715-1.318,4.207-1.905l0,0l0,0C294.42,742.41,285.954,748.468,281.196,758.636z"
		/>
	<path fill="#FFFFFF" d="M332.431,1016.691v-48.83c-5.638,1.078-13.385,1.827-24.074,1.827c-15.37,0-24.683-1.65-30.323-3.647
		c0,16.5,0,33.286,0,50.023c5.232,2.396,13.599,4.362,26.969,4.362C317.167,1020.424,326.031,1018.792,332.431,1016.691z"/>
	<path fill="#FFFFFF" d="M347.165,1007.955c0.14-0.184,0.207-0.287,0.207-0.287l0,0h0.003v-47.904c0,0-0.003,1.127-1.501,2.628
		v46.954C346.525,1008.725,346.94,1008.24,347.165,1007.955z"/>
	<path fill="#FF0000" d="M308.362,869.544c10.684,0,18.431-0.743,24.068-1.826v-40.264c0-3.714,3.011-6.728,6.722-6.728
		c3.705,0,6.716,3.014,6.716,6.728v34.793c0.323-0.319,0.578-0.618,0.773-0.898c0.728-1.028,0.728-1.729,0.728-1.729v-55.278
		c0.003,0-8.363,12.756-42.373,12.756c-13.368,0-21.736-1.967-26.966-4.359c0,14.747,0,32.835,0,53.152
		C283.68,867.895,292.995,869.544,308.362,869.544z"/>
	<path fill="#FF0000" d="M332.431,867.718L332.431,867.718c-5.638,1.077-13.385,1.826-24.068,1.826
		c-15.367,0-24.682-1.646-30.329-3.653l0,0c5.647,1.998,14.953,3.647,30.323,3.647C319.046,869.544,326.793,868.795,332.431,867.718
		z"/>
	<path fill="#FF0000" d="M345.88,862.247c0.326-0.319,0.572-0.618,0.768-0.898C346.446,861.629,346.197,861.928,345.88,862.247
		L345.88,862.247z"/>
	<path fill="#FF0000" d="M345.88,906.166v56.226c1.495-1.492,1.495-2.625,1.495-2.625v-55.28c0,0-0.07,0.109-0.204,0.286
		C346.94,905.059,346.525,905.546,345.88,906.166z"/>
	<path fill="#FF0000" d="M320.004,916.286c-1.102,0.146-2.229,0.292-3.412,0.407C317.775,916.578,318.905,916.432,320.004,916.286z"
		/>
	<path fill="#FF0000" d="M305.002,917.241c4.21,0,8.019-0.197,11.479-0.535C313.026,917.044,309.212,917.241,305.002,917.241
		L305.002,917.241z"/>
	<path fill="#FF0000" d="M347.165,904.772c0.14-0.177,0.207-0.286,0.207-0.286l0,0C347.375,904.486,347.305,904.596,347.165,904.772
		z"/>
	<path fill="#FF0000" d="M332.431,967.861L332.431,967.861c-5.638,1.078-13.385,1.821-24.068,1.821
		c-15.367,0-24.682-1.645-30.329-3.642l0,0l0,0c5.647,1.997,14.953,3.642,30.323,3.642
		C319.046,969.688,326.793,968.939,332.431,967.861z"/>
	<path fill="#FF0000" d="M345.88,1009.343v56.228c1.495-1.495,1.495-2.624,1.495-2.624v-55.275c0,0-0.07,0.107-0.204,0.287
		C346.94,1008.24,346.525,1008.725,345.88,1009.343z"/>
	<path fill="#B3B3B3" d="M269.75,773.239c-0.505,3.392-0.408,5.61-0.408,5.61C269.341,776.943,269.487,775.068,269.75,773.239z"/>
	<path fill="#B3B3B3" d="M290.213,744.307c-12.555,6.453-17.583,16.838-19.577,24.539c0.353-1.33,0.776-2.633,1.26-3.905
		C275.293,756.042,281.859,748.705,290.213,744.307z"/>
	<path fill="#B3B3B3" d="M278.036,912.879c0-16.551,0-32.349,0-46.988l0,0l0,0c-0.545-0.194-1.05-0.389-1.528-0.587
		c-7.164-2.962-7.167-6.402-7.167-6.402v45.579c0,0,0.003,0.019,0.006,0.043C269.417,904.931,270.322,909.357,278.036,912.879z"/>
	<path fill="#B3B3B3" d="M278.033,865.891L278.033,865.891L278.033,865.891z"/>
	<path fill="#B3B3B3" d="M278.036,812.735c0-22.616,0-37.398,0-40.388c0-5.127,1.297-9.73,3.16-13.712
		c4.746-10.144,13.179-16.201,13.218-16.226c-1.492,0.581-2.88,1.224-4.204,1.896c-8.357,4.398-14.92,11.735-18.317,20.634
		c-0.484,1.272-0.907,2.575-1.26,3.905c-0.08,0.305-0.146,0.598-0.213,0.89c-0.046,0.176-0.085,0.354-0.122,0.529
		c-0.134,0.591-0.244,1.16-0.34,1.705c-0.037,0.188-0.073,0.381-0.104,0.572c-0.04,0.237-0.067,0.466-0.104,0.694
		c-0.268,1.832-0.408,3.707-0.408,5.61v25.495C269.341,804.342,269.951,809.043,278.036,812.735z M270.419,769.738
		c-0.04,0.173-0.08,0.354-0.122,0.53c-0.128,0.587-0.244,1.159-0.337,1.701c-0.034,0.194-0.07,0.384-0.104,0.572
		c0.033-0.194,0.07-0.384,0.104-0.572c0.094-0.545,0.203-1.108,0.337-1.701C270.34,770.092,270.38,769.911,270.419,769.738
		c0.07-0.289,0.14-0.588,0.216-0.89C270.56,769.15,270.489,769.449,270.419,769.738z"/>
	<path fill="#B3B3B3" d="M281.196,758.636c4.762-10.171,13.224-16.231,13.224-16.231s0,0-0.003,0
		C294.377,742.435,285.945,748.486,281.196,758.636z"/>
	<path fill="#B3B3B3" d="M270.636,768.846c0.353-1.33,0.776-2.633,1.26-3.905C271.412,766.216,270.995,767.516,270.636,768.846z"/>
	<path fill="#B3B3B3" d="M271.896,764.94c3.397-8.898,9.964-16.235,18.317-20.634C281.859,748.705,275.293,756.042,271.896,764.94z"
		/>
	<path fill="#B3B3B3" d="M278.036,1016.064L278.036,1016.064c0-16.737,0-33.523,0-50.023l0,0l0,0
		c-0.545-0.191-1.05-0.384-1.528-0.584c-7.164-2.965-7.167-6.399-7.167-6.399v48.613
		C269.341,1007.668,269.951,1012.366,278.036,1016.064z"/>
	<path fill="#B3B3B3" d="M278.033,966.041L278.033,966.041L278.033,966.041z"/>
	<path fill="#C2000B" d="M276.508,865.307c0.478,0.201,0.986,0.393,1.532,0.584c0-20.317,0-38.405,0-53.152l0,0l0,0
		c-8.086-3.695-8.695-8.396-8.695-8.396v54.565C269.341,858.907,269.344,862.345,276.508,865.307z"/>
	<path fill="#C2000B" d="M278.033,865.891C278.036,865.891,278.036,865.891,278.033,865.891c0-20.313,0-38.399,0-53.152l0,0
		C278.033,827.485,278.033,845.573,278.033,865.891z"/>
	<path fill="#C2000B" d="M276.508,865.307c-7.164-2.962-7.164-6.399-7.164-6.399S269.344,862.345,276.508,865.307z"/>
	<path fill="#C2000B" d="M278.036,812.735c-8.085-3.692-8.695-8.394-8.695-8.394S269.951,809.043,278.036,812.735z"/>
	<path fill="#C2000B" d="M276.508,965.457c0.478,0.2,0.986,0.393,1.532,0.584c0-18.22,0-36.087,0-53.156l0,0l0,0
		c-7.706-3.519-8.616-7.945-8.689-8.353c-0.003-0.016-0.006-0.04-0.006-0.04v54.565
		C269.341,959.058,269.344,962.488,276.508,965.457z"/>
	<path fill="#C2000B" d="M278.036,966.041c0-18.22,0-36.08,0-53.156l0,0C278.033,929.954,278.033,947.821,278.036,966.041
		L278.036,966.041L278.036,966.041z"/>
	<path fill="#C2000B" d="M278.036,912.879c-7.714-3.521-8.619-7.954-8.689-8.353C269.417,904.939,270.331,909.36,278.036,912.879z"
		/>
	<path fill="#C2000B" d="M276.508,965.457c-7.164-2.969-7.164-6.399-7.164-6.399S269.344,962.488,276.508,965.457z"/>
	<path fill="#C2000B" d="M270.748,1064.943c0.049,0.055,0.091,0.109,0.146,0.164c1.206,1.27,3.346,2.771,7.139,4.109
		c0-17.389,0-35.24,0-53.152l0,0l0,0c-8.085-3.695-8.695-8.396-8.695-8.396v54.569c0,0,0,1.104,1.303,2.596
		C270.681,1064.867,270.712,1064.906,270.748,1064.943z"/>
	<path fill="#FFFFFF" d="M332.431,913.512c7.428-2.435,11.502-5.488,13.449-7.346l0,0
		C343.933,908.018,339.858,911.08,332.431,913.512L332.431,913.512z"/>
	<path fill="#FFFFFF" d="M343.548,964.15c1.029-0.615,1.775-1.208,2.326-1.759l0,0C345.323,962.942,344.577,963.535,343.548,964.15z
		"/>
	<path fill="#FFFFFF" d="M332.431,867.718v45.794c7.428-2.435,11.502-5.488,13.449-7.346v-43.919
		C344.154,863.967,340.431,866.184,332.431,867.718z"/>
	<path fill="#FFFFFF" d="M343.548,964.15c-2.197,1.307-5.659,2.67-11.111,3.711v48.83c7.428-2.436,11.496-5.492,13.443-7.349
		v-46.955C345.323,962.942,344.577,963.535,343.548,964.15z"/>
	<path fill="#FFFFFF" d="M345.88,862.247v-34.793c0-3.714-3.014-6.728-6.722-6.728c-3.705,0-6.719,3.014-6.719,6.728v40.264
		C340.431,866.184,344.154,863.967,345.88,862.247z"/>
	<path fill="#FFFFFF" d="M345.88,862.247L345.88,862.247c-1.726,1.727-5.443,3.937-13.443,5.471l0,0
		C340.431,866.184,344.154,863.967,345.88,862.247z"/>
	<path fill="#FFFFFF" d="M343.548,964.15c-2.197,1.307-5.659,2.67-11.111,3.711l0,0C337.883,966.814,341.344,965.457,343.548,964.15
		z"/>
	<g>
		<path fill="#FF0000" d="M332.431,967.861c5.452-1.047,8.913-2.404,11.117-3.711c1.029-0.615,1.77-1.215,2.32-1.759v-56.226
			c-1.936,1.857-6.016,4.914-13.443,7.346c-3.403,1.118-7.501,2.093-12.427,2.774c-1.102,0.146-2.229,0.285-3.419,0.407
			c-0.033,0.007-0.063,0.007-0.106,0.013c-3.446,0.341-7.267,0.535-11.477,0.535l0,0l0,0c-13.368,0-21.736-1.966-26.969-4.362
			c0,17.075,0,34.939,0,53.156c5.646,1.997,14.953,3.647,30.323,3.647C319.046,969.688,326.793,968.939,332.431,967.861z"/>
		<path fill="#FF0000" d="M332.431,1071.044c8-1.537,11.724-3.748,13.449-5.474v-56.228c-1.947,1.859-6.024,4.919-13.449,7.349
			c-6.399,2.095-15.264,3.732-27.429,3.732c-13.367,0-21.736-1.967-26.966-4.359c0,17.912,0,35.767,0,53.155
			c5.644,2,14.953,3.65,30.32,3.65C319.046,1072.87,326.793,1072.118,332.431,1071.044z"/>
	</g>
	
		<circle fill="#FFFFFF" stroke="#FFFFFF" stroke-width="5.7583" stroke-linecap="round" stroke-linejoin="round" stroke-miterlimit="10" cx="360.739" cy="839.685" r="35.884"/>
	<path stroke="#FFFFFF" stroke-width="6.503" stroke-linecap="round" stroke-linejoin="round" stroke-miterlimit="10" d="
		M360.226,806.894c18.019,0,32.625,14.606,32.625,32.628c0,18.017-14.606,32.623-32.625,32.623
		c-18.02,0-32.629-14.606-32.629-32.623C327.597,821.5,342.206,806.894,360.226,806.894z"/>
	
		<circle fill="#FFFFFF" stroke="#FFFFFF" stroke-width="6.503" stroke-linecap="round" stroke-linejoin="round" stroke-miterlimit="10" cx="379.763" cy="837.958" r="2.909"/>
	<path d="M295.771,888.809c0,0,8.771,1.504,33.104-1.772c0,0,0.706,14.762-16.923,15.803
		C293.531,902.863,295.771,888.809,295.771,888.809z"/>
	
		<path fill="#FFFFFF" stroke="#FFFFFF" stroke-width="5.8908" stroke-linecap="round" stroke-linejoin="round" stroke-miterlimit="10" d="
		M258.705,802.948c20.271,0,36.708,16.433,36.708,36.707s-16.436,36.711-36.708,36.711c-20.274,0-36.714-16.437-36.714-36.711
		S238.431,802.948,258.705,802.948z"/>
	<path stroke="#FFFFFF" stroke-width="6.503" stroke-linecap="round" stroke-linejoin="round" stroke-miterlimit="10" d="
		M258.781,806.894c18.019,0,32.625,14.606,32.625,32.628c0,18.017-14.606,32.623-32.625,32.623
		c-18.02,0-32.626-14.606-32.626-32.623C226.155,821.5,240.762,806.894,258.781,806.894z"/>
	
		<circle fill="#FFFFFF" stroke="#FFFFFF" stroke-width="6.503" stroke-linecap="round" stroke-linejoin="round" stroke-miterlimit="10" cx="276.289" cy="839.248" r="4.201"/>
	<g>
		<path fill="#FFFFFF" d="M296.284,850.48l-0.874-0.967l-6.134-10.004c0.785-0.694,8.098-6.774,21.489-6.774
			c13.255,0,18.476,4.387,19.528,5.386l-4.365,10.284c0,0-1.205,1.458-1.071,1.564c-0.036-0.024-5.96-4.213-14.092-4.213
			C302.308,845.763,296.462,850.335,296.284,850.48z"/>
	</g>
	<path fill="#FFFFFF" d="M298.28,890.756l28.445-1.563c0,0-0.88,3.743-1.619,4.932l-26.561,1.312
		C298.552,895.436,297.611,892.431,298.28,890.756z"/>
	<path fill="#FC4C4C" d="M332.431,913.512v54.35c5.452-1.041,8.913-2.401,11.117-3.708c1.029-0.615,1.77-1.211,2.32-1.759v-56.229
		C343.933,908.018,339.858,911.08,332.431,913.512z"/>
	<path fill="#FC4C4C" d="M332.431,1016.691v54.353c8-1.537,11.724-3.748,13.449-5.474v-56.228
		C343.933,1011.202,339.858,1014.256,332.431,1016.691z"/>
</g>
<g id="capo-c-1" display="none">
	<g display="inline">
		
			<ellipse transform="matrix(0.9992 0.0403 -0.0403 0.9992 31.4656 -11.9951)" fill-rule="evenodd" clip-rule="evenodd" fill="#0B0117" cx="313.176" cy="774.26" rx="76.335" ry="24.233"/>
		<path fill="#1E1E1E" d="M316.447,693.159c-38.605-1.185-56.717-17.053-56.717-17.053c10.117,29.645,4.909,94.047,4.909,94.047
			s15.502,12.65,48.142,13.914c32.641,1.264,40.974-10.32,40.974-10.32c-1.682-28.104,13.582-93.299,13.582-93.299
			S355.053,694.345,316.447,693.159z"/>
		<path fill="#0B0117" d="M367.336,680.448c0,0-11.699-7.692-45.56-8.398c-33.86-0.708-62.046,4.057-62.046,4.057
			s18.112,15.868,56.717,17.053C355.053,694.345,367.336,680.448,367.336,680.448z"/>
		<path fill="#5B5B5B" d="M265.756,748.096c0,0,18.292,8.887,46.53,10.025c28.24,1.14,42.395-6.438,42.395-6.438
			s0.131,7.113-0.452,11.163c0,0-23.309,9.427-44.741,7.445c-21.432-1.981-44.308-8.483-44.308-8.483
			S265.659,751.851,265.756,748.096z"/>
	</g>
</g>
<g id="chapo-c-2" display="none">
	<g display="inline">
		<path d="M265.237,769.082c0,0,30.561,34.383,82.852,29.467c52.289-4.915,27.137-26.959,9.116-34.213L265.237,769.082z"/>
		<path fill="#0B5E46" d="M248.802,729.405c0.129,0.306,0.257,0.61,0.411,0.926c13.453,27.612,16.024,38.751,16.024,38.751
			s23.86,8.212,45.1,8.92c21.24,0.707,46.868-13.666,46.868-13.666s25.731-20.582,23.189-35.417
			c-12.584,3.25-34.936,5.295-71.31,5.36C278.202,734.334,259.776,732.158,248.802,729.405z"/>
		<path fill="#0B0117" d="M361.077,715.696c-45.497-8.631-123.505-12.876-112.276,13.709c10.973,2.753,29.4,4.929,60.284,4.873
			c36.373-0.064,58.724-2.109,71.31-5.361C379.397,723.096,374.047,718.158,361.077,715.696z"/>
		<polygon fill="#FED45B" points="304.062,744.805 306.42,752.061 314.051,752.539 307.877,756.544 310.236,763.799 304.062,759.02 
			297.887,763.024 300.246,756.065 294.072,751.287 301.703,751.765 		"/>
		<polygon fill="#FED45B" points="332.07,743.075 334.38,749.923 341.852,749.086 335.807,754.155 338.116,761.003 332.07,757.288 
			326.025,762.357 328.334,754.991 322.289,751.276 329.762,750.439 		"/>
	</g>
</g>
<g id="chapo-c-4" display="none">
	<g display="inline">
		<path fill="#C2000B" d="M358.619,766.553c0,0-7.733-41.682-48.85-41.682c-41.117,0-40.55,42.908-40.521,53.329
			c0,0,34.574,9.808,64.28,2.631C363.236,773.653,358.619,766.553,358.619,766.553z"/>
		<path fill="#26120B" d="M269.248,778.2c0,0,42.118,30.088,99.479,9.99c57.366-20.099-10.115-21.638-10.115-21.638
			S328.77,785.739,269.248,778.2z"/>
		<path fill="#950B0D" d="M309.77,724.871c0,0-30.144,5.632-30.144,54.405c0,0-0.794,0.118-10.378-1.076
			C269.248,778.2,261.686,723.861,309.77,724.871z"/>
		<path fill="#C2000B" d="M317.593,725.336c0,1.941-1.575,3.516-3.519,3.516h-0.031c-1.944,0-3.516-1.574-3.516-3.516l0,0
			c0-1.942,1.571-3.518,3.516-3.518h0.031C316.018,721.818,317.593,723.394,317.593,725.336L317.593,725.336z"/>
		<g>
			<path fill="#0B0117" d="M340.153,756.18c0,8.582-6.976,16.426-15.582,17.52s-15.584-4.977-15.584-13.559
				s6.978-16.426,15.584-17.52S340.153,747.598,340.153,756.18z"/>
			<path fill="#CECECE" d="M338.716,756.362c0,7.79-6.333,14.91-14.145,15.902c-7.812,0.993-14.146-4.518-14.146-12.307
				c0-7.79,6.334-14.91,14.146-15.902C332.383,743.062,338.716,748.573,338.716,756.362z"/>
		</g>
		<g>
			<g>
				<g>
					<path fill-rule="evenodd" clip-rule="evenodd" fill="#0B0117" d="M317.408,759.989c0,1.003-0.028,2.015,0.008,3.008
						c0.039,1.115,0.737,1.682,1.799,1.496c0.375-0.065,0.77-0.158,1.132-0.339c0.965-0.484,1.546-1.497,1.552-2.631
						c0.006-1.129-0.003-2.254-0.002-3.382c0-0.508,0.16-0.757,0.539-0.864c0.393-0.109,0.606,0.077,0.608,0.571
						c0.007,1.202,0.07,2.396-0.009,3.615c-0.151,2.354-1.692,3.885-3.698,4.255c-2.396,0.443-3.128-1.177-3.137-2.949
						c-0.009-1.759-0.002-3.52-0.001-5.281c0-0.139-0.006-0.277,0.013-0.42c0.053-0.382,0.256-0.674,0.615-0.743
						c0.361-0.07,0.542,0.147,0.545,0.521c0.005,0.803,0.001,1.606,0.001,2.409c0.001,0.247,0,0.494,0,0.741
						C317.386,759.994,317.396,759.991,317.408,759.989z"/>
					<path fill-rule="evenodd" clip-rule="evenodd" fill="#0B0117" d="M320.315,759.14c0,0.788,0.003,1.574-0.002,2.362
						c-0.001,0.485-0.219,0.823-0.576,0.916c-0.367,0.096-0.577-0.12-0.579-0.611c-0.002-1.451,0.047-2.917-0.02-4.348
						c-0.035-0.76-0.183-1.514-0.429-2.176c-0.342-0.913-1.272-1.003-2.197-0.662c-1.036,0.382-1.71,1.249-1.828,2.318
						c-0.06,0.533-0.061,1.059-0.078,1.586c-0.013,0.356-0.147,0.633-0.502,0.766c-0.38,0.143-0.616-0.02-0.636-0.379
						c-0.059-1.064-0.069-2.146,0.486-3.26c0.723-1.449,1.854-2.165,3.182-2.398c1.312-0.232,2.292,0.23,2.72,1.443
						c0.259,0.737,0.356,1.584,0.444,2.411C320.371,757.762,320.315,758.461,320.315,759.14z"/>
					<path fill-rule="evenodd" clip-rule="evenodd" fill="#0B0117" d="M325.93,757.735c0,0.91-0.015,1.826,0.003,2.731
						c0.036,1.758,1.524,2.477,3.119,1.514c0.845-0.511,1.234-1.297,1.39-2.209c0.027-0.157,0.031-0.314,0.056-0.473
						c0.061-0.38,0.258-0.674,0.62-0.736c0.361-0.062,0.547,0.17,0.533,0.538c-0.05,1.366-0.699,2.962-2.056,3.836
						c-2.042,1.315-4.604,0.989-4.817-2.02c-0.136-1.917-0.045-3.909-0.041-5.871c0.002-0.435,0.277-0.788,0.611-0.865
						c0.336-0.076,0.571,0.136,0.578,0.591C325.939,755.756,325.929,756.747,325.93,757.735z"/>
					<path fill-rule="evenodd" clip-rule="evenodd" fill="#0B0117" d="M334.5,754.76c0,1.372,0.004,2.741-0.003,4.114
						c-0.002,0.326-0.094,0.634-0.435,0.83c-0.43,0.248-0.759,0.018-0.749-0.483c0.047-2.462,0.102-4.925,0.103-7.376
						c0-0.353-0.187-0.773-0.44-0.925c-0.528-0.315-1.249,0.266-1.288,1.017c-0.049,0.95-0.022,1.888-0.033,2.832
						c-0.002,0.152,0.027,0.348-0.051,0.459c-0.15,0.213-0.363,0.479-0.556,0.535c-0.167,0.049-0.35-0.155-0.511-0.27
						c-0.044-0.03-0.048-0.134-0.048-0.209c0-1.003-0.057-1.996,0.02-3.013c0.111-1.484,0.887-2.381,2.168-2.639
						c1.106-0.224,1.887,0.524,1.907,1.864c0.016,1.075,0.003,2.16,0.003,3.241C334.558,754.745,334.528,754.752,334.5,754.76z"/>
					<path fill-rule="evenodd" clip-rule="evenodd" fill="#0B0117" d="M323.951,765.862c-1.031,1.229-2.258,2.107-3.642,2.658
						c-0.457,0.184-0.733,0.109-0.793-0.229c-0.074-0.411,0.12-0.749,0.602-0.932c1.304-0.493,2.39-1.374,3.336-2.542
						c0.396-0.489,0.581-0.516,1.034-0.276c0.957,0.504,1.929,0.992,3.129,0.924c1.439-0.081,2.727-0.785,3.837-2.07
						c0.145-0.167,0.271-0.353,0.406-0.526c0.264-0.34,0.551-0.492,0.856-0.3c0.273,0.172,0.268,0.519-0.024,0.942
						c-0.672,0.977-1.503,1.739-2.472,2.313c-1.992,1.181-3.779,1.109-5.457,0.346c-0.23-0.105-0.465-0.204-0.7-0.304
						C324.041,765.857,324.008,765.863,323.951,765.862z"/>
					<path fill-rule="evenodd" clip-rule="evenodd" fill="#0B0117" d="M327.701,756.926c-0.053-1.062-0.036-2.153-0.178-3.181
						c-0.132-0.955-0.865-1.436-1.727-1.36c-1.101,0.096-1.885,0.666-2.419,1.755c-0.199,0.405-0.517,0.606-0.81,0.514
						c-0.305-0.097-0.39-0.402-0.228-0.815c0.61-1.553,2.271-2.739,3.788-2.71c1.695,0.034,2.669,1.151,2.693,3.153
						c0.021,1.662,0.008,3.333,0.003,5.002c-0.001,0.537-0.251,0.909-0.639,0.965c-0.401,0.059-0.536-0.188-0.536-0.575
						c0.001-0.911,0.001-1.822,0.001-2.732C327.668,756.936,327.684,756.931,327.701,756.926z"/>
					<path fill-rule="evenodd" clip-rule="evenodd" fill="#0B0117" d="M316.085,768.538c-0.209-0.08-0.374-0.105-0.494-0.194
						c-1.301-0.952-2.035-2.324-2.071-4.209c-0.009-0.491-0.053-0.974-0.031-1.471c0.022-0.506,0.212-0.717,0.621-0.796
						c0.429-0.084,0.506,0.205,0.536,0.567c0.077,0.928,0.083,1.893,0.276,2.766c0.206,0.926,0.799,1.564,1.483,2.098
						c0.148,0.116,0.196,0.456,0.155,0.699C316.533,768.163,316.268,768.341,316.085,768.538z"/>
				</g>
			</g>
		</g>
	</g>
</g>
<g id="chapo-c-5" display="none">
	<g display="inline">
		<path d="M269.954,770.877c0,0-24.977,8.984-8.229,16.148s78.909,11.511,86.492-10.551c0,0,3.541-25.769-23.22-28.237
			c-26.761-2.47-45.536,2.684-52.948,8.26S269.954,770.877,269.954,770.877z"/>
		<g>
			<path fill="#2B005C" d="M380.423,725.306c-16.723-32.64-36.161-25.806-36.161-25.806l-0.009,0.026
				c9.679,14.561,1.404,39.102-9.317,60.03c8.341,3.511,13.621,8.68,13.621,14.449c0,0.838-0.123,1.66-0.339,2.469
				C369.093,762.102,389.322,742.677,380.423,725.306z"/>
			<path fill="#2B005C" d="M286.46,758.269c-9.74-19.331-17.166-41.478-10.279-55.927l-0.001-0.003c0,0-30.079-1.22-38.571,24.258
				c-4.16,12.481,13.375,29.828,32.346,44.28C271.726,765.663,277.849,761.161,286.46,758.269z"/>
			<path fill="#3B005C" d="M344.253,699.526c-5.169-7.776-15.441-12.713-33.228-12.713c-19.854,0-30.37,6.14-34.845,15.528
				c-6.887,14.449,0.539,36.596,10.279,55.927c2.848-0.955,5.963-1.735,9.285-2.306c4.142-0.713,8.598-1.104,13.243-1.104
				c5.7,0,11.113,0.588,16.01,1.638c3.634,0.778,6.977,1.815,9.938,3.06C345.657,738.628,353.932,714.087,344.253,699.526z"/>
		</g>
		<path fill="#2B005C" d="M269.954,770.877c0,0,12.242,3.612,21.265,3.207s7.806,0.031,7.806,0.031s-7.387-4.693-12.564-15.847
			c0,0-9.131,1.624-12.374,3.955C270.842,764.554,269.954,770.877,269.954,770.877z"/>
		<path fill="#3B005C" d="M285.792,756.928c0,0,4.412,12.656,13.232,17.188c0,0,10.646,0.438,18.35,0
			c7.704-0.437,7.704-0.437,7.704-0.437s6.322-6.871,9.857-14.122c3.534-7.251-2.254-11.955-2.254-11.955l-30.522,0.349
			L285.792,756.928z"/>
		<path fill="#2B005C" d="M325.078,773.679c0,0,16.272,0.422,23.14,2.796c0,0,3.117-8.371-3.675-13.947s-9.607-2.971-9.607-2.971
			S327.713,771.245,325.078,773.679z"/>
	</g>
</g>
<g id="chapo-c-6" display="none">
	<g display="inline">
		<path fill="#002E45" d="M264.993,796.933c39.623,4.864,83.021-13.044,83.021-13.044c-1.524-13.526-7.218-69.292-60.574-63.132
			s-57.147,61.407-57.147,61.407S225.366,792.07,264.993,796.933z"/>
		<path d="M230.303,782.163c0,0-87.338,12.106-9.883,29.594c77.447,17.486,127.594-27.868,127.594-27.868
			C271.903,802.59,230.303,782.163,230.303,782.163z"/>
		<path fill="#001C45" d="M348.014,783.889c-12.259,2.988-13.308,2.952-13.308,2.952c-7.307-63.292-47.266-66.084-47.266-66.084
			C349.685,712.242,348.014,783.889,348.014,783.889z"/>
		<path fill="#002E45" d="M277.358,722.532c-0.291-2.521,1.516-4.802,4.039-5.092l0.04-0.005c2.524-0.292,4.798,1.517,5.089,4.039
			l0,0c0.291,2.517-1.514,4.796-4.035,5.088l-0.041,0.004C279.929,726.857,277.648,725.05,277.358,722.532L277.358,722.532z"/>
	</g>
</g>
<g id="chapo-c-3">
	<path fill="none" d="M241.496,768.914c0.064-0.012,0.124-0.027,0.189-0.039c-1.01-0.732-1.899-1.454-2.67-2.164
		C239.698,767.428,240.507,768.167,241.496,768.914z"/>
	<path fill="none" d="M377.148,797.814c-0.121,0.024-0.236,0.051-0.359,0.074C376.789,797.889,376.919,797.864,377.148,797.814z"/>
	<path fill="none" d="M338.042,784.226l-19.187-6.653l-6.805-1.951l-17-1.394l-21.14-3.729l-3.114-2.223
		c-12.122-0.938-22.236-0.736-29.11,0.6c3.173,2.301,7.497,4.697,12.743,7.098c0.393,0.097,8.822,2.148,9.857,0.113
		c0,0,2.559,4.962,6.423,6.312c1.304,0.451,2.626,0.896,3.981,1.34c0.416,0.09,23.149,4.929,33.281,0.786l-0.435-1.402l5.903-6.075
		l3.124,7.771l-1.204,1.718c0.716,0.843,1.598,1.663,2.709,2.378c4.604,2.961,14.388,7.236,22.54,8.916
		c3.438,0.367,6.738,0.647,9.898,0.85c0.5-0.027,7.623-0.501,8.141-3.629c0,0,1.707,4.277,7.168,3.942
		c4.226-0.142,7.918-0.513,10.973-1.104c-6.092-4.418-16.405-9.198-29.416-13.663H338.042z"/>
	<path fill="#8B6600" d="M347.381,784.226h-0.008c13.011,4.465,23.324,9.245,29.416,13.663c0.123-0.023,0.238-0.05,0.359-0.074
		c1.588-0.348,7.974-1.936,9.252-5.244l0.11-0.438c1.155-6.541-15.496-15.923-40.604-23.949c0.016,0.051,1.223,3.88,1.342,7.438
		C347.368,779.202,347.381,784.226,347.381,784.226z"/>
	<path fill="#8B6600" d="M241.686,768.875c6.874-1.336,16.988-1.537,29.11-0.6c0,0,1.249-4.086,3.292-7.728
		c2.036-3.63,3.786-6.304,3.798-6.321c-23.951-2.205-40.931-0.22-42.241,5.935c0,0-0.039,2.972,3.371,6.55
		C239.787,767.421,240.675,768.143,241.686,768.875z"/>
	<path fill="#8B6600" d="M386.511,792.133l-0.11,0.438l-0.05,0.196c0.062-0.166,0.111-0.335,0.148-0.507
		C386.508,792.218,386.504,792.175,386.511,792.133z"/>
	<path fill="#B99700" d="M377.148,797.814c-0.229,0.05-0.359,0.074-0.359,0.074c-3.055,0.592-6.747,0.963-10.973,1.104
		c-5.461,0.335-7.168-3.942-7.168-3.942c-0.518,3.128-7.641,3.602-8.141,3.629c-3.16-0.202-6.461-0.482-9.898-0.85
		c-8.152-1.68-17.937-5.955-22.54-8.916c-1.111-0.715-1.993-1.535-2.709-2.378l-4.691,6.691l-2.697-8.703
		c-10.132,4.143-32.865-0.696-33.281-0.786c-1.355-0.443-2.678-0.889-3.981-1.34c-3.864-1.351-6.423-6.312-6.423-6.312
		c-1.035,2.035-9.465-0.017-9.857-0.113c-5.246-2.4-9.57-4.797-12.743-7.098c-0.065,0.012-0.125,0.027-0.189,0.039
		c-0.989-0.747-1.798-1.486-2.481-2.203c-2.575-2.366-3.789-4.59-3.371-6.55l-3.669,14.343
		c-1.912,8.988,30.308,23.459,71.966,32.324c40.9,8.699,75.687,8.762,78.75,0.254l0.038-0.004l3.621-14.312
		C385.492,795.093,382.245,796.775,377.148,797.814z M285.604,793.861c-0.451,2.118-2.531,3.469-4.646,3.017
		c-2.116-0.449-3.466-2.53-3.016-4.645s2.528-3.466,4.646-3.017C284.703,789.668,286.052,791.746,285.604,793.861z M335.544,804.488
		c-0.45,2.115-2.53,3.466-4.646,3.017c-2.114-0.451-3.465-2.532-3.015-4.647c0.451-2.113,2.531-3.465,4.645-3.014
		C334.645,800.293,335.993,802.373,335.544,804.488z"/>
	<path fill="#B99700" d="M239.015,766.711c-3.41-3.578-3.371-6.55-3.371-6.55C235.227,762.121,236.44,764.345,239.015,766.711z"/>
	<path fill="#B99700" d="M377.148,797.814c5.097-1.039,8.344-2.722,9.202-5.048l0.05-0.196
		C385.122,795.879,378.736,797.467,377.148,797.814z"/>
	<circle fill="#8B004F" cx="281.773" cy="793.047" r="3.916"/>
	<circle fill="#8B004F" cx="331.712" cy="803.674" r="3.916"/>
	<path fill="#8B004F" d="M312.628,779.748l-0.126,0.589c0,0,0.031,0.272,0.128,0.716l0.787-3.887l0.023-0.119l-5.903,6.075
		l1.726,0.793C311.023,782.934,312.237,781.582,312.628,779.748z"/>
	<path fill="#8B004F" d="M314.212,784.952c0.319,0.524,0.701,1.058,1.148,1.584l1.204-1.718L314.212,784.952z"/>
	<path fill="#8B004F" d="M312.502,780.337l0.126-0.589c-0.391,1.834-1.604,3.186-3.365,4.167l2.55,1.173l0.817-4.035
		C312.533,780.609,312.502,780.337,312.502,780.337z"/>
	<path fill="#8B004F" d="M311.812,785.088l-1.144,8.14l4.691-6.691c-0.447-0.526-0.829-1.06-1.148-1.584L311.812,785.088z"/>
	<path fill="#A5004F" d="M312.63,781.053c0.183,0.838,0.616,2.314,1.582,3.899l2.353-0.134l-3.124-7.771l-0.023,0.119
		L312.63,781.053z"/>
	<path fill="#A5004F" d="M311.812,785.088l2.399-0.136c-0.966-1.585-1.399-3.062-1.582-3.899L311.812,785.088z"/>
	<path fill="#A5004F" d="M307.537,783.122l0.435,1.402c0.455-0.186,0.89-0.386,1.291-0.609L307.537,783.122z"/>
	<path fill="#A5004F" d="M309.263,783.915c-0.401,0.224-0.836,0.424-1.291,0.609l2.697,8.703l1.144-8.14L309.263,783.915z"/>
</g>
<g id="chapo6">
	<g>
		<path fill="#002E45" d="M465.684,581.175c35.814,17.048,82.347,13.822,82.347,13.822c2.819-13.229,14.996-67.576-37.228-78.556
			c-52.224-10.979-73.177,39.898-73.177,39.898S429.866,564.125,465.684,581.175z"/>
		<path d="M437.636,556.342c0,0-86.121-16.064-18.625,24.782c67.49,40.843,129.02,13.873,129.02,13.873
			C470.417,588.68,437.636,556.342,437.636,556.342z"/>
		<path fill="#001C45" d="M548.03,594.997c-12.492-1.041-13.469-1.405-13.469-1.405c13.023-61.948-23.759-77.15-23.759-77.15
			C572.145,527.998,548.03,594.997,548.03,594.997z"/>
		<path fill="#002E45" d="M500.741,514.943c0.52-2.467,2.939-4.047,5.408-3.528l0.039,0.008c2.471,0.52,4.046,2.939,3.527,5.407l0,0
			c-0.519,2.466-2.936,4.045-5.404,3.526l-0.039-0.009C501.804,519.829,500.224,517.409,500.741,514.943L500.741,514.943z"/>
	</g>
</g>
<g id="chapo5">
	<g>
		<path d="M261.332,573.924c0,0-24.977,8.984-8.229,16.148s78.909,11.511,86.492-10.551c0,0,3.541-25.769-23.22-28.237
			c-26.761-2.47-45.536,2.684-52.948,8.26C256.016,565.12,261.332,573.924,261.332,573.924z"/>
		<g>
			<path fill="#2B005C" d="M371.801,528.353c-16.723-32.64-36.161-25.806-36.161-25.806l-0.009,0.026
				c9.679,14.561,1.404,39.102-9.317,60.03c8.341,3.511,13.621,8.68,13.621,14.449c0,0.838-0.123,1.66-0.339,2.469
				C360.471,565.148,380.7,545.724,371.801,528.353z"/>
			<path fill="#2B005C" d="M277.838,561.315c-9.74-19.331-17.166-41.478-10.279-55.927l-0.001-0.003c0,0-30.079-1.22-38.571,24.258
				c-4.161,12.481,13.374,29.828,32.345,44.28C263.104,568.71,269.227,564.208,277.838,561.315z"/>
			<path fill="#3B005C" d="M335.631,502.573c-5.169-7.776-15.441-12.713-33.228-12.713c-19.854,0-30.37,6.14-34.845,15.528
				c-6.887,14.449,0.539,36.596,10.279,55.927c2.848-0.955,5.963-1.735,9.285-2.306c4.142-0.713,8.598-1.104,13.243-1.104
				c5.7,0,11.113,0.588,16.01,1.638c3.634,0.778,6.977,1.815,9.938,3.06C337.035,541.675,345.31,517.134,335.631,502.573z"/>
		</g>
		<path fill="#2B005C" d="M261.332,573.924c0,0,12.242,3.612,21.265,3.207s7.806,0.031,7.806,0.031s-7.387-4.693-12.564-15.847
			c0,0-9.131,1.624-12.374,3.955C262.22,567.601,261.332,573.924,261.332,573.924z"/>
		<path fill="#3B005C" d="M277.17,559.975c0,0,4.412,12.656,13.232,17.188c0,0,10.646,0.438,18.35,0
			c7.704-0.437,7.704-0.437,7.704-0.437s6.322-6.871,9.857-14.122c3.534-7.251-2.254-11.955-2.254-11.955l-30.522,0.349
			L277.17,559.975z"/>
		<path fill="#2B005C" d="M316.456,576.726c0,0,16.272,0.422,23.14,2.796c0,0,3.117-8.371-3.675-13.947s-9.607-2.971-9.607-2.971
			S319.091,574.292,316.456,576.726z"/>
	</g>
</g>
<g id="chapo1">
	<g>
		
			<ellipse transform="matrix(0.9719 -0.2354 0.2354 0.9719 -76.3899 32.5552)" fill-rule="evenodd" clip-rule="evenodd" fill="#0B0117" cx="98.131" cy="336.162" rx="76.336" ry="24.233"/>
		<path fill="#1E1E1E" d="M79.02,257.277c-37.448,9.455-59.22-0.833-59.22-0.833c17.864,25.73,30.529,89.089,30.529,89.089
			s18.379,7.909,50.112,0.168c31.733-7.742,36.567-21.168,36.567-21.168c-9.33-26.564-12.542-93.446-12.542-93.446
			S116.469,247.822,79.02,257.277z"/>
		<path fill="#0B0117" d="M124.467,231.087c0,0-13.361-4.185-46.116,4.428C45.596,244.127,19.8,256.444,19.8,256.444
			s21.771,10.288,59.22,0.833C116.469,247.822,124.467,231.087,124.467,231.087z"/>
		<path fill="#5B5B5B" d="M45.351,324.016c0,0,20.027,3.525,47.495-3.129s38.999-17.826,38.999-17.826s2.078,6.804,2.63,10.859
			c0,0-19.827,15.46-40.98,19.437c-21.152,3.977-44.936,4.003-44.936,4.003S46.289,327.653,45.351,324.016z"/>
	</g>
</g>
<g id="chapo2">
	<g>
		<path d="M205.333,331.695c0,0,37.918,42.66,102.798,36.561c64.877-6.099,33.669-33.449,11.311-42.45L205.333,331.695z"/>
		<path fill="#0B5E46" d="M184.942,282.467c0.161,0.379,0.319,0.757,0.51,1.148c16.691,34.259,19.882,48.08,19.882,48.08
			s29.604,10.189,55.958,11.067c26.354,0.877,58.151-16.956,58.151-16.956s31.926-25.537,28.771-43.944
			c-15.613,4.034-43.346,6.57-88.477,6.652C221.42,288.583,198.558,285.882,184.942,282.467z"/>
		<path fill="#0B0117" d="M324.247,265.458c-56.451-10.709-153.238-15.976-139.307,17.009c13.615,3.416,36.479,6.116,74.797,6.047
			c45.13-0.081,72.861-2.617,88.477-6.652C346.978,274.638,340.339,268.512,324.247,265.458z"/>
		<polygon fill="#FED45B" points="253.505,301.575 256.432,310.576 265.899,311.169 258.239,316.139 261.166,325.14 253.505,319.21 
			245.844,324.18 248.771,315.545 241.11,309.616 250.579,310.209 		"/>
		<polygon fill="#FED45B" points="288.257,299.427 291.122,307.924 300.393,306.886 292.893,313.175 295.758,321.672 
			288.257,317.062 280.756,323.352 283.621,314.213 276.121,309.604 285.393,308.565 		"/>
	</g>
</g>
<g id="chapo3">
	<g>
		<path fill="#8B6600" d="M543.798,330.47c5.478-1.854,8.664-4.178,8.868-6.879c0.691-9.163-33.176-19.19-75.645-22.396
			c-42.47-3.204-77.458,1.626-78.149,10.789c-0.196,2.598,2.388,5.265,7.153,7.826c13.104-4.434,39.332-6.171,69.281-3.911
			C505.737,318.197,531.749,323.996,543.798,330.47z"/>
		<path fill="#B99700" d="M543.798,330.47c-2.947,0.997-6.558,1.857-10.727,2.565c-5.366,1.062-7.631-2.947-7.631-2.947
			c-0.094,3.17-7.089,4.591-7.582,4.687c-3.158,0.223-6.467,0.387-9.922,0.483c-8.305-0.573-18.572-3.5-23.531-5.817
			c-5.398-2.522-6.666-7.754-6.666-7.754l0.046-0.601c-0.889,11.777-36.534,9.075-37.061,9.035
			c-1.403-0.258-2.773-0.524-4.126-0.796c-4.01-0.82-7.211-5.396-7.211-5.396c-0.753,2.156-9.381,1.253-9.783,1.21
			c-5.52-1.677-10.127-3.474-13.579-5.328c-0.062,0.021-0.12,0.043-0.182,0.063c-6.474-3.64-6.972-7.89-6.972-7.89l-1.715,14.705
			c-0.691,9.163,33.177,19.189,75.646,22.395c41.697,3.146,76.179-1.452,78.075-10.294l0.037-0.007l1.695-14.869
			C551.667,327.862,543.798,330.47,543.798,330.47z"/>
		<path fill="#B99700" d="M552.702,323.105l-0.092,0.81C552.673,323.651,552.706,323.381,552.702,323.105z"/>
		<circle fill="#8B004F" cx="448.989" cy="338.397" r="3.916"/>
		<circle fill="#8B004F" cx="499.903" cy="342.24" r="3.916"/>
		<g>
			<polygon fill="#8B004F" points="478.229,318.301 473.191,325.111 477.649,334.708 482.366,325.583 			"/>
			<polyline fill="#A5004F" points="478.229,318.301 478.222,318.421 477.692,326.486 482.366,325.583 			"/>
			<polygon fill="#A5004F" points="477.692,326.486 473.191,325.111 477.649,334.708 			"/>
		</g>
	</g>
</g>
<g id="chapo4">
	<g>
		<path fill="#C2000B" d="M149.103,566.478c0,0-10.038-54.099-63.402-54.099s-52.629,55.69-52.592,69.216
			c0,0,44.874,12.729,83.429,3.415C155.096,575.693,149.103,566.478,149.103,566.478z"/>
		<path fill="#26120B" d="M33.108,581.595c0,0,54.665,39.052,129.114,12.967c74.456-26.087-13.128-28.084-13.128-28.084
			S110.361,591.38,33.108,581.595z"/>
		<path fill="#950B0D" d="M85.701,512.379c0,0-39.122,7.31-39.122,70.612c0,0-1.032,0.154-13.47-1.396
			C33.108,581.595,23.294,511.068,85.701,512.379z"/>
		<path fill="#C2000B" d="M95.854,512.982c0,2.52-2.044,4.562-4.566,4.562h-0.041c-2.523,0-4.563-2.043-4.563-4.562l0,0
			c0-2.521,2.04-4.565,4.563-4.565h0.041C93.811,508.417,95.854,510.461,95.854,512.982L95.854,512.982z"/>
		<g>
			<path fill="#0B0117" d="M125.137,553.015c0,11.139-9.055,21.318-20.225,22.738c-11.17,1.42-20.226-6.459-20.226-17.598
				s9.055-21.318,20.226-22.738C116.082,533.997,125.137,541.876,125.137,553.015z"/>
			<path fill="#CECECE" d="M123.271,553.252c0,10.11-8.22,19.352-18.358,20.64c-10.139,1.288-18.359-5.863-18.359-15.974
				s8.22-19.352,18.359-20.64C115.051,535.99,123.271,543.142,123.271,553.252z"/>
		</g>
		<g>
			<g>
				<g>
					<path fill-rule="evenodd" clip-rule="evenodd" fill="#0B0117" d="M95.615,557.959c0,1.302-0.037,2.614,0.01,3.903
						c0.052,1.448,0.958,2.183,2.335,1.942c0.487-0.085,1-0.205,1.469-0.439c1.253-0.629,2.007-1.943,2.015-3.415
						c0.007-1.466-0.005-2.926-0.003-4.39c0-0.658,0.208-0.982,0.699-1.121c0.51-0.143,0.787,0.1,0.791,0.741
						c0.009,1.561,0.09,3.11-0.012,4.692c-0.197,3.056-2.196,5.042-4.801,5.522c-3.109,0.575-4.059-1.527-4.07-3.828
						c-0.012-2.282-0.003-4.568-0.002-6.854c0-0.18-0.008-0.36,0.017-0.545c0.067-0.495,0.331-0.875,0.798-0.965
						c0.469-0.091,0.703,0.191,0.707,0.678c0.007,1.041,0.003,2.084,0.003,3.126c0,0.321,0,0.642,0,0.963
						C95.585,557.966,95.6,557.962,95.615,557.959z"/>
					<path fill-rule="evenodd" clip-rule="evenodd" fill="#0B0117" d="M99.388,556.856c0,1.022,0.004,2.043-0.001,3.065
						c-0.003,0.63-0.285,1.068-0.749,1.189c-0.477,0.124-0.75-0.156-0.751-0.794c-0.003-1.883,0.06-3.785-0.025-5.643
						c-0.046-0.985-0.237-1.964-0.558-2.823c-0.442-1.186-1.651-1.302-2.851-0.86c-1.345,0.496-2.219,1.621-2.374,3.01
						c-0.077,0.691-0.078,1.374-0.102,2.058c-0.016,0.463-0.19,0.821-0.651,0.994c-0.493,0.186-0.799-0.025-0.825-0.491
						c-0.077-1.382-0.09-2.785,0.631-4.231c0.938-1.881,2.407-2.81,4.129-3.113c1.703-0.301,2.975,0.3,3.529,1.874
						c0.337,0.956,0.463,2.056,0.578,3.129C99.46,555.068,99.388,555.976,99.388,556.856z"/>
					<path fill-rule="evenodd" clip-rule="evenodd" fill="#0B0117" d="M106.675,555.033c0.001,1.182-0.019,2.37,0.005,3.546
						c0.047,2.281,1.978,3.214,4.047,1.964c1.096-0.662,1.602-1.683,1.804-2.866c0.035-0.205,0.04-0.408,0.072-0.614
						c0.077-0.492,0.334-0.874,0.804-0.955c0.469-0.08,0.71,0.221,0.692,0.698c-0.066,1.773-0.907,3.844-2.668,4.979
						c-2.65,1.707-5.976,1.284-6.252-2.621c-0.177-2.488-0.058-5.073-0.053-7.62c0.001-0.563,0.358-1.022,0.792-1.123
						c0.436-0.099,0.742,0.177,0.75,0.767C106.687,552.465,106.675,553.751,106.675,555.033z"/>
					<path fill-rule="evenodd" clip-rule="evenodd" fill="#0B0117" d="M117.799,551.172c0,1.78,0.005,3.558-0.003,5.34
						c-0.002,0.423-0.122,0.822-0.564,1.077c-0.558,0.322-0.985,0.023-0.973-0.627c0.062-3.195,0.132-6.393,0.133-9.573
						c0-0.458-0.242-1.005-0.571-1.201c-0.686-0.409-1.622,0.346-1.672,1.32c-0.063,1.233-0.03,2.449-0.043,3.675
						c-0.002,0.198,0.035,0.451-0.066,0.597c-0.194,0.275-0.471,0.622-0.721,0.694c-0.216,0.063-0.454-0.202-0.663-0.35
						c-0.057-0.04-0.061-0.174-0.061-0.271c-0.001-1.302-0.074-2.591,0.024-3.91c0.144-1.927,1.15-3.09,2.814-3.425
						c1.436-0.29,2.448,0.681,2.475,2.42c0.021,1.396,0.004,2.804,0.004,4.206C117.874,551.152,117.836,551.162,117.799,551.172z"/>
					<path fill-rule="evenodd" clip-rule="evenodd" fill="#0B0117" d="M104.108,565.581c-1.338,1.596-2.93,2.736-4.727,3.451
						c-0.593,0.237-0.951,0.142-1.03-0.297c-0.095-0.534,0.156-0.973,0.782-1.21c1.691-0.64,3.101-1.782,4.329-3.299
						c0.513-0.635,0.754-0.669,1.343-0.358c1.241,0.654,2.502,1.287,4.061,1.199c1.869-0.105,3.538-1.02,4.98-2.688
						c0.188-0.217,0.351-0.457,0.527-0.684c0.342-0.44,0.715-0.639,1.112-0.389c0.354,0.224,0.347,0.673-0.031,1.223
						c-0.872,1.268-1.951,2.258-3.208,3.003c-2.585,1.532-4.905,1.439-7.082,0.449c-0.3-0.137-0.604-0.266-0.908-0.395
						C104.224,565.575,104.182,565.583,104.108,565.581z"/>
					<path fill-rule="evenodd" clip-rule="evenodd" fill="#0B0117" d="M108.974,553.982c-0.068-1.379-0.047-2.794-0.23-4.128
						c-0.171-1.239-1.123-1.863-2.241-1.766c-1.428,0.125-2.447,0.864-3.14,2.277c-0.258,0.526-0.669,0.788-1.051,0.667
						c-0.395-0.125-0.506-0.522-0.294-1.059c0.792-2.015,2.947-3.555,4.916-3.517c2.201,0.044,3.464,1.494,3.497,4.093
						c0.027,2.157,0.01,4.326,0.003,6.491c-0.001,0.697-0.326,1.181-0.829,1.253c-0.521,0.076-0.695-0.244-0.695-0.746
						c0.001-1.183,0-2.365,0-3.547C108.931,553.995,108.952,553.989,108.974,553.982z"/>
					<path fill-rule="evenodd" clip-rule="evenodd" fill="#0B0117" d="M93.899,569.055c-0.272-0.104-0.486-0.138-0.642-0.252
						c-1.688-1.236-2.642-3.018-2.689-5.464c-0.012-0.637-0.068-1.264-0.04-1.908c0.029-0.657,0.275-0.931,0.806-1.033
						c0.557-0.108,0.655,0.267,0.694,0.736c0.101,1.204,0.109,2.456,0.36,3.59c0.266,1.201,1.036,2.03,1.924,2.723
						c0.193,0.15,0.255,0.592,0.202,0.907C94.479,568.568,94.135,568.799,93.899,569.055z"/>
				</g>
			</g>
		</g>
	</g>
</g>
</svg>
