<?xml version="1.0" encoding="utf-8"?>
<!-- Generator: Adobe Illustrator 16.0.4, SVG Export Plug-In . SVG Version: 6.00 Build 0)  -->
<!DOCTYPE svg PUBLIC "-//W3C//DTD SVG 1.1//EN" "http://www.w3.org/Graphics/SVG/1.1/DTD/svg11.dtd">
<svg version="1.1" id="Calque_1" xmlns="http://www.w3.org/2000/svg" xmlns:xlink="http://www.w3.org/1999/xlink" x="0px" y="0px"
	 width="600px" height="1000px" viewBox="0 0 600 1000" enable-background="new 0 0 600 1000" xml:space="preserve">
<g id="Calque_1_1_">
	<rect fill="#579BCC" width="600" height="1000"/>
</g>
<g id="Calque_2">
</g>
<g id="texte">
</g>
<path fill="none" stroke="#000000" stroke-width="7.4045" stroke-miterlimit="10" d="M-10.5,384.111
	c0,0,119.807,95.672,331.081,95.672c211.273,0,285.904-36.783,285.904-36.783"/>
<g>
	<path fill="#FFFFFF" d="M297.42,443.585c-0.035,0.012-0.07,0.023-0.104,0.035c0.014-0.005,0.025-0.008,0.039-0.012
		C297.377,443.601,297.398,443.593,297.42,443.585z"/>
	<path fill="#FFFFFF" d="M270.656,406.2l2.629-3.605c-0.014,0.018-0.028,0.035-0.051,0.062
		C272.938,403.021,271.88,404.353,270.656,406.2z"/>
	<path fill="#FFFFFF" d="M341.206,391.024c-0.138,0.182-0.281,0.355-0.415,0.541l-3.361,4.604c-0.001,0.001-0.012,0.021-0.024,0.053
		C338.932,394.134,340.235,392.353,341.206,391.024z"/>
	<path fill="#FFFFFF" d="M308.595,435.655c-0.044,0.057-0.087,0.115-0.132,0.172c0.078-0.1,0.131-0.17,0.131-0.17L308.595,435.655z"
		/>
	<path fill="#FFFFFF" d="M360.395,234.319c-9.176-6.695-14.006-11.73-16.503-15.383c-7.185,9.846-14.49,19.86-21.776,29.848
		c2.081,3.705,6.206,8.521,14.188,14.346c20.293,14.805,30.828,10.838,30.834,10.836l20.841-28.563
		C387.682,245.756,382.891,250.733,360.395,234.319z"/>
	<path fill="#FFFFFF" d="M270.179,357.964c-9.177-6.695-14.005-11.731-16.502-15.383c-17.938,24.586-30.156,41.33-31.376,43.002
		c3.379,5.574,10.185,13.621,22.956,18.438c19.676,7.414,27.111-0.346,27.979-1.364c0.031-0.037,0.045-0.056,0.059-0.071
		l24.473-33.539C297.478,369.388,292.701,374.396,270.179,357.964z"/>
	<path fill="#FFFFFF" d="M403.992,174.565c-9.177-6.694-14.006-11.729-16.504-15.381c-6.373,8.734-13.25,18.16-20.455,28.035
		c2.08,3.707,6.206,8.523,14.188,14.348c20.297,14.809,30.834,10.834,30.834,10.834l-3.713,5.088l23.24-31.854
		C431.508,185.738,427.064,191.401,403.992,174.565z"/>
	<path fill="#FFFFFF" d="M428.211,103.374c-1.303,1.785-7.736,10.602-17.58,24.094c2.081,3.705,6.208,8.521,14.189,14.346
		c20.251,14.776,30.782,10.856,30.832,10.838l11.099-15.213c9.382-12.855,6.563-30.885-6.29-40.264
		c-3.918-2.859-8.317-4.578-12.804-5.233c1.092,0.171,2.21,0.396,3.364,0.7C451.021,92.642,436.137,92.509,428.211,103.374z"/>
	<path fill="#FFFFFF" d="M315.475,295.884c-9.176-6.695-14.005-11.731-16.502-15.385c-7.652,10.49-15.098,20.694-22.152,30.361
		c2.08,3.707,6.207,8.522,14.189,14.348c20.213,14.747,30.743,10.871,30.83,10.84l21.226-29.088
		C342.84,307.235,338.16,312.435,315.475,295.884z"/>
	<path fill="#FFFFFF" d="M208.897,432.199c-0.653-4.909-0.877-9.546-0.774-13.871C207.983,422.974,208.254,427.612,208.897,432.199z
		"/>
	<path fill="#FFFFFF" d="M423.346,99.834c0.37-0.359,0.771-0.731,1.205-1.111C424.141,99.081,423.738,99.45,423.346,99.834z"/>
	<path fill="#FFFFFF" d="M422.852,100.329c0.14-0.143,0.277-0.283,0.428-0.43C423.135,100.04,422.992,100.184,422.852,100.329z"/>
	<path fill="#FFFFFF" d="M361.385,379.866c-5.918,0.557-11.64,2.931-16.27,6.981C351.938,381.106,360.607,379.958,361.385,379.866z"
		/>
	<path fill="#FFFFFF" d="M303.517,501.276c-2.029,0.334-3.992,0.599-5.89,0.801C299.6,501.883,301.562,501.612,303.517,501.276z"/>
	<path fill="#FFFFFF" d="M307.943,436.453c0.079-0.092,0.145-0.169,0.209-0.246C308.084,436.29,308.014,436.371,307.943,436.453z"/>
	<path fill="#FFFFFF" d="M344.679,387.226c0.009-0.008,0.02-0.016,0.028-0.022C344.697,387.21,344.688,387.218,344.679,387.226z"/>
	<path fill="#FFFFFF" d="M298.134,443.332c0.143-0.055,0.283-0.107,0.423-0.163C298.416,443.224,298.275,443.278,298.134,443.332z"
		/>
	<path fill="#FFFFFF" d="M424.746,98.554c0.193-0.168,0.393-0.336,0.6-0.504C425.143,98.214,424.944,98.384,424.746,98.554z"/>
	<path fill="#FFFFFF" d="M231.085,362.653c4.575-6.271,11.657-15.979,20.439-28.015c0.001-0.002,0.005-0.006,0.005-0.006
		l23.756-32.561c0,0-0.004,0.006-0.005,0.008c6.831-9.361,14.071-19.285,21.532-29.512c0.008-0.014,0.014-0.02,0.014-0.02
		l8.617-11.812L223.722,372.74l-0.001,0.002l0.001-0.002L231.085,362.653z"/>
	<path fill="#FFFFFF" d="M365.497,178.436c7.046-9.656,13.718-18.8,19.823-27.169c0.002-0.004,0.005-0.009,0.008-0.012
		l-26.754,36.666l6.925-9.49C365.499,178.431,365.498,178.435,365.497,178.436z"/>
	<path fill="#FFFFFF" d="M288.611,471.56c8.723-15.862-1.316-26.809-1.316-26.809c0.002,0.001,0.004,0.001,0.006,0.001
		c-4.121-0.404-8.191-1.872-11.771-4.485c-4.438-3.235-7.432-7.721-8.87-12.621c0.017,0.062,0.027,0.101,0.027,0.101
		s-13.333,17.524-31.508,15.092c-17.82-2.383-25.843-9.461-26.156-9.742c3.147,20.797,14.24,40.381,32.536,53.73
		c5.74,4.188,11.853,7.512,18.177,10.004C259.818,496.79,279.901,487.394,288.611,471.56z"/>
	<path fill="#FFFFFF" d="M341.722,211.02c0.002-0.003,0.005-0.01,0.007-0.012L320.576,240c-0.001,0.002-0.003,0.005-0.004,0.008
		C327.656,230.298,334.756,220.567,341.722,211.02z"/>
	<path fill="#FFFFFF" d="M420.194,103.471c0,0,0.009-0.012,0.011-0.015c-0.004,0.004-0.008,0.008-0.012,0.013l-11.105,15.22
		c0,0.003-0.001,0.004-0.002,0.007C416.093,109.093,420.194,103.471,420.194,103.471z"/>
	<path fill="#FFFFFF" d="M332.326,452.059c-10.875-7.934-15.658-13.546-17.67-17.272c-1.086,1.468-1.984,2.688-2.629,3.571
		c-2.696,3.693-6.629,5.344-10.191,6.033c3.02,3.285,9.177,10.727,13.217,20.616c5.464,13.371-10.083,35.571-10.436,36.07
		c19.783-3.676,38.258-14.586,51.023-32.084l4.278-5.864C359.852,463.222,355.418,468.907,332.326,452.059z"/>
	<path fill="#FFFFFF" d="M381.057,385.271c-5.895-4.302-12.877-6.029-19.614-5.41c-8.064,4.412-14.455,11.666-14.455,11.666
		s-3.756,5.006-8.845,11.799c1.719,3.879,5.8,9.262,15.013,15.981c20.294,14.808,30.83,10.837,30.836,10.834l3.36-4.606
		C396.73,412.683,393.913,394.653,381.057,385.271z"/>
	<polygon fill="#FF0000" points="431.588,185.632 455.654,152.65 455.652,152.651 431.584,185.636 	"/>
	<path fill="#FF0000" d="M409.094,118.679l-23.755,32.56c0,0-0.005,0.007-0.011,0.017l23.76-32.566
		C409.09,118.687,409.094,118.679,409.094,118.679z"/>
	<path fill="#FF0000" d="M409.086,118.695c0.001-0.003,0.002-0.004,0.002-0.007l-23.76,32.566c-0.003,0.003-0.006,0.008-0.008,0.012
		C394.89,138.151,403.062,126.951,409.086,118.695z"/>
	<path fill="#FF0000" d="M424.82,141.813c-7.981-5.824-12.108-10.641-14.189-14.346c-6.421,8.8-14.296,19.593-23.143,31.717
		c2.498,3.651,7.327,8.687,16.504,15.381c23.072,16.836,27.516,11.173,27.592,11.07l24.068-32.984
		C455.604,152.67,445.071,156.59,424.82,141.813z"/>
	<path fill="#FF0000" d="M387.994,245.382l20.35-27.893l-20.366,27.913C387.988,245.39,387.994,245.382,387.994,245.382z"/>
	<path fill="#FF0000" d="M341.742,210.988c0,0-0.006,0.007-0.015,0.021l16.847-23.088L341.742,210.988z"/>
	<path fill="#FF0000" d="M365.497,178.436c0.001-0.001,0.002-0.005,0.002-0.005l-6.925,9.49l-16.846,23.088
		c-0.003,0.002-0.006,0.009-0.008,0.012C349.915,199.792,357.92,188.819,365.497,178.436z"/>
	<path fill="#FF0000" d="M381.223,201.567c-7.982-5.824-12.108-10.641-14.188-14.348c-7.433,10.187-15.211,20.847-23.143,31.717
		c2.497,3.652,7.327,8.688,16.503,15.383c22.496,16.414,27.287,11.437,27.583,11.083l20.366-27.913l3.713-5.088
		C412.057,212.401,401.52,216.376,381.223,201.567z"/>
	<path fill="#FF0000" d="M343.074,306.946l24.062-32.98l0,0l-24.071,32.994C343.07,306.952,343.074,306.946,343.074,306.946z"/>
	<polygon fill="#FF0000" points="320.578,239.995 305.443,260.738 320.575,240.001 	"/>
	<path fill="#FF0000" d="M296.812,272.569c7.756-10.629,15.747-21.581,23.759-32.562c0.001-0.003,0.003-0.006,0.004-0.008
		l-15.132,20.737l-8.617,11.812C296.826,272.551,296.82,272.557,296.812,272.569z"/>
	<path fill="#FF0000" d="M336.303,263.13c-7.981-5.824-12.106-10.641-14.188-14.346c-7.798,10.687-15.57,21.34-23.143,31.715
		c2.497,3.652,7.326,8.688,16.502,15.385c22.687,16.551,27.365,11.353,27.591,11.076l24.071-32.994
		C367.131,273.968,356.596,277.935,336.303,263.13z"/>
	<path fill="#FF0000" d="M297.779,369.026l24.063-32.98l-0.004,0.002l-24.074,32.997
		C297.773,369.033,297.779,369.026,297.779,369.026z"/>
	<path fill="#FF0000" d="M291.01,325.208c-7.982-5.824-12.109-10.641-14.189-14.348c-8.369,11.472-16.186,22.184-23.144,31.721
		c2.497,3.65,7.325,8.688,16.502,15.383c22.522,16.433,27.299,11.424,27.586,11.081l24.074-32.997
		C321.753,336.079,311.223,339.955,291.01,325.208z"/>
	<path fill="#FF0000" d="M275.285,302.073l-23.756,32.561c0,0-0.004,0.004-0.005,0.006c6.978-9.562,15.031-20.602,23.756-32.559
		C275.281,302.079,275.285,302.073,275.285,302.073z"/>
	<polygon fill="#FF0000" points="359.924,463.125 383.99,430.142 383.99,430.142 359.92,463.129 	"/>
	<path fill="#FF0000" d="M337.43,396.171l0.002-0.002l-8.205,11.246c0.005-0.007,0.011-0.014,0.015-0.021L337.43,396.171z"/>
	<path fill="#FF0000" d="M337.404,396.224c0.014-0.03,0.023-0.052,0.024-0.053l-8.188,11.225
		C332.23,403.302,335.078,399.407,337.404,396.224z"/>
	<path fill="#FF0000" d="M353.154,419.308c-9.213-6.721-13.294-12.104-15.013-15.981c-7.526,10.049-17.969,24.006-23.485,31.46
		c2.012,3.728,6.795,9.34,17.67,17.273c23.092,16.849,27.524,11.162,27.594,11.069l24.07-32.987
		C383.984,430.144,373.448,434.114,353.154,419.308z"/>
	<path fill="#FF0000" d="M209.318,406.026c0,0,0.35-1.737,1.308-5.41c0.167-0.654,0.337-1.31,0.521-1.96
		c0.444-1.643,0.982-3.571,1.63-5.796c-2.314,6.463-4.405,15.073-4.653,25.468c0.127-4.213,0.591-8.425,1.374-12.602
		C209.383,405.918,209.318,406.026,209.318,406.026z"/>
	<path fill="#FF0000" d="M209.008,433.082c0,0,0.009,0.007,0.015,0.013c-0.045-0.298-0.084-0.597-0.126-0.896
		C208.937,432.495,208.965,432.784,209.008,433.082z"/>
	<path fill="#FF0000" d="M266.659,427.646c-0.212-0.798-1.659-6.59-0.356-12.257c0.748-3.261,2.697-6.69,4.354-9.188l-0.375,0.512
		C265.714,412.974,264.631,420.726,266.659,427.646z"/>
	<path fill="#FF0000" d="M273.323,402.548c0,0-0.021,0.025-0.03,0.036l-0.008,0.011
		C273.309,402.567,273.323,402.548,273.323,402.548z"/>
	<path fill="#FF0000" d="M273.285,402.595l0.008-0.011c-0.014,0.017-0.027,0.034-0.059,0.071
		C273.257,402.63,273.271,402.611,273.285,402.595z"/>
	<path fill="#FF0000" d="M210.625,400.616c0.158-0.604,0.329-1.25,0.521-1.96C210.962,399.308,210.792,399.962,210.625,400.616z"/>
	<path fill="#FF0000" d="M235.179,442.837c18.175,2.435,31.508-15.092,31.508-15.092s-0.011-0.039-0.027-0.1
		c-2.028-6.92-0.945-14.673,3.622-20.935l0.375-0.512c1.224-1.849,2.282-3.182,2.578-3.545c-0.867,1.02-8.303,8.778-27.979,1.364
		c-12.771-4.815-19.576-12.862-22.956-18.438c-0.067,0.092-0.108,0.148-0.108,0.148c-4.039,5.536-11.468,17.938-12.695,19.995
		c-0.783,4.177-1.247,8.389-1.374,12.602c-0.104,4.325,0.121,8.962,0.774,13.871c0.042,0.299,0.081,0.598,0.126,0.896
		C209.335,433.376,217.359,440.454,235.179,442.837z"/>
	<path fill="#FF0000" d="M259.73,496.831c0,0,13.199,7.871,37.896,5.246c-12.684,1.246-25.686-0.438-37.892-5.248L259.73,496.831z"
		/>
	<path fill="#FF0000" d="M304.602,501.101c0,0,0.014-0.018,0.017-0.022c-0.365,0.067-0.732,0.137-1.102,0.199
		C303.879,501.218,304.235,501.165,304.602,501.101z"/>
	<path fill="#FF0000" d="M294.696,444.337c0.304-0.063,0.608-0.133,0.91-0.209c0.071-0.02,0.139-0.039,0.21-0.057
		c0.505-0.134,1.004-0.285,1.5-0.451c-2.02,0.584-5.248,1.176-10.016,1.132c2.025,0.198,4.062,0.145,6.061-0.167
		C293.819,444.521,294.258,444.429,294.696,444.337z"/>
	<path fill="#FF0000" d="M295.606,444.128c-0.302,0.076-0.606,0.146-0.91,0.209C295.005,444.272,295.308,444.202,295.606,444.128z"
		/>
	<path fill="#FF0000" d="M315.053,465.007c-4.04-9.891-10.196-17.331-13.217-20.616c-4.545,0.882-8.488,0.197-8.488,0.197
		c0.006-0.001,0.008-0.002,0.014-0.003c-1.998,0.311-4.035,0.365-6.061,0.167c-0.002,0-0.004,0-0.006-0.001
		c0,0,10.039,10.945,1.316,26.809c-8.71,15.834-28.793,25.23-28.876,25.271c12.206,4.811,25.208,6.494,37.892,5.248
		c1.896-0.202,3.859-0.467,5.89-0.801c0.368-0.062,0.735-0.131,1.102-0.199C304.97,500.578,320.517,478.378,315.053,465.007z"/>
	<path fill="#FF0000" d="M297.355,443.608c-0.014,0.004-0.025,0.007-0.039,0.012c-0.496,0.166-0.995,0.317-1.5,0.451
		C296.344,443.932,296.857,443.778,297.355,443.608z"/>
	<path fill="#B3B3B3" d="M423.278,99.899c0.021-0.021,0.046-0.043,0.066-0.065C423.324,99.855,423.3,99.878,423.278,99.899z"/>
	<path fill="#B3B3B3" d="M420.205,103.456c0.818-1.121,1.705-2.161,2.646-3.127C421.156,102.056,420.266,103.364,420.205,103.456z"
		/>
	<path fill="#B3B3B3" d="M219.362,379.417c0,0,0.005,0.018,0.009,0.029c1.096-1.856,2.249-3.691,3.508-5.484
		c0.268-0.412,0.55-0.818,0.841-1.219c-0.022,0.03-8.268,10.932-10.918,20.027c-0.009,0.03-0.017,0.059-0.026,0.09
		C215.872,384.214,219.362,379.417,219.362,379.417z"/>
	<path fill="#B3B3B3" d="M424.551,98.723c0.064-0.057,0.13-0.113,0.195-0.169C424.681,98.61,424.614,98.666,424.551,98.723z"/>
	<path fill="#B3B3B3" d="M447.657,91.941c-10.268-1.603-17.771,2.388-22.312,6.108C431.652,92.938,439.791,90.794,447.657,91.941z"
		/>
	<path fill="#B3B3B3" d="M276.82,310.86c7.055-9.667,14.5-19.871,22.152-30.361c-3.638-5.323-2.308-7.699-2.16-7.93
		c-7.461,10.227-14.701,20.149-21.532,29.512C275.229,302.179,273.662,305.235,276.82,310.86z"/>
	<path fill="#B3B3B3" d="M367.033,187.22c7.205-9.875,14.082-19.301,20.455-28.035c-3.605-5.273-2.336-7.65-2.168-7.918
		c-6.105,8.369-12.777,17.513-19.823,27.169C365.466,178.493,363.854,181.556,367.033,187.22z"/>
	<path fill="#B3B3B3" d="M409.086,118.695c-0.109,0.212-1.55,3.259,1.545,8.772c9.844-13.492,16.277-22.309,17.58-24.094
		c7.926-10.865,22.812-10.732,22.812-10.732c-1.154-0.305-2.272-0.529-3.364-0.7c-7.866-1.147-16.005,0.997-22.312,6.108
		c-0.207,0.168-0.405,0.336-0.6,0.504c-0.065,0.056-0.131,0.112-0.195,0.169c-0.434,0.38-0.835,0.752-1.205,1.111
		c-0.021,0.022-0.045,0.044-0.066,0.065c-0.149,0.146-0.288,0.287-0.428,0.43c-0.94,0.966-1.827,2.006-2.646,3.127
		c-0.002,0.003-0.011,0.015-0.011,0.015S416.093,109.093,409.086,118.695z"/>
	<path fill="#B3B3B3" d="M322.114,248.784c7.286-9.987,14.593-20.002,21.776-29.848c-3.595-5.257-2.345-7.637-2.17-7.916
		c-6.966,9.547-14.064,19.277-21.149,28.988C320.485,240.173,318.993,243.224,322.114,248.784z"/>
	<path fill="#B3B3B3" d="M219.371,379.446c0.073,0.237,0.857,2.719,2.929,6.137c1.221-1.672,13.438-18.416,31.376-43.002
		c-3.764-5.506-2.214-7.854-2.152-7.941c-8.782,12.036-15.864,21.742-20.439,28.015l-7.363,10.088l-0.001,0.002
		c-0.292,0.4-0.574,0.807-0.841,1.219C221.62,375.755,220.467,377.59,219.371,379.446z"/>
	<path fill="#890000" d="M387.488,159.185c8.847-12.124,16.722-22.917,23.143-31.717c-3.095-5.514-1.654-8.561-1.545-8.772
		c-6.023,8.256-14.196,19.456-23.766,32.571C385.152,151.534,383.883,153.911,387.488,159.185z"/>
	<path fill="#890000" d="M343.892,218.937c7.932-10.87,15.71-21.53,23.143-31.717c-3.179-5.664-1.567-8.727-1.536-8.784
		c-7.577,10.384-15.582,21.356-23.775,32.585C341.547,211.3,340.297,213.68,343.892,218.937z"/>
	<path fill="#890000" d="M298.973,280.499c7.571-10.375,15.345-21.028,23.143-31.715c-3.121-5.561-1.629-8.611-1.543-8.775
		c-8.013,10.979-16.003,21.933-23.759,32.562C296.665,272.8,295.335,275.176,298.973,280.499z"/>
	<path fill="#890000" d="M275.28,302.081c-8.725,11.957-16.778,22.995-23.756,32.559c-0.062,0.088-1.611,2.437,2.152,7.941
		c6.958-9.537,14.774-20.249,23.144-31.721C273.662,305.235,275.229,302.179,275.28,302.081z"/>
	<path fill="#B3B3B3" d="M209.318,406.026c0,0,0.065-0.108,0.179-0.3c0.32-1.711,0.696-3.415,1.128-5.11
		C209.667,404.289,209.318,406.026,209.318,406.026z"/>
	<path fill="#B3B3B3" d="M219.371,379.446c-0.004-0.013-0.009-0.029-0.009-0.029s-3.49,4.797-6.586,13.443
		c-0.648,2.225-1.187,4.153-1.63,5.796C213.012,392.038,215.75,385.583,219.371,379.446z"/>
	<path fill="#890000" d="M211.146,398.656c-0.191,0.71-0.363,1.355-0.521,1.96c-0.433,1.695-0.808,3.399-1.128,5.111
		c1.227-2.06,8.656-14.459,12.695-19.996c0,0,0.042-0.058,0.108-0.148c-2.072-3.418-2.856-5.898-2.929-6.137
		C215.75,385.583,213.012,392.038,211.146,398.656z"/>
	<path fill="#B3B3B3" d="M344.707,387.202c0.134-0.122,0.271-0.235,0.408-0.354C344.979,386.964,344.842,387.083,344.707,387.202z"
		/>
	<path fill="#B3B3B3" d="M361.447,379.858c0,0-0.026,0.004-0.062,0.008c0.021-0.002,0.037-0.004,0.058-0.006
		C361.443,379.86,361.445,379.858,361.447,379.858z"/>
	<path fill="#B3B3B3" d="M328.807,407.99l0.42-0.575c-9.563,13.088-20.573,28.162-20.632,28.24c0.164-0.21,0.329-0.418,0.487-0.633
		L328.807,407.99z"/>
	<path fill="#B3B3B3" d="M297.42,443.585c0.238-0.08,0.478-0.164,0.714-0.253C297.901,443.421,297.66,443.503,297.42,443.585z"/>
	<path fill="#B3B3B3" d="M298.557,443.169c3.54-1.402,6.781-3.659,9.388-6.716C306.652,437.941,303.439,441.187,298.557,443.169z"/>
	<path fill="#B3B3B3" d="M341.275,390.929c-0.021,0.03-0.048,0.065-0.069,0.097c1.062-1.388,2.223-2.659,3.473-3.8
		C343.459,388.302,342.304,389.524,341.275,390.929z"/>
	<path fill="#B3B3B3" d="M308.152,436.207c0.104-0.126,0.207-0.252,0.311-0.38C308.393,435.919,308.287,436.046,308.152,436.207z"/>
	<path fill="#B3B3B3" d="M300.039,442.533c0,0,0.688,0.65,1.797,1.856c3.562-0.689,7.495-2.34,10.191-6.033
		c0.645-0.885,1.543-2.104,2.629-3.571c-2.295-4.253-0.982-6.056-0.982-6.056l15.133-20.739l-19.725,27.032
		c-0.158,0.215-0.323,0.423-0.487,0.633l-0.001,0.002c0,0-0.053,0.069-0.131,0.17c-0.104,0.128-0.205,0.254-0.311,0.38
		c-0.064,0.077-0.131,0.154-0.209,0.246c-2.605,3.057-5.848,5.312-9.388,6.716c-0.14,0.056-0.28,0.108-0.423,0.163
		c-0.237,0.089-0.476,0.173-0.714,0.253c-0.021,0.008-0.043,0.016-0.064,0.023C299.22,443.064,300.039,442.533,300.039,442.533z"/>
	<path fill="#B3B3B3" d="M338.143,403.325c5.089-6.793,8.845-11.799,8.845-11.799s6.391-7.254,14.455-11.666
		c-0.021,0.002-0.037,0.004-0.058,0.006c-0.776,0.092-9.445,1.24-16.27,6.981c-0.137,0.118-0.274,0.231-0.408,0.354
		c-0.01,0.008-0.02,0.016-0.028,0.022c-1.25,1.141-2.41,2.412-3.473,3.8c-0.971,1.327-2.274,3.108-3.802,5.198
		C337.229,396.593,336.244,399.037,338.143,403.325z"/>
	<path fill="#B3B3B3" d="M329.24,407.396c-0.004,0.006-0.01,0.013-0.015,0.02l-0.42,0.575L329.24,407.396z"/>
	<path fill="#890000" d="M337.404,396.224c-2.326,3.185-5.174,7.078-8.164,11.172l-0.435,0.596l-15.133,20.738
		c0,0-1.312,1.804,0.982,6.057c5.518-7.454,15.959-21.411,23.485-31.46C336.244,399.037,337.229,396.593,337.404,396.224z"/>
	<path fill="#B3B3B3" d="M295.816,444.071c-0.071,0.018-0.139,0.037-0.21,0.057C295.677,444.109,295.746,444.089,295.816,444.071z"
		/>
	<path fill="#B3B3B3" d="M293.361,444.585c0.447-0.068,0.892-0.153,1.335-0.248C294.258,444.429,293.819,444.521,293.361,444.585z"
		/>
	<path fill="#890000" d="M297.355,443.608c-0.498,0.17-1.012,0.322-1.539,0.463c-0.07,0.018-0.14,0.038-0.21,0.057
		c-0.299,0.074-0.602,0.146-0.91,0.209c-0.443,0.095-0.888,0.18-1.335,0.248c-0.006,0.001-0.008,0.002-0.014,0.003
		c0,0,3.943,0.685,8.488-0.197c-1.108-1.206-1.797-1.856-1.797-1.856S299.22,443.064,297.355,443.608z"/>
</g>
<circle fill="#FFFFFF" stroke="#FFFFFF" stroke-width="4.803" stroke-linecap="round" stroke-linejoin="round" stroke-miterlimit="10" cx="458.244" cy="171.662" r="29.932"/>
<path stroke="#FFFFFF" stroke-width="4.803" stroke-linecap="round" stroke-linejoin="round" stroke-miterlimit="10" d="
	M472.688,186.292c-7.847,10.752-22.92,13.109-33.671,5.264c-10.752-7.846-13.108-22.918-5.265-33.671
	c7.847-10.751,22.919-13.108,33.673-5.264C478.176,160.466,480.533,175.542,472.688,186.292z"/>
<circle stroke="#FFFFFF" stroke-width="4.803" stroke-linecap="round" stroke-linejoin="round" stroke-miterlimit="10" cx="465.558" cy="179.659" r="2.148"/>
<path fill="#FFFFFF" stroke="#FFFFFF" stroke-width="4.803" stroke-linecap="round" stroke-linejoin="round" stroke-miterlimit="10" d="
	M417.447,141.895c-9.743,13.352-28.467,16.279-41.816,6.539c-13.354-9.745-16.282-28.469-6.538-41.82
	c9.743-13.354,28.467-16.279,41.819-6.537C424.264,109.819,427.189,128.542,417.447,141.895z"/>
<path stroke="#FFFFFF" stroke-width="4.803" stroke-linecap="round" stroke-linejoin="round" stroke-miterlimit="10" d="
	M412.159,142.13c-7.847,10.751-22.922,13.105-33.669,5.263c-10.752-7.845-13.11-22.919-5.265-33.671
	c7.846-10.75,22.921-13.109,33.673-5.264C417.646,116.302,420.004,131.377,412.159,142.13z"/>
<circle stroke="#FFFFFF" stroke-width="4.803" stroke-linecap="round" stroke-linejoin="round" stroke-miterlimit="10" cx="403.26" cy="135.386" r="3.105"/>
<line fill="none" stroke="#000000" stroke-width="12.7551" stroke-miterlimit="10" x1="201.139" y1="138.266" x2="518.442" y2="369.782"/>
<circle fill="#FFFFFF" stroke="#000000" stroke-width="12.7551" stroke-miterlimit="10" cx="523.767" cy="373.665" r="26.362"/>
<circle fill="#FFFFFF" stroke="#000000" stroke-width="12.7551" stroke-miterlimit="10" cx="201.137" cy="138.263" r="28.997"/>
<path fill="#FFFFFF" d="M434.288,327.419c-10.142,2.242-20.181-4.16-22.422-14.303l-4.188-18.922
	c-2.239-10.143,4.164-20.177,14.306-22.42l0,0c10.143-2.242,20.18,4.157,22.421,14.3l4.187,18.922
	C450.832,315.138,444.43,325.177,434.288,327.419L434.288,327.419z"/>
<path fill="#FFFFFF" d="M306.893,179.231c1.479,10.321-5.686,19.891-16.014,21.369l-19.258,2.761
	c-10.322,1.481-19.887-5.687-21.369-16.014l0,0c-1.479-10.321,5.689-19.886,16.013-21.368l19.257-2.76
	C295.848,161.739,305.412,168.909,306.893,179.231L306.893,179.231z"/>
<path fill="none" stroke="#FFFFFF" stroke-width="8.9285" stroke-linecap="round" stroke-linejoin="round" stroke-miterlimit="10" d="
	M345.63,189.552"/>
<path fill="none" stroke="#FFFFFF" stroke-width="8.9285" stroke-linecap="round" stroke-linejoin="round" stroke-miterlimit="10" d="
	M312.764,183.814"/>
<path fill="none" stroke="#FFFFFF" stroke-width="8.9285" stroke-linecap="round" stroke-linejoin="round" stroke-miterlimit="10" d="
	M413.912,229.765c0,0,28.879,15.241,16.68,45.891"/>
<path fill="none" stroke="#FFFFFF" stroke-width="8.9285" stroke-linecap="round" stroke-linejoin="round" stroke-miterlimit="10" d="
	M305.303,169.599c0,0,15.079-15.845,45.499,8.062"/>
<circle cx="394.896" cy="192.782" r="8.363"/>
<polyline fill="none" stroke="#FFFFFF" stroke-width="20" stroke-linecap="round" stroke-linejoin="round" stroke-miterlimit="10" points="
	107.085,697.603 219.772,763.609 481.443,565.59 "/>
<polygon fill="#FFFFFF" stroke="#FFFFFF" stroke-width="20" stroke-linecap="round" stroke-linejoin="round" stroke-miterlimit="10" points="
	495.467,585.378 465.684,548.896 512.801,540.828 "/>
</svg>
