<?xml version="1.0" encoding="utf-8"?>
<!-- Generator: Adobe Illustrator 16.0.4, SVG Export Plug-In . SVG Version: 6.00 Build 0)  -->
<!DOCTYPE svg PUBLIC "-//W3C//DTD SVG 1.1//EN" "http://www.w3.org/Graphics/SVG/1.1/DTD/svg11.dtd">
<svg version="1.1" id="Calque_1" xmlns="http://www.w3.org/2000/svg" xmlns:xlink="http://www.w3.org/1999/xlink" x="0px" y="0px"
	 width="300px" height="300px" viewBox="0 0 300 300" enable-background="new 0 0 300 300" xml:space="preserve">
<g enable-background="new    ">
	<path fill="#FFFFFF" d="M112.808,183.201c0.164-0.576,0.391-1.102,0.682-1.576c0.292-0.473,0.623-0.883,0.994-1.225
		c0.371-0.344,0.763-0.624,1.177-0.84c0.414-0.215,0.813-0.359,1.199-0.433c0.562-0.106,1.062-0.052,1.504,0.163
		c0.441,0.217,0.716,0.605,0.823,1.167c0.083,0.438,0.06,0.935-0.072,1.486c-0.581,2.292-1.178,4.603-1.789,6.928
		c-0.611,2.326-1.236,4.604-1.875,6.835c-0.638,2.232-1.27,4.385-1.893,6.457c-0.623,2.074-1.237,4.005-1.842,5.793
		c-0.604,1.789-1.185,3.398-1.738,4.832c-0.555,1.434-1.076,2.633-1.564,3.599c1.507-0.396,2.874-0.802,4.104-1.219
		c1.229-0.416,2.411-0.851,3.543-1.302c1.132-0.453,2.265-0.928,3.397-1.426c1.132-0.498,2.356-1.018,3.672-1.559
		c0.08-0.053,0.172-0.098,0.273-0.135c0.103-0.037,0.197-0.064,0.285-0.08c0.543-0.104,1.015,0.029,1.413,0.398
		c0.396,0.369,0.647,0.826,0.751,1.371c0.063,0.332-0.184,0.748-0.744,1.246c-0.56,0.497-1.353,1.035-2.379,1.612
		c-1.027,0.577-2.249,1.177-3.666,1.803c-1.418,0.626-2.962,1.229-4.633,1.812c-1.672,0.581-3.431,1.125-5.28,1.633
		c-1.85,0.506-3.704,0.938-5.563,1.291c-2.158,0.412-4.047,0.617-5.665,0.617c-1.619-0.002-2.982-0.168-4.092-0.504
		c-1.109-0.334-1.974-0.814-2.593-1.441c-0.62-0.627-1.01-1.362-1.171-2.205c-0.156-0.824-0.136-1.551,0.062-2.18
		s0.531-1.169,1-1.622s1.052-0.828,1.75-1.124c0.697-0.297,1.468-0.525,2.31-0.687c0.685-0.13,1.419-0.143,2.202-0.038
		c0.784,0.105,1.568,0.288,2.354,0.547c0.786,0.26,1.545,0.569,2.277,0.93c0.732,0.361,1.383,0.742,1.95,1.143
		c0.203-1.129,0.466-2.398,0.788-3.805c0.323-1.407,0.682-2.889,1.075-4.447c0.395-1.557,0.818-3.155,1.269-4.797
		c0.45-1.641,0.906-3.259,1.365-4.855c0.46-1.597,0.911-3.137,1.356-4.623c0.443-1.484,0.857-2.845,1.24-4.082
		c0.382-1.236,0.725-2.329,1.025-3.277C112.394,184.435,112.632,183.707,112.808,183.201z M94.992,216.954
		c0.044,0.228,0.21,0.437,0.502,0.628c0.29,0.189,0.715,0.34,1.272,0.451c0.558,0.113,1.257,0.156,2.099,0.133
		c0.841-0.023,1.833-0.135,2.977-0.336c-0.58-0.18-1.166-0.373-1.76-0.578c-0.595-0.204-1.161-0.388-1.701-0.549
		c-0.539-0.16-1.026-0.285-1.463-0.375c-0.435-0.091-0.793-0.109-1.073-0.055C95.213,216.393,94.929,216.62,94.992,216.954z"/>
	<path fill="#FFFFFF" d="M132.163,195.74c0.667-0.127,1.399-0.175,2.195-0.145c0.798,0.029,1.561,0.193,2.29,0.491
		c0.729,0.298,1.374,0.751,1.937,1.362c0.562,0.612,0.94,1.426,1.134,2.443c0.101,0.527,0.145,1.141,0.133,1.843
		c-0.012,0.703-0.088,1.449-0.228,2.239c0.216,0.177,0.446,0.289,0.69,0.332c0.245,0.045,0.5,0.041,0.762-0.008
		c0.369-0.07,0.757-0.254,1.164-0.551c0.407-0.295,0.816-0.654,1.227-1.078c0.41-0.423,0.812-0.892,1.205-1.402
		c0.395-0.512,0.761-1.018,1.103-1.52c0.341-0.502,0.646-0.973,0.916-1.416c0.271-0.441,0.494-0.816,0.673-1.123
		c0.099-0.146,0.236-0.236,0.412-0.27c0.245-0.047,0.488,0.039,0.73,0.256c0.241,0.218,0.405,0.555,0.492,1.011
		s0.052,1.009-0.106,1.656c-0.158,0.649-0.544,1.368-1.157,2.157c-0.334,0.537-0.717,1.156-1.146,1.855
		c-0.431,0.701-0.902,1.372-1.416,2.016s-1.069,1.213-1.666,1.709c-0.597,0.495-1.229,0.807-1.895,0.934
		c-0.457,0.087-0.913,0.102-1.369,0.043c-0.457-0.059-0.936-0.205-1.434-0.437c-0.444,1.104-0.993,2.136-1.646,3.097
		c-0.654,0.96-1.421,1.824-2.302,2.593s-1.865,1.425-2.953,1.968c-1.087,0.544-2.28,0.939-3.578,1.188
		c-0.491,0.093-1.08,0.104-1.766,0.035c-0.687-0.068-1.366-0.271-2.039-0.606c-0.674-0.336-1.28-0.825-1.82-1.468
		c-0.541-0.643-0.91-1.48-1.107-2.517c-0.134-0.701-0.18-1.565-0.14-2.593c0.041-1.025,0.195-2.104,0.461-3.236
		s0.656-2.28,1.172-3.442c0.515-1.161,1.186-2.243,2.013-3.247s1.824-1.875,2.993-2.617
		C129.264,196.553,130.619,196.035,132.163,195.74z M131.678,200.635c-0.825,0.156-1.58,0.514-2.264,1.072
		c-0.686,0.558-1.257,1.23-1.717,2.018c-0.459,0.787-0.782,1.641-0.972,2.559c-0.188,0.918-0.197,1.824-0.026,2.719
		c0.063,0.334,0.159,0.692,0.287,1.078c0.127,0.384,0.307,0.73,0.539,1.041c0.232,0.312,0.528,0.551,0.887,0.719
		c0.359,0.168,0.803,0.201,1.328,0.101c0.808-0.153,1.553-0.518,2.233-1.094c0.682-0.575,1.254-1.266,1.719-2.073
		c0.465-0.807,0.788-1.682,0.973-2.626c0.184-0.944,0.189-1.864,0.02-2.759c-0.067-0.351-0.158-0.711-0.273-1.08
		c-0.116-0.368-0.288-0.695-0.515-0.979c-0.227-0.284-0.518-0.498-0.872-0.639C132.671,200.551,132.222,200.531,131.678,200.635z"/>
	<path fill="#FFFFFF" d="M154.482,191.488c0.667-0.127,1.398-0.176,2.195-0.146c0.797,0.031,1.56,0.194,2.289,0.492
		c0.729,0.297,1.375,0.751,1.938,1.362c0.562,0.612,0.94,1.425,1.134,2.443c0.101,0.526,0.145,1.14,0.133,1.843
		s-0.088,1.449-0.228,2.239c0.215,0.177,0.445,0.288,0.69,0.331c0.245,0.045,0.499,0.043,0.762-0.008
		c0.369-0.07,0.757-0.254,1.164-0.55s0.816-0.654,1.227-1.079c0.41-0.422,0.812-0.891,1.205-1.402s0.761-1.018,1.102-1.52
		c0.341-0.501,0.646-0.973,0.917-1.414c0.27-0.443,0.494-0.817,0.672-1.125c0.1-0.146,0.237-0.236,0.413-0.27
		c0.245-0.047,0.489,0.039,0.73,0.256c0.241,0.219,0.405,0.555,0.492,1.012c0.087,0.456,0.052,1.008-0.106,1.656
		c-0.159,0.648-0.544,1.367-1.157,2.156c-0.335,0.537-0.717,1.156-1.147,1.856c-0.43,0.7-0.901,1.372-1.416,2.016
		c-0.514,0.644-1.068,1.213-1.665,1.708c-0.597,0.496-1.229,0.807-1.895,0.934c-0.457,0.088-0.913,0.102-1.37,0.043
		c-0.456-0.059-0.935-0.204-1.434-0.436c-0.444,1.104-0.992,2.135-1.646,3.096c-0.654,0.961-1.421,1.825-2.302,2.594
		c-0.881,0.768-1.866,1.424-2.953,1.967c-1.087,0.545-2.28,0.939-3.579,1.188c-0.491,0.094-1.08,0.104-1.766,0.035
		c-0.687-0.068-1.366-0.271-2.038-0.605c-0.674-0.336-1.28-0.825-1.82-1.469c-0.541-0.642-0.91-1.48-1.107-2.516
		c-0.134-0.701-0.181-1.566-0.14-2.593c0.041-1.024,0.194-2.104,0.46-3.237s0.656-2.279,1.172-3.441s1.187-2.244,2.013-3.248
		c0.827-1.004,1.825-1.875,2.993-2.616S152.938,191.781,154.482,191.488z M153.997,196.381c-0.825,0.157-1.579,0.514-2.265,1.072
		c-0.685,0.559-1.257,1.23-1.716,2.018c-0.459,0.788-0.782,1.641-0.972,2.559c-0.188,0.919-0.197,1.824-0.027,2.719
		c0.063,0.334,0.159,0.693,0.287,1.078s0.308,0.732,0.54,1.042c0.231,0.312,0.527,0.55,0.887,0.718s0.802,0.201,1.328,0.102
		c0.808-0.154,1.552-0.518,2.233-1.094s1.254-1.266,1.719-2.074c0.465-0.806,0.788-1.68,0.973-2.625
		c0.183-0.945,0.189-1.865,0.02-2.759c-0.067-0.351-0.158-0.712-0.274-1.079c-0.115-0.369-0.287-0.697-0.514-0.98
		c-0.228-0.283-0.518-0.497-0.872-0.639C154.99,196.297,154.54,196.277,153.997,196.381z"/>
	<path fill="#FFFFFF" d="M194.462,190.879c0.218-0.188,0.425-0.345,0.618-0.473c0.194-0.127,0.387-0.21,0.58-0.246
		c0.387-0.074,0.703,0.016,0.951,0.268c0.248,0.253,0.413,0.59,0.493,1.012c0.087,0.456,0.058,0.943-0.089,1.463
		c-0.147,0.518-0.428,0.98-0.841,1.387c-1.61,1.762-3.041,3.361-4.295,4.801c-1.253,1.439-2.454,2.7-3.603,3.781
		c-1.147,1.083-2.302,1.972-3.46,2.666c-1.159,0.691-2.449,1.174-3.871,1.445c-1.333,0.254-2.411,0.205-3.232-0.146
		c-0.822-0.354-1.314-0.959-1.479-1.82c-0.013-0.068-0.026-0.135-0.037-0.195c-0.012-0.062-0.019-0.139-0.017-0.23
		c-0.03-0.539,0.126-1.195,0.47-1.971c0.343-0.775,0.777-1.594,1.305-2.457c0.526-0.865,1.095-1.746,1.705-2.645
		c0.61-0.897,1.172-1.746,1.684-2.543c0.512-0.798,0.925-1.518,1.239-2.16c0.313-0.642,0.438-1.137,0.371-1.488
		c-0.041-0.211-0.16-0.36-0.359-0.45c-0.198-0.089-0.5-0.097-0.903-0.019c-0.702,0.133-1.396,0.426-2.084,0.873
		c-0.688,0.451-1.346,1.004-1.975,1.66c-0.63,0.656-1.228,1.384-1.794,2.182c-0.565,0.8-1.082,1.617-1.551,2.451
		c-0.469,0.836-0.884,1.664-1.244,2.486c-0.361,0.824-0.659,1.577-0.894,2.258c-0.067,0.213-0.166,0.514-0.292,0.901
		s-0.262,0.822-0.405,1.304c-0.146,0.483-0.3,0.981-0.466,1.494c-0.166,0.514-0.314,0.996-0.446,1.449
		c-0.132,0.452-0.251,0.855-0.355,1.213c-0.105,0.355-0.181,0.603-0.228,0.738c-0.058,0.176-0.146,0.501-0.264,0.979
		c-0.118,0.477-0.253,1.034-0.404,1.672c-0.15,0.639-0.31,1.309-0.476,2.014c-0.165,0.705-0.321,1.371-0.464,1.998
		c-0.145,0.627-0.271,1.18-0.381,1.654c-0.109,0.476-0.175,0.797-0.197,0.965c-0.089,0.49-0.214,0.959-0.373,1.407
		c-0.16,0.45-0.364,0.856-0.613,1.224c-0.248,0.363-0.553,0.678-0.912,0.936c-0.359,0.26-0.785,0.437-1.276,0.53
		c-0.632,0.12-1.178,0.092-1.639-0.083c-0.461-0.176-0.761-0.623-0.897-1.344c-0.067-0.35-0.082-0.72-0.047-1.109
		c0.034-0.388,0.098-0.777,0.187-1.166c0.089-0.391,0.185-0.772,0.286-1.146c0.102-0.373,0.192-0.731,0.272-1.074
		c0.613-1.936,1.243-3.877,1.889-5.83c0.647-1.949,1.258-3.875,1.832-5.775s1.089-3.758,1.543-5.572
		c0.454-1.813,0.79-3.533,1.009-5.156c0.08-0.342,0.188-0.827,0.323-1.452c0.135-0.626,0.307-1.249,0.516-1.872
		c0.209-0.621,0.472-1.176,0.787-1.664c0.316-0.486,0.703-0.773,1.159-0.861c0.701-0.133,1.236-0.096,1.604,0.117
		c0.367,0.213,0.602,0.581,0.701,1.106c0.021,0.106,0.034,0.276,0.043,0.511s0.011,0.484,0.007,0.748
		c-0.005,0.266-0.016,0.518-0.033,0.758s-0.043,0.416-0.076,0.532c0.536-0.72,1.125-1.446,1.768-2.178
		c0.642-0.731,1.322-1.411,2.039-2.039s1.468-1.171,2.253-1.63s1.599-0.768,2.441-0.929c0.579-0.11,1.167-0.149,1.765-0.118
		c0.597,0.032,1.145,0.141,1.644,0.328c0.5,0.187,0.929,0.459,1.288,0.818s0.591,0.811,0.694,1.354
		c0.138,0.721,0.068,1.528-0.206,2.426c-0.274,0.898-0.658,1.821-1.149,2.77c-0.491,0.949-1.041,1.885-1.646,2.811
		c-0.605,0.924-1.177,1.77-1.712,2.535c-0.537,0.766-0.985,1.415-1.348,1.947c-0.362,0.533-0.537,0.881-0.524,1.041
		c0.04,0.211,0.151,0.366,0.335,0.469c0.183,0.102,0.458,0.116,0.827,0.047c0.298-0.058,0.71-0.281,1.235-0.672
		s1.244-1.033,2.156-1.925c0.912-0.893,2.06-2.075,3.443-3.548C190.75,194.945,192.448,193.1,194.462,190.879z"/>
	<path fill="#FFFFFF" d="M207.483,183.924c0.417-0.479,0.778-0.854,1.082-1.119c0.304-0.268,0.568-0.473,0.796-0.617
		c0.228-0.143,0.44-0.242,0.639-0.298s0.403-0.104,0.614-0.144c0.368-0.07,0.657,0.015,0.867,0.257
		c0.21,0.243,0.343,0.513,0.399,0.811c0.047,0.245,0.047,0.481-0.001,0.709l-3.554,13.415c0.723-0.791,1.573-1.596,2.556-2.41
		c0.98-0.814,1.93-1.559,2.847-2.233s1.711-1.23,2.383-1.667c0.671-0.438,1.06-0.666,1.165-0.688
		c0.438-0.083,0.856,0.01,1.253,0.281c0.396,0.27,0.645,0.658,0.741,1.168c0.087,0.455,0.008,0.971-0.237,1.545
		c-0.246,0.573-0.753,1.18-1.522,1.816c-1.098,0.919-2.058,1.707-2.877,2.363c-0.821,0.656-1.545,1.245-2.174,1.764
		c-0.628,0.52-1.185,0.99-1.668,1.408c-0.484,0.42-0.936,0.843-1.354,1.268c-0.42,0.426-0.826,0.871-1.219,1.338
		c-0.393,0.466-0.813,1.004-1.26,1.617c-0.203,1.131-0.409,2.215-0.621,3.254c-0.211,1.041-0.408,1.961-0.592,2.76
		c-0.186,0.799-0.339,1.445-0.462,1.941c-0.124,0.498-0.191,0.765-0.202,0.803c-0.859,3.219-2.14,4.99-3.843,5.314
		c-0.701,0.135-1.316,0.01-1.843-0.371c-0.527-0.382-0.866-0.967-1.017-1.757c-0.141-0.736-0.188-1.486-0.143-2.25
		s0.217-1.628,0.515-2.594s0.726-2.06,1.283-3.284c0.558-1.227,1.276-2.677,2.157-4.354l3.232-11.663
		c-2.037,3.624-3.968,6.466-5.795,8.522c-1.826,2.059-3.669,3.265-5.528,3.619c-0.598,0.113-1.132,0.074-1.604-0.117
		c-0.473-0.192-0.771-0.604-0.891-1.235c-0.167-0.878-0.145-1.909,0.065-3.095c0.132-0.643,0.272-1.238,0.423-1.785
		s0.31-1.096,0.479-1.646c0.167-0.551,0.341-1.143,0.52-1.777c0.18-0.634,0.371-1.349,0.574-2.142s0.42-1.707,0.649-2.742
		c0.23-1.035,0.478-2.241,0.743-3.619c0.221-0.75,0.582-1.334,1.085-1.748c0.503-0.413,1.018-0.67,1.544-0.771
		c0.544-0.104,1.029-0.063,1.455,0.118c0.426,0.184,0.678,0.485,0.759,0.906c0.04,0.21,0.04,0.401,0,0.572l-2.906,10.945
		c-0.148,0.557-0.194,0.983-0.137,1.282c0.05,0.263,0.18,0.374,0.391,0.334c0.192-0.037,0.42-0.18,0.682-0.43
		c0.261-0.25,0.501-0.522,0.717-0.819L207.483,183.924z"/>
</g>
</svg>
