<?xml version="1.0" encoding="utf-8"?>
<!-- Generator: Adobe Illustrator 16.0.4, SVG Export Plug-In . SVG Version: 6.00 Build 0)  -->
<!DOCTYPE svg PUBLIC "-//W3C//DTD SVG 1.1//EN" "http://www.w3.org/Graphics/SVG/1.1/DTD/svg11.dtd">
<svg version="1.1" id="bras-logo" xmlns="http://www.w3.org/2000/svg" xmlns:xlink="http://www.w3.org/1999/xlink" x="0px" y="0px"
	 width="300px" height="300px" viewBox="0 0 300 300" enable-background="new 0 0 300 300" xml:space="preserve">
<circle fill="#579BCC" stroke="#FFFFFF" stroke-width="10" stroke-miterlimit="10" cx="147.978" cy="156.613" r="129.855"/>
<path fill="#0086D0" stroke="#FFFFFF" stroke-width="4.3135" stroke-linecap="round" stroke-linejoin="round" stroke-miterlimit="10" d="
	M129.842,108.381c0,0,1.201-4.632,8.459-6.533c7.259-1.9,0,0,0,0"/>
<path fill="#579BCC" d="M178.8,140.552"/>
<path fill="none" d="M149.678,179.242c3.159,0,5.451-0.221,7.117-0.54l0,0C155.129,179.021,152.837,179.242,149.678,179.242
	L149.678,179.242z"/>
<path fill="none" d="M161.191,193.855c0-0.354,0.009-0.625,0.016-0.782C161.2,193.23,161.191,193.504,161.191,193.855z"/>
<path fill="none" d="M163.264,92.653c-0.072,0.091-0.205,0.248-0.414,0.445l0,0C163.059,92.9,163.191,92.744,163.264,92.653z"/>
<path fill="none" d="M138.6,146.183c0.356,0.375,0.989,0.819,2.111,1.216l0,0C139.589,147.001,138.956,146.557,138.6,146.183z"/>
<path fill="none" d="M163.264,125.752c-0.072,0.091-0.205,0.247-0.414,0.445l0,0C163.059,125.999,163.191,125.844,163.264,125.752z"
	/>
<path fill="none" d="M149.678,148.478c3.159,0,5.451-0.22,7.117-0.54l0,0C155.129,148.257,152.837,148.478,149.678,148.478
	L149.678,148.478z"/>
<path fill="none" d="M158.537,128.555L158.537,128.555c-2.053,0.672-4.896,1.197-8.798,1.197c-4.288,0-6.972-0.631-8.651-1.399l0,0
	l0,0c1.678,0.767,4.362,1.398,8.65,1.398C153.641,129.752,156.484,129.228,158.537,128.555z"/>
<path fill="none" d="M153.456,96.476c-0.013,0.001-0.024,0.002-0.036,0.004C153.432,96.479,153.445,96.477,153.456,96.476z"/>
<path fill="none" d="M148.685,163.734c-3.952,0-6.426-0.582-7.973-1.289l0,0C142.259,163.152,144.733,163.734,148.685,163.734
	L148.685,163.734z"/>
<path fill="none" d="M154.551,96.345c1.58-0.217,2.896-0.532,3.986-0.889l0,0C157.447,95.813,156.131,96.128,154.551,96.345z"/>
<path fill="none" d="M149.738,96.652c-4.288,0-6.972-0.631-8.65-1.398l0,0C142.767,96.021,145.451,96.652,149.738,96.652
	L149.738,96.652z"/>
<path fill="none" d="M138.557,146.135c-0.01-0.011-0.021-0.022-0.03-0.033C138.536,146.113,138.546,146.124,138.557,146.135z"/>
<path fill="none" d="M180.311,199.725c0.864-0.932,1.647-2.168,1.83-3.688C181.958,197.557,181.175,198.793,180.311,199.725
	L180.311,199.725z"/>
<path fill="none" d="M177.611,201.79L177.611,201.79c0.01-0.005,1.404-0.697,2.652-2.021
	C179.018,201.092,177.621,201.785,177.611,201.79z"/>
<path fill="none" d="M180.477,175.873c0.104,0.334,0.487,1.201,1.883,2.006c-0.062,5.025-0.146,12-0.172,15.713
	c1.53,0.731,4.402,1.417,9.791,1.417c7.572,0,10.176-1.264,11.068-2.132c-0.895,0.868-3.496,2.132-11.066,2.132
	c-5.391,0-8.263-0.686-9.791-1.417c0.023-3.713,0.107-10.688,0.172-15.714C180.965,177.074,180.578,176.207,180.477,175.873z"/>
<path fill="none" d="M180.441,191.871L180.441,191.871c0.002,0.057,0.06,0.915,1.746,1.721
	C180.495,192.783,180.443,191.923,180.441,191.871z"/>
<path fill="none" d="M179.289,199.547c0,0-0.124,0.326-0.54,0.885c-0.001,0-0.001,0-0.001,0
	C179.165,199.875,179.288,199.548,179.289,199.547L179.289,199.547z"/>
<path fill="none" d="M182.188,193.592c-0.004,0.641-0.006,1.186-0.008,1.604C182.182,194.775,182.184,194.232,182.188,193.592z"/>
<path fill="none" d="M138.307,198.174c0.198,2.036,0.583,4.02,1.14,5.932C138.89,202.193,138.504,200.211,138.307,198.174
	L138.307,198.174z"/>
<path fill="none" d="M182.359,177.878c1.472,0.849,4.062,1.625,8.627,1.625l0,0C186.425,179.503,183.832,178.727,182.359,177.878
	c0.043-3.397,0.076-5.903,0.076-5.903s0.232-2.545,1.164-5.285c-0.932,2.74-1.164,5.285-1.164,5.285S182.402,174.48,182.359,177.878
	z"/>
<polygon fill="none" points="138.306,198.174 138.307,198.174 138.306,198.173 "/>
<path fill="none" d="M161.975,198.729c0.002,0.006,0.004,0.012,0.006,0.017c0.023,0.056,0.054,0.108,0.076,0.165
	c-0.022-0.057-0.052-0.109-0.076-0.165C161.979,198.738,161.977,198.734,161.975,198.729c0,0,0-0.002-0.002-0.004
	c-0.002-0.004-0.002-0.007-0.005-0.011c0.001,0.004,0.003,0.007,0.005,0.011C161.973,198.729,161.975,198.729,161.975,198.729z"/>
<path fill="none" d="M177.659,201.741c0.37-0.375,0.709-0.779,1.014-1.21C178.368,200.962,178.029,201.366,177.659,201.741
	L177.659,201.741z"/>
<path fill="none" d="M148.395,217.992c-0.063,0.001-0.123,0.001-0.178,0.001C148.272,217.993,148.332,217.993,148.395,217.992z"/>
<path fill="none" d="M140.711,178.163L140.711,178.163c-1.445-0.513-2.079-1.101-2.355-1.519
	C138.633,177.062,139.266,177.652,140.711,178.163c1.53,0.543,3.976,0.996,7.871,1.067
	C144.687,179.159,142.242,178.705,140.711,178.163z"/>
<path fill="none" d="M189.448,203.271c4.971,3.064,5.138,14.104,5.138,14.138c-0.004,0.005-0.008,0.009-0.012,0.014
	c-0.029,0.03-0.059,0.06-0.088,0.089c0.027-0.029,0.06-0.059,0.088-0.089c0.005-0.004,0.009-0.009,0.013-0.013
	C194.586,217.378,194.419,206.338,189.448,203.271z"/>
<path fill="none" d="M193.068,218.904c0.009-0.008,0.018-0.016,0.024-0.023c0.255-0.238,0.509-0.482,0.765-0.734
	c0.01-0.01,0.018-0.019,0.024-0.024C193.611,218.391,193.339,218.65,193.068,218.904z"/>
<path fill="#FFFFFF" d="M162.852,93.099c0.207-0.199,0.34-0.354,0.414-0.445c0.043-0.059,0.065-0.092,0.065-0.092l0,0h0.001V78.167
	c0,0,0,0.226-0.234,0.556c-0.063,0.089-0.145,0.185-0.248,0.288v14.088H162.852z"/>
<path fill="#FFFFFF" d="M153.42,96.48c0.012,0,0.023-0.003,0.036-0.003c0.38-0.038,0.742-0.083,1.095-0.132
	c1.58-0.217,2.896-0.532,3.986-0.889V80.765c-1.809,0.348-4.294,0.586-7.723,0.586c-4.93,0-7.917-0.529-9.727-1.171
	c0,4.697,0,9.764,0,15.074c1.678,0.767,4.362,1.4,8.65,1.4C151.089,96.652,152.312,96.589,153.42,96.48z"/>
<path fill="#FFFFFF" d="M142.102,45.773c-0.597,1.277-1.013,2.756-1.013,4.398c0,0.959,0,5.701,0,12.956
	c1.678,0.767,4.362,1.399,8.651,1.399c10.912,0,13.593-4.092,13.593-4.092v-8.178c0-6.913-5.604-12.517-12.517-12.517
	c-2.103,0-4.082,0.52-5.82,1.437c0.424-0.218,0.871-0.423,1.35-0.611h-0.001c0,0,0,0,0.001,0
	C146.344,40.568,143.628,42.512,142.102,45.773z"/>
<path fill="#FFFFFF" d="M180.408,195.755c0.008-0.082,0.014-0.153,0.017-0.215C180.421,195.611,180.414,195.684,180.408,195.755z"/>
<path fill="#FFFFFF" d="M161.213,192.943c0,0.01-0.001,0.02-0.002,0.033c0,0.002,0,0.004,0,0.006
	c-0.001,0.022-0.003,0.054-0.005,0.091c-0.006,0.157-0.015,0.431-0.015,0.782c0,0.265,0.007,0.57,0.021,0.91v-1.844
	c0,0.001,0,0.004,0,0.008C161.214,192.936,161.214,192.939,161.213,192.943z"/>
<path fill="#FFFFFF" d="M161.98,198.744c-0.002-0.006-0.006-0.014-0.008-0.02c0,0.002,0,0.004,0.002,0.004
	C161.977,198.734,161.979,198.738,161.98,198.744z"/>
<path fill="#FFFFFF" d="M184.32,164.824c-1.769,1.57-3.047,3.675-3.59,6.062C181.566,167.512,183.991,165.135,184.32,164.824z"/>
<path fill="#FFFFFF" d="M161.211,192.979c0.002-0.037,0.004-0.059,0.004-0.059v0.004v-0.004v-16.611c0,0-0.001,0.334-0.443,0.776
	v17.377C161.128,193.71,161.198,193.15,161.211,192.979z"/>
<path fill="#FFFFFF" d="M152.484,200.018c1.771-0.49,3.185-1.076,4.311-1.699v-19.614c-1.666,0.319-3.958,0.54-7.117,0.54l0,0l0,0
	c-0.379,0-0.74-0.006-1.095-0.014c-3.896-0.07-6.341-0.523-7.871-1.065c0,12.188,0,20.487,0,21.312l0,0
	C143.12,200.479,147.219,201.475,152.484,200.018z"/>
<path fill="#FFFFFF" d="M161.214,192.932c0-0.004,0.001-0.006,0.001-0.008v-0.004C161.215,192.92,161.214,192.926,161.214,192.932z"
	/>
<path fill="#FFFFFF" d="M161.211,192.979c0.001-0.016,0.002-0.023,0.002-0.033C161.213,192.953,161.212,192.963,161.211,192.979
	v0.004C161.211,192.98,161.211,192.979,161.211,192.979z"/>
<path fill="#FFFFFF" d="M156.795,162.633v-14.695c-1.666,0.319-3.958,0.54-7.117,0.54l0,0l0,0c-4.543,0-7.296-0.487-8.966-1.078
	c0,5.198,0,10.256,0,15.047c1.548,0.707,4.021,1.289,7.974,1.289C152.282,163.734,154.904,163.252,156.795,162.633z"/>
<path fill="#FFFFFF" d="M161.214,159.964L161.214,159.964L161.214,159.964l0.001-14.42c0,0-0.001,0.334-0.443,0.776v14.14
	C161.085,160.159,161.214,159.964,161.214,159.964z"/>
<path fill="#FFFFFF" d="M158.537,128.555v-15.664c-1.809,0.346-4.294,0.586-7.723,0.586c-4.93,0-7.917-0.53-9.727-1.17
	c0,5.293,0,10.677,0,16.047c1.678,0.768,4.362,1.399,8.651,1.399C153.641,129.752,156.484,129.228,158.537,128.555z"/>
<path fill="#FFFFFF" d="M163.264,125.752c0.045-0.059,0.066-0.092,0.066-0.092l0,0h0.001v-15.367c0,0-0.001,0.362-0.481,0.843
	v15.062C163.059,125.999,163.191,125.844,163.264,125.752z"/>
<path fill="#FFFFFF" d="M180.449,173.178c-0.002,0.09-0.008,0.18-0.008,0.271v2.281c0,0,0.002,0.01,0.004,0.021
	C180.447,174.717,180.448,173.836,180.449,173.178z"/>
<path fill="#FFFFFF" d="M180.436,195.292c-0.002,0.051-0.002,0.101-0.004,0.149c0.004-0.086,0.004-0.137,0.004-0.137
	S180.436,195.3,180.436,195.292z"/>
<path fill="#FFFFFF" d="M178.749,200.432C178.748,200.432,178.748,200.432,178.749,200.432c0.081-0.119,0.158-0.24,0.231-0.361
	c-0.1,0.158-0.201,0.312-0.31,0.463C178.699,200.497,178.725,200.465,178.749,200.432
	C178.748,200.432,178.748,200.432,178.749,200.432z"/>
<path fill="#FFFFFF" d="M193.857,218.146c-0.256,0.252-0.51,0.496-0.765,0.733C193.354,218.641,193.607,218.395,193.857,218.146z"/>
<path fill="#FFFFFF" d="M192.419,219.501c-0.024,0.022-0.049,0.046-0.073,0.067c0.248-0.221,0.497-0.452,0.75-0.688
	c-0.01,0.009-0.019,0.017-0.025,0.022C192.852,219.107,192.635,219.309,192.419,219.501z"/>
<path fill="#FFFFFF" d="M193.884,218.12c-0.009,0.008-0.017,0.017-0.024,0.024c0.238-0.234,0.478-0.476,0.717-0.724
	c-0.028,0.03-0.061,0.06-0.09,0.089C194.285,217.721,194.084,217.922,193.884,218.12z"/>
<path fill="#FFFFFF" d="M182.441,211.632c-0.92-7.187-6.743-8.358-6.752-8.358c-1.426,0.842-3.088,1.324-4.861,1.324
	c-2.194,0-4.219-0.74-5.838-1.98c0.015,0.013,0.023,0.019,0.023,0.019s-0.021,0.905-0.257,2.248c1.037,0.734,2.33,1.306,3.938,1.529
	c1.089,0.151,1.847,1.155,1.693,2.245c-0.141,0.992-0.992,1.712-1.968,1.712c-0.092,0-0.185-0.006-0.278-0.021
	c-1.735-0.244-3.238-0.783-4.531-1.508c-0.95,2.277-2.547,4.652-5.229,6.108c-0.807,0.438-1.578,0.813-2.314,1.136
	c-3.676,1.609-6.411,1.883-7.674,1.906c-0.063,0.001-0.123,0.001-0.178,0.001c-0.389,0.001-0.595-0.021-0.597-0.022
	c5.925,5.985,14.14,9.701,23.208,9.701c2.845,0,5.606-0.365,8.237-1.053h0.002c-0.002,0-0.002,0-0.002,0
	C179.068,226.617,183.363,218.82,182.441,211.632z"/>
<path fill="#FFFFFF" d="M203.047,192.877c-0.895,0.868-3.496,2.132-11.068,2.132c-5.389,0-8.261-0.686-9.791-1.417
	c-0.004,0.641-0.006,1.186-0.008,1.604c0,0.062,0,0.119,0,0.175c0,0.229-0.014,0.45-0.039,0.669
	c-0.183,1.521-0.966,2.756-1.83,3.688l0,0l0,0c1.752,0.351,5.498,1.303,9.14,3.549c4.971,3.064,5.138,14.104,5.139,14.139
	c5.532-5.857,8.931-13.752,8.931-22.428v-2.901C203.514,192.127,203.48,192.455,203.047,192.877z"/>
<path fill="#FFFFFF" d="M147.597,217.947c-1.486-1.529-2.733-3.074-3.782-4.592C144.937,215,146.203,216.536,147.597,217.947z"/>
<path fill="#FFFFFF" d="M191.979,161.912c-2.92,0-5.586,1.087-7.617,2.877l0,0c-0.002,0.001-0.002,0.001-0.002,0.001
	c-0.293,0.625-0.545,1.269-0.76,1.899c-0.93,2.74-1.162,5.285-1.162,5.285s-0.033,2.506-0.076,5.902
	c1.473,0.85,4.063,1.624,8.627,1.624c10.059,0,12.527-3.771,12.527-3.771v-2.282C203.516,167.077,198.352,161.912,191.979,161.912z"
	/>
<path fill="#FF0000" d="M150.816,81.351c3.427,0,5.912-0.238,7.721-0.586V67.849c0-1.191,0.966-2.157,2.156-2.157
	c1.189,0,2.154,0.966,2.154,2.157v11.162c0.104-0.103,0.186-0.199,0.248-0.288c0.234-0.33,0.234-0.555,0.234-0.555V60.436
	c0.001,0-2.682,4.091-13.593,4.091c-4.288,0-6.972-0.631-8.65-1.398c0,4.731,0,10.533,0,17.051
	C142.899,80.822,145.886,81.351,150.816,81.351z"/>
<path fill="#FF0000" d="M158.537,80.765L158.537,80.765c-1.809,0.346-4.294,0.586-7.721,0.586c-4.93,0-7.917-0.528-9.729-1.171l0,0
	c1.811,0.641,4.797,1.17,9.727,1.17C154.243,81.351,156.729,81.112,158.537,80.765z"/>
<path fill="#FF0000" d="M162.852,79.011c0.104-0.103,0.183-0.199,0.246-0.288C163.033,78.812,162.953,78.908,162.852,79.011
	L162.852,79.011z"/>
<path fill="#FF0000" d="M162.852,93.099v18.037c0.479-0.479,0.479-0.842,0.479-0.842V92.561c0,0-0.022,0.034-0.065,0.092
	C163.191,92.744,163.059,92.9,162.852,93.099z"/>
<path fill="#FF0000" d="M154.551,96.345c-0.354,0.048-0.715,0.094-1.095,0.132C153.836,96.439,154.198,96.393,154.551,96.345z"/>
<path fill="#FF0000" d="M149.739,96.652c1.35,0,2.572-0.063,3.682-0.172C152.312,96.589,151.089,96.652,149.739,96.652
	L149.739,96.652z"/>
<path fill="#FF0000" d="M163.264,92.653c0.045-0.058,0.066-0.092,0.066-0.092l0,0C163.331,92.561,163.309,92.595,163.264,92.653z"/>
<path fill="#FF0000" d="M158.537,112.891L158.537,112.891c-1.809,0.346-4.294,0.584-7.721,0.584c-4.93,0-7.917-0.528-9.729-1.169
	l0,0l0,0c1.811,0.641,4.797,1.169,9.727,1.169C154.243,113.476,156.729,113.237,158.537,112.891z"/>
<polygon fill="#FF0000" points="140.711,147.399 140.711,147.399 140.712,147.399 "/>
<path fill="#FF0000" d="M162.852,126.197v18.037c0.479-0.479,0.479-0.842,0.479-0.842v-17.731c0,0-0.022,0.034-0.065,0.092
	C163.191,125.844,163.059,125.999,162.852,126.197z"/>
<path fill="#FF0000" d="M149.678,148.478c-4.543,0-7.297-0.487-8.966-1.078l0,0C142.381,147.99,145.134,148.478,149.678,148.478
	L149.678,148.478z"/>
<path fill="#FF0000" d="M163.264,125.752c0.045-0.059,0.066-0.091,0.066-0.091l0,0C163.331,125.66,163.309,125.693,163.264,125.752z
	"/>
<path fill="#FF0000" d="M160.771,160.46v16.624c0.441-0.441,0.441-0.775,0.441-0.775v-16.345
	C161.213,159.966,161.084,160.16,160.771,160.46z"/>
<path fill="#FF0000" d="M149.677,179.242L149.677,179.242c-0.378,0-0.74-0.006-1.095-0.012
	C148.937,179.236,149.299,179.242,149.677,179.242z"/>
<path fill="#FF0000" d="M160.771,160.46L160.771,160.46c0.312-0.299,0.44-0.494,0.441-0.496l0,0
	C161.214,159.964,161.085,160.159,160.771,160.46z"/>
<path fill="#FF0000" d="M148.686,163.734c3.597,0,6.22-0.482,8.109-1.104l0,0C154.904,163.252,152.282,163.734,148.686,163.734
	L148.686,163.734z"/>
<path fill="#FF0000" d="M180.445,175.756c0-0.001,0-0.002,0-0.003c-0.002-0.015-0.004-0.022-0.004-0.022v5.256
	C180.443,179.07,180.443,177.254,180.445,175.756L180.445,175.756z"/>
<path fill="#FF0000" d="M180.445,175.753c-0.002-0.014-0.004-0.022-0.004-0.022v0.002
	C180.441,175.73,180.443,175.739,180.445,175.753L180.445,175.753z"/>
<path fill="#FF0000" d="M190.986,179.503L190.986,179.503L190.986,179.503c-4.562,0-7.155-0.776-8.627-1.625
	c-0.062,5.024-0.146,12.001-0.172,15.714c1.528,0.731,4.4,1.417,9.791,1.417c7.569,0,10.174-1.264,11.066-2.132
	c0.471-0.455,0.471-0.802,0.471-0.802v0.006c0-0.004,0-0.006,0-0.006V175.73C203.516,175.73,201.045,179.503,190.986,179.503z"/>
<path fill="#FF0000" d="M203.047,192.877c0.436-0.422,0.467-0.75,0.469-0.796v-0.006
	C203.516,192.075,203.516,192.422,203.047,192.877z"/>
<path fill="#FF0000" d="M190.986,179.503L190.986,179.503c10.059,0,12.529-3.772,12.529-3.772S201.045,179.503,190.986,179.503z"/>
<path fill="#FF0000" d="M164.928,202.564c0.027,0.021,0.049,0.039,0.062,0.051C164.969,202.6,164.949,202.581,164.928,202.564z"/>
<path fill="#FF0000" d="M164.928,202.564c-0.369-0.31-1.854-1.608-2.759-3.416C162.816,200.489,163.766,201.657,164.928,202.564z"/>
<path fill="#FF0000" d="M162.167,199.145c0.001,0.002,0.002,0.004,0.002,0.004c-0.063-0.133-0.13-0.268-0.188-0.402
	c0.024,0.056,0.054,0.107,0.078,0.165C162.093,198.988,162.13,199.066,162.167,199.145z"/>
<path fill="#FF0000" d="M161.861,198.443c-0.437-1.168-0.596-2.575-0.646-3.678v0.217
	C161.215,196.204,161.445,197.37,161.861,198.443z"/>
<path fill="#FF0000" d="M140.059,205.991c-0.216-0.568-0.457-1.214-0.723-1.953c0,0,0,0,0-0.001c0.443,1.509,1.077,3.23,1.982,5.068
	c-0.06-0.131-0.272-0.608-0.627-1.494C140.466,207.079,140.254,206.539,140.059,205.991z"/>
<path fill="#FF0000" d="M141.336,209.143c0.659,1.336,1.459,2.729,2.437,4.15c-0.918-1.354-1.737-2.777-2.447-4.266
	C141.331,209.093,141.335,209.132,141.336,209.143z"/>
<path fill="#FF0000" d="M143.772,213.293c0.004,0.006,0.007,0.012,0.011,0.018c0.01,0.017,0.021,0.03,0.032,0.045
	c-0.01-0.015-0.021-0.028-0.031-0.045C143.78,213.305,143.776,213.299,143.772,213.293z"/>
<path fill="#FF0000" d="M147.62,217.971c-0.008-0.008-0.015-0.016-0.022-0.021C147.604,217.955,147.612,217.963,147.62,217.971
	L147.62,217.971L147.62,217.971L147.62,217.971L147.62,217.971z"/>
<path fill="#FF0000" d="M161.191,193.855c0-0.354,0.009-0.625,0.016-0.782c0.001-0.037,0.003-0.066,0.004-0.091
	c-0.014,0.179-0.086,0.732-0.439,1.479v4.173c0.162,0.755,1.047,4.167,3.987,6.246c0.236-1.342,0.257-2.248,0.257-2.248
	s-0.01-0.006-0.023-0.019c-1.193-0.914-2.163-2.104-2.823-3.471c-0.038-0.078-0.071-0.158-0.108-0.235
	c-0.023-0.058-0.054-0.108-0.076-0.165c-0.002-0.006-0.006-0.012-0.006-0.016c-0.002-0.002-0.002-0.002-0.002-0.004
	c-0.002-0.004-0.004-0.008-0.006-0.012c-0.002-0.003-0.003-0.005-0.004-0.007c0.001,0.002,0.002,0.005,0.004,0.007
	c-0.002-0.003-0.002-0.005-0.004-0.008c-0.035-0.085-0.068-0.173-0.104-0.262c-0.416-1.075-0.646-2.241-0.646-3.461v-0.219
	C161.198,194.43,161.191,194.12,161.191,193.855z"/>
<path fill="#FF0000" d="M161.215,194.766c-0.017-0.338-0.021-0.646-0.021-0.91C161.191,194.12,161.198,194.43,161.215,194.766z"/>
<path fill="#FF0000" d="M140.712,199.475L140.712,199.475c2.408,1.006,6.507,2,11.772,0.543c1.771-0.488,3.185-1.076,4.311-1.699
	l0,0c-1.126,0.623-2.538,1.211-4.311,1.699C147.219,201.475,143.12,200.479,140.712,199.475z"/>
<path fill="#FF0000" d="M161.211,192.982c0-0.002,0-0.004,0-0.006c-0.013,0.174-0.083,0.731-0.439,1.483v0.001
	C161.125,193.717,161.197,193.161,161.211,192.982z"/>
<path fill="#FF0000" d="M156.068,216.086c-3.676,1.609-6.411,1.883-7.674,1.906C149.658,217.968,152.393,217.695,156.068,216.086z"
	/>
<path fill="#FF0000" d="M148.216,217.993c-0.39,0.001-0.596-0.022-0.596-0.022l0,0C147.622,217.973,147.828,217.994,148.216,217.993
	z"/>
<path fill="#FF0000" d="M143.784,213.311c0.01,0.017,0.021,0.03,0.031,0.045c1.049,1.52,2.295,3.063,3.782,4.594
	c0.007,0.008,0.015,0.016,0.022,0.021C146.109,216.419,144.844,214.85,143.784,213.311z"/>
<path fill="#FF0000" d="M162.167,199.145c-0.037-0.078-0.074-0.154-0.108-0.233C162.094,198.986,162.129,199.066,162.167,199.145z"
	/>
<path fill="#FF0000" d="M141.325,209.027L141.325,209.027c0.71,1.488,1.529,2.912,2.447,4.266c0.004,0.006,0.007,0.012,0.012,0.018
	C142.861,211.952,142.039,210.521,141.325,209.027z"/>
<path fill="#FF0000" d="M140.69,207.611c-0.176-0.438-0.389-0.979-0.632-1.62C140.255,206.539,140.466,207.079,140.69,207.611z"/>
<path fill="#FF0000" d="M140.69,207.611c-0.225-0.532-0.436-1.072-0.632-1.62C140.254,206.539,140.466,207.079,140.69,207.611z"/>
<path fill="#FF0000" d="M161.214,192.932c0,0.004,0,0.008-0.001,0.014C161.214,192.939,161.214,192.936,161.214,192.932z"/>
<path fill="#FF0000" d="M161.214,192.932c0-0.006,0.001-0.012,0.001-0.012s-0.002,0.021-0.004,0.059
	c0.001-0.016,0.002-0.023,0.002-0.033C161.214,192.938,161.214,192.936,161.214,192.932z"/>
<path fill="#FF0000" d="M194.587,217.411L194.587,217.411c-0.004,0.003-0.008,0.008-0.013,0.012
	C194.579,217.419,194.583,217.415,194.587,217.411z"/>
<path fill="#FF0000" d="M177.609,201.791c0.009-0.008,0.017-0.016,0.022-0.023c0.009-0.008,0.017-0.015,0.021-0.021
	c0.002-0.002,0.004-0.003,0.005-0.005c0.368-0.374,0.709-0.778,1.014-1.209c-0.514,0.666-1.422,1.625-2.979,2.74
	C176.393,202.859,177.038,202.361,177.609,201.791L177.609,201.791z"/>
<path fill="#FF0000" d="M192.18,219.715c-3.73,3.227-8.199,5.624-13.111,6.904C179.066,226.619,184.982,226.07,192.18,219.715z"/>
<path fill="#FF0000" d="M178.748,200.432c-0.023,0.033-0.049,0.065-0.075,0.102c-0.305,0.431-0.644,0.835-1.014,1.21
	C178.083,201.32,178.443,200.879,178.748,200.432z"/>
<path fill="#FF0000" d="M193.884,218.12c0.202-0.201,0.405-0.401,0.603-0.608c0.029-0.029,0.061-0.059,0.09-0.089
	c0.004-0.005,0.008-0.009,0.012-0.014c0-0.031-0.167-11.071-5.138-14.138c-3.642-2.246-7.388-3.198-9.14-3.549
	c-0.017,0.016-0.031,0.03-0.047,0.047c-1.246,1.321-2.643,2.016-2.652,2.021l0,0c-0.571,0.569-1.219,1.067-1.92,1.479l0,0
	c0.009,0.002,5.83,1.174,6.752,8.359c0.923,7.188-3.37,14.979-3.375,14.987c4.912-1.281,9.38-3.679,13.111-6.905
	c0.021-0.018,0.041-0.033,0.062-0.052c0.033-0.031,0.068-0.062,0.104-0.095c0.023-0.021,0.049-0.045,0.073-0.066
	c0.222-0.193,0.435-0.396,0.649-0.598C193.339,218.65,193.611,218.391,193.884,218.12z"/>
<path fill="#FF0000" d="M194.486,217.512c-0.197,0.207-0.4,0.407-0.604,0.608C194.084,217.922,194.285,217.721,194.486,217.512z"/>
<path fill="#FF0000" d="M192.419,219.501c0.216-0.192,0.433-0.394,0.649-0.597C192.854,219.104,192.641,219.307,192.419,219.501z"/>
<path fill="#FF0000" d="M182.441,211.632c-0.92-7.187-6.743-8.358-6.752-8.358C175.698,203.273,181.521,204.445,182.441,211.632z"/>
<path fill="#FF0000" d="M182.441,211.632c0.922,7.188-3.373,14.985-3.375,14.987l0,0
	C179.07,226.611,183.363,218.818,182.441,211.632z"/>
<path fill="#FF0000" d="M177.609,201.791L177.609,201.791c-0.571,0.57-1.217,1.068-1.918,1.48l0,0
	C176.393,202.859,177.038,202.361,177.609,201.791z"/>
<path fill="#B3B3B3" d="M138.43,50.458c-0.162,1.088-0.131,1.8-0.131,1.8C138.299,51.647,138.345,51.045,138.43,50.458z"/>
<path fill="#B3B3B3" d="M144.994,41.177c-4.027,2.07-5.64,5.401-6.28,7.872c0.113-0.427,0.249-0.845,0.404-1.253
	C140.208,44.941,142.314,42.588,144.994,41.177z"/>
<path fill="#B3B3B3" d="M138.306,198.174L138.306,198.174C138.306,198.173,138.306,198.174,138.306,198.174
	c-0.083-0.855-0.135-1.722-0.15-2.595c-0.01-0.197-0.015-0.396-0.015-0.595v-0.002c0,0-0.095,5.479,1.193,9.051
	C138.307,200.527,138.306,198.173,138.306,198.174L138.306,198.174z"/>
<path fill="#B3B3B3" d="M141.088,95.253c0-5.31,0-10.377,0-15.074l0,0l0,0c-0.175-0.062-0.337-0.124-0.491-0.188
	c-2.297-0.95-2.298-2.053-2.298-2.053v14.62c0,0,0.001,0.007,0.002,0.014C138.323,92.703,138.614,94.123,141.088,95.253z"/>
<path fill="#B3B3B3" d="M141.087,80.18L141.087,80.18L141.087,80.18z"/>
<path fill="#B3B3B3" d="M141.088,63.128c0-7.255,0-11.997,0-12.956c0-1.644,0.416-3.121,1.013-4.398
	c1.523-3.254,4.228-5.198,4.241-5.206c-0.479,0.187-0.924,0.393-1.349,0.609c-2.68,1.411-4.786,3.764-5.876,6.619
	c-0.155,0.408-0.291,0.826-0.404,1.253c-0.025,0.097-0.047,0.191-0.069,0.285c-0.014,0.056-0.027,0.113-0.039,0.17
	c-0.042,0.19-0.078,0.372-0.109,0.547c-0.011,0.061-0.023,0.122-0.033,0.183c-0.013,0.076-0.022,0.15-0.034,0.223
	c-0.085,0.588-0.13,1.189-0.13,1.8v8.178C138.299,60.436,138.494,61.944,141.088,63.128z M138.645,49.335
	c-0.013,0.056-0.026,0.113-0.039,0.17c-0.042,0.189-0.078,0.372-0.109,0.546c-0.011,0.062-0.023,0.123-0.033,0.183
	c0.01-0.062,0.022-0.123,0.033-0.183c0.031-0.175,0.066-0.356,0.109-0.546C138.619,49.448,138.632,49.391,138.645,49.335
	c0.022-0.093,0.044-0.188,0.069-0.285C138.689,49.147,138.667,49.242,138.645,49.335z"/>
<path fill="#B3B3B3" d="M142.102,45.773c1.527-3.262,4.242-5.206,4.242-5.206s0,0-0.001,0
	C146.33,40.576,143.625,42.518,142.102,45.773z"/>
<path fill="#B3B3B3" d="M138.714,49.049c0.113-0.427,0.249-0.845,0.404-1.253C138.963,48.205,138.829,48.622,138.714,49.049z"/>
<path fill="#B3B3B3" d="M139.118,47.796c1.09-2.855,3.196-5.208,5.876-6.619C142.314,42.588,140.208,44.941,139.118,47.796z"/>
<path fill="#B3B3B3" d="M141.088,128.354C141.088,128.353,141.088,128.353,141.088,128.354c0-5.37,0-10.754,0-16.047l0,0l0,0
	c-0.175-0.062-0.337-0.124-0.491-0.188c-2.297-0.951-2.298-2.052-2.298-2.052v15.594
	C138.299,125.66,138.494,127.167,141.088,128.354z"/>
<path fill="#B3B3B3" d="M141.087,112.307L141.087,112.307L141.087,112.307z"/>
<path fill="#B3B3B3" d="M138.307,198.174L138.307,198.174L138.307,198.174c0.005,0.004,0.855,0.653,2.405,1.301
	c0-0.822,0-9.121,0-21.311c-1.446-0.512-2.079-1.102-2.355-1.52c-0.212-0.319-0.216-0.539-0.216-0.545l0,0v13.885v4.998
	c0,0.201,0.005,0.397,0.015,0.596C138.171,196.452,138.223,197.316,138.307,198.174z"/>
<path fill="#B3B3B3" d="M138.156,195.579c0.016,0.873,0.067,1.737,0.151,2.595C138.223,197.316,138.171,196.452,138.156,195.579
	c-0.01-0.197-0.015-0.396-0.015-0.597v0.002C138.141,195.184,138.146,195.382,138.156,195.579z"/>
<path fill="#B3B3B3" d="M140.712,162.445c0-4.791,0-9.848,0-15.046l0,0l0,0c-1.123-0.398-1.755-0.842-2.111-1.216
	c-0.016-0.016-0.029-0.032-0.043-0.048c-0.01-0.011-0.021-0.022-0.03-0.033c-0.386-0.442-0.386-0.768-0.386-0.768v14.629
	C138.141,159.964,138.321,161.354,140.712,162.445z"/>
<path fill="#B3B3B3" d="M140.712,147.399L140.712,147.399L140.712,147.399z"/>
<path fill="#C2000B" d="M140.597,79.992c0.154,0.064,0.317,0.126,0.492,0.188c0-6.518,0-12.32,0-17.051l0,0l0,0
	c-2.594-1.185-2.789-2.693-2.789-2.693V77.94C138.299,77.939,138.3,79.042,140.597,79.992z"/>
<path fill="#C2000B" d="M141.087,80.18C141.088,80.18,141.088,80.18,141.087,80.18c0-6.517,0-12.319,0-17.051l0,0
	C141.087,67.859,141.087,73.662,141.087,80.18z"/>
<path fill="#C2000B" d="M140.597,79.992c-2.297-0.95-2.297-2.053-2.297-2.053S138.3,79.042,140.597,79.992z"/>
<path fill="#C2000B" d="M141.088,63.128c-2.594-1.185-2.789-2.693-2.789-2.693S138.494,61.944,141.088,63.128z"/>
<path fill="#C2000B" d="M140.597,112.119c0.154,0.064,0.317,0.126,0.492,0.188c0-5.845,0-11.576,0-17.052l0,0l0,0
	c-2.472-1.129-2.764-2.549-2.787-2.68c-0.001-0.005-0.002-0.013-0.002-0.013v17.505C138.299,110.066,138.3,111.167,140.597,112.119z
	"/>
<path fill="#C2000B" d="M141.088,112.307c0-5.845,0-11.575,0-17.052l0,0C141.087,100.73,141.087,106.462,141.088,112.307
	L141.088,112.307L141.088,112.307z"/>
<path fill="#C2000B" d="M141.088,95.253c-2.475-1.13-2.765-2.552-2.787-2.68C138.323,92.706,138.616,94.124,141.088,95.253z"/>
<path fill="#C2000B" d="M140.597,112.119c-2.297-0.952-2.297-2.052-2.297-2.052S138.3,111.167,140.597,112.119z"/>
<path fill="#C2000B" d="M138.75,144.033c0.015,0.018,0.03,0.035,0.047,0.053c0.386,0.407,1.073,0.888,2.29,1.319
	c0-5.579,0-11.306,0-17.052l0,0l0,0c-2.594-1.185-2.789-2.693-2.789-2.693v17.505c0,0,0,0.354,0.418,0.833
	C138.728,144.009,138.738,144.021,138.75,144.033z"/>
<path fill="#C2000B" d="M141.088,128.354L141.088,128.354c0,5.746,0,11.474,0,17.052l0,0
	C141.088,139.826,141.088,134.099,141.088,128.354z"/>
<path fill="#C2000B" d="M141.088,128.354c-2.594-1.185-2.789-2.693-2.789-2.693C138.299,125.66,138.494,127.167,141.088,128.354z"/>
<path fill="#C2000B" d="M138.141,145.334c0,0,0,0.326,0.386,0.768C138.141,145.66,138.141,145.334,138.141,145.334z"/>
<path fill="#C2000B" d="M138.6,146.183c-0.016-0.016-0.029-0.032-0.043-0.048C138.571,146.151,138.584,146.167,138.6,146.183z"/>
<path fill="#C2000B" d="M140.711,178.163c0-4.726,0-10.033,0-15.718l0,0l0,0c-2.391-1.092-2.571-2.481-2.571-2.481V176.1l0,0
	c0,0.004,0.002,0.226,0.215,0.545C138.633,177.062,139.266,177.65,140.711,178.163z"/>
<path fill="#C2000B" d="M140.712,162.445L140.712,162.445c0,5.685,0,10.992,0,15.718l0,0
	C140.712,173.438,140.712,168.13,140.712,162.445z"/>
<path fill="#C2000B" d="M138.141,176.1c0,0.008,0.003,0.228,0.215,0.545C138.143,176.323,138.141,176.104,138.141,176.1z"/>
<path fill="#C2000B" d="M140.712,162.445c-2.391-1.092-2.571-2.481-2.571-2.481l0,0
	C138.141,159.964,138.321,161.354,140.712,162.445z"/>
<path fill="#B3B3B3" d="M140.059,205.991c-0.223-0.62-0.427-1.249-0.612-1.888c-0.556-1.91-0.941-3.896-1.14-5.932l0,0
	c0,0.003,0.001,2.357,1.029,5.863c0-0.001-0.001-0.003-0.001-0.004c0,0.001,0,0.003,0.001,0.004s0,0.001,0,0.001
	C139.602,204.775,139.842,205.423,140.059,205.991z"/>
<path fill="#B3B3B3" d="M138.306,198.174L138.306,198.174c0-0.001,0,2.354,1.028,5.859c0,0.001,0.001,0.003,0.001,0.004
	C138.308,200.532,138.306,198.177,138.306,198.174z"/>
<path fill="#B3B3B3" d="M141.326,209.027C141.326,209.027,141.325,209.027,141.326,209.027L141.326,209.027
	c-0.223-0.467-0.435-0.938-0.635-1.416c0.355,0.886,0.567,1.363,0.627,1.494c0.006,0.013,0.012,0.023,0.018,0.037
	C141.335,209.132,141.331,209.093,141.326,209.027z"/>
<path fill="#B3B3B3" d="M141.336,209.146c0,0,0-0.002,0-0.004l0,0C141.336,209.145,141.336,209.146,141.336,209.146z"/>
<path fill="#B3B3B3" d="M141.317,209.105c0.011,0.023,0.019,0.041,0.019,0.041s0-0.002,0-0.004
	C141.33,209.131,141.323,209.118,141.317,209.105z"/>
<path fill="#B3B3B3" d="M141.326,209.027c0.005,0.063,0.009,0.104,0.01,0.115l0,0C141.335,209.132,141.331,209.093,141.326,209.027
	L141.326,209.027z"/>
<polygon fill="#B3B3B3" points="141.325,209.027 141.325,209.027 141.325,209.027 "/>
<path fill="#B3B3B3" d="M141.326,209.027L141.326,209.027L141.326,209.027z"/>
<path fill="#C2000B" d="M140.711,199.475c-1.549-0.646-2.399-1.295-2.405-1.301c0.198,2.037,0.583,4.02,1.14,5.932
	c0.186,0.639,0.39,1.268,0.612,1.888c0.243,0.644,0.456,1.183,0.632,1.621c0.2,0.478,0.412,0.948,0.634,1.413
	c-0.083-0.894-0.613-6.717-0.613-9.479C140.711,199.547,140.711,199.52,140.711,199.475z"/>
<path fill="#C2000B" d="M140.712,199.475L140.712,199.475c0,0.045,0,0.072,0,0.072c0,2.764,0.531,8.587,0.614,9.48l0,0
	c-0.083-0.893-0.613-6.717-0.613-9.48C140.712,199.547,140.712,199.52,140.712,199.475z"/>
<path fill="#C2000B" d="M140.711,199.475C140.712,199.475,140.712,199.475,140.711,199.475L140.711,199.475
	c-1.549-0.646-2.4-1.297-2.405-1.301l0,0C138.312,198.178,139.163,198.827,140.711,199.475L140.711,199.475z"/>
<path fill="#C2000B" d="M140.711,199.475L140.711,199.475L140.711,199.475z"/>
<path fill="#B3B3B3" d="M184.359,164.789C184.359,164.788,184.359,164.788,184.359,164.789c0-0.001-0.004,0.004-0.008,0.007
	C184.354,164.794,184.355,164.791,184.359,164.789L184.359,164.789z"/>
<rect x="184.359" y="164.789" fill="#B3B3B3" width="0" height="0.001"/>
<path fill="#B3B3B3" d="M180.449,173.128c0,0.013,0,0.022,0,0.035c0.017-0.69,0.091-1.365,0.224-2.021
	C180.534,171.773,180.45,172.438,180.449,173.128z"/>
<path fill="#B3B3B3" d="M180.441,191.866c0,0,0,0.003,0,0.005l0,0C180.441,191.869,180.441,191.866,180.441,191.866z"/>
<path fill="#B3B3B3" d="M180.441,191.866v-10.193c-0.004,6.157-0.006,13.044-0.008,13.593c0.004-0.095,0.008-0.188,0.008-0.281
	V191.866z"/>
<path fill="#B3B3B3" d="M179.175,199.74c0.619-1.084,1.032-2.297,1.188-3.592C180.251,196.989,179.953,198.35,179.175,199.74z"/>
<path fill="#B3B3B3" d="M179.174,199.742c0-0.001,0-0.002,0.001-0.002c-0.063,0.109-0.125,0.22-0.192,0.326
	c0,0.002,0,0.002-0.002,0.004c0.002-0.002,0.002-0.002,0.004-0.004C179.05,199.961,179.111,199.852,179.174,199.742z"/>
<path fill="#B3B3B3" d="M180.404,195.802c-0.01,0.097-0.021,0.205-0.037,0.324c-0.154,1.304-0.569,2.524-1.193,3.616
	c-0.061,0.107-0.124,0.217-0.189,0.324c-0.074,0.121-0.151,0.244-0.233,0.365c0.417-0.561,0.54-0.887,0.54-0.887l0,0l0,0
	c0,0,0.376,0.048,1.021,0.178c0.865-0.932,1.646-2.166,1.83-3.688c0.025-0.219,0.041-0.439,0.041-0.669c0-0.056,0-0.112,0-0.173
	c0-0.42,0.004-0.965,0.008-1.604c-1.688-0.805-1.744-1.664-1.746-1.72v3.11c0,0.099-0.004,0.193-0.008,0.291c0-0.002,0-0.008,0-0.01
	c0,0.004,0,0.006,0,0.01c0,0.006,0,0.014,0,0.019c0-0.006,0-0.013,0-0.019c0,0.02,0,0.031,0,0.031s0,0.055-0.004,0.151
	c0-0.005,0-0.011,0-0.015c0,0.004,0,0.009,0,0.015c-0.002,0.015-0.002,0.028-0.002,0.044c-0.002,0.012-0.004,0.025-0.004,0.039
	c0-0.014,0.002-0.025,0.004-0.039C180.424,195.581,180.417,195.682,180.404,195.802c0.002-0.015,0.003-0.03,0.005-0.047
	C180.407,195.771,180.406,195.785,180.404,195.802c-0.01,0.117-0.025,0.232-0.04,0.349c0.001-0.008,0.002-0.017,0.003-0.022
	C180.38,196.018,180.396,195.911,180.404,195.802z M180.428,195.502c0.002-0.016,0.002-0.029,0.004-0.045
	C180.43,195.473,180.43,195.486,180.428,195.502z"/>
<path fill="#B3B3B3" d="M180.428,195.502c0,0.014-0.002,0.025-0.003,0.038c-0.004,0.062-0.009,0.133-0.017,0.215
	c-0.001,0.017-0.002,0.031-0.004,0.047C180.417,195.682,180.424,195.581,180.428,195.502z"/>
<path fill="#B3B3B3" d="M180.436,195.307c0,0,0-0.014,0-0.031c0,0.004,0,0.013,0,0.019S180.436,195.307,180.436,195.307
	s0,0.049-0.004,0.137c0,0.006,0,0.011-0.002,0.017C180.436,195.359,180.436,195.307,180.436,195.307z"/>
<path fill="#B3B3B3" d="M178.749,200.432c0.082-0.121,0.159-0.242,0.233-0.363l-0.002,0.002
	C178.907,200.191,178.83,200.312,178.749,200.432C178.748,200.432,178.748,200.432,178.749,200.432z"/>
<path fill="#B3B3B3" d="M180.441,194.984v-3.113c0-0.002,0-0.005,0-0.005V194.984c0,0.094-0.004,0.187-0.008,0.279
	c0,0.004,0,0.008,0,0.01C180.438,195.178,180.441,195.081,180.441,194.984z"/>
<path fill="#B3B3B3" d="M180.367,196.126c0.016-0.119,0.027-0.228,0.037-0.324C180.396,195.911,180.38,196.018,180.367,196.126z"/>
<path fill="#B3B3B3" d="M178.982,200.066c0.065-0.107,0.131-0.217,0.189-0.324C179.111,199.852,179.05,199.961,178.982,200.066z"/>
<path fill="#B3B3B3" d="M180.367,196.126c-0.001,0.008-0.002,0.017-0.004,0.022c-0.156,1.295-0.569,2.508-1.189,3.592
	c0,0.001,0,0.002,0,0.002C179.798,198.65,180.213,197.43,180.367,196.126z"/>
<path fill="#B3B3B3" d="M184.352,164.796c-0.002,0.002-0.004,0.004-0.006,0.006c-0.007,0.005-0.015,0.015-0.022,0.022
	c0.008-0.008,0.016-0.016,0.022-0.022C184.35,164.799,184.35,164.798,184.352,164.796z"/>
<path fill="#B3B3B3" d="M180.449,173.163c0,0.002,0,0.004,0,0.005c0,0.004,0,0.007,0,0.01c0-0.003,0-0.006,0-0.01
	C180.449,173.167,180.449,173.165,180.449,173.163z"/>
<path fill="#B3B3B3" d="M180.68,171.111c0.016-0.07,0.032-0.139,0.049-0.209C180.712,170.975,180.693,171.041,180.68,171.111
	c-0.002,0.005-0.003,0.012-0.004,0.018c-0.135,0.66-0.21,1.344-0.227,2.039c-0.002,0.659-0.002,1.546-0.004,2.588l0,0
	c0,0,0,0,0,0.001c0.006,0.022,0.016,0.063,0.031,0.116c0.102,0.334,0.485,1.201,1.883,2.005c0.043-3.397,0.076-5.903,0.076-5.903
	s0.232-2.543,1.164-5.285c0.215-0.633,0.465-1.273,0.76-1.897c-0.006,0.004-0.01,0.008-0.017,0.013
	c-0.212,0.195-2.763,2.619-3.616,6.104c0.002-0.006,0.004-0.014,0.006-0.02c-0.002,0.006-0.004,0.012-0.006,0.018
	C180.712,170.975,180.693,171.041,180.68,171.111c-0.002,0.005-0.003,0.012-0.004,0.018c-0.001,0.005-0.002,0.01-0.003,0.016
	c0.001-0.006,0.002-0.011,0.003-0.016C180.677,171.123,180.678,171.117,180.68,171.111z"/>
<path fill="#B3B3B3" d="M184.346,164.802c-0.009,0.009-0.017,0.017-0.022,0.022c-0.33,0.311-2.757,2.688-3.591,6.062
	c-0.002,0.007-0.004,0.013-0.004,0.019C181.582,167.422,184.133,164.998,184.346,164.802z"/>
<path fill="#B3B3B3" d="M180.445,175.756L180.445,175.756L180.445,175.756c0.002-1.042,0.003-1.929,0.004-2.588
	c0,0.004,0,0.007,0,0.01c-0.001,0.658-0.002,1.539-0.004,2.575C180.445,175.754,180.445,175.754,180.445,175.756z"/>
<path fill="#B3B3B3" d="M183.6,166.689c0.215-0.633,0.467-1.274,0.76-1.899l0,0C184.064,165.414,183.814,166.059,183.6,166.689z"/>
<path fill="#B3B3B3" d="M180.445,175.757C180.445,175.756,180.445,175.756,180.445,175.757c0-0.003,0-0.002,0-0.004
	C180.445,175.754,180.445,175.755,180.445,175.757L180.445,175.757L180.445,175.757
	C180.445,175.756,180.445,175.756,180.445,175.757z"/>
<path fill="#B3B3B3" d="M180.445,175.756c0-0.002,0-0.002,0-0.003l0,0C180.445,175.755,180.445,175.754,180.445,175.756
	L180.445,175.756z"/>
<path fill="#B3B3B3" d="M184.359,164.79L184.359,164.79c-0.004,0.002-0.006,0.004-0.008,0.006c-0.004,0.002-0.004,0.003-0.006,0.006
	C184.35,164.798,184.354,164.794,184.359,164.79z"/>
<polygon fill="#B3B3B3" points="184.359,164.79 184.359,164.79 184.359,164.789 "/>
<path fill="#B3B3B3" d="M180.676,171.129c-0.001,0.005-0.002,0.01-0.003,0.016c-0.133,0.653-0.207,1.328-0.224,2.021
	c0,0.002,0,0.004,0,0.005C180.466,172.473,180.541,171.789,180.676,171.129z"/>
<path fill="#C2000B" d="M180.441,191.866v0.005c0.002,0.052,0.055,0.912,1.746,1.721c0.023-3.713,0.107-10.688,0.172-15.713
	c-1.396-0.805-1.781-1.672-1.883-2.006c-0.018-0.053-0.025-0.092-0.029-0.115c-0.002,1.585-0.004,3.526-0.006,5.565v-0.339
	c0,0.113,0,0.226,0,0.339v0.35c0-0.116,0-0.233,0-0.35V191.866L180.441,191.866z"/>
<path fill="#C2000B" d="M180.445,175.758c0-0.001,0-0.001,0-0.002c-0.002,1.498-0.002,3.314-0.004,5.229v0.34
	C180.443,179.284,180.445,177.343,180.445,175.758z"/>
<path fill="#C2000B" d="M180.441,191.871v-0.005v-10.543c0,0.116,0,0.233,0,0.35v10.193
	C180.441,191.866,180.441,191.869,180.441,191.871z"/>
<path fill="#C2000B" d="M180.445,175.758c0.006,0.023,0.016,0.062,0.031,0.115C180.461,175.82,180.451,175.779,180.445,175.758
	C180.445,175.757,180.445,175.757,180.445,175.758z"/>
<circle fill="#C2000B" cx="180.445" cy="175.757" r="0.001"/>
<path fill="#B3B3B3" d="M177.609,201.791c0.009-0.008,0.017-0.016,0.022-0.023C177.626,201.775,177.618,201.783,177.609,201.791
	L177.609,201.791L177.609,201.791L177.609,201.791L177.609,201.791z"/>
<path fill="#B3B3B3" d="M177.609,201.791h0.002H177.609z"/>
<path fill="#C2000B" d="M177.659,201.741L177.659,201.741c-0.001,0.001-0.003,0.003-0.005,0.004
	C177.656,201.744,177.658,201.742,177.659,201.741z"/>
<path fill="#C2000B" d="M179.289,199.547c-0.001,0.001-0.124,0.328-0.541,0.885c-0.307,0.449-0.667,0.895-1.094,1.313
	c-0.014,0.015-0.028,0.03-0.043,0.045c0.01-0.005,1.404-0.698,2.65-2.021c0.016-0.017,0.03-0.031,0.047-0.047
	C179.666,199.596,179.289,199.547,179.289,199.547z"/>
<path fill="#C2000B" d="M180.311,199.725L180.311,199.725L180.311,199.725z"/>
<path fill="#C2000B" d="M180.311,199.725L180.311,199.725L180.311,199.725z"/>
<path fill="#C2000B" d="M177.659,201.741c-0.001,0.001-0.003,0.003-0.005,0.004c-0.008,0.008-0.014,0.015-0.021,0.022
	c0.008-0.009,0.016-0.017,0.021-0.022C177.656,201.744,177.658,201.742,177.659,201.741z"/>
<path fill="#C2000B" d="M178.748,200.432c-0.305,0.447-0.665,0.889-1.089,1.312c-0.001,0.001-0.003,0.003-0.005,0.004
	C178.081,201.324,178.441,200.881,178.748,200.432z"/>
<path fill="#C2000B" d="M180.264,199.771c0.016-0.018,0.03-0.031,0.047-0.047l0,0C180.294,199.74,180.277,199.755,180.264,199.771z"
	/>
<path fill="#C2000B" d="M180.311,199.725c-0.646-0.129-1.021-0.178-1.021-0.178l0,0
	C179.289,199.547,179.666,199.596,180.311,199.725L180.311,199.725z"/>
<path fill="#C2000B" d="M177.611,201.79c0.015-0.015,0.029-0.029,0.043-0.045c-0.006,0.008-0.014,0.015-0.021,0.022
	C177.626,201.775,177.618,201.783,177.611,201.79L177.611,201.79z"/>
<path fill="#FFFFFF" d="M156.795,147.938L156.795,147.938c2.366-0.454,3.467-1.108,3.977-1.618l0,0
	C160.262,146.83,159.161,147.484,156.795,147.938z"/>
<path fill="#FFFFFF" d="M162.852,126.197L162.852,126.197c-0.625,0.597-1.931,1.577-4.313,2.358l0,0
	C160.92,127.774,162.227,126.794,162.852,126.197z"/>
<path fill="#FFFFFF" d="M158.537,95.456c2.383-0.781,3.689-1.761,4.314-2.357l0,0C162.227,93.694,160.92,94.676,158.537,95.456
	L158.537,95.456z"/>
<path fill="#FFFFFF" d="M162.104,111.7c0.33-0.197,0.569-0.388,0.746-0.564l0,0C162.673,111.312,162.434,111.503,162.104,111.7z"/>
<path fill="#FFFFFF" d="M156.795,178.702L156.795,178.702c2.366-0.454,3.465-1.106,3.977-1.617v-0.001
	C160.262,177.596,159.161,178.248,156.795,178.702z"/>
<path fill="#FFFFFF" d="M158.537,80.765v14.691c2.383-0.781,3.689-1.761,4.314-2.357V79.011
	C162.298,79.563,161.104,80.273,158.537,80.765z"/>
<path fill="#FFFFFF" d="M156.795,178.702v19.616c2.368-1.312,3.467-2.781,3.977-3.856v-17.377
	C160.26,177.596,159.16,178.249,156.795,178.702z"/>
<path fill="#FFFFFF" d="M156.795,147.938v14.695c2.196-0.72,3.4-1.624,3.977-2.173v-14.14
	C160.262,146.83,159.16,147.484,156.795,147.938z"/>
<path fill="#FFFFFF" d="M162.104,111.7c-0.705,0.419-1.816,0.856-3.565,1.191v15.664c2.383-0.781,3.688-1.762,4.313-2.358v-15.062
	C162.673,111.312,162.434,111.503,162.104,111.7z"/>
<path fill="#FFFFFF" d="M168.146,210.35c0.094,0.015,0.187,0.021,0.277,0.021c0.977,0,1.826-0.72,1.967-1.712
	c0.151-1.088-0.604-2.094-1.691-2.245c-1.61-0.228-2.903-0.795-3.94-1.529c-0.194,1.108-0.54,2.515-1.146,3.96
	C164.907,209.564,166.409,210.105,168.146,210.35z"/>
<path fill="#FFFFFF" d="M162.852,79.011V67.849c0-1.191-0.967-2.157-2.156-2.157s-2.156,0.966-2.156,2.157v12.916
	C161.104,80.273,162.298,79.563,162.852,79.011z"/>
<path fill="#FFFFFF" d="M162.852,79.011L162.852,79.011c-0.554,0.553-1.746,1.263-4.313,1.755l0,0
	C161.104,80.273,162.298,79.563,162.852,79.011z"/>
<path fill="#FFFFFF" d="M162.104,111.7c-0.705,0.419-1.816,0.856-3.565,1.191l0,0C160.286,112.555,161.396,112.119,162.104,111.7z"
	/>
<path fill="#FFFFFF" d="M160.771,160.46L160.771,160.46c-0.576,0.549-1.779,1.453-3.978,2.173l0,0
	C158.991,161.913,160.195,161.01,160.771,160.46z"/>
<g>
	<path fill="#FF0000" d="M158.537,112.89c1.749-0.335,2.859-0.771,3.566-1.19c0.33-0.197,0.568-0.389,0.744-0.564V93.099
		c-0.621,0.597-1.929,1.577-4.312,2.357c-1.091,0.358-2.406,0.671-3.986,0.889c-0.353,0.048-0.715,0.093-1.097,0.132
		c-0.01,0.001-0.021,0.002-0.034,0.004c-1.106,0.109-2.331,0.172-3.682,0.172l0,0l0,0c-4.288,0-6.972-0.632-8.651-1.4
		c0,5.477,0,11.208,0,17.052c1.811,0.641,4.797,1.17,9.727,1.17C154.243,113.476,156.729,113.237,158.537,112.89z"/>
	<path fill="#FF0000" d="M158.537,145.99c2.566-0.493,3.761-1.202,4.314-1.756v-18.037c-0.625,0.597-1.932,1.578-4.314,2.358
		c-2.053,0.672-4.896,1.197-8.799,1.197c-4.288,0-6.972-0.631-8.65-1.399c0,5.747,0,11.474,0,17.052
		c1.811,0.642,4.797,1.171,9.727,1.171C154.243,146.576,156.729,146.335,158.537,145.99z"/>
	<path fill="#FF0000" d="M150.816,179.952c3.427,0,5.914-0.239,7.721-0.586c2.566-0.493,3.761-1.2,4.314-1.755v-18.036
		c-0.625,0.596-1.932,1.575-4.314,2.356c-2.053,0.674-4.896,1.197-8.798,1.197l0,0l0,0c-4.288,0-6.972-0.632-8.651-1.398
		c0,6.168,0,11.926,0,17.053l0,0c1.66,0.588,4.313,1.08,8.54,1.156C150.012,179.945,150.404,179.952,150.816,179.952z"/>
	<path fill="#FF0000" d="M162.852,200.991v-4.526c-0.554,1.167-1.744,2.762-4.313,4.184c-1.222,0.677-2.753,1.312-4.677,1.844
		c-5.714,1.581-10.16,0.5-12.772-0.592c0,0.05,0,0.08,0,0.08c0,3,0.575,9.317,0.666,10.283c0.773,1.621,1.666,3.176,2.667,4.647
		c1.15,1.67,2.522,3.372,4.161,5.056l0,0c0,0,0.225,0.025,0.646,0.024c0.061,0,0.125,0,0.193-0.001
		c1.37-0.026,4.34-0.322,8.327-2.068c0.797-0.348,1.637-0.756,2.511-1.232c2.911-1.578,4.643-4.155,5.674-6.627
		c0.654-1.566,1.028-3.094,1.24-4.295C163.984,205.512,163.027,201.811,162.852,200.991z"/>
</g>
<path fill="#FFFFFF" d="M160.771,194.463L160.771,194.463c-0.51,1.074-1.607,2.545-3.978,3.855l0,0
	C159.163,197.008,160.262,195.538,160.771,194.463z"/>
<circle fill="#FFFFFF" stroke="#FFFFFF" stroke-width="1.8472" stroke-linecap="round" stroke-linejoin="round" stroke-miterlimit="10" cx="167.618" cy="71.773" r="11.511"/>
<circle stroke="#FFFFFF" stroke-width="2.0861" stroke-linecap="round" stroke-linejoin="round" stroke-miterlimit="10" cx="167.453" cy="71.72" r="10.466"/>
<circle fill="#FFFFFF" stroke="#FFFFFF" stroke-width="2.0861" stroke-linecap="round" stroke-linejoin="round" stroke-miterlimit="10" cx="173.721" cy="71.219" r="0.933"/>
<path d="M146.778,87.531c0,0,2.813,0.483,10.619-0.568c0,0,0.226,4.735-5.429,5.069C146.059,92.04,146.778,87.531,146.778,87.531z"
	/>
<circle fill="#FFFFFF" stroke="#FFFFFF" stroke-width="1.8897" stroke-linecap="round" stroke-linejoin="round" stroke-miterlimit="10" cx="134.886" cy="71.764" r="11.776"/>
<circle stroke="#FFFFFF" stroke-width="2.0861" stroke-linecap="round" stroke-linejoin="round" stroke-miterlimit="10" cx="134.911" cy="71.72" r="10.466"/>
<circle fill="#FFFFFF" stroke="#FFFFFF" stroke-width="2.0861" stroke-linecap="round" stroke-linejoin="round" stroke-miterlimit="10" cx="140.528" cy="71.633" r="1.348"/>
<g>
	<path fill="#FFFFFF" d="M146.941,75.236l-0.28-0.31l-1.967-3.209c0.252-0.223,2.597-2.173,6.893-2.173
		c4.252,0,5.927,1.407,6.265,1.728l-1.401,3.298c0,0-0.386,0.468-0.343,0.502c-0.012-0.008-1.912-1.351-4.521-1.351
		C148.874,73.723,146.999,75.189,146.941,75.236z"/>
</g>
<path fill="#FFFFFF" d="M147.582,88.156l9.125-0.501c0,0-0.282,1.201-0.52,1.582l-8.52,0.42
	C147.669,89.657,147.367,88.693,147.582,88.156z"/>
<path fill="#FC4C4C" d="M158.537,95.456v17.435c1.749-0.335,2.859-0.771,3.566-1.19c0.33-0.197,0.568-0.389,0.744-0.564V93.099
	C162.227,93.694,160.92,94.676,158.537,95.456z"/>
<path fill="#FC4C4C" d="M158.537,128.555v17.435c2.566-0.493,3.761-1.202,4.314-1.756v-18.037
	C162.227,126.794,160.92,127.774,158.537,128.555z"/>
<path fill="#FC4C4C" d="M156.795,162.633v16.069c2.366-0.454,3.467-1.106,3.977-1.618V160.46
	C160.195,161.01,158.991,161.913,156.795,162.633z"/>
<path fill="#FC4C4C" d="M160.771,198.635v-4.172c-0.51,1.075-1.607,2.545-3.978,3.855v0.511c0,0.112,0.011,0.226,0.028,0.335
	c0.447,2.626,2.41,7.225,6.789,9.678c0.604-1.445,0.949-2.852,1.146-3.96C161.816,202.802,160.934,199.389,160.771,198.635z"/>
<path fill="#FFFFFF" d="M120.06,136.363"/>
<path fill="#FC4C4C" d="M283.473,171.441c5.625,29.518-13.744,58.007-43.262,63.631L90.752,263.552
	c-29.518,5.623-58.005-13.745-63.629-43.263l0,0c-5.624-29.518,13.743-58.005,43.262-63.631l149.457-28.477
	C249.359,122.556,277.848,141.925,283.473,171.441L283.473,171.441z"/>
<g>
	<g>
		<path stroke="#000000" stroke-width="4.8819" stroke-linecap="round" stroke-linejoin="round" stroke-miterlimit="10" d="
			M99.198,180.006c0.225-0.799,0.54-1.523,0.943-2.18c0.404-0.657,0.863-1.225,1.376-1.698c0.514-0.476,1.057-0.862,1.629-1.16
			c0.572-0.301,1.126-0.497,1.662-0.601c0.777-0.146,1.47-0.073,2.081,0.225c0.611,0.301,0.991,0.838,1.139,1.617
			c0.116,0.605,0.083,1.293-0.099,2.057c-0.806,3.174-1.631,6.373-2.479,9.594c-0.847,3.221-1.712,6.375-2.596,9.465
			c-0.884,3.086-1.758,6.066-2.621,8.938c-0.863,2.871-1.713,5.545-2.55,8.021s-1.641,4.707-2.408,6.69
			c-0.769,1.983-1.491,3.645-2.167,4.982c2.087-0.549,3.98-1.112,5.682-1.688c1.701-0.576,3.338-1.18,4.906-1.806
			c1.567-0.627,3.136-1.282,4.703-1.974c1.567-0.688,3.262-1.408,5.083-2.158c0.112-0.072,0.238-0.135,0.379-0.188
			c0.142-0.051,0.271-0.086,0.395-0.108c0.751-0.146,1.405,0.038,1.956,0.55c0.552,0.512,0.898,1.146,1.042,1.898
			c0.087,0.461-0.256,1.037-1.031,1.725c-0.775,0.688-1.873,1.434-3.293,2.232c-1.421,0.801-3.114,1.631-5.076,2.496
			c-1.963,0.864-4.101,1.701-6.415,2.508c-2.315,0.805-4.751,1.559-7.311,2.262c-2.56,0.701-5.128,1.299-7.703,1.788
			c-2.988,0.569-5.603,0.853-7.844,0.853c-2.241,0-4.128-0.231-5.664-0.695c-1.537-0.463-2.733-1.127-3.59-1.995
			c-0.859-0.868-1.398-1.886-1.62-3.054c-0.218-1.142-0.19-2.146,0.086-3.02c0.274-0.869,0.736-1.618,1.384-2.245
			c0.648-0.628,1.455-1.146,2.423-1.56c0.966-0.408,2.032-0.726,3.2-0.948c0.948-0.181,1.964-0.197,3.048-0.054
			c1.085,0.147,2.172,0.399,3.259,0.76c1.089,0.359,2.139,0.789,3.154,1.287c1.013,0.498,1.913,1.025,2.699,1.582
			c0.282-1.562,0.645-3.317,1.093-5.268c0.446-1.949,0.943-4.002,1.49-6.158c0.546-2.154,1.131-4.369,1.756-6.641
			c0.624-2.271,1.254-4.514,1.891-6.724c0.637-2.208,1.263-4.345,1.878-6.399c0.615-2.057,1.188-3.939,1.718-5.652
			c0.528-1.711,1.004-3.223,1.42-4.535C98.623,181.715,98.953,180.709,99.198,180.006z M74.529,226.738
			c0.06,0.316,0.291,0.604,0.694,0.867c0.403,0.263,0.989,0.474,1.761,0.627c0.772,0.156,1.74,0.217,2.906,0.185
			c1.165-0.032,2.538-0.188,4.122-0.465c-0.803-0.25-1.616-0.517-2.436-0.8c-0.823-0.284-1.607-0.538-2.354-0.762
			c-0.747-0.221-1.423-0.395-2.025-0.521c-0.604-0.123-1.098-0.148-1.487-0.075C74.835,225.963,74.442,226.275,74.529,226.738z"/>
		<path stroke="#000000" stroke-width="4.8819" stroke-linecap="round" stroke-linejoin="round" stroke-miterlimit="10" d="
			M125.996,197.369c0.924-0.176,1.936-0.242,3.039-0.2c1.103,0.041,2.16,0.267,3.171,0.679c1.009,0.41,1.903,1.041,2.682,1.887
			c0.778,0.847,1.301,1.976,1.57,3.383c0.139,0.729,0.201,1.581,0.185,2.552c-0.017,0.974-0.123,2.007-0.315,3.101
			c0.297,0.246,0.617,0.398,0.955,0.461c0.339,0.062,0.69,0.054,1.055-0.014c0.511-0.099,1.047-0.352,1.611-0.761
			c0.563-0.41,1.13-0.908,1.698-1.494c0.569-0.588,1.124-1.235,1.67-1.94c0.544-0.711,1.053-1.41,1.524-2.105
			c0.472-0.693,0.896-1.346,1.269-1.96c0.374-0.608,0.684-1.128,0.93-1.556c0.138-0.2,0.329-0.326,0.571-0.373
			c0.34-0.064,0.677,0.054,1.012,0.354c0.334,0.302,0.562,0.769,0.683,1.4c0.119,0.631,0.07,1.396-0.148,2.293
			c-0.219,0.897-0.754,1.896-1.602,2.987c-0.463,0.74-0.991,1.599-1.588,2.566c-0.596,0.971-1.249,1.898-1.961,2.79
			c-0.711,0.892-1.479,1.679-2.307,2.366c-0.827,0.685-1.7,1.117-2.624,1.293c-0.633,0.121-1.264,0.14-1.897,0.061
			c-0.633-0.082-1.294-0.283-1.986-0.604c-0.614,1.526-1.374,2.956-2.278,4.286c-0.904,1.328-1.967,2.527-3.187,3.59
			c-1.22,1.064-2.583,1.973-4.089,2.724c-1.506,0.752-3.156,1.3-4.955,1.644c-0.68,0.132-1.495,0.147-2.444,0.052
			c-0.951-0.097-1.892-0.374-2.823-0.841c-0.933-0.465-1.772-1.141-2.521-2.03c-0.749-0.888-1.258-2.052-1.531-3.483
			c-0.186-0.972-0.25-2.168-0.193-3.589c0.057-1.42,0.269-2.915,0.637-4.483c0.368-1.568,0.909-3.155,1.623-4.766
			c0.714-1.609,1.642-3.105,2.789-4.496c1.145-1.389,2.526-2.597,4.144-3.621C121.979,198.49,123.858,197.775,125.996,197.369z
			 M125.321,204.143c-1.142,0.219-2.186,0.715-3.134,1.484c-0.949,0.775-1.741,1.705-2.376,2.796
			c-0.636,1.091-1.084,2.271-1.345,3.542c-0.262,1.271-0.274,2.525-0.04,3.766c0.087,0.463,0.221,0.959,0.398,1.492
			c0.177,0.532,0.427,1.012,0.748,1.443c0.321,0.43,0.73,0.76,1.228,0.993c0.498,0.231,1.111,0.278,1.84,0.14
			c1.117-0.211,2.148-0.716,3.091-1.513c0.943-0.798,1.737-1.753,2.38-2.872c0.642-1.118,1.091-2.329,1.346-3.635
			c0.254-1.307,0.263-2.582,0.027-3.821c-0.093-0.483-0.219-0.981-0.38-1.494c-0.16-0.51-0.397-0.962-0.711-1.354
			c-0.314-0.396-0.715-0.688-1.207-0.885C126.698,204.025,126.075,204,125.321,204.143z"/>
		<path stroke="#000000" stroke-width="4.8819" stroke-linecap="round" stroke-linejoin="round" stroke-miterlimit="10" d="
			M156.896,191.48c0.924-0.174,1.936-0.242,3.037-0.201c1.104,0.039,2.16,0.268,3.172,0.682c1.01,0.411,1.903,1.037,2.682,1.885
			c0.777,0.846,1.303,1.975,1.57,3.383c0.141,0.729,0.201,1.58,0.184,2.552c-0.018,0.974-0.121,2.005-0.314,3.101
			c0.299,0.246,0.615,0.4,0.957,0.459c0.338,0.062,0.688,0.059,1.055-0.014c0.508-0.096,1.047-0.35,1.611-0.76
			c0.562-0.408,1.129-0.905,1.697-1.492c0.566-0.586,1.125-1.235,1.669-1.942c0.546-0.708,1.056-1.407,1.527-2.104
			c0.472-0.692,0.894-1.346,1.269-1.961c0.374-0.608,0.684-1.127,0.932-1.553c0.137-0.203,0.326-0.328,0.568-0.373
			c0.342-0.067,0.68,0.051,1.012,0.354c0.334,0.302,0.562,0.77,0.683,1.398c0.119,0.633,0.071,1.398-0.146,2.295
			c-0.22,0.898-0.754,1.896-1.604,2.986c-0.463,0.743-0.993,1.6-1.588,2.568c-0.596,0.969-1.246,1.898-1.959,2.788
			c-0.713,0.894-1.48,1.681-2.307,2.366c-0.826,0.688-1.703,1.117-2.625,1.293c-0.631,0.121-1.266,0.144-1.896,0.061
			c-0.633-0.082-1.295-0.282-1.985-0.604c-0.613,1.525-1.375,2.957-2.277,4.285c-0.903,1.332-1.969,2.528-3.188,3.59
			c-1.22,1.066-2.581,1.973-4.087,2.727c-1.505,0.753-3.156,1.299-4.954,1.645c-0.681,0.129-1.498,0.145-2.446,0.049
			c-0.95-0.096-1.891-0.375-2.823-0.838c-0.932-0.467-1.772-1.142-2.52-2.033c-0.749-0.891-1.26-2.049-1.533-3.485
			c-0.186-0.971-0.25-2.165-0.194-3.588c0.057-1.42,0.269-2.914,0.637-4.483c0.368-1.565,0.91-3.154,1.623-4.764
			s1.642-3.107,2.787-4.497c1.145-1.389,2.527-2.597,4.146-3.622C152.882,192.604,154.76,191.889,156.896,191.48z M156.227,198.256
			c-1.144,0.217-2.188,0.715-3.138,1.482c-0.946,0.771-1.739,1.705-2.374,2.796c-0.637,1.092-1.085,2.271-1.347,3.542
			c-0.261,1.271-0.274,2.527-0.038,3.766c0.087,0.463,0.22,0.958,0.397,1.491c0.178,0.532,0.425,1.015,0.748,1.442
			c0.321,0.432,0.731,0.764,1.228,0.992c0.497,0.235,1.109,0.281,1.839,0.144c1.117-0.213,2.147-0.718,3.091-1.517
			c0.943-0.793,1.736-1.752,2.381-2.867c0.644-1.117,1.092-2.329,1.346-3.637c0.255-1.307,0.264-2.58,0.029-3.82
			c-0.093-0.485-0.222-0.983-0.379-1.495c-0.16-0.509-0.398-0.962-0.713-1.354c-0.314-0.392-0.717-0.687-1.206-0.884
			C157.602,198.139,156.977,198.111,156.227,198.256z"/>
		<path stroke="#000000" stroke-width="4.8819" stroke-linecap="round" stroke-linejoin="round" stroke-miterlimit="10" d="
			M212.251,190.639c0.304-0.259,0.587-0.478,0.856-0.654c0.268-0.178,0.535-0.291,0.804-0.342c0.532-0.103,0.973,0.022,1.315,0.375
			c0.344,0.349,0.569,0.814,0.682,1.397c0.121,0.632,0.08,1.305-0.123,2.024c-0.202,0.719-0.592,1.356-1.165,1.922
			c-2.228,2.439-4.211,4.654-5.946,6.646c-1.732,1.99-3.396,3.737-4.988,5.235c-1.59,1.498-3.187,2.729-4.791,3.688
			c-1.604,0.961-3.39,1.627-5.357,2.004c-1.848,0.352-3.339,0.281-4.477-0.203c-1.138-0.489-1.819-1.328-2.049-2.521
			c-0.017-0.096-0.033-0.188-0.051-0.272c-0.016-0.084-0.025-0.189-0.023-0.317c-0.041-0.746,0.177-1.655,0.651-2.729
			c0.476-1.072,1.077-2.207,1.808-3.404c0.728-1.194,1.515-2.413,2.36-3.658c0.845-1.243,1.622-2.418,2.331-3.521
			s1.282-2.103,1.715-2.988c0.437-0.891,0.606-1.576,0.516-2.062c-0.057-0.291-0.221-0.498-0.496-0.622
			c-0.274-0.122-0.692-0.133-1.252-0.026c-0.973,0.187-1.932,0.591-2.885,1.211c-0.953,0.621-1.865,1.39-2.734,2.296
			c-0.87,0.909-1.7,1.918-2.482,3.022c-0.783,1.106-1.5,2.236-2.148,3.394c-0.648,1.155-1.225,2.304-1.725,3.442
			c-0.498,1.14-0.91,2.184-1.234,3.125c-0.096,0.295-0.23,0.711-0.404,1.245c-0.174,0.54-0.363,1.14-0.562,1.81
			c-0.199,0.666-0.414,1.357-0.645,2.065c-0.23,0.712-0.436,1.382-0.617,2.007c-0.184,0.627-0.349,1.187-0.492,1.68
			c-0.146,0.494-0.25,0.836-0.314,1.022c-0.08,0.242-0.202,0.692-0.365,1.354c-0.164,0.66-0.352,1.433-0.561,2.316
			c-0.209,0.883-0.428,1.812-0.656,2.789c-0.232,0.975-0.445,1.896-0.646,2.766c-0.197,0.867-0.375,1.634-0.523,2.291
			c-0.151,0.656-0.244,1.103-0.274,1.336c-0.124,0.677-0.297,1.326-0.517,1.947c-0.221,0.621-0.504,1.185-0.848,1.691
			c-0.345,0.506-0.767,0.938-1.264,1.298c-0.498,0.359-1.087,0.604-1.768,0.732c-0.875,0.169-1.633,0.131-2.271-0.113
			c-0.635-0.245-1.052-0.862-1.239-1.86c-0.093-0.486-0.115-0.996-0.065-1.535c0.049-0.537,0.135-1.076,0.258-1.617
			c0.126-0.538,0.259-1.066,0.396-1.584c0.144-0.519,0.269-1.016,0.379-1.489c0.847-2.681,1.72-5.37,2.617-8.069
			c0.896-2.699,1.738-5.365,2.533-7.996c0.797-2.632,1.508-5.203,2.137-7.716c0.631-2.512,1.096-4.892,1.396-7.138
			c0.111-0.475,0.262-1.145,0.447-2.014c0.188-0.866,0.426-1.728,0.718-2.59c0.286-0.859,0.651-1.629,1.088-2.304
			s0.974-1.073,1.604-1.192c0.971-0.188,1.711-0.131,2.221,0.162c0.511,0.295,0.836,0.806,0.975,1.531
			c0.027,0.145,0.045,0.383,0.06,0.706c0.011,0.325,0.013,0.671,0.007,1.039c-0.005,0.366-0.021,0.716-0.045,1.047
			c-0.023,0.332-0.061,0.576-0.104,0.737c0.739-0.998,1.557-2.003,2.445-3.018c0.891-1.012,1.831-1.953,2.823-2.821
			c0.991-0.869,2.032-1.621,3.12-2.257c1.088-0.635,2.215-1.065,3.38-1.287c0.802-0.151,1.616-0.207,2.444-0.162
			c0.824,0.043,1.584,0.195,2.276,0.453c0.688,0.26,1.284,0.637,1.781,1.135c0.499,0.496,0.819,1.121,0.963,1.873
			c0.19,0.996,0.092,2.115-0.286,3.359c-0.38,1.24-0.911,2.521-1.591,3.834c-0.683,1.313-1.442,2.609-2.279,3.89
			c-0.84,1.282-1.63,2.45-2.372,3.512c-0.742,1.06-1.363,1.959-1.863,2.695c-0.502,0.739-0.746,1.218-0.726,1.442
			c0.054,0.291,0.208,0.508,0.462,0.646c0.254,0.143,0.637,0.16,1.145,0.066c0.414-0.082,0.984-0.39,1.71-0.932
			c0.729-0.54,1.725-1.429,2.987-2.666c1.26-1.234,2.852-2.871,4.765-4.91C207.109,196.271,209.461,193.715,212.251,190.639z"/>
		<path stroke="#000000" stroke-width="4.8819" stroke-linecap="round" stroke-linejoin="round" stroke-miterlimit="10" d="
			M230.277,181.012c0.58-0.664,1.078-1.184,1.498-1.552c0.424-0.368,0.789-0.655,1.104-0.853c0.313-0.197,0.61-0.336,0.886-0.414
			c0.273-0.078,0.558-0.145,0.848-0.199c0.511-0.098,0.91,0.021,1.201,0.355c0.289,0.336,0.476,0.711,0.554,1.123
			c0.063,0.34,0.063,0.668,0,0.98l-4.923,18.574c1.002-1.098,2.18-2.209,3.537-3.336c1.356-1.129,2.676-2.158,3.943-3.092
			c1.27-0.937,2.369-1.703,3.299-2.311c0.93-0.604,1.467-0.922,1.611-0.949c0.607-0.117,1.188,0.014,1.736,0.385
			c0.548,0.375,0.891,0.914,1.027,1.618c0.118,0.632,0.01,1.347-0.33,2.142s-1.043,1.633-2.106,2.516
			c-1.521,1.271-2.849,2.361-3.983,3.271c-1.136,0.908-2.139,1.723-3.01,2.441c-0.871,0.721-1.641,1.369-2.311,1.95
			s-1.295,1.166-1.875,1.755c-0.58,0.59-1.143,1.206-1.688,1.852s-1.124,1.392-1.744,2.239c-0.281,1.565-0.568,3.065-0.859,4.507
			c-0.293,1.439-0.565,2.715-0.819,3.82c-0.255,1.105-0.47,2-0.64,2.688c-0.172,0.688-0.264,1.06-0.28,1.112
			c-1.188,4.455-2.963,6.907-5.319,7.356c-0.973,0.188-1.82,0.014-2.553-0.514c-0.732-0.528-1.198-1.34-1.408-2.432
			c-0.193-1.021-0.259-2.061-0.197-3.117c0.062-1.059,0.301-2.255,0.715-3.592c0.41-1.337,1.004-2.855,1.773-4.55
			c0.771-1.694,1.768-3.704,2.987-6.026l4.476-16.146c-2.818,5.02-5.494,8.952-8.023,11.799c-2.526,2.851-5.079,4.519-7.654,5.009
			c-0.827,0.157-1.564,0.104-2.221-0.16c-0.654-0.266-1.065-0.837-1.232-1.712c-0.23-1.214-0.203-2.641,0.089-4.282
			c0.185-0.892,0.378-1.715,0.587-2.473s0.43-1.518,0.661-2.279c0.233-0.764,0.476-1.582,0.722-2.461
			c0.25-0.877,0.515-1.863,0.795-2.965c0.281-1.098,0.582-2.363,0.9-3.796c0.315-1.433,0.662-3.103,1.027-5.011
			c0.306-1.041,0.806-1.848,1.503-2.42c0.694-0.573,1.409-0.93,2.138-1.067c0.752-0.146,1.424-0.087,2.014,0.164
			c0.59,0.252,0.939,0.671,1.052,1.252c0.055,0.291,0.055,0.558,0,0.794l-4.022,15.153c-0.205,0.771-0.271,1.36-0.191,1.772
			c0.07,0.365,0.25,0.52,0.543,0.463c0.266-0.049,0.582-0.25,0.943-0.592c0.362-0.351,0.693-0.725,0.992-1.136L230.277,181.012z"/>
	</g>
	<g enable-background="new    ">
		<path fill="#FFFFFF" d="M97.906,178.834c0.226-0.799,0.54-1.525,0.943-2.182s0.862-1.222,1.376-1.697s1.057-0.863,1.629-1.16
			c0.572-0.299,1.126-0.498,1.661-0.6c0.777-0.148,1.472-0.072,2.082,0.227s0.99,0.836,1.139,1.613
			c0.116,0.608,0.082,1.294-0.099,2.059c-0.806,3.174-1.631,6.371-2.478,9.592s-1.712,6.375-2.595,9.463
			c-0.885,3.09-1.758,6.07-2.621,8.939c-0.863,2.871-1.713,5.544-2.55,8.02c-0.837,2.477-1.64,4.706-2.407,6.689
			c-0.768,1.984-1.489,3.645-2.166,4.982c2.086-0.549,3.98-1.11,5.683-1.688c1.703-0.576,3.338-1.177,4.905-1.803
			c1.567-0.625,3.136-1.283,4.704-1.973c1.567-0.688,3.262-1.408,5.083-2.158c0.111-0.072,0.238-0.133,0.379-0.186
			c0.142-0.053,0.272-0.09,0.395-0.113c0.753-0.144,1.405,0.041,1.955,0.553c0.551,0.512,0.898,1.145,1.042,1.896
			c0.088,0.463-0.256,1.037-1.03,1.727c-0.775,0.689-1.874,1.434-3.295,2.232s-3.113,1.632-5.075,2.496
			c-1.963,0.865-4.101,1.701-6.414,2.508c-2.313,0.805-4.75,1.559-7.31,2.261c-2.561,0.702-5.128,1.3-7.703,1.79
			c-2.988,0.568-5.603,0.852-7.843,0.852c-2.241,0-4.129-0.232-5.665-0.695s-2.732-1.128-3.59-1.997
			c-0.858-0.868-1.398-1.886-1.62-3.052c-0.218-1.141-0.189-2.148,0.085-3.019s0.736-1.619,1.385-2.245
			c0.648-0.629,1.456-1.146,2.422-1.559c0.966-0.41,2.033-0.727,3.199-0.949c0.947-0.18,1.964-0.197,3.049-0.053
			c1.085,0.146,2.172,0.398,3.259,0.758c1.089,0.359,2.14,0.788,3.154,1.287c1.014,0.5,1.913,1.026,2.699,1.582
			c0.28-1.564,0.645-3.32,1.092-5.269c0.446-1.948,0.942-4.001,1.489-6.155c0.545-2.156,1.131-4.369,1.755-6.643
			c0.625-2.271,1.255-4.512,1.891-6.722c0.636-2.212,1.262-4.345,1.877-6.399c0.615-2.057,1.188-3.939,1.718-5.652
			c0.529-1.711,1.002-3.225,1.42-4.537C97.331,180.541,97.662,179.535,97.906,178.834z M73.241,225.564
			c0.06,0.314,0.291,0.605,0.693,0.868s0.99,0.472,1.763,0.626c0.771,0.155,1.74,0.217,2.905,0.184
			c1.164-0.033,2.537-0.188,4.121-0.465c-0.802-0.25-1.615-0.516-2.437-0.801c-0.823-0.283-1.606-0.537-2.354-0.76
			c-0.747-0.223-1.422-0.396-2.025-0.521c-0.603-0.124-1.099-0.149-1.486-0.075C73.546,224.787,73.153,225.103,73.241,225.564z"/>
		<path fill="#FFFFFF" d="M124.703,196.195c0.923-0.176,1.937-0.242,3.04-0.201c1.103,0.042,2.159,0.268,3.169,0.68
			c1.009,0.411,1.903,1.041,2.683,1.887c0.777,0.846,1.301,1.974,1.569,3.383c0.139,0.729,0.2,1.58,0.184,2.551
			c-0.016,0.974-0.122,2.007-0.315,3.1c0.298,0.246,0.617,0.4,0.956,0.461c0.339,0.062,0.691,0.057,1.055-0.012
			c0.511-0.098,1.048-0.352,1.612-0.761c0.563-0.41,1.129-0.907,1.697-1.494s1.125-1.233,1.669-1.942
			c0.545-0.708,1.053-1.408,1.525-2.103c0.472-0.694,0.895-1.348,1.269-1.961c0.375-0.612,0.685-1.13,0.931-1.556
			c0.138-0.201,0.328-0.326,0.571-0.373c0.34-0.064,0.677,0.055,1.012,0.355c0.334,0.301,0.562,0.768,0.682,1.398
			c0.121,0.633,0.071,1.397-0.148,2.295c-0.219,0.898-0.753,1.893-1.602,2.985c-0.463,0.743-0.992,1.601-1.587,2.569
			c-0.597,0.969-1.25,1.898-1.962,2.791c-0.711,0.89-1.479,1.678-2.306,2.365c-0.825,0.686-1.7,1.117-2.622,1.293
			c-0.633,0.12-1.264,0.14-1.896,0.059s-1.294-0.283-1.984-0.604c-0.615,1.527-1.375,2.955-2.279,4.285
			c-0.904,1.332-1.968,2.528-3.187,3.592c-1.22,1.062-2.583,1.971-4.089,2.723c-1.505,0.752-3.156,1.301-4.954,1.645
			c-0.681,0.129-1.496,0.145-2.445,0.049c-0.95-0.096-1.891-0.376-2.822-0.84c-0.933-0.465-1.772-1.141-2.521-2.031
			c-0.748-0.889-1.26-2.051-1.532-3.483c-0.186-0.972-0.25-2.167-0.193-3.589c0.057-1.42,0.269-2.914,0.638-4.482
			c0.368-1.568,0.909-3.156,1.622-4.766s1.642-3.107,2.787-4.496c1.145-1.389,2.526-2.596,4.143-3.621
			C120.688,197.318,122.565,196.603,124.703,196.195z M124.03,202.97c-1.142,0.218-2.186,0.714-3.134,1.484
			c-0.948,0.772-1.74,1.704-2.376,2.794c-0.636,1.092-1.084,2.271-1.346,3.542c-0.261,1.271-0.273,2.524-0.037,3.765
			c0.088,0.461,0.221,0.959,0.397,1.491s0.426,1.015,0.747,1.444s0.73,0.76,1.228,0.992c0.498,0.233,1.111,0.279,1.84,0.141
			c1.117-0.213,2.147-0.717,3.091-1.515c0.943-0.796,1.736-1.753,2.38-2.87c0.643-1.116,1.092-2.328,1.347-3.635
			c0.254-1.309,0.264-2.58,0.027-3.82c-0.093-0.486-0.22-0.984-0.38-1.494c-0.16-0.512-0.397-0.963-0.712-1.357
			c-0.314-0.393-0.716-0.688-1.207-0.883C125.405,202.854,124.783,202.826,124.03,202.97z"/>
		<path fill="#FFFFFF" d="M155.604,190.307c0.923-0.176,1.936-0.242,3.039-0.201s2.159,0.268,3.17,0.68
			c1.009,0.41,1.903,1.041,2.682,1.887c0.777,0.846,1.302,1.974,1.569,3.383c0.14,0.729,0.201,1.58,0.185,2.551
			c-0.017,0.974-0.122,2.007-0.315,3.1c0.298,0.246,0.617,0.4,0.956,0.461c0.339,0.062,0.69,0.057,1.055-0.012
			c0.511-0.098,1.047-0.352,1.611-0.762c0.564-0.409,1.13-0.906,1.698-1.493s1.124-1.233,1.669-1.942
			c0.545-0.708,1.053-1.408,1.525-2.104c0.472-0.693,0.895-1.347,1.269-1.96c0.375-0.612,0.685-1.13,0.931-1.556
			c0.138-0.201,0.328-0.326,0.571-0.373c0.34-0.064,0.677,0.055,1.012,0.355c0.334,0.301,0.562,0.768,0.682,1.398
			c0.121,0.633,0.071,1.396-0.148,2.295c-0.219,0.898-0.753,1.893-1.602,2.985c-0.463,0.743-0.992,1.601-1.588,2.569
			s-1.249,1.898-1.961,2.791c-0.711,0.89-1.479,1.678-2.306,2.364s-1.7,1.118-2.623,1.294c-0.632,0.12-1.264,0.14-1.896,0.059
			c-0.633-0.081-1.295-0.283-1.984-0.604c-0.615,1.528-1.375,2.956-2.279,4.286c-0.905,1.332-1.968,2.528-3.187,3.592
			c-1.22,1.062-2.583,1.971-4.089,2.723c-1.505,0.752-3.157,1.301-4.954,1.644c-0.681,0.13-1.496,0.146-2.445,0.05
			c-0.95-0.096-1.891-0.376-2.822-0.84c-0.933-0.465-1.772-1.141-2.521-2.031c-0.749-0.889-1.26-2.051-1.532-3.483
			c-0.186-0.972-0.25-2.167-0.193-3.589c0.057-1.42,0.269-2.914,0.638-4.482c0.367-1.568,0.908-3.156,1.622-4.766
			c0.713-1.609,1.642-3.107,2.787-4.496c1.145-1.389,2.526-2.596,4.143-3.621C151.589,191.43,153.466,190.714,155.604,190.307z
			 M154.931,197.081c-1.142,0.218-2.186,0.713-3.134,1.484c-0.948,0.772-1.74,1.704-2.376,2.794
			c-0.636,1.092-1.084,2.271-1.346,3.542c-0.261,1.271-0.273,2.524-0.037,3.765c0.088,0.461,0.221,0.959,0.397,1.49
			c0.177,0.533,0.426,1.016,0.747,1.445s0.73,0.76,1.228,0.992c0.498,0.233,1.11,0.279,1.84,0.141
			c1.117-0.213,2.147-0.717,3.091-1.515c0.943-0.796,1.736-1.753,2.38-2.87c0.643-1.116,1.091-2.328,1.346-3.635
			c0.255-1.309,0.264-2.58,0.027-3.82c-0.093-0.486-0.219-0.984-0.379-1.494c-0.16-0.512-0.397-0.963-0.712-1.357
			c-0.314-0.393-0.716-0.688-1.207-0.883C156.306,196.965,155.684,196.938,154.931,197.081z"/>
		<path fill="#FFFFFF" d="M210.954,189.464c0.303-0.26,0.588-0.478,0.856-0.655c0.269-0.176,0.536-0.291,0.804-0.342
			c0.534-0.102,0.974,0.022,1.317,0.373c0.343,0.35,0.57,0.816,0.681,1.398c0.121,0.633,0.079,1.307-0.123,2.025
			c-0.203,0.719-0.59,1.358-1.163,1.921c-2.229,2.439-4.211,4.653-5.945,6.647c-1.736,1.991-3.398,3.738-4.988,5.235
			c-1.59,1.499-3.187,2.729-4.792,3.688c-1.604,0.961-3.39,1.629-5.357,2.004c-1.847,0.352-3.339,0.283-4.476-0.205
			c-1.139-0.488-1.82-1.327-2.048-2.518c-0.018-0.098-0.035-0.188-0.052-0.273c-0.016-0.084-0.024-0.189-0.022-0.316
			c-0.042-0.747,0.176-1.657,0.65-2.73c0.475-1.071,1.077-2.206,1.806-3.402c0.729-1.195,1.517-2.416,2.361-3.66
			c0.846-1.242,1.622-2.417,2.331-3.521c0.709-1.104,1.28-2.1,1.715-2.988c0.436-0.889,0.606-1.576,0.514-2.062
			c-0.056-0.292-0.222-0.499-0.496-0.624c-0.275-0.123-0.692-0.131-1.251-0.025c-0.973,0.186-1.934,0.59-2.885,1.211
			c-0.952,0.621-1.864,1.387-2.735,2.296c-0.871,0.908-1.698,1.916-2.482,3.022c-0.783,1.105-1.499,2.236-2.147,3.393
			s-1.223,2.303-1.723,3.443c-0.501,1.141-0.913,2.182-1.236,3.125c-0.095,0.295-0.229,0.711-0.404,1.246
			c-0.175,0.537-0.362,1.141-0.562,1.808c-0.2,0.667-0.416,1.356-0.645,2.067c-0.23,0.711-0.436,1.379-0.619,2.006
			c-0.183,0.627-0.347,1.186-0.491,1.68c-0.146,0.494-0.251,0.834-0.315,1.023c-0.08,0.241-0.202,0.691-0.364,1.354
			c-0.165,0.66-0.351,1.432-0.56,2.315c-0.21,0.884-0.429,1.812-0.658,2.787c-0.229,0.976-0.445,1.897-0.645,2.767
			s-0.374,1.631-0.525,2.29c-0.151,0.658-0.243,1.104-0.274,1.337c-0.122,0.678-0.295,1.326-0.517,1.947s-0.504,1.186-0.848,1.691
			s-0.766,0.939-1.264,1.299s-1.087,0.604-1.767,0.732c-0.875,0.168-1.631,0.128-2.269-0.115s-1.053-0.863-1.242-1.859
			c-0.093-0.486-0.115-0.998-0.066-1.535s0.135-1.076,0.259-1.615c0.124-0.541,0.256-1.069,0.396-1.586
			c0.141-0.52,0.267-1.014,0.377-1.488c0.849-2.68,1.721-5.369,2.616-8.07c0.895-2.701,1.74-5.367,2.535-7.998
			s1.507-5.201,2.136-7.715c0.63-2.511,1.095-4.891,1.396-7.139c0.11-0.475,0.26-1.145,0.448-2.011
			c0.186-0.866,0.425-1.729,0.714-2.591c0.289-0.86,0.653-1.629,1.091-2.304c0.438-0.674,0.972-1.072,1.604-1.192
			c0.971-0.186,1.712-0.132,2.222,0.162c0.509,0.293,0.833,0.804,0.972,1.533c0.027,0.146,0.047,0.381,0.059,0.705
			c0.012,0.326,0.015,0.672,0.009,1.037c-0.006,0.367-0.021,0.715-0.046,1.047s-0.06,0.578-0.104,0.738
			c0.741-0.998,1.557-2.002,2.446-3.016c0.89-1.013,1.83-1.953,2.823-2.822c0.991-0.869,2.032-1.621,3.119-2.256
			s2.215-1.064,3.381-1.287c0.802-0.152,1.615-0.206,2.442-0.163c0.826,0.044,1.585,0.195,2.276,0.454s1.285,0.637,1.782,1.133
			c0.498,0.497,0.819,1.122,0.962,1.874c0.19,0.997,0.095,2.116-0.285,3.358c-0.38,1.244-0.911,2.522-1.592,3.835
			c-0.681,1.313-1.441,2.61-2.279,3.89c-0.839,1.281-1.629,2.449-2.371,3.51s-1.363,1.96-1.865,2.697
			c-0.501,0.736-0.743,1.219-0.726,1.441c0.056,0.291,0.21,0.508,0.463,0.648c0.254,0.141,0.635,0.162,1.146,0.064
			c0.413-0.078,0.983-0.389,1.711-0.93c0.728-0.542,1.723-1.43,2.985-2.664c1.262-1.236,2.851-2.873,4.766-4.912
			S208.166,192.537,210.954,189.464z"/>
		<path fill="#FFFFFF" d="M228.981,179.834c0.578-0.663,1.078-1.18,1.498-1.551c0.421-0.368,0.788-0.652,1.103-0.852
			c0.314-0.197,0.609-0.336,0.885-0.414c0.273-0.076,0.558-0.144,0.849-0.199c0.51-0.098,0.911,0.021,1.201,0.357
			c0.291,0.334,0.476,0.709,0.554,1.121c0.065,0.34,0.063,0.668-0.002,0.982l-4.919,18.572c0.999-1.098,2.178-2.209,3.536-3.337
			c1.359-1.128,2.673-2.157,3.943-3.093c1.269-0.934,2.368-1.703,3.298-2.309c0.929-0.605,1.467-0.922,1.613-0.949
			c0.605-0.115,1.186,0.014,1.734,0.387c0.55,0.374,0.893,0.913,1.026,1.617c0.12,0.633,0.011,1.345-0.329,2.139
			c-0.339,0.796-1.043,1.635-2.107,2.518c-1.52,1.271-2.848,2.361-3.983,3.27c-1.136,0.91-2.139,1.725-3.009,2.443
			c-0.869,0.719-1.64,1.369-2.31,1.95s-1.295,1.165-1.874,1.755c-0.581,0.588-1.144,1.205-1.687,1.85
			c-0.545,0.645-1.127,1.393-1.745,2.24c-0.281,1.564-0.567,3.066-0.859,4.508c-0.292,1.438-0.565,2.712-0.82,3.818
			c-0.255,1.105-0.468,2.002-0.64,2.689c-0.171,0.688-0.265,1.057-0.278,1.11c-1.19,4.456-2.964,6.909-5.319,7.358
			c-0.973,0.186-1.824,0.014-2.553-0.515c-0.731-0.528-1.199-1.338-1.408-2.432c-0.194-1.021-0.26-2.059-0.197-3.116
			c0.063-1.057,0.301-2.254,0.713-3.59c0.412-1.338,1.005-2.855,1.776-4.549c0.772-1.696,1.768-3.705,2.987-6.027l4.476-16.146
			c-2.82,5.02-5.495,8.953-8.022,11.801c-2.529,2.849-5.081,4.518-7.656,5.009c-0.826,0.157-1.566,0.103-2.221-0.163
			c-0.655-0.264-1.065-0.835-1.232-1.709c-0.231-1.215-0.201-2.643,0.09-4.285c0.183-0.89,0.378-1.715,0.587-2.471
			c0.207-0.758,0.428-1.518,0.66-2.279s0.473-1.582,0.721-2.459c0.248-0.879,0.514-1.867,0.795-2.965
			c0.281-1.099,0.581-2.363,0.899-3.797c0.318-1.433,0.662-3.103,1.028-5.011c0.305-1.04,0.806-1.847,1.503-2.419
			c0.695-0.574,1.408-0.93,2.137-1.068c0.754-0.145,1.424-0.09,2.014,0.163s0.94,0.67,1.052,1.253c0.055,0.292,0.055,0.557,0,0.793
			l-4.022,15.155c-0.206,0.769-0.27,1.36-0.191,1.772c0.069,0.365,0.251,0.52,0.542,0.464c0.267-0.051,0.581-0.249,0.943-0.595
			c0.362-0.348,0.693-0.725,0.992-1.135L228.981,179.834z"/>
	</g>
</g>
<g>
	
		<path fill="none" stroke="#000000" stroke-width="10.4611" stroke-linecap="round" stroke-linejoin="round" stroke-miterlimit="10" d="
		M218.09,129.658c29.516-5.624,58.004,13.745,63.631,43.262l0,0c5.622,29.518-13.746,58.006-43.264,63.628L88.998,265.027
		c-29.518,5.623-58.004-13.742-63.629-43.262l0,0c-5.624-29.517,13.742-58.008,43.26-63.631l24.974-4.758"/>
	<polygon stroke="#000000" stroke-width="10.8457" stroke-linecap="round" stroke-linejoin="round" stroke-miterlimit="10" points="
		92.028,166.826 87.208,141.745 111.773,150.027 	"/>
</g>
<path fill="none" stroke="#FFFFFF" stroke-width="4.3135" stroke-linecap="round" stroke-linejoin="round" stroke-miterlimit="10" d="
	M114.347,127.218l-3.622-1.644l5.473-12.064c2.352-5.184,8.46-7.48,13.645-5.129l0,0c5.183,2.351,7.48,8.46,5.128,13.646
	l-5.473,12.063l-3.678-1.667"/>
<path fill="none" stroke="#FFFFFF" stroke-width="3.9759" stroke-linecap="round" stroke-linejoin="round" stroke-miterlimit="10" d="
	M150.98,139.069"/>
<g>
	<path fill="#FFFFFF" d="M163.331,99.168c0.134,0.042,12.705,4.187,10.961,20.096c-0.122,1.104-1.058,1.922-2.142,1.922
		c-0.08,0-0.159-0.004-0.238-0.013c-1.186-0.13-2.039-1.195-1.909-2.379c1.353-12.327-6.267-14.713-6.672-14.846"/>
</g>
<circle fill="#FFFFFF" cx="172.146" cy="124.556" r="5.527"/>
<circle fill="#0086D0" stroke="#FFFFFF" stroke-width="4.3135" stroke-linecap="round" stroke-linejoin="round" stroke-miterlimit="10" cx="172.146" cy="124.556" r="4.538"/>
</svg>
