<?xml version="1.0" encoding="utf-8"?>
<!-- Generator: Adobe Illustrator 16.0.4, SVG Export Plug-In . SVG Version: 6.00 Build 0)  -->
<!DOCTYPE svg PUBLIC "-//W3C//DTD SVG 1.1//EN" "http://www.w3.org/Graphics/SVG/1.1/DTD/svg11.dtd">
<svg version="1.1" xmlns="http://www.w3.org/2000/svg" xmlns:xlink="http://www.w3.org/1999/xlink" x="0px" y="0px" width="300px"
	 height="300px" viewBox="0 0 300 300" enable-background="new 0 0 300 300" xml:space="preserve">
<g id="loopy-a">
	<g>
		<path fill="#FFFFFF" d="M141.006,75.857c-5.774,0-9.273-0.619-11.395-1.371c0,5.501,0,11.438,0,17.657
			c1.967,0.898,5.111,1.639,10.133,1.639c12.782,0,15.923-4.793,15.923-4.793V72.129C155.668,72.129,155.668,75.857,141.006,75.857z
			"/>
		<path fill="#FFFFFF" d="M180.399,181.045c0.002-0.007,0.003-0.015,0.005-0.021C180.402,181.03,180.401,181.038,180.399,181.045z"
			/>
		<path fill="#FFFFFF" d="M129.612,39.336c0,1.124,0,6.679,0,15.177c1.967,0.898,5.111,1.639,10.133,1.639
			c12.782,0,15.923-4.793,15.923-4.793v-9.579c0-8.097-6.565-14.661-14.662-14.661c-2.462,0-4.781,0.61-6.818,1.682
			c0.496-0.255,1.02-0.496,1.581-0.715C135.769,28.085,129.612,32.494,129.612,39.336z"/>
		<path fill="#FFFFFF" d="M180.056,212.401c0.015-0.154,0.023-0.281,0.029-0.382C180.078,212.147,180.066,212.274,180.056,212.401z"
			/>
		<path fill="#FFFFFF" d="M156.489,215.759c0.042,0.113,0.086,0.226,0.132,0.334C156.575,215.983,156.533,215.871,156.489,215.759z"
			/>
		<path fill="#FFFFFF" d="M126.751,38.355c0.026-0.109,0.053-0.22,0.082-0.333C126.804,38.132,126.778,38.244,126.751,38.355z"/>
		<path fill="#FFFFFF" d="M155.668,211.084v-2.346c0,0-0.001,0.025-0.005,0.073C155.65,209.059,155.613,209.94,155.668,211.084z"/>
		<path fill="#FFFFFF" d="M156.642,216.14c-0.004-0.008-0.007-0.016-0.011-0.023c0.001,0.002,0.001,0.003,0.002,0.005
			C156.636,216.127,156.639,216.133,156.642,216.14z"/>
		<path fill="#FFFFFF" d="M185.062,173.005c-2.268,2.004-3.909,4.698-4.598,7.755C181.552,176.335,184.794,173.255,185.062,173.005z
			"/>
		<path fill="#FFFFFF" d="M126.577,39.195c0.037-0.206,0.079-0.418,0.128-0.641C126.657,38.766,126.615,38.979,126.577,39.195z"/>
		<path fill="#FFFFFF" d="M141.006,191.356c-5.774,0-9.273-0.62-11.395-1.371c0,15.491,0,26.038,0,27.082
			c3.061,1.277,8.27,2.543,14.962,0.691c10.303-2.85,11.038-8.263,11.089-8.947c0.003-0.046,0.005-0.073,0.005-0.073v-21.11
			C155.668,187.628,155.668,191.356,141.006,191.356z"/>
		<path fill="#FFFFFF" d="M141.006,152.26c-5.774,0-9.273-0.62-11.395-1.371c0,6.607,0,13.034,0,19.123
			c1.967,0.898,5.111,1.638,10.133,1.638c12.782,0,15.923-4.793,15.923-4.793v-18.325
			C155.668,148.531,155.668,152.26,141.006,152.26z"/>
		<path fill="#FFFFFF" d="M141.006,113.488c-5.774,0-9.273-0.62-11.395-1.371c0,6.201,0,12.508,0,18.797
			c1.967,0.899,5.111,1.639,10.133,1.639c12.782,0,15.923-4.793,15.923-4.793v-18C155.668,109.76,155.668,113.488,141.006,113.488z"
			/>
		<path fill="#FFFFFF" d="M180.112,183.638c-0.003,0.118-0.01,0.236-0.01,0.356v2.9c0,0,0.002,0.01,0.006,0.03
			C180.109,185.602,180.11,184.475,180.112,183.638z"/>
		<path fill="#FFFFFF" d="M180.094,211.73c-0.003,0.078-0.002,0.155-0.006,0.233c0.006-0.125,0.006-0.193,0.006-0.193
			S180.094,211.754,180.094,211.73z"/>
		<path fill="#FFFFFF" d="M126.498,39.671c0.013-0.086,0.025-0.171,0.04-0.261C126.524,39.497,126.511,39.583,126.498,39.671z"/>
		<path fill="#FFFFFF" d="M178.249,217.821c-0.126,0.201-0.258,0.397-0.395,0.59c0.033-0.043,0.065-0.085,0.096-0.126
			C178.056,218.131,178.153,217.976,178.249,217.821z"/>
		<path fill="#FFFFFF" d="M195.229,242.605c0.986-0.865,1.933-1.775,2.833-2.728C197.106,240.868,196.16,241.774,195.229,242.605z"
			/>
		<path fill="#FFFFFF" d="M182.646,232.519c-1.171-9.132-8.571-10.622-8.58-10.624c-1.814,1.068-3.926,1.685-6.181,1.685
			c-2.788,0-5.36-0.941-7.419-2.52c0.02,0.016,0.03,0.023,0.03,0.023s-0.225,11.201-8.425,15.652
			c-8.2,4.452-13.68,3.839-13.68,3.839c7.53,7.606,17.969,12.327,29.494,12.327c3.616,0,7.125-0.465,10.471-1.337
			C178.357,251.562,183.816,241.654,182.646,232.519z"/>
		<path fill="#FFFFFF" d="M194.764,211.394c-6.849,0-10.498-0.872-12.442-1.801c-0.007,0.93-0.01,1.7-0.01,2.257
			c0,2.326-1.121,4.184-2.378,5.535c2.227,0.445,6.988,1.656,11.615,4.51c6.316,3.896,6.528,17.926,6.529,17.967
			c7.03-7.444,11.348-17.477,11.348-28.5v-3.696C209.426,207.665,209.426,211.394,194.764,211.394z"/>
		<path fill="#FFFFFF" d="M138.391,240.574c-1.92-1.973-3.527-3.966-4.875-5.923C134.958,236.773,136.591,238.756,138.391,240.574z"
			/>
		<path fill="#FFFFFF" d="M194.764,169.332c-3.712,0-7.1,1.383-9.683,3.657c-1.993,4.233-2.444,9.131-2.444,9.131
			s-0.043,3.185-0.097,7.503c1.87,1.078,5.165,2.064,10.963,2.064c12.783,0,15.923-4.793,15.923-4.793v-2.9
			C209.426,175.896,202.861,169.332,194.764,169.332z"/>
		<path fill="#FFFFFF" d="M195.097,242.724c-0.026,0.022-0.052,0.044-0.077,0.066C195.045,242.768,195.07,242.746,195.097,242.724z"
			/>
		<path fill="#FF0000" d="M139.745,56.151c-5.022,0-8.167-0.74-10.133-1.639c0,5.542,0,12.339,0,19.974
			c2.122,0.751,5.621,1.371,11.395,1.371c14.662,0,14.662-3.728,14.662-3.728V51.358C155.668,51.358,152.527,56.151,139.745,56.151z
			"/>
		<path fill="#FF0000" d="M139.745,93.782c-5.022,0-8.167-0.74-10.133-1.639c0,6.415,0,13.128,0,19.974
			c2.122,0.751,5.621,1.371,11.395,1.371c14.662,0,14.662-3.729,14.662-3.729V88.989C155.668,88.989,152.527,93.782,139.745,93.782z
			"/>
		<path fill="#FF0000" d="M139.745,132.553c-5.022,0-8.167-0.74-10.133-1.639c0,6.731,0,13.44,0,19.975
			c2.122,0.75,5.621,1.371,11.395,1.371c14.662,0,14.662-3.729,14.662-3.729V127.76C155.668,127.76,152.527,132.553,139.745,132.553
			z"/>
		<path fill="#FF0000" d="M139.745,171.649c-5.022,0-8.167-0.739-10.133-1.638c0,7.224,0,13.969,0,19.974
			c2.122,0.751,5.621,1.371,11.395,1.371c14.662,0,14.662-3.729,14.662-3.729v-20.771
			C155.668,166.856,152.527,171.649,139.745,171.649z"/>
		<path fill="#FF0000" d="M180.103,186.895v7.106c0.002-2.592,0.004-5.061,0.006-7.076
			C180.104,186.904,180.103,186.895,180.103,186.895z"/>
		<path fill="#FF0000" d="M193.503,191.688c-5.798,0-9.093-0.986-10.963-2.064c-0.08,6.387-0.187,15.251-0.219,19.97
			c1.944,0.929,5.594,1.801,12.442,1.801c14.662,0,14.662-3.729,14.662-3.729v-20.771
			C209.426,186.895,206.286,191.688,193.503,191.688z"/>
		<path fill="#FF0000" d="M160.466,221.06c-0.291-0.234-2.647-2.185-3.824-4.92C157.475,218.093,158.803,219.784,160.466,221.06z"/>
		<path fill="#FF0000" d="M156.489,215.759c-0.552-1.483-0.756-3.273-0.821-4.675v0.277
			C155.668,212.911,155.961,214.394,156.489,215.759z"/>
		<path fill="#FF0000" d="M130.406,229.361c0,0-0.284-0.613-0.821-1.951c-0.285-0.678-0.553-1.364-0.803-2.06
			c-0.274-0.723-0.58-1.544-0.918-2.482c0,0,0-0.001,0-0.002c0.976,3.325,2.68,7.465,5.653,11.785
			c-1.172-1.727-2.218-3.545-3.125-5.442C130.4,229.305,130.406,229.361,130.406,229.361z"/>
		<polygon fill="#FF0000" points="138.391,240.574 138.391,240.574 138.391,240.574 		"/>
		<path fill="#FF0000" d="M156.621,216.093c0.004,0.008,0.007,0.017,0.01,0.023C156.628,216.109,156.625,216.101,156.621,216.093z"
			/>
		<path fill="#FF0000" d="M152.071,236.735c8.2-4.451,8.425-15.652,8.425-15.652s-0.011-0.008-0.03-0.023
			c-1.663-1.275-2.991-2.967-3.824-4.92c-0.003-0.007-0.006-0.013-0.009-0.019c-0.001-0.002-0.001-0.003-0.002-0.005
			c-0.003-0.007-0.006-0.016-0.01-0.023c-0.046-0.108-0.09-0.221-0.132-0.334c-0.528-1.365-0.821-2.848-0.821-4.397v-0.277
			c-0.055-1.144-0.018-2.025-0.005-2.272c-0.052,0.685-0.786,6.098-11.089,8.947c-6.692,1.852-11.901,0.586-14.962-0.691
			c0,0.057,0,0.092,0,0.092c0,3.513,0.675,10.916,0.78,12.05c0.906,1.897,1.952,3.716,3.125,5.442
			c1.348,1.957,2.955,3.95,4.875,5.923c0,0,0,0,0,0C138.392,240.574,143.871,241.188,152.071,236.735z"/>
		<path fill="#FF0000" d="M129.584,227.41c-0.224-0.557-0.493-1.244-0.803-2.06C129.031,226.046,129.3,226.732,129.584,227.41z"/>
		<path fill="#FF0000" d="M155.668,208.738c0,0-0.002,0.027-0.005,0.073C155.667,208.764,155.668,208.738,155.668,208.738z"/>
		<path fill="#FF0000" d="M198.078,239.862L198.078,239.862c-0.005,0.004-0.01,0.01-0.016,0.016
			C198.068,239.872,198.073,239.867,198.078,239.862z"/>
		<path fill="#FF0000" d="M195.229,242.605c-0.045,0.039-0.088,0.079-0.133,0.118C195.141,242.684,195.186,242.645,195.229,242.605z
			"/>
		<path fill="#FF0000" d="M176.504,220.012c0.02-0.02,0.038-0.038,0.058-0.058c0.472-0.478,0.903-0.994,1.293-1.543
			c-0.653,0.847-1.808,2.065-3.789,3.483l0,0C174.956,221.369,175.776,220.737,176.504,220.012L176.504,220.012z"/>
		<path fill="#FF0000" d="M178.355,251.564c0,0,7.517-0.696,16.664-8.774C190.276,246.891,184.6,249.937,178.355,251.564
			L178.355,251.564z"/>
		<path fill="#FF0000" d="M177.95,218.285c-0.03,0.041-0.062,0.083-0.096,0.126c-0.39,0.549-0.821,1.065-1.293,1.543
			C177.103,219.418,177.562,218.855,177.95,218.285z"/>
		<path fill="#FF0000" d="M191.549,221.895c-4.627-2.854-9.389-4.064-11.615-4.51c-1.601,1.722-3.422,2.624-3.429,2.627
			c-0.729,0.726-1.549,1.357-2.439,1.883c0.009,0.002,7.409,1.492,8.58,10.624c1.171,9.136-4.288,19.044-4.29,19.046
			c6.244-1.628,11.921-4.674,16.664-8.774c0.025-0.022,0.051-0.044,0.077-0.066c0.045-0.039,0.088-0.079,0.133-0.118
			c0.931-0.831,1.877-1.737,2.833-2.728c0.006-0.006,0.011-0.012,0.016-0.017C198.077,239.82,197.865,225.79,191.549,221.895z"/>
		<path fill="#B3B3B3" d="M126.705,38.554c0.015-0.066,0.03-0.133,0.046-0.199C126.735,38.422,126.72,38.489,126.705,38.554z"/>
		<path fill="#B3B3B3" d="M126.538,39.41c0.012-0.072,0.026-0.144,0.039-0.215C126.563,39.267,126.55,39.34,126.538,39.41z"/>
		<path fill="#B3B3B3" d="M126.345,41.779c0-0.716,0.054-1.419,0.153-2.108C126.309,40.945,126.345,41.779,126.345,41.779z"/>
		<path fill="#B3B3B3" d="M134.188,28.8c-4.717,2.424-6.605,6.327-7.355,9.222C127.892,34.019,130.601,30.689,134.188,28.8z"/>
		<path fill="#B3B3B3" d="M126.555,215.415c-0.106-1.089-0.171-2.188-0.191-3.298c-0.012-0.25-0.019-0.502-0.019-0.756
			c0,0-0.121,6.966,1.518,11.505C126.555,218.409,126.554,215.414,126.555,215.415L126.555,215.415z"/>
		<path fill="#FFFFFF" d="M129.612,92.144c0-6.219,0-12.156,0-17.657c-3.266-1.156-3.267-2.624-3.267-2.624v17.125
			C126.345,88.989,126.573,90.755,129.612,92.144z"/>
		<path fill="#B3B3B3" d="M129.612,92.144c0-6.219,0-12.156,0-17.657c-3.266-1.156-3.267-2.624-3.267-2.624v17.125
			C126.345,88.989,126.573,90.755,129.612,92.144z"/>
		<path fill="#FFFFFF" d="M129.612,54.513c0-8.498,0-14.053,0-15.177c0-6.842,6.157-11.251,6.157-11.251
			c-0.561,0.22-1.084,0.46-1.581,0.715c-3.587,1.889-6.296,5.219-7.355,9.222c-0.029,0.113-0.056,0.224-0.082,0.333
			c-0.016,0.066-0.031,0.133-0.046,0.199c-0.049,0.222-0.092,0.435-0.128,0.641c-0.013,0.071-0.027,0.143-0.039,0.215
			c-0.015,0.09-0.027,0.175-0.04,0.261c-0.099,0.689-0.153,1.392-0.153,2.108v9.579C126.345,51.358,126.573,53.125,129.612,54.513z"
			/>
		<path fill="#B3B3B3" d="M129.612,54.513c0-8.498,0-14.053,0-15.177c0-6.842,6.157-11.251,6.157-11.251
			c-0.561,0.22-1.084,0.46-1.581,0.715c-3.587,1.889-6.296,5.219-7.355,9.222c-0.029,0.113-0.056,0.224-0.082,0.333
			c-0.016,0.066-0.031,0.133-0.046,0.199c-0.049,0.222-0.092,0.435-0.128,0.641c-0.013,0.071-0.027,0.143-0.039,0.215
			c-0.015,0.09-0.027,0.175-0.04,0.261c-0.099,0.689-0.153,1.392-0.153,2.108v9.579C126.345,51.358,126.573,53.125,129.612,54.513z"
			/>
		<path fill="#FFFFFF" d="M129.612,130.915c0-6.289,0-12.596,0-18.797c-3.266-1.156-3.267-2.624-3.267-2.624v18.267
			C126.345,127.76,126.573,129.526,129.612,130.915z"/>
		<path fill="#B3B3B3" d="M129.612,130.915c0-6.289,0-12.596,0-18.797c-3.266-1.156-3.267-2.624-3.267-2.624v18.267
			C126.345,127.76,126.573,129.526,129.612,130.915z"/>
		<path fill="#FFFFFF" d="M126.555,215.415c0.006,0.005,1.088,0.831,3.057,1.652c0-1.044,0-11.591,0-27.082
			c-3.266-1.156-3.267-2.624-3.267-2.624v17.647v6.353c0,0.254,0.007,0.506,0.019,0.756
			C126.384,213.228,126.449,214.326,126.555,215.415z"/>
		<path fill="#B3B3B3" d="M126.555,215.415c0.006,0.005,1.088,0.831,3.057,1.652c0-1.044,0-11.591,0-27.082
			c-3.266-1.156-3.267-2.624-3.267-2.624v17.647v6.353c0,0.254,0.007,0.506,0.019,0.756
			C126.384,213.228,126.449,214.326,126.555,215.415z"/>
		<path fill="#FFFFFF" d="M129.612,170.012c0-6.089,0-12.516,0-19.123c-3.266-1.156-3.267-2.624-3.267-2.624v18.591
			C126.345,166.856,126.573,168.623,129.612,170.012z"/>
		<path fill="#B3B3B3" d="M129.612,170.012c0-6.089,0-12.516,0-19.123c-3.266-1.156-3.267-2.624-3.267-2.624v18.591
			C126.345,166.856,126.573,168.623,129.612,170.012z"/>
		<path fill="#FF0000" d="M129.612,74.487c0-7.635,0-14.432,0-19.974c-3.039-1.388-3.267-3.154-3.267-3.154v20.505
			C126.345,71.863,126.346,73.331,129.612,74.487z"/>
		<path fill="#C2000B" d="M129.612,74.487c0-7.635,0-14.432,0-19.974c-3.039-1.388-3.267-3.154-3.267-3.154v20.505
			C126.345,71.863,126.346,73.331,129.612,74.487z"/>
		<path fill="#FF0000" d="M129.612,112.118c0-6.846,0-13.559,0-19.974c-3.039-1.388-3.267-3.155-3.267-3.155v20.505
			C126.345,109.494,126.346,110.961,129.612,112.118z"/>
		<path fill="#C2000B" d="M129.612,112.118c0-6.846,0-13.559,0-19.974c-3.039-1.388-3.267-3.155-3.267-3.155v20.505
			C126.345,109.494,126.346,110.961,129.612,112.118z"/>
		<path fill="#FF0000" d="M129.612,150.889c0-6.534,0-13.244,0-19.975c-3.039-1.388-3.267-3.154-3.267-3.154v20.505
			C126.345,148.265,126.346,149.733,129.612,150.889z"/>
		<path fill="#C2000B" d="M129.612,150.889c0-6.534,0-13.244,0-19.975c-3.039-1.388-3.267-3.154-3.267-3.154v20.505
			C126.345,148.265,126.346,149.733,129.612,150.889z"/>
		<path fill="#FF0000" d="M129.612,189.985c0-6.005,0-12.75,0-19.974c-3.039-1.389-3.267-3.155-3.267-3.155v20.505
			C126.345,187.361,126.346,188.829,129.612,189.985z"/>
		<path fill="#C2000B" d="M129.612,189.985c0-6.005,0-12.75,0-19.974c-3.039-1.389-3.267-3.155-3.267-3.155v20.505
			C126.345,187.361,126.346,188.829,129.612,189.985z"/>
		<path fill="#FF0000" d="M128.782,225.351c-1.131-3.154-1.891-6.484-2.227-9.936l-0.001-0.001c0,0,0.001,2.995,1.309,7.452
			c0,0.001,0,0.002,0,0.002C128.202,223.807,128.507,224.628,128.782,225.351z"/>
		<path fill="#B3B3B3" d="M128.782,225.351c-1.131-3.154-1.891-6.484-2.227-9.936l-0.001-0.001c0,0,0.001,2.995,1.309,7.452
			c0,0.001,0,0.002,0,0.002C128.202,223.807,128.507,224.628,128.782,225.351z"/>
		<path fill="#FF0000" d="M130.406,229.361c0,0-0.005-0.057-0.014-0.152c-0.283-0.592-0.552-1.192-0.807-1.799
			C130.122,228.748,130.406,229.361,130.406,229.361z"/>
		<path fill="#B3B3B3" d="M130.406,229.361c0,0-0.005-0.057-0.014-0.152c-0.283-0.592-0.552-1.192-0.807-1.799
			C130.122,228.748,130.406,229.361,130.406,229.361z"/>
		<path fill="#FF0000" d="M128.782,225.351c0.31,0.815,0.579,1.503,0.803,2.06c0.255,0.606,0.524,1.207,0.807,1.799
			c-0.105-1.134-0.78-8.537-0.78-12.05c0,0,0-0.035,0-0.092c-1.969-0.821-3.05-1.647-3.057-1.652
			C126.891,218.866,127.651,222.196,128.782,225.351z"/>
		<path fill="#C2000B" d="M128.782,225.351c0.31,0.815,0.579,1.503,0.803,2.06c0.255,0.606,0.524,1.207,0.807,1.799
			c-0.105-1.134-0.78-8.537-0.78-12.05c0,0,0-0.035,0-0.092c-1.969-0.821-3.05-1.647-3.057-1.652
			C126.891,218.866,127.651,222.196,128.782,225.351z"/>
		<path fill="#B3B3B3" d="M185.082,172.987c0,0-0.008,0.007-0.02,0.018c0.007-0.005,0.013-0.011,0.019-0.016
			C185.082,172.988,185.082,172.988,185.082,172.987z"/>
		<path fill="#B3B3B3" d="M180.112,183.587c0,0.016,0,0.034,0,0.051c0.021-0.886,0.116-1.753,0.287-2.593
			C180.221,181.854,180.113,182.702,180.112,183.587z"/>
		<path fill="#B3B3B3" d="M180.085,212.02c0.001-0.02,0.002-0.037,0.003-0.056C180.087,211.98,180.086,212,180.085,212.02z"/>
		<path fill="#B3B3B3" d="M180.103,207.399v-13.398c-0.005,7.968-0.009,17.09-0.009,17.729c0.004-0.123,0.009-0.246,0.009-0.369
			V207.399z"/>
		<path fill="#B3B3B3" d="M178.249,217.821c0.999-1.599,1.639-3.442,1.807-5.42C179.955,213.446,179.587,215.64,178.249,217.821z"/>
		<path fill="#B3B3B3" d="M180.404,181.023c0.019-0.089,0.041-0.176,0.061-0.264C180.443,180.847,180.424,180.936,180.404,181.023z"
			/>
		<path fill="#FFFFFF" d="M178.637,217.159c0,0,0.479,0.062,1.297,0.226c1.257-1.352,2.378-3.209,2.378-5.535
			c0-0.557,0.003-1.327,0.01-2.257c-2.218-1.06-2.219-2.193-2.219-2.193v3.962c0,0.123-0.005,0.246-0.009,0.369
			c0,0.023,0,0.04,0,0.04s0,0.068-0.006,0.193c-0.001,0.019-0.002,0.036-0.003,0.056c-0.006,0.101-0.015,0.228-0.029,0.382
			c-0.168,1.978-0.808,3.821-1.807,5.42c-0.096,0.154-0.193,0.31-0.299,0.464C178.48,217.575,178.637,217.159,178.637,217.159z"/>
		<path fill="#B3B3B3" d="M178.637,217.159c0,0,0.479,0.062,1.297,0.226c1.257-1.352,2.378-3.209,2.378-5.535
			c0-0.557,0.003-1.327,0.01-2.257c-2.218-1.06-2.219-2.193-2.219-2.193v3.962c0,0.123-0.005,0.246-0.009,0.369
			c0,0.023,0,0.04,0,0.04s0,0.068-0.006,0.193c-0.001,0.019-0.002,0.036-0.003,0.056c-0.006,0.101-0.015,0.228-0.029,0.382
			c-0.168,1.978-0.808,3.821-1.807,5.42c-0.096,0.154-0.193,0.31-0.299,0.464C178.48,217.575,178.637,217.159,178.637,217.159z"/>
		<path fill="#FFFFFF" d="M182.54,189.623c0.054-4.318,0.097-7.503,0.097-7.503s0.451-4.897,2.444-9.131
			c-0.006,0.005-0.012,0.011-0.019,0.016c-0.269,0.25-3.511,3.33-4.598,7.755c-0.02,0.088-0.042,0.175-0.061,0.264
			c-0.002,0.007-0.003,0.015-0.005,0.021c-0.171,0.84-0.267,1.707-0.287,2.593c-0.002,0.837-0.003,1.964-0.004,3.287
			C180.15,187.14,180.481,188.437,182.54,189.623z"/>
		<path fill="#B3B3B3" d="M182.54,189.623c0.054-4.318,0.097-7.503,0.097-7.503s0.451-4.897,2.444-9.131
			c-0.006,0.005-0.012,0.011-0.019,0.016c-0.269,0.25-3.511,3.33-4.598,7.755c-0.02,0.088-0.042,0.175-0.061,0.264
			c-0.002,0.007-0.003,0.015-0.005,0.021c-0.171,0.84-0.267,1.707-0.287,2.593c-0.002,0.837-0.003,1.964-0.004,3.287
			C180.15,187.14,180.481,188.437,182.54,189.623z"/>
		<path fill="#FF0000" d="M182.321,209.593c0.032-4.719,0.139-13.583,0.219-19.97c-2.059-1.187-2.39-2.483-2.432-2.698
			c-0.002,2.016-0.004,4.484-0.006,7.076v13.398C180.103,207.399,180.104,208.533,182.321,209.593z"/>
		<path fill="#C2000B" d="M182.321,209.593c0.032-4.719,0.139-13.583,0.219-19.97c-2.059-1.187-2.39-2.483-2.432-2.698
			c-0.002,2.016-0.004,4.484-0.006,7.076v13.398C180.103,207.399,180.104,208.533,182.321,209.593z"/>
		<path fill="#FF0000" d="M176.562,219.954c-0.02,0.02-0.038,0.038-0.058,0.058h0.001
			C176.523,219.992,176.542,219.974,176.562,219.954z"/>
		<path fill="#B3B3B3" d="M176.562,219.954c-0.02,0.02-0.038,0.038-0.058,0.058h0.001
			C176.523,219.992,176.542,219.974,176.562,219.954z"/>
		<path fill="#FF0000" d="M177.95,218.285c-0.389,0.57-0.848,1.133-1.389,1.669c-0.02,0.02-0.038,0.038-0.057,0.058
			c0.007-0.003,1.828-0.905,3.429-2.627c-0.818-0.164-1.297-0.226-1.297-0.226S178.48,217.575,177.95,218.285z"/>
		<path fill="#C2000B" d="M177.95,218.285c-0.389,0.57-0.848,1.133-1.389,1.669c-0.02,0.02-0.038,0.038-0.057,0.058
			c0.007-0.003,1.828-0.905,3.429-2.627c-0.818-0.164-1.297-0.226-1.297-0.226S178.48,217.575,177.95,218.285z"/>
	</g>
	
		<circle fill="#FFFFFF" stroke="#FFFFFF" stroke-width="2.1637" stroke-linecap="round" stroke-linejoin="round" stroke-miterlimit="10" cx="160.688" cy="64.639" r="13.483"/>
	
		<circle stroke="#FFFFFF" stroke-width="2.4435" stroke-linecap="round" stroke-linejoin="round" stroke-miterlimit="10" cx="158.496" cy="63.577" r="12.26"/>
	
		<circle fill="#FFFFFF" stroke="#FFFFFF" stroke-width="2.4435" stroke-linecap="round" stroke-linejoin="round" stroke-miterlimit="10" cx="155.638" cy="60.934" r="1.093"/>
	<path d="M140.194,86.775c0,0,6.318,0.229,8.845-3.446c0,0,1.264,5.743-2.642,7.237C142.492,92.059,140.194,86.775,140.194,86.775z"
		/>
	
		<circle fill="#FFFFFF" stroke="#FFFFFF" stroke-width="2.2135" stroke-linecap="round" stroke-linejoin="round" stroke-miterlimit="10" cx="122.346" cy="64.629" r="13.794"/>
	
		<circle stroke="#FFFFFF" stroke-width="2.4435" stroke-linecap="round" stroke-linejoin="round" stroke-miterlimit="10" cx="120.376" cy="63.577" r="12.26"/>
	
		<circle fill="#FFFFFF" stroke="#FFFFFF" stroke-width="2.4435" stroke-linecap="round" stroke-linejoin="round" stroke-miterlimit="10" cx="121.02" cy="61.42" r="1.58"/>
	<path fill="#FFFFFF" d="M163.795,133.05c1.998,2.805,5.89,3.461,8.696,1.463l5.942-4.232c2.807-1.998,3.461-5.892,1.463-8.697l0,0
		c-1.996-2.803-5.89-3.459-8.696-1.461l-5.943,4.232C162.451,126.353,161.799,130.245,163.795,133.05L163.795,133.05z"/>
	
		<path fill="none" stroke="#FFFFFF" stroke-width="5.0526" stroke-linecap="round" stroke-linejoin="round" stroke-miterlimit="10" d="
		M162.036,87.798c0,0,15.22,5.984,15.22,24.319"/>
	
		<path fill="none" stroke="#FFFFFF" stroke-width="5.0526" stroke-linecap="round" stroke-linejoin="round" stroke-miterlimit="10" d="
		M132.609,109.243c0,0-0.622,14.364-14.479,17.444"/>
	<g>
		<path fill="#FFFFFF" d="M136.469,68.696l-0.329-0.362l-2.304-3.76c0.297-0.261,3.042-2.545,8.075-2.545
			c4.981,0,4.541,0.519,4.937,0.895l0.758,4.993c0,0-0.452,0.548-0.401,0.588c-0.012-0.01-2.239-1.582-5.294-1.582
			C138.732,66.922,136.536,68.641,136.469,68.696z"/>
	</g>
	<path d="M126.498,39.671c0,0,2.642,8.52,18.974,6.985c16.333-1.536,15.38-6.202,9.751-8.467L126.498,39.671z"/>
	<path fill="#0B0146" d="M126.498,39.671c0,0,7.452,2.565,14.086,2.786s14.639-4.269,14.639-4.269s15.584-12.464,1.209-15.192
		c-14.374-2.728-39.142-4.054-34.94,4.57S126.498,39.671,126.498,39.671z"/>
	<path fill="#FFFFFF" d="M180.562,147.348c5.383-0.552,9.299-5.36,8.748-10.742l-1.028-10.04c-0.552-5.383-5.359-9.297-10.741-8.747
		l0,0c-5.383,0.552-9.298,5.36-8.747,10.741l1.027,10.041C170.372,143.981,175.182,147.897,180.562,147.348L180.562,147.348z"/>
</g>
<g id="hand">
	<path fill="#FFFFFF" d="M112.094,124.252c-0.057-1.592-0.497-3.074-1.217-4.378c-0.144-0.298-0.298-0.593-0.482-0.88l-4.453-6.923
		c-2.1-3.268-6.219-4.495-9.199-2.746c-2.018,1.184-2.992,3.43-2.763,5.77l-2.11,0.076c-5.406,0.193-9.632,4.731-9.44,10.136
		c0.194,5.408,4.731,9.635,10.138,9.443l10.087-0.36C108.061,134.198,112.285,129.658,112.094,124.252z"/>
</g>
</svg>
