<?xml version="1.0" encoding="utf-8"?>
<!-- Generator: Adobe Illustrator 16.0.4, SVG Export Plug-In . SVG Version: 6.00 Build 0)  -->
<!DOCTYPE svg PUBLIC "-//W3C//DTD SVG 1.1//EN" "http://www.w3.org/Graphics/SVG/1.1/DTD/svg11.dtd">
<svg version="1.1" xmlns="http://www.w3.org/2000/svg" xmlns:xlink="http://www.w3.org/1999/xlink" x="0px" y="0px" width="600px"
	 height="1000px" viewBox="0 0 600 1000" enable-background="new 0 0 600 1000" xml:space="preserve">
<g id="Calque_1">
	<rect fill="#579BCC" width="600" height="1000"/>
	<path fill="#437A99" d="M408.493,654.688c-12.377,0-23.669,4.609-32.278,12.191c0.003-0.002,0.003-0.005,0.003-0.007
		c0,0-0.025,0.025-0.066,0.063c-7.557,6.677-13.026,15.654-15.32,25.837c-0.073,0.296-0.14,0.596-0.207,0.893
		c-0.003,0.021-0.009,0.042-0.013,0.063c-0.598,2.693-0.954,5.523-0.961,8.474c0,0.056,0,0.116,0,0.171
		c-0.01,0.396-0.028,0.788-0.028,1.186v9.668v23.389c-0.02,26.725-0.032,57.476-0.032,59.422c-0.006,0.227-0.006,0.454-0.019,0.681
		c-0.003,0.116-0.013,0.253-0.022,0.402c-0.016,0.299-0.045,0.595-0.066,0.891c-0.3,3.394-1.486,10.96-6.15,18.475
		c-0.128,0.202-0.255,0.404-0.389,0.604c-0.238,0.372-0.502,0.741-0.76,1.112c-2.164,2.825-6.011,6.915-12.689,11.692l0,0
		c-6.048,3.562-13.086,5.616-20.598,5.616c-9.297,0-17.871-3.138-24.734-8.401c-0.977-0.786-8.86-7.313-12.775-16.459l0,0
		c-2.222-5.194-2.986-11.812-3.218-16.883v-78.095v-69.237v-61.085v-69.237v-60v-69.237v-56.198V261.44v-31.93
		c0-26.991-21.88-48.871-48.871-48.871c-6.154,0-12.037,1.148-17.461,3.225l0.001-0.001c-0.005,0.002-0.009,0.004-0.014,0.006
		c-1.798,0.688-3.543,1.479-5.231,2.367c-15.74,8.079-22.04,21.096-24.541,30.751c-0.097,0.368-0.183,0.738-0.272,1.109
		c-0.052,0.224-0.103,0.445-0.152,0.664c-0.159,0.708-0.303,1.424-0.43,2.144c-0.043,0.238-0.089,0.479-0.127,0.709
		c-0.047,0.289-0.092,0.578-0.133,0.87c-0.63,4.247-0.511,7.028-0.511,7.028v31.93v68.35v57.086v68.35v60.888v68.35v61.973v68.35
		v58.822v21.177c0,0-0.403,23.226,5.062,38.357c0.013,0.033,0.024,0.063,0.035,0.097c3.29,11.186,9.042,25.109,19.12,39.63
		c0.921,1.345,1.884,2.657,2.849,3.966c0.026,0.034,0.048,0.067,0.073,0.101c3.682,4.981,7.69,9.699,11.99,14.14
		c0.347,0.361,0.673,0.726,1.025,1.086c0,0,0.019,0.002,0.033,0.004c25.099,25.346,59.872,41.088,98.281,41.088
		c12.052,0,23.748-1.556,34.903-4.464l-0.004,0.007c0,0,25.912-2.408,57.1-30.645c2.542-2.266,4.995-4.626,7.362-7.071
		c0.426-0.433,0.853-0.849,1.279-1.292c0,0,0-0.036,0-0.048c23.424-24.811,37.827-58.222,37.827-94.955v-12.32v-69.237v-9.668
		C457.364,676.568,435.483,654.688,408.493,654.688z"/>
	<g>
		<path fill="#FFFFFF" d="M270.021,323.331c-19.246,0-30.909-2.065-37.981-4.569c0,18.336,0,38.125,0,58.855
			c6.556,2.995,17.036,5.462,33.778,5.462c42.607,0,53.074-15.978,53.074-15.978v-56.199
			C318.892,310.903,318.892,323.331,270.021,323.331z"/>
		<path fill="#FFFFFF" d="M401.332,673.957c0.005-0.024,0.01-0.049,0.016-0.072C401.343,673.908,401.337,673.933,401.332,673.957z"
			/>
		<path fill="#FFFFFF" d="M232.04,201.591c0,3.747,0,22.263,0,50.59c6.556,2.995,17.036,5.462,33.778,5.462
			c42.607,0,53.074-15.978,53.074-15.978v-31.93c0-26.99-21.881-48.871-48.871-48.871c-8.208,0-15.937,2.033-22.728,5.608
			c1.654-0.85,3.398-1.653,5.269-2.384C252.562,164.089,232.04,178.784,232.04,201.591z"/>
		<path fill="#FFFFFF" d="M400.185,778.476c0.05-0.514,0.079-0.938,0.098-1.272C400.259,777.63,400.221,778.052,400.185,778.476z"/>
		<path fill="#FFFFFF" d="M321.632,789.67c0.141,0.377,0.286,0.749,0.439,1.113C321.917,790.416,321.776,790.042,321.632,789.67z"/>
		<path fill="#FFFFFF" d="M222.503,198.322c0.086-0.366,0.175-0.734,0.273-1.111C222.679,197.579,222.592,197.951,222.503,198.322z"
			/>
		<path fill="#FFFFFF" d="M318.892,774.086v-7.819c0,0-0.002,0.085-0.014,0.242C318.835,767.336,318.712,770.275,318.892,774.086z"
			/>
		<path fill="#FFFFFF" d="M322.138,790.937c-0.011-0.025-0.023-0.05-0.034-0.075c0.002,0.005,0.004,0.01,0.006,0.015
			C322.118,790.896,322.129,790.916,322.138,790.937z"/>
		<path fill="#FFFFFF" d="M416.876,647.156c-7.56,6.68-13.03,15.66-15.325,25.848C405.172,658.256,415.979,647.988,416.876,647.156z
			"/>
		<path fill="#FFFFFF" d="M221.922,201.121c0.123-0.685,0.264-1.395,0.428-2.134C222.191,199.692,222.05,200.403,221.922,201.121z"
			/>
		<path fill="#FFFFFF" d="M270.021,708.326c-19.246,0-30.909-2.065-37.981-4.568c0,51.637,0,86.792,0,90.272
			c10.201,4.258,27.566,8.475,49.874,2.304c34.343-9.499,36.792-27.542,36.965-29.825c0.008-0.152,0.014-0.242,0.014-0.242v-70.368
			C318.892,695.898,318.892,708.326,270.021,708.326z"/>
		<path fill="#FFFFFF" d="M270.021,578.004c-19.246,0-30.909-2.065-37.981-4.568c0,22.021,0,43.444,0,63.741
			c6.556,2.995,17.036,5.462,33.778,5.462c42.607,0,53.074-15.977,53.074-15.977v-61.086
			C318.892,565.576,318.892,578.004,270.021,578.004z"/>
		<path fill="#FFFFFF" d="M270.021,448.766c-19.246,0-30.909-2.065-37.981-4.569c0,20.668,0,41.692,0,62.656
			c6.556,2.996,17.036,5.463,33.778,5.463c42.607,0,53.074-15.978,53.074-15.978v-60
			C318.892,436.338,318.892,448.766,270.021,448.766z"/>
		<path fill="#FFFFFF" d="M400.373,682.597c-0.01,0.396-0.03,0.789-0.03,1.188v9.668c0,0,0.005,0.036,0.018,0.104
			C400.364,689.145,400.369,685.388,400.373,682.597z"/>
		<path fill="#FFFFFF" d="M400.312,776.24c-0.008,0.259-0.007,0.52-0.02,0.776c0.02-0.414,0.02-0.645,0.02-0.645
			S400.312,776.319,400.312,776.24z"/>
		<path fill="#FFFFFF" d="M221.66,202.708c0.042-0.286,0.084-0.571,0.134-0.871C221.747,202.127,221.702,202.417,221.66,202.708z"/>
		<path fill="#FFFFFF" d="M394.162,796.543c-0.419,0.669-0.858,1.324-1.314,1.967c0.111-0.144,0.218-0.283,0.319-0.42
			C393.518,797.575,393.846,797.059,394.162,796.543z"/>
		<path fill="#FFFFFF" d="M450.765,879.156c3.289-2.883,6.441-5.916,9.444-9.093C457.021,873.366,453.866,876.387,450.765,879.156z"
			/>
		<path fill="#FFFFFF" d="M408.817,845.534c-3.901-30.439-28.57-35.408-28.6-35.414c-6.048,3.562-13.087,5.616-20.601,5.616
			c-9.296,0-17.868-3.137-24.73-8.399c0.065,0.053,0.1,0.079,0.1,0.079s-0.748,37.336-28.082,52.175s-45.599,12.796-45.6,12.796
			c25.1,25.355,59.896,41.092,98.313,41.092c12.052,0,23.747-1.552,34.901-4.458C394.523,909.013,412.723,875.987,408.817,845.534z"
			/>
		<path fill="#FFFFFF" d="M449.214,775.117c-22.831,0-34.994-2.906-41.477-6.003c-0.021,3.099-0.033,5.667-0.033,7.523
			c0,7.753-3.735,13.943-7.925,18.449c7.423,1.485,23.295,5.522,38.716,15.033c21.057,12.987,21.763,59.755,21.765,59.89
			c23.435-24.813,37.825-58.257,37.825-95v-12.32C498.085,762.689,498.085,775.117,449.214,775.117z"/>
		<path fill="#FFFFFF" d="M261.303,872.386c-6.4-6.573-11.756-13.22-16.249-19.744C249.861,859.718,255.305,866.325,261.303,872.386
			z"/>
		<path fill="#FFFFFF" d="M449.214,634.913c-12.374,0-23.666,4.608-32.276,12.19c-6.646,14.11-8.148,30.436-8.148,30.436
			s-0.142,10.615-0.322,25.01c6.233,3.593,17.217,6.88,36.544,6.88c42.608,0,53.074-15.977,53.074-15.977v-9.668
			C498.085,656.794,476.204,634.913,449.214,634.913z"/>
		<path fill="#FFFFFF" d="M450.321,879.55c-0.086,0.076-0.171,0.147-0.258,0.224C450.149,879.699,450.235,879.624,450.321,879.55z"
			/>
		<path fill="#FF0000" d="M265.817,257.644c-16.742,0-27.222-2.467-33.778-5.462c0,18.475,0,41.131,0,66.581
			c7.072,2.503,18.735,4.569,37.981,4.569c48.871,0,48.871-12.428,48.871-12.428v-69.237
			C318.892,241.666,308.425,257.644,265.817,257.644z"/>
		<path fill="#FF0000" d="M265.817,383.079c-16.742,0-27.222-2.467-33.778-5.462c0,21.383,0,43.762,0,66.581
			c7.072,2.503,18.735,4.569,37.981,4.569c48.871,0,48.871-12.428,48.871-12.428v-69.237
			C318.892,367.102,308.425,383.079,265.817,383.079z"/>
		<path fill="#FF0000" d="M265.817,512.316c-16.742,0-27.222-2.467-33.778-5.463c0,22.437,0,44.801,0,66.582
			c7.072,2.503,18.735,4.568,37.981,4.568c48.871,0,48.871-12.428,48.871-12.428v-69.237
			C318.892,496.339,308.425,512.316,265.817,512.316z"/>
		<path fill="#FF0000" d="M265.817,642.639c-16.742,0-27.222-2.467-33.778-5.462c0,24.079,0,46.563,0,66.581
			c7.072,2.503,18.735,4.568,37.981,4.568c48.871,0,48.871-12.428,48.871-12.428v-69.236
			C318.892,626.662,308.425,642.639,265.817,642.639z"/>
		<path fill="#FF0000" d="M400.343,693.452v23.689c0.006-8.641,0.012-16.869,0.018-23.586
			C400.348,693.488,400.343,693.452,400.343,693.452z"/>
		<path fill="#FF0000" d="M445.011,709.429c-19.327,0-30.311-3.287-36.544-6.88c-0.268,21.288-0.62,50.837-0.729,66.565
			c6.482,3.097,18.646,6.003,41.477,6.003c48.871,0,48.871-12.428,48.871-12.428v-69.237
			C498.085,693.452,487.619,709.429,445.011,709.429z"/>
		<path fill="#FF0000" d="M334.887,807.337c-0.971-0.78-8.824-7.282-12.749-16.4C324.914,797.446,329.342,803.085,334.887,807.337z"
			/>
		<path fill="#FF0000" d="M321.632,789.67c-1.841-4.948-2.521-10.913-2.74-15.584v0.924
			C318.892,780.177,319.869,785.117,321.632,789.67z"/>
		<path fill="#FF0000" d="M234.686,835.01c0,0-0.946-2.046-2.737-6.504c-0.95-2.26-1.844-4.547-2.676-6.865
			c-0.915-2.409-1.933-5.147-3.062-8.273c-0.001-0.002-0.001-0.005-0.002-0.007c3.252,11.085,8.932,24.883,18.845,39.281
			c-3.908-5.754-7.394-11.814-10.415-18.14C234.668,834.822,234.686,835.01,234.686,835.01z"/>
		<polygon fill="#FF0000" points="261.304,872.387 261.304,872.387 261.303,872.386 		"/>
		<path fill="#FF0000" d="M322.071,790.783c0.011,0.025,0.021,0.052,0.032,0.078C322.093,790.836,322.083,790.809,322.071,790.783z"
			/>
		<path fill="#FF0000" d="M306.904,859.591c27.334-14.839,28.082-52.175,28.082-52.175s-0.034-0.026-0.1-0.079
			c-5.545-4.252-9.973-9.891-12.749-16.4c-0.009-0.021-0.02-0.04-0.028-0.061c-0.002-0.005-0.004-0.01-0.006-0.015
			c-0.011-0.026-0.021-0.053-0.032-0.078c-0.153-0.364-0.299-0.736-0.439-1.113c-1.763-4.553-2.74-9.493-2.74-14.66v-0.924
			c-0.18-3.811-0.057-6.75-0.014-7.577c-0.173,2.283-2.622,20.326-36.965,29.825c-22.308,6.171-39.672,1.954-49.874-2.304
			c0,0.189,0,0.308,0,0.308c0,11.709,2.249,36.386,2.599,40.164c3.021,6.325,6.507,12.386,10.415,18.14
			c4.493,6.524,9.849,13.171,16.249,19.744c0,0,0.001,0.001,0.001,0.001C261.306,872.387,279.57,874.43,306.904,859.591z"/>
		<path fill="#FF0000" d="M231.949,828.506c-0.746-1.855-1.644-4.146-2.676-6.865C230.104,823.959,230.999,826.246,231.949,828.506z
			"/>
		<path fill="#FF0000" d="M318.892,766.267c0,0-0.006,0.09-0.014,0.242C318.89,766.352,318.892,766.267,318.892,766.267z"/>
		<path fill="#FF0000" d="M460.26,870.013v-0.003c-0.017,0.018-0.033,0.036-0.051,0.054
			C460.227,870.046,460.243,870.03,460.26,870.013z"/>
		<path fill="#FF0000" d="M450.765,879.156c-0.148,0.13-0.294,0.264-0.443,0.394C450.47,879.418,450.617,879.288,450.765,879.156z"
			/>
		<path fill="#FF0000" d="M388.347,803.846c0.065-0.064,0.126-0.13,0.19-0.194c1.575-1.589,3.014-3.312,4.311-5.142
			c-2.178,2.821-6.025,6.884-12.631,11.61h0.001c2.97-1.749,5.704-3.856,8.131-6.275L388.347,803.846z"/>
		<path fill="#FF0000" d="M394.519,909.021c0,0,25.055-2.322,55.545-29.247C434.255,893.44,415.332,903.596,394.519,909.021
			L394.519,909.021z"/>
		<path fill="#FF0000" d="M393.167,798.09c-0.102,0.137-0.208,0.276-0.319,0.42c-1.297,1.83-2.735,3.553-4.311,5.142
			C390.342,801.866,391.873,799.989,393.167,798.09z"/>
		<path fill="#FF0000" d="M438.495,810.12c-15.421-9.511-31.293-13.548-38.716-15.033c-5.337,5.741-11.407,8.746-11.431,8.758
			c-2.427,2.419-5.161,4.526-8.131,6.275c0.029,0.006,24.698,4.975,28.6,35.414c3.905,30.453-14.294,63.479-14.299,63.486
			c20.813-5.425,39.736-15.58,55.545-29.247c0.087-0.076,0.172-0.147,0.258-0.224c0.149-0.13,0.295-0.264,0.443-0.394
			c3.102-2.77,6.256-5.79,9.444-9.093c0.018-0.018,0.034-0.036,0.051-0.054C460.258,869.875,459.552,823.107,438.495,810.12z"/>
		<path fill="#B3B3B3" d="M222.35,198.986c0.05-0.222,0.101-0.443,0.153-0.664C222.451,198.546,222.399,198.767,222.35,198.986z"/>
		<path fill="#B3B3B3" d="M221.794,201.837c0.039-0.24,0.085-0.478,0.128-0.717C221.879,201.36,221.833,201.605,221.794,201.837z"/>
		<path fill="#B3B3B3" d="M221.149,209.736c0-2.387,0.18-4.732,0.51-7.028C221.03,206.955,221.149,209.736,221.149,209.736z"/>
		<path fill="#B3B3B3" d="M247.293,166.473c-15.723,8.08-22.017,21.088-24.517,30.738
			C226.305,183.868,235.335,172.769,247.293,166.473z"/>
		<path fill="#B3B3B3" d="M221.851,788.521c-0.353-3.626-0.571-7.291-0.638-10.992c-0.041-0.833-0.063-1.673-0.063-2.519
			c0,0-0.403,23.219,5.06,38.351c-4.358-14.858-4.361-24.842-4.361-24.842S221.85,788.521,221.851,788.521z"/>
		<path fill="#FFFFFF" d="M232.04,377.617c0-20.73,0-40.519,0-58.855c-10.887-3.854-10.89-8.747-10.89-8.747v57.086
			C221.149,367.102,221.911,372.989,232.04,377.617z"/>
		<path fill="#B3B3B3" d="M232.04,377.617c0-20.73,0-40.519,0-58.855c-10.887-3.854-10.89-8.747-10.89-8.747v57.086
			C221.149,367.102,221.911,372.989,232.04,377.617z"/>
		<path fill="#FFFFFF" d="M232.04,252.181c0-28.328,0-46.844,0-50.59c0-22.807,20.522-37.502,20.522-37.502
			c-1.87,0.731-3.614,1.534-5.269,2.384c-11.958,6.295-20.988,17.395-24.517,30.738c-0.098,0.376-0.187,0.745-0.273,1.111
			c-0.053,0.221-0.104,0.442-0.153,0.664c-0.165,0.74-0.305,1.449-0.428,2.134c-0.042,0.239-0.089,0.477-0.128,0.717
			c-0.05,0.299-0.092,0.584-0.134,0.871c-0.331,2.296-0.51,4.641-0.51,7.028v31.93C221.149,241.666,221.911,247.554,232.04,252.181z
			"/>
		<path fill="#B3B3B3" d="M232.04,252.181c0-28.328,0-46.844,0-50.59c0-22.807,20.522-37.502,20.522-37.502
			c-1.87,0.731-3.614,1.534-5.269,2.384c-11.958,6.295-20.988,17.395-24.517,30.738c-0.098,0.376-0.187,0.745-0.273,1.111
			c-0.053,0.221-0.104,0.442-0.153,0.664c-0.165,0.74-0.305,1.449-0.428,2.134c-0.042,0.239-0.089,0.477-0.128,0.717
			c-0.05,0.299-0.092,0.584-0.134,0.871c-0.331,2.296-0.51,4.641-0.51,7.028v31.93C221.149,241.666,221.911,247.554,232.04,252.181z
			"/>
		<path fill="#FFFFFF" d="M232.04,506.854c0-20.964,0-41.988,0-62.656c-10.887-3.854-10.89-8.747-10.89-8.747v60.888
			C221.149,496.339,221.911,502.227,232.04,506.854z"/>
		<path fill="#B3B3B3" d="M232.04,506.854c0-20.964,0-41.988,0-62.656c-10.887-3.854-10.89-8.747-10.89-8.747v60.888
			C221.149,496.339,221.911,502.227,232.04,506.854z"/>
		<path fill="#FFFFFF" d="M221.851,788.521c0.022,0.018,3.626,2.771,10.189,5.51c0-3.48,0-38.636,0-90.272
			c-10.887-3.854-10.89-8.747-10.89-8.747v58.822v21.177c0,0.846,0.022,1.686,0.063,2.519
			C221.279,781.229,221.498,784.895,221.851,788.521z"/>
		<path fill="#B3B3B3" d="M221.851,788.521c0.022,0.018,3.626,2.771,10.189,5.51c0-3.48,0-38.636,0-90.272
			c-10.887-3.854-10.89-8.747-10.89-8.747v58.822v21.177c0,0.846,0.022,1.686,0.063,2.519
			C221.279,781.229,221.498,784.895,221.851,788.521z"/>
		<path fill="#FFFFFF" d="M232.04,637.177c0-20.297,0-41.72,0-63.741c-10.887-3.854-10.89-8.747-10.89-8.747v61.974
			C221.149,626.662,221.911,632.55,232.04,637.177z"/>
		<path fill="#B3B3B3" d="M232.04,637.177c0-20.297,0-41.72,0-63.741c-10.887-3.854-10.89-8.747-10.89-8.747v61.974
			C221.149,626.662,221.911,632.55,232.04,637.177z"/>
		<path fill="#FF0000" d="M232.04,318.762c0-25.45,0-48.105,0-66.581c-10.128-4.627-10.89-10.515-10.89-10.515v68.349
			C221.149,310.015,221.153,314.908,232.04,318.762z"/>
		<path fill="#C2000B" d="M232.04,318.762c0-25.45,0-48.105,0-66.581c-10.128-4.627-10.89-10.515-10.89-10.515v68.349
			C221.149,310.015,221.153,314.908,232.04,318.762z"/>
		<path fill="#FF0000" d="M232.04,444.197c0-22.819,0-45.197,0-66.581c-10.128-4.627-10.89-10.515-10.89-10.515v68.349
			C221.149,435.451,221.153,440.343,232.04,444.197z"/>
		<path fill="#C2000B" d="M232.04,444.197c0-22.819,0-45.197,0-66.581c-10.128-4.627-10.89-10.515-10.89-10.515v68.349
			C221.149,435.451,221.153,440.343,232.04,444.197z"/>
		<path fill="#FF0000" d="M232.04,573.436c0-21.781,0-44.146,0-66.582c-10.128-4.627-10.89-10.515-10.89-10.515v68.35
			C221.149,564.688,221.153,569.581,232.04,573.436z"/>
		<path fill="#C2000B" d="M232.04,573.436c0-21.781,0-44.146,0-66.582c-10.128-4.627-10.89-10.515-10.89-10.515v68.35
			C221.149,564.688,221.153,569.581,232.04,573.436z"/>
		<path fill="#FF0000" d="M232.04,703.758c0-20.018,0-42.502,0-66.581c-10.128-4.627-10.89-10.515-10.89-10.515v68.349
			C221.149,695.011,221.153,699.903,232.04,703.758z"/>
		<path fill="#C2000B" d="M232.04,703.758c0-20.018,0-42.502,0-66.581c-10.128-4.627-10.89-10.515-10.89-10.515v68.349
			C221.149,695.011,221.153,699.903,232.04,703.758z"/>
		<path fill="#FF0000" d="M229.273,821.641c-3.771-10.515-6.303-21.613-7.422-33.12c0,0-0.003-0.002-0.003-0.002
			s0.003,9.983,4.361,24.842c0.001,0.002,0.001,0.005,0.002,0.007C227.34,816.493,228.358,819.231,229.273,821.641z"/>
		<path fill="#B3B3B3" d="M229.273,821.641c-3.771-10.515-6.303-21.613-7.422-33.12c0,0-0.003-0.002-0.003-0.002
			s0.003,9.983,4.361,24.842c0.001,0.002,0.001,0.005,0.002,0.007C227.34,816.493,228.358,819.231,229.273,821.641z"/>
		<path fill="#FF0000" d="M234.686,835.01c0,0-0.018-0.188-0.047-0.508c-0.942-1.974-1.839-3.973-2.69-5.996
			C233.74,832.964,234.686,835.01,234.686,835.01z"/>
		<path fill="#B3B3B3" d="M234.686,835.01c0,0-0.018-0.188-0.047-0.508c-0.942-1.974-1.839-3.973-2.69-5.996
			C233.74,832.964,234.686,835.01,234.686,835.01z"/>
		<path fill="#FF0000" d="M229.273,821.641c1.032,2.719,1.93,5.01,2.676,6.865c0.851,2.023,1.748,4.022,2.69,5.996
			c-0.351-3.778-2.599-28.455-2.599-40.164c0,0,0-0.118,0-0.308c-6.563-2.738-10.167-5.492-10.189-5.51
			C222.97,800.027,225.502,811.126,229.273,821.641z"/>
		<path fill="#C2000B" d="M229.273,821.641c1.032,2.719,1.93,5.01,2.676,6.865c0.851,2.023,1.748,4.022,2.69,5.996
			c-0.351-3.778-2.599-28.455-2.599-40.164c0,0,0-0.118,0-0.308c-6.563-2.738-10.167-5.492-10.189-5.51
			C222.97,800.027,225.502,811.126,229.273,821.641z"/>
		<path fill="#B3B3B3" d="M416.94,647.098c0,0-0.025,0.022-0.064,0.059c0.021-0.018,0.041-0.035,0.062-0.053
			C416.938,647.102,416.939,647.1,416.94,647.098z"/>
		<path fill="#B3B3B3" d="M400.373,682.428c0,0.054,0,0.114,0,0.169c0.07-2.951,0.388-5.841,0.959-8.64
			C400.735,676.649,400.377,679.479,400.373,682.428z"/>
		<path fill="#B3B3B3" d="M400.282,777.203c0.003-0.062,0.007-0.124,0.01-0.187C400.289,777.074,400.285,777.138,400.282,777.203z"
			/>
		<path fill="#B3B3B3" d="M400.343,761.802v-44.66c-0.018,26.561-0.03,56.965-0.031,59.099c0.013-0.41,0.031-0.818,0.031-1.23
			V761.802z"/>
		<path fill="#B3B3B3" d="M394.162,796.543c3.333-5.328,5.464-11.476,6.022-18.067C399.851,781.96,398.624,789.271,394.162,796.543z
			"/>
		<path fill="#B3B3B3" d="M401.348,673.885c0.061-0.297,0.137-0.587,0.203-0.881C401.479,673.295,401.413,673.59,401.348,673.885z"
			/>
		<path fill="#FFFFFF" d="M395.456,794.338c0,0,1.596,0.204,4.323,0.749c4.189-4.506,7.925-10.696,7.925-18.449
			c0-1.856,0.012-4.425,0.033-7.523c-7.393-3.532-7.395-7.312-7.395-7.312v13.208c0,0.412-0.019,0.82-0.031,1.23
			c0,0.079,0,0.132,0,0.132s0,0.23-0.02,0.645c-0.003,0.062-0.007,0.124-0.01,0.187c-0.019,0.335-0.048,0.759-0.098,1.272
			c-0.559,6.592-2.689,12.739-6.022,18.067c-0.316,0.516-0.645,1.032-0.995,1.547C394.935,795.724,395.456,794.338,395.456,794.338z
			"/>
		<path fill="#B3B3B3" d="M395.456,794.338c0,0,1.596,0.204,4.323,0.749c4.189-4.506,7.925-10.696,7.925-18.449
			c0-1.856,0.012-4.425,0.033-7.523c-7.393-3.532-7.395-7.312-7.395-7.312v13.208c0,0.412-0.019,0.82-0.031,1.23
			c0,0.079,0,0.132,0,0.132s0,0.23-0.02,0.645c-0.003,0.062-0.007,0.124-0.01,0.187c-0.019,0.335-0.048,0.759-0.098,1.272
			c-0.559,6.592-2.689,12.739-6.022,18.067c-0.316,0.516-0.645,1.032-0.995,1.547C394.935,795.724,395.456,794.338,395.456,794.338z
			"/>
		<path fill="#FFFFFF" d="M408.467,702.549c0.181-14.395,0.322-25.01,0.322-25.01s1.503-16.325,8.148-30.436
			c-0.021,0.018-0.041,0.035-0.062,0.053c-0.896,0.832-11.704,11.1-15.325,25.848c-0.066,0.294-0.143,0.584-0.203,0.881
			c-0.006,0.023-0.011,0.048-0.016,0.072c-0.571,2.799-0.889,5.688-0.959,8.64c-0.004,2.791-0.009,6.548-0.013,10.959
			C400.5,694.271,401.605,698.595,408.467,702.549z"/>
		<path fill="#B3B3B3" d="M408.467,702.549c0.181-14.395,0.322-25.01,0.322-25.01s1.503-16.325,8.148-30.436
			c-0.021,0.018-0.041,0.035-0.062,0.053c-0.896,0.832-11.704,11.1-15.325,25.848c-0.066,0.294-0.143,0.584-0.203,0.881
			c-0.006,0.023-0.011,0.048-0.016,0.072c-0.571,2.799-0.889,5.688-0.959,8.64c-0.004,2.791-0.009,6.548-0.013,10.959
			C400.5,694.271,401.605,698.595,408.467,702.549z"/>
		<path fill="#FF0000" d="M407.737,769.114c0.109-15.729,0.462-45.277,0.729-66.565c-6.861-3.954-7.967-8.277-8.106-8.993
			c-0.006,6.717-0.012,14.945-0.018,23.586v44.66C400.343,761.802,400.345,765.582,407.737,769.114z"/>
		<path fill="#C2000B" d="M407.737,769.114c0.109-15.729,0.462-45.277,0.729-66.565c-6.861-3.954-7.967-8.277-8.106-8.993
			c-0.006,6.717-0.012,14.945-0.018,23.586v44.66C400.343,761.802,400.345,765.582,407.737,769.114z"/>
		<path fill="#FF0000" d="M388.537,803.651c-0.064,0.064-0.125,0.13-0.19,0.194l0.002-0.001
			C388.412,803.781,388.474,803.716,388.537,803.651z"/>
		<path fill="#B3B3B3" d="M388.537,803.651c-0.064,0.064-0.125,0.13-0.19,0.194l0.002-0.001
			C388.412,803.781,388.474,803.716,388.537,803.651z"/>
		<path fill="#FF0000" d="M393.167,798.09c-1.294,1.899-2.825,3.776-4.63,5.562c-0.063,0.064-0.125,0.13-0.188,0.193
			c0.023-0.012,6.094-3.017,11.431-8.758c-2.728-0.545-4.323-0.749-4.323-0.749S394.935,795.724,393.167,798.09z"/>
		<path fill="#C2000B" d="M393.167,798.09c-1.294,1.899-2.825,3.776-4.63,5.562c-0.063,0.064-0.125,0.13-0.188,0.193
			c0.023-0.012,6.094-3.017,11.431-8.758c-2.728-0.545-4.323-0.749-4.323-0.749S394.935,795.724,393.167,798.09z"/>
	</g>
	
		<circle fill="#FFFFFF" stroke="#FFFFFF" stroke-width="8.1452" stroke-linecap="round" stroke-linejoin="round" stroke-miterlimit="10" cx="341.441" cy="265.123" r="50.757"/>
	
		<circle stroke="#FFFFFF" stroke-width="8.1452" stroke-linecap="round" stroke-linejoin="round" stroke-miterlimit="10" cx="334.986" cy="270.729" r="40.866"/>
	
		<circle stroke="#FFFFFF" stroke-width="8.1452" stroke-linecap="round" stroke-linejoin="round" stroke-miterlimit="10" cx="359.455" cy="268.768" r="3.645"/>
	<path d="M267.313,359.721c0,0,21.06,0.766,29.483-11.487c0,0,4.213,19.144-8.806,24.122
		C274.972,377.334,267.313,359.721,267.313,359.721z"/>
	
		<circle fill="#FFFFFF" stroke="#FFFFFF" stroke-width="8.1452" stroke-linecap="round" stroke-linejoin="round" stroke-miterlimit="10" cx="205.044" cy="265.123" r="50.757"/>
	
		<circle stroke="#FFFFFF" stroke-width="8.1452" stroke-linecap="round" stroke-linejoin="round" stroke-miterlimit="10" cx="207.921" cy="270.729" r="40.867"/>
	
		<circle stroke="#FFFFFF" stroke-width="8.1452" stroke-linecap="round" stroke-linejoin="round" stroke-miterlimit="10" cx="229.855" cy="270.388" r="5.265"/>
	<path fill="#FFFFFF" d="M420.703,474.446c11.438,0.956,21.487-7.537,22.443-18.98l2.027-24.237
		c0.955-11.439-7.544-21.488-18.982-22.443l0,0c-11.434-0.958-21.484,7.543-22.44,18.985l-2.027,24.237
		C400.768,463.447,409.27,473.493,420.703,474.446L420.703,474.446z"/>
	
		<path fill="none" stroke="#FFFFFF" stroke-width="16.8422" stroke-linecap="round" stroke-linejoin="round" stroke-miterlimit="10" d="
		M340.121,363.133c0,0,48.226-20.359,64.716,23.993"/>
</g>
<g id="Calque_2">
	
		<path fill="#F2F2F2" stroke="#FFFFFF" stroke-width="8.1452" stroke-linecap="round" stroke-linejoin="round" stroke-miterlimit="10" d="
		M580.468,509.643c0,26.604-21.566,48.169-48.17,48.169H397.596c-26.603,0-48.168-21.565-48.168-48.169l0,0
		c0-26.603,21.565-48.169,48.168-48.169h134.702C558.901,461.474,580.468,483.04,580.468,509.643L580.468,509.643z"/>
</g>
<g id="texte">
</g>
<g id="Calque_3">
	<path fill="#FFFFFF" d="M493.191,462.557c10.184-14.884,6.376-35.202-8.506-45.386L456.92,398.17
		c-14.881-10.187-35.195-6.375-45.382,8.506l0,0c-10.185,14.882-6.379,35.199,8.503,45.384l27.764,19
		C462.686,481.247,483.004,477.438,493.191,462.557L493.191,462.557z"/>
</g>
</svg>
