<?xml version="1.0" encoding="utf-8"?>
<!-- Generator: Adobe Illustrator 16.0.4, SVG Export Plug-In . SVG Version: 6.00 Build 0)  -->
<!DOCTYPE svg PUBLIC "-//W3C//DTD SVG 1.1//EN" "http://www.w3.org/Graphics/SVG/1.1/DTD/svg11.dtd">
<svg version="1.1" id="loopy-a" xmlns="http://www.w3.org/2000/svg" xmlns:xlink="http://www.w3.org/1999/xlink" x="0px" y="0px"
	 width="300px" height="140.855px" viewBox="0 0 300 140.855" enable-background="new 0 0 300 140.855" xml:space="preserve">
<path fill="#467F9F" d="M27.085,104.294c-4.869-3.426-3.262-6.202,3.589-6.202h195.457c6.853,0,16.353,2.776,21.222,6.202l0,0
	c4.869,3.426,3.262,6.203-3.591,6.203H48.306C41.455,110.497,31.954,107.72,27.085,104.294L27.085,104.294z"/>
<g>
	<path fill="#FFFFFF" d="M95.407,70.248c-1.014,6.115-2.284,9.714-3.453,11.829c5.828,0.967,12.117,2.009,18.706,3.102
		c1.297-1.925,2.634-5.127,3.516-10.448c2.245-13.542-2.282-17.71-2.282-17.71l-17.86-2.962
		C94.033,54.059,97.982,54.714,95.407,70.248z"/>
	<path fill="#FFFFFF" d="M213.763,46.987c-0.007-0.003-0.015-0.005-0.021-0.009C213.748,46.982,213.756,46.984,213.763,46.987z"/>
	<path fill="#FFFFFF" d="M54.714,75.904c1.191,0.197,7.076,1.173,16.079,2.665c1.296-1.926,2.634-5.127,3.516-10.447
		c2.245-13.542-2.281-17.712-2.281-17.712L61.88,48.729c-8.579-1.423-16.686,4.379-18.108,12.958
		c-0.432,2.608-0.194,5.173,0.585,7.519c-0.183-0.57-0.347-1.166-0.48-1.801C43.876,67.404,47.466,74.702,54.714,75.904z"/>
	<path fill="#FFFFFF" d="M246.922,52.859c-0.161-0.043-0.293-0.075-0.399-0.099C246.658,52.791,246.79,52.825,246.922,52.859z"/>
	<path fill="#FFFFFF" d="M246.339,78.416c0.128-0.025,0.256-0.053,0.378-0.082C246.593,78.363,246.467,78.389,246.339,78.416z"/>
	<path fill="#FFFFFF" d="M53.172,78.762c-0.111-0.047-0.224-0.094-0.338-0.146C52.946,78.667,53.059,78.715,53.172,78.762z"/>
	<path fill="#FFFFFF" d="M241.242,78.464l-2.483-0.412c0,0,0.025,0.007,0.076,0.02C239.095,78.128,240.021,78.321,241.242,78.464z"
		/>
	<path fill="#FFFFFF" d="M246.771,78.32c-0.01,0.003-0.018,0.006-0.026,0.008c0.002,0,0.002,0,0.005-0.001
		C246.757,78.325,246.763,78.322,246.771,78.32z"/>
	<path fill="#FFFFFF" d="M206.064,40.636c1.725,2.754,4.291,4.966,7.408,6.232C208.976,44.939,206.283,40.964,206.064,40.636z"/>
	<path fill="#FFFFFF" d="M54.032,79.095c-0.211-0.076-0.429-0.158-0.656-0.249C53.592,78.934,53.811,79.016,54.032,79.095z"/>
	<path fill="#FFFFFF" d="M217.769,90.532c-1.014,6.116-2.286,9.715-3.453,11.831c16.411,2.721,27.585,4.573,28.691,4.757
		c1.89-3.019,4.146-8.315,3.359-15.73c-1.21-11.415-6.814-13.145-7.531-13.318c-0.049-0.012-0.076-0.02-0.076-0.02l-22.364-3.707
		C216.395,74.345,220.344,74.999,217.769,90.532z"/>
	<path fill="#FFFFFF" d="M176.349,83.666c-1.013,6.116-2.286,9.714-3.453,11.83c7,1.161,13.808,2.289,20.26,3.359
		c1.296-1.926,2.632-5.127,3.513-10.448c2.247-13.542-2.279-17.711-2.279-17.711l-19.414-3.219
		C174.975,67.478,178.924,68.133,176.349,83.666z"/>
	<path fill="#FFFFFF" d="M135.273,76.856c-1.014,6.116-2.285,9.714-3.453,11.83c6.569,1.089,13.25,2.197,19.914,3.302
		c1.298-1.926,2.634-5.127,3.516-10.448c2.245-13.542-2.28-17.711-2.28-17.711l-19.071-3.16
		C133.898,60.669,137.849,61.323,135.273,76.856z"/>
	<path fill="#FFFFFF" d="M216.46,47.746c0.124,0.024,0.248,0.053,0.375,0.074l3.072,0.51c0,0,0.012,0,0.034-0.002
		C218.54,48.095,217.347,47.896,216.46,47.746z"/>
	<path fill="#FFFFFF" d="M246.218,52.7c0.083,0.018,0.166,0.03,0.247,0.048c-0.132-0.027-0.204-0.04-0.204-0.04
		S246.243,52.705,246.218,52.7z"/>
	<path fill="#FFFFFF" d="M54.522,79.261c-0.089-0.027-0.177-0.058-0.27-0.088C54.342,79.203,54.432,79.233,54.522,79.261z"/>
	<path fill="#FFFFFF" d="M252.347,55.726c0.191,0.168,0.376,0.343,0.556,0.521c-0.04-0.042-0.078-0.084-0.116-0.123
		C252.642,55.984,252.493,55.854,252.347,55.726z"/>
	<path fill="#FFFFFF" d="M281.586,42.089c-0.744-1.197-1.541-2.359-2.392-3.48C280.076,39.795,280.869,40.957,281.586,42.089z"/>
	<path fill="#FFFFFF" d="M268.689,53.648c-9.879-0.362-12.759,7.216-12.762,7.224c0.812,2.11,1.095,4.455,0.699,6.844
		c-0.49,2.954-1.94,5.515-3.973,7.418c0.02-0.019,0.029-0.028,0.029-0.028s11.828,2.205,15.104,11.675
		c3.276,9.469,1.665,15.167,1.664,15.168c9.381-6.643,16.217-16.873,18.24-29.082c0.635-3.831,0.758-7.631,0.422-11.327
		C288.111,61.536,278.574,54.013,268.689,53.648z"/>
	<path fill="#FFFFFF" d="M248.438,37.101c-1.202,7.255-2.768,10.969-4.093,12.865c0.983,0.171,1.8,0.31,2.389,0.406
		c2.465,0.409,4.235,1.923,5.447,3.491c0.862-2.28,2.981-7.112,6.817-11.514c5.236-6.007,20.138-3.767,20.181-3.761
		c-6.651-8.756-16.521-15.091-28.2-17.027l-3.916-0.649C247.062,20.912,251.013,21.566,248.438,37.101z"/>
	<path fill="#FFFFFF" d="M269.451,101.948c-2.427,1.688-4.82,3.04-7.132,4.124C264.821,104.917,267.209,103.534,269.451,101.948z"/>
	<path fill="#FFFFFF" d="M203.877,29.713c-0.652,3.933,0.219,7.764,2.174,10.9c4.136,2.854,9.245,4.192,9.245,4.192
		s3.366,0.605,7.932,1.42c1.471-1.791,3.094-5.109,4.111-11.251c2.246-13.542-2.28-17.711-2.28-17.711l-3.072-0.51
		C213.407,15.332,205.299,21.134,203.877,29.713z"/>
	<path fill="#FFFFFF" d="M281.687,42.25c0.021,0.032,0.038,0.062,0.06,0.094C281.725,42.312,281.708,42.282,281.687,42.25z"/>
	<path fill="#FF0000" d="M74.309,68.122c-0.882,5.32-2.219,8.521-3.516,10.447c5.872,0.974,13.072,2.167,21.161,3.508
		c1.169-2.115,2.438-5.714,3.453-11.829c2.576-15.534-1.374-16.189-1.374-16.189L72.028,50.41
		C72.028,50.41,76.554,54.58,74.309,68.122z"/>
	<path fill="#FF0000" d="M114.176,74.73c-0.882,5.321-2.219,8.523-3.516,10.448c6.796,1.127,13.909,2.306,21.161,3.508
		c1.167-2.116,2.438-5.714,3.453-11.83c2.576-15.533-1.375-16.188-1.375-16.188l-22.005-3.648
		C111.894,57.021,116.421,61.188,114.176,74.73z"/>
	<path fill="#FF0000" d="M155.25,81.54c-0.882,5.321-2.218,8.522-3.516,10.448c7.131,1.182,14.239,2.36,21.161,3.508
		c1.167-2.116,2.44-5.714,3.453-11.83c2.575-15.533-1.374-16.188-1.374-16.188l-22.005-3.648
		C152.97,63.829,157.495,67.998,155.25,81.54z"/>
	<path fill="#FF0000" d="M196.668,88.407c-0.881,5.321-2.217,8.522-3.513,10.448c7.651,1.269,14.797,2.453,21.16,3.508
		c1.167-2.116,2.439-5.715,3.453-11.831c2.575-15.533-1.374-16.188-1.374-16.188l-22.006-3.648
		C194.389,70.696,198.915,74.865,196.668,88.407z"/>
	<path fill="#FF0000" d="M219.907,48.33l7.53,1.247c-2.746-0.457-5.361-0.892-7.496-1.249
		C219.919,48.33,219.907,48.33,219.907,48.33z"/>
	<path fill="#FF0000" d="M227.339,34.975c-1.018,6.142-2.641,9.46-4.111,11.251c6.752,1.207,16.123,2.877,21.117,3.74
		c1.325-1.896,2.891-5.61,4.093-12.865c2.575-15.534-1.375-16.188-1.375-16.188l-22.004-3.648
		C225.059,17.264,229.585,21.433,227.339,34.975z"/>
	<path fill="#FF0000" d="M252.654,75.134c-0.3,0.268-2.778,2.421-5.884,3.187C248.986,77.781,251.01,76.671,252.654,75.134z"/>
	<path fill="#FF0000" d="M246.339,78.416c-1.667,0.323-3.599,0.226-5.097,0.048l0.294,0.05
		C243.179,78.785,244.802,78.734,246.339,78.416z"/>
	<path fill="#FF0000" d="M256.17,108.438c0,0-0.699,0.192-2.211,0.528c-0.77,0.182-1.544,0.346-2.324,0.488
		c-0.813,0.163-1.736,0.343-2.791,0.536c0,0,0,0-0.002,0c3.693-0.448,8.379-1.527,13.478-3.918
		c-2.034,0.938-4.145,1.728-6.313,2.354C256.109,108.433,256.17,108.438,256.17,108.438z"/>
	<polygon fill="#FF0000" points="269.451,101.948 269.451,101.948 269.451,101.948 	"/>
	<path fill="#FF0000" d="M246.717,78.334c0.01-0.003,0.019-0.004,0.027-0.006C246.735,78.33,246.727,78.331,246.717,78.334z"/>
	<path fill="#FF0000" d="M267.787,86.78c-3.275-9.47-15.104-11.675-15.104-11.675s-0.01,0.01-0.029,0.028
		c-1.645,1.537-3.668,2.647-5.884,3.187c-0.008,0.002-0.014,0.005-0.021,0.007c-0.003,0.001-0.003,0.001-0.005,0.001
		c-0.009,0.002-0.018,0.003-0.027,0.006c-0.122,0.029-0.25,0.057-0.378,0.082c-1.537,0.318-3.16,0.369-4.803,0.098l-0.294-0.05
		c-1.221-0.143-2.147-0.336-2.407-0.393c0.717,0.174,6.321,1.903,7.531,13.318c0.787,7.415-1.47,12.712-3.359,15.73
		c0.059,0.01,0.096,0.016,0.096,0.016c3.722,0.617,11.683,1.202,12.903,1.29c2.169-0.626,4.279-1.415,6.313-2.354
		c2.312-1.084,4.705-2.437,7.132-4.124l0,0C269.452,101.947,271.063,96.249,267.787,86.78z"/>
	<path fill="#FF0000" d="M253.959,108.966c-0.629,0.139-1.405,0.303-2.324,0.488C252.415,109.312,253.189,109.147,253.959,108.966z"
		/>
	<path fill="#FF0000" d="M238.759,78.052c0,0,0.027,0.008,0.076,0.02C238.784,78.059,238.759,78.052,238.759,78.052z"/>
	<path fill="#FF0000" d="M279.181,38.589h-0.002c0.004,0.006,0.011,0.012,0.016,0.02C279.189,38.601,279.185,38.595,279.181,38.589z
		"/>
	<path fill="#FF0000" d="M281.586,42.089c0.034,0.055,0.067,0.106,0.101,0.161C281.653,42.197,281.62,42.143,281.586,42.089z"/>
	<path fill="#FF0000" d="M254.362,57.959c-0.02-0.024-0.034-0.047-0.053-0.071c-0.423-0.584-0.894-1.132-1.407-1.642
		c0.782,0.841,1.871,2.278,3.025,4.626l0,0C255.527,59.837,255.002,58.856,254.362,57.959L254.362,57.959z"/>
	<path fill="#FF0000" d="M288.113,61.539c0,0,0.583-8.085-6.367-19.195C285.257,48.089,287.486,54.638,288.113,61.539
		L288.113,61.539z"/>
	<path fill="#FF0000" d="M252.786,56.123c0.038,0.039,0.076,0.081,0.116,0.123c0.514,0.51,0.984,1.058,1.407,1.642
		C253.838,57.22,253.321,56.636,252.786,56.123z"/>
	<path fill="#FF0000" d="M258.998,42.35c-3.836,4.401-5.955,9.233-6.817,11.514c1.543,1.998,2.179,4.086,2.182,4.095
		c0.64,0.898,1.165,1.879,1.565,2.914c0.003-0.008,2.883-7.586,12.762-7.224c9.885,0.364,19.422,7.888,19.424,7.891
		c-0.627-6.901-2.856-13.45-6.367-19.195c-0.021-0.031-0.038-0.062-0.06-0.094c-0.033-0.055-0.066-0.106-0.101-0.161
		c-0.717-1.132-1.51-2.294-2.392-3.48c-0.005-0.008-0.012-0.014-0.016-0.02C279.136,38.583,264.234,36.343,258.998,42.35z"/>
	<path fill="#B3B3B3" d="M53.376,78.846c-0.068-0.027-0.136-0.056-0.204-0.084C53.241,78.79,53.309,78.818,53.376,78.846z"/>
	<path fill="#B3B3B3" d="M54.252,79.173c-0.074-0.024-0.147-0.053-0.221-0.078C54.105,79.121,54.181,79.148,54.252,79.173z"/>
	<path fill="#B3B3B3" d="M56.729,79.794c-0.759-0.126-1.494-0.307-2.207-0.533C55.839,79.686,56.729,79.794,56.729,79.794z"/>
	<path fill="#B3B3B3" d="M44.357,69.205c1.739,5.424,5.542,8.108,8.477,9.411C48.78,76.793,45.728,73.337,44.357,69.205z"/>
	<path fill="#B3B3B3" d="M240.718,110.068c-1.172-0.08-2.347-0.204-3.527-0.377c-0.267-0.031-0.535-0.068-0.804-0.113
		c0,0,7.358,1.352,12.455,0.412C243.891,110.594,240.717,110.068,240.718,110.068L240.718,110.068z"/>
	<path fill="#FFFFFF" d="M110.66,85.179c-6.589-1.093-12.878-2.135-18.706-3.102c-1.798,3.257-3.354,3-3.354,3l18.143,3.008
		C106.743,88.085,108.655,88.154,110.66,85.179z"/>
	<path fill="#B3B3B3" d="M110.66,85.179c-6.589-1.093-12.878-2.135-18.706-3.102c-1.798,3.257-3.354,3-3.354,3l18.143,3.008
		C106.743,88.085,108.655,88.154,110.66,85.179z"/>
	<path fill="#FFFFFF" d="M70.793,78.569c-9.003-1.492-14.888-2.468-16.079-2.665c-7.249-1.202-10.838-8.5-10.838-8.5
		c0.134,0.635,0.297,1.23,0.48,1.801c1.371,4.132,4.423,7.588,8.477,9.411c0.114,0.052,0.227,0.099,0.338,0.146
		c0.067,0.028,0.136,0.057,0.204,0.084c0.227,0.091,0.444,0.173,0.656,0.249c0.073,0.025,0.147,0.054,0.221,0.078
		c0.093,0.03,0.181,0.061,0.27,0.088c0.713,0.227,1.448,0.407,2.207,0.533l10.148,1.683C66.878,81.477,68.789,81.544,70.793,78.569z
		"/>
	<path fill="#B3B3B3" d="M70.793,78.569c-9.003-1.492-14.888-2.468-16.079-2.665c-7.249-1.202-10.838-8.5-10.838-8.5
		c0.134,0.635,0.297,1.23,0.48,1.801c1.371,4.132,4.423,7.588,8.477,9.411c0.114,0.052,0.227,0.099,0.338,0.146
		c0.067,0.028,0.136,0.057,0.204,0.084c0.227,0.091,0.444,0.173,0.656,0.249c0.073,0.025,0.147,0.054,0.221,0.078
		c0.093,0.03,0.181,0.061,0.27,0.088c0.713,0.227,1.448,0.407,2.207,0.533l10.148,1.683C66.878,81.477,68.789,81.544,70.793,78.569z
		"/>
	<path fill="#FFFFFF" d="M151.734,91.988c-6.663-1.104-13.345-2.213-19.914-3.302c-1.799,3.257-3.354,3.001-3.354,3.001
		l19.353,3.208C147.819,94.896,149.73,94.964,151.734,91.988z"/>
	<path fill="#B3B3B3" d="M151.734,91.988c-6.663-1.104-13.345-2.213-19.914-3.302c-1.799,3.257-3.354,3.001-3.354,3.001
		l19.353,3.208C147.819,94.896,149.73,94.964,151.734,91.988z"/>
	<path fill="#FFFFFF" d="M240.718,110.068c0.007-0.007,1.072-1.007,2.289-2.948c-1.106-0.184-12.28-2.036-28.691-4.757
		c-1.799,3.256-3.355,3-3.355,3l18.696,3.1l6.73,1.115c0.269,0.045,0.537,0.082,0.804,0.113
		C238.371,109.864,239.546,109.988,240.718,110.068z"/>
	<path fill="#B3B3B3" d="M240.718,110.068c0.007-0.007,1.072-1.007,2.289-2.948c-1.106-0.184-12.28-2.036-28.691-4.757
		c-1.799,3.256-3.355,3-3.355,3l18.696,3.1l6.73,1.115c0.269,0.045,0.537,0.082,0.804,0.113
		C238.371,109.864,239.546,109.988,240.718,110.068z"/>
	<path fill="#FFFFFF" d="M193.155,98.855c-6.452-1.07-13.26-2.198-20.26-3.359c-1.799,3.258-3.353,3.001-3.353,3.001l19.694,3.264
		C189.237,101.761,191.15,101.83,193.155,98.855z"/>
	<path fill="#B3B3B3" d="M193.155,98.855c-6.452-1.07-13.26-2.198-20.26-3.359c-1.799,3.258-3.353,3.001-3.353,3.001l19.694,3.264
		C189.237,101.761,191.15,101.83,193.155,98.855z"/>
	<path fill="#FF0000" d="M91.954,82.077c-8.089-1.341-15.289-2.534-21.161-3.508c-2.005,2.975-3.916,2.907-3.916,2.907l21.723,3.601
		C88.601,85.077,90.156,85.334,91.954,82.077z"/>
	<path fill="#C2000B" d="M91.954,82.077c-8.089-1.341-15.289-2.534-21.161-3.508c-2.005,2.975-3.916,2.907-3.916,2.907l21.723,3.601
		C88.601,85.077,90.156,85.334,91.954,82.077z"/>
	<path fill="#FF0000" d="M131.821,88.687c-7.252-1.202-14.365-2.381-21.161-3.508c-2.004,2.976-3.917,2.906-3.917,2.906
		l21.723,3.603C128.466,91.688,130.022,91.943,131.821,88.687z"/>
	<path fill="#C2000B" d="M131.821,88.687c-7.252-1.202-14.365-2.381-21.161-3.508c-2.004,2.976-3.917,2.906-3.917,2.906
		l21.723,3.603C128.466,91.688,130.022,91.943,131.821,88.687z"/>
	<path fill="#FF0000" d="M172.896,95.496c-6.922-1.147-14.03-2.326-21.161-3.508c-2.004,2.976-3.915,2.907-3.915,2.907l21.724,3.602
		C169.543,98.497,171.097,98.754,172.896,95.496z"/>
	<path fill="#C2000B" d="M172.896,95.496c-6.922-1.147-14.03-2.326-21.161-3.508c-2.004,2.976-3.915,2.907-3.915,2.907l21.724,3.602
		C169.543,98.497,171.097,98.754,172.896,95.496z"/>
	<path fill="#FF0000" d="M214.315,102.363c-6.363-1.055-13.509-2.239-21.16-3.508c-2.005,2.975-3.918,2.905-3.918,2.905
		l21.723,3.603C210.96,105.363,212.517,105.619,214.315,102.363z"/>
	<path fill="#C2000B" d="M214.315,102.363c-6.363-1.055-13.509-2.239-21.16-3.508c-2.005,2.975-3.918,2.905-3.918,2.905
		l21.723,3.603C210.96,105.363,212.517,105.619,214.315,102.363z"/>
	<path fill="#FF0000" d="M251.635,109.454c-3.54,0.645-7.202,0.864-10.917,0.614h-0.001c0,0,3.174,0.525,8.125-0.078
		c0.002,0,0.002,0,0.002,0C249.898,109.797,250.821,109.617,251.635,109.454z"/>
	<path fill="#B3B3B3" d="M251.635,109.454c-3.54,0.645-7.202,0.864-10.917,0.614h-0.001c0,0,3.174,0.525,8.125-0.078
		c0.002,0,0.002,0,0.002,0C249.898,109.797,250.821,109.617,251.635,109.454z"/>
	<path fill="#FF0000" d="M256.17,108.438c0,0-0.061-0.005-0.164-0.012c-0.677,0.195-1.36,0.375-2.047,0.54
		C255.471,108.63,256.17,108.438,256.17,108.438z"/>
	<path fill="#B3B3B3" d="M256.17,108.438c0,0-0.061-0.005-0.164-0.012c-0.677,0.195-1.36,0.375-2.047,0.54
		C255.471,108.63,256.17,108.438,256.17,108.438z"/>
	<path fill="#FF0000" d="M251.635,109.454c0.919-0.186,1.695-0.35,2.324-0.488c0.687-0.165,1.37-0.345,2.047-0.54
		c-1.221-0.088-9.182-0.673-12.903-1.29c0,0-0.037-0.006-0.096-0.016c-1.217,1.941-2.282,2.941-2.289,2.948
		C244.433,110.318,248.095,110.099,251.635,109.454z"/>
	<path fill="#C2000B" d="M251.635,109.454c0.919-0.186,1.695-0.35,2.324-0.488c0.687-0.165,1.37-0.345,2.047-0.54
		c-1.221-0.088-9.182-0.673-12.903-1.29c0,0-0.037-0.006-0.096-0.016c-1.217,1.941-2.282,2.941-2.289,2.948
		C244.433,110.318,248.095,110.099,251.635,109.454z"/>
	<path fill="#B3B3B3" d="M206.049,40.611c0,0,0.006,0.009,0.016,0.024c-0.004-0.009-0.009-0.017-0.014-0.022
		C206.05,40.611,206.05,40.611,206.049,40.611z"/>
	<path fill="#B3B3B3" d="M216.405,47.738c0.017,0.003,0.036,0.006,0.055,0.008c-0.936-0.176-1.838-0.431-2.697-0.759
		C214.589,47.318,215.47,47.582,216.405,47.738z"/>
	<path fill="#B3B3B3" d="M246.522,52.761c-0.02-0.005-0.038-0.009-0.058-0.013C246.481,52.752,246.503,52.756,246.522,52.761z"/>
	<path fill="#B3B3B3" d="M241.631,51.931l-14.193-2.354c8.439,1.405,18.103,3.012,18.78,3.123c-0.13-0.024-0.258-0.052-0.39-0.073
		L241.631,51.931z"/>
	<path fill="#B3B3B3" d="M252.347,55.726c-1.518-1.34-3.358-2.341-5.425-2.866C248.012,53.149,250.27,53.925,252.347,55.726z"/>
	<path fill="#B3B3B3" d="M213.741,46.979c-0.091-0.035-0.178-0.074-0.269-0.11C213.561,46.905,213.651,46.942,213.741,46.979z"/>
	<path fill="#FFFFFF" d="M251.713,55.197c0,0,0.15-0.496,0.468-1.334c-1.212-1.568-2.982-3.082-5.447-3.491
		c-0.589-0.097-1.405-0.235-2.389-0.406c-1.513,2.163-2.714,1.965-2.714,1.965l4.197,0.696c0.132,0.021,0.26,0.049,0.39,0.073
		c0.025,0.005,0.043,0.008,0.043,0.008s0.072,0.013,0.204,0.04c0.02,0.004,0.038,0.008,0.058,0.013
		c0.106,0.023,0.238,0.056,0.399,0.099c2.066,0.525,3.907,1.526,5.425,2.866c0.146,0.128,0.295,0.259,0.439,0.397
		C252.127,55.437,251.713,55.197,251.713,55.197z"/>
	<path fill="#B3B3B3" d="M251.713,55.197c0,0,0.15-0.496,0.468-1.334c-1.212-1.568-2.982-3.082-5.447-3.491
		c-0.589-0.097-1.405-0.235-2.389-0.406c-1.513,2.163-2.714,1.965-2.714,1.965l4.197,0.696c0.132,0.021,0.26,0.049,0.39,0.073
		c0.025,0.005,0.043,0.008,0.043,0.008s0.072,0.013,0.204,0.04c0.02,0.004,0.038,0.008,0.058,0.013
		c0.106,0.023,0.238,0.056,0.399,0.099c2.066,0.525,3.907,1.526,5.425,2.866c0.146,0.128,0.295,0.259,0.439,0.397
		C252.127,55.437,251.713,55.197,251.713,55.197z"/>
	<path fill="#FFFFFF" d="M223.228,46.226c-4.565-0.814-7.932-1.42-7.932-1.42s-5.109-1.338-9.245-4.192
		c0.005,0.006,0.01,0.014,0.014,0.022c0.219,0.328,2.911,4.304,7.408,6.232c0.091,0.036,0.178,0.075,0.269,0.11
		c0.007,0.004,0.015,0.006,0.021,0.009c0.859,0.328,1.762,0.583,2.697,0.759c0.887,0.15,2.08,0.349,3.481,0.582
		C220.176,48.321,221.608,48.198,223.228,46.226z"/>
	<path fill="#B3B3B3" d="M223.228,46.226c-4.565-0.814-7.932-1.42-7.932-1.42s-5.109-1.338-9.245-4.192
		c0.005,0.006,0.01,0.014,0.014,0.022c0.219,0.328,2.911,4.304,7.408,6.232c0.091,0.036,0.178,0.075,0.269,0.11
		c0.007,0.004,0.015,0.006,0.021,0.009c0.859,0.328,1.762,0.583,2.697,0.759c0.887,0.15,2.08,0.349,3.481,0.582
		C220.176,48.321,221.608,48.198,223.228,46.226z"/>
	<path fill="#FF0000" d="M244.345,49.966c-4.994-0.863-14.365-2.533-21.117-3.74c-1.619,1.973-3.052,2.096-3.286,2.103
		c2.135,0.357,4.75,0.792,7.496,1.249l14.193,2.354C241.631,51.931,242.832,52.129,244.345,49.966z"/>
	<path fill="#C2000B" d="M244.345,49.966c-4.994-0.863-14.365-2.533-21.117-3.74c-1.619,1.973-3.052,2.096-3.286,2.103
		c2.135,0.357,4.75,0.792,7.496,1.249l14.193,2.354C241.631,51.931,242.832,52.129,244.345,49.966z"/>
	<path fill="#FF0000" d="M254.31,57.888c0.019,0.024,0.033,0.047,0.053,0.071v-0.001C254.343,57.935,254.328,57.912,254.31,57.888z"
		/>
	<path fill="#B3B3B3" d="M254.31,57.888c0.019,0.024,0.033,0.047,0.053,0.071v-0.001C254.343,57.935,254.328,57.912,254.31,57.888z"
		/>
	<path fill="#FF0000" d="M252.786,56.123c0.535,0.513,1.052,1.097,1.523,1.765c0.019,0.024,0.033,0.047,0.053,0.07
		c-0.003-0.009-0.639-2.097-2.182-4.095c-0.317,0.838-0.468,1.334-0.468,1.334S252.127,55.437,252.786,56.123z"/>
	<path fill="#C2000B" d="M252.786,56.123c0.535,0.513,1.052,1.097,1.523,1.765c0.019,0.024,0.033,0.047,0.053,0.07
		c-0.003-0.009-0.639-2.097-2.182-4.095c-0.317,0.838-0.468,1.334-0.468,1.334S252.127,55.437,252.786,56.123z"/>
</g>
<path d="M80.132,70.695c0,0,6.449,0.001,10.179-0.588c0,0-0.614,6.285-5.097,6.517C80.729,76.855,80.132,70.695,80.132,70.695z"/>
<path fill="#FFFFFF" d="M157.99,62.049c6.21-0.87,10.541-6.604,9.675-12.817l-3.188-24.054c-0.866-6.211-6.608-10.542-12.819-9.672
	l0,0c-6.204,0.867-10.539,6.604-9.671,12.819l3.186,24.053C146.043,58.587,151.782,62.914,157.99,62.049L157.99,62.049z"/>
<g>
	
		<path fill="#FFFFFF" stroke="#FFFFFF" stroke-width="2.7462" stroke-linecap="round" stroke-linejoin="round" stroke-miterlimit="10" d="
		M121.932,52.51c0.081,9.45-7.516,17.176-16.966,17.253c-9.452,0.082-17.178-7.515-17.257-16.967
		c-0.079-9.447,7.517-17.175,16.968-17.255C114.129,35.462,121.854,43.059,121.932,52.51z"/>
	
		<circle stroke="#FFFFFF" stroke-width="3.1013" stroke-linecap="round" stroke-linejoin="round" stroke-miterlimit="10" cx="102.028" cy="51.329" r="15.559"/>
	
		<path fill="#FFFFFF" stroke="#FFFFFF" stroke-width="3.1013" stroke-linecap="round" stroke-linejoin="round" stroke-miterlimit="10" d="
		M99.761,47.992c0.006,0.766-0.61,1.394-1.377,1.403c-0.766,0.004-1.393-0.613-1.398-1.378c-0.007-0.766,0.608-1.394,1.376-1.398
		C99.128,46.609,99.753,47.227,99.761,47.992z"/>
	
		<circle fill="#FFFFFF" stroke="#FFFFFF" stroke-width="2.8094" stroke-linecap="round" stroke-linejoin="round" stroke-miterlimit="10" cx="56.16" cy="53.05" r="17.507"/>
	<path stroke="#FFFFFF" stroke-width="3.1013" stroke-linecap="round" stroke-linejoin="round" stroke-miterlimit="10" d="
		M69.209,51.604c0.071,8.594-6.837,15.62-15.429,15.692c-8.594,0.071-15.62-6.836-15.691-15.429
		c-0.073-8.594,6.834-15.618,15.429-15.691C62.109,36.104,69.135,43.011,69.209,51.604z"/>
	
		<path fill="#FFFFFF" stroke="#FFFFFF" stroke-width="3.1013" stroke-linecap="round" stroke-linejoin="round" stroke-miterlimit="10" d="
		M56.446,48.976c0.009,1.105-0.88,2.013-1.987,2.018c-1.108,0.012-2.014-0.877-2.022-1.984c-0.009-1.106,0.88-2.013,1.988-2.021
		C55.534,46.979,56.438,47.868,56.446,48.976z"/>
	<g>
		<path fill="#FFFFFF" d="M74.127,58.06l-0.421-0.455l-2.965-4.749c0.374-0.333,3.834-3.261,10.222-3.315
			c6.323-0.055,5.768,0.611,6.274,1.082l1.018,6.329c0,0-0.57,0.7-0.503,0.75c-0.015-0.012-2.858-1.982-6.738-1.95
			C76.979,55.784,74.212,57.992,74.127,58.06z"/>
	</g>
</g>
<path fill="#FFFFFF" d="M198.882,46.473c-1.004-9.803-9.76-16.933-19.561-15.93l-18.282,1.873
	c-9.802,1.005-16.93,9.759-15.929,19.559l0,0c1.004,9.802,9.762,16.932,19.56,15.928l18.284-1.87
	C192.753,65.029,199.884,56.271,198.882,46.473L198.882,46.473z"/>
<path fill="none" stroke="#FFFFFF" stroke-width="5.4259" stroke-linecap="round" stroke-linejoin="round" stroke-miterlimit="10" d="
	M126.958,52.859c0,0,2.387-8.768,13.143-8.389"/>
<path fill="none" stroke="#FFFFFF" stroke-width="5.4259" stroke-linecap="round" stroke-linejoin="round" stroke-miterlimit="10" d="
	M84.761,90.47c0,0-26.245,24.65,1.754,25.724"/>
<g>
	<path d="M21.149,106.278c0,0,3.234,9.017,20.686,6.604c17.449-2.412,16.209-7.374,10.063-9.54L21.149,106.278z"/>
	<path fill="#0B0146" d="M21.149,106.278c0,0,8.116,2.401,15.244,2.328c7.128-0.074,15.504-5.265,15.504-5.265
		s16.136-14.104,0.586-16.355c-15.548-2.253-42.182-2.517-37.271,6.539C20.125,102.582,21.149,106.278,21.149,106.278z"/>
</g>
<path fill="#FFFFFF" d="M94.766,118.317c0.128-1.705,0.663-3.278,1.489-4.648c0.166-0.314,0.345-0.623,0.555-0.923l5.069-7.242
	c2.389-3.419,6.861-4.563,9.986-2.561c2.115,1.353,3.067,3.805,2.721,6.306l2.262,0.17c5.794,0.433,10.138,5.479,9.706,11.272
	c-0.435,5.795-5.481,10.14-11.274,9.709l-10.808-0.811C98.677,129.157,94.334,124.111,94.766,118.317z"/>
</svg>
