<?xml version="1.0" encoding="utf-8"?>
<!-- Generator: Adobe Illustrator 16.0.4, SVG Export Plug-In . SVG Version: 6.00 Build 0)  -->
<!DOCTYPE svg PUBLIC "-//W3C//DTD SVG 1.1//EN" "http://www.w3.org/Graphics/SVG/1.1/DTD/svg11.dtd">
<svg version="1.1" xmlns="http://www.w3.org/2000/svg" xmlns:xlink="http://www.w3.org/1999/xlink" x="0px" y="0px" width="600px"
	 height="1000px" viewBox="0 0 600 1000" enable-background="new 0 0 600 1000" xml:space="preserve">
<symbol  id="Herbe_4" viewBox="-22.384 -11.915 44.766 23.829">
	<g>
		<path fill="#33A02C" d="M8.129-5.523L9.65-6.459c0,0-0.352,14.745,0.584,18.373C10.234,11.914,7.66,4.775,8.129-5.523z"/>
	</g>
	<g>
		<path fill="#33A02C" d="M11.406-5.289l1.168,0.818c0,0-0.232,11.587,0.234,12.757C12.809,8.286,11.055-0.373,11.406-5.289z"/>
	</g>
	<g>
		<path fill="#33A02C" d="M1.133-10.627l-1.316,0.818c0,0,0.263,11.588-0.264,12.757C-0.447,2.948,1.528-5.711,1.133-10.627z"/>
	</g>
	<g>
		<path fill="#73BE1E" d="M15.266-5.758l0.82,0.819l0.117,9.597C16.203,4.658,14.916-2.947,15.266-5.758z"/>
	</g>
	<g>
		<path fill="#287D22" d="M6.373-5.758c0,0,0,9.595-1.053,11.938c0,0-0.002-9.012-0.352-10.768L6.373-5.758z"/>
	</g>
	<g>
		<path fill="#287D22" d="M22.383-9.639c0,0,0,9.596-1.053,11.937c0,0-0.002-9.011-0.352-10.767L22.383-9.639z"/>
	</g>
	<g>
		<path fill="#287D22" d="M13.16-7.279c0,0,1.053,6.904,3.861,8.66c0,0-3.043-6.084-2.691-9.596L13.16-7.279z"/>
	</g>
	<g>
		<path fill="#287D22" d="M13.041-7.643c0,0,1.053,6.904,3.861,8.66c0,0-3.045-6.087-2.693-9.597L13.041-7.643z"/>
	</g>
	<g>
		<path fill="#73BE1E" d="M11.289-5.426c0,0,0.115,8.309-2.342,10.299c0,0,1.639-7.957,1.17-11.937L11.289-5.426z"/>
	</g>
	<g>
		<path fill="#33A02C" d="M6.139-7.981c0,0-0.35,9.479,1.17,13.341c0,0-0.584-12.755,0-14.979L6.139-7.981z"/>
	</g>
	<g>
		<path fill="#73BE1E" d="M4.028-4.059c0,0,0.116,6.553-0.585,9.127c0,0-0.117-9.946-0.82-12.756L4.028-4.059z"/>
	</g>
	<g>
		<path fill="#33A02C" d="M4.852-7.864c0,0-0.586,6.437-3.745,9.245c0,0,3.277-8.309,2.81-11L4.852-7.864z"/>
	</g>
	<g>
		<path fill="#33A02C" d="M20.74-6.166c0,0-0.586,6.437-3.744,9.246c0,0,3.275-8.31,2.809-11L20.74-6.166z"/>
	</g>
	<g>
		<path fill="#33A02C" d="M16.672-7.161c0,0-0.35,2.573,1.404,4.914c0,0-0.818-5.734-0.352-7.606L16.672-7.161z"/>
	</g>
	<g>
		<path fill="#287D22" d="M15.951-8.623c0,0,0,7.52,2.062,10.309c0,0-1.578-9.581-1.092-13.22L15.951-8.623z"/>
	</g>
	<g>
		<path fill="#73BE1E" d="M2.725-6.342c0,0-1.254,10.488-1.911,11.486c0,0,0.835-10.928,0.316-12.982L2.725-6.342z"/>
	</g>
	<g>
		<path fill="#73BE1E" d="M11.949-7.896c0,0,0.848,8.854,2.062,11.401c0,0-0.486-7.157-0.486-9.098L11.949-7.896z"/>
	</g>
	<g>
		<path fill="#73BE1E" d="M18.135-8.381c0,0,0.848,8.854,2.062,11.399c0,0-0.486-7.155-0.486-9.096L18.135-8.381z"/>
	</g>
	<g>
		<path fill="#73BE1E" d="M7.219-5.834c0,0,1.336,10.309,0.365,13.705c0,0,1.939-10.188,0.971-15.525L7.219-5.834z"/>
	</g>
	<g>
		<path fill="#33A02C" d="M-19.223-6.074l-1.521-0.766c0,0,0.352,12.053-0.586,15.018C-21.33,8.178-18.756,2.344-19.223-6.074z"/>
	</g>
	<g>
		<path fill="#33A02C" d="M-10.869-5.669l1.168,1.044c0,0-0.232,14.781,0.234,16.274C-9.467,11.649-11.221,0.602-10.869-5.669z"/>
	</g>
	<g>
		<path fill="#33A02C" d="M-12.228-11.006l1.315,0.818c0,0-0.262,11.586,0.265,12.757C-10.647,2.569-12.623-6.092-12.228-11.006z"/>
	</g>
	<g>
		<path fill="#73BE1E" d="M-7.01-6.137l0.82,0.818l0.117,9.598C-6.072,4.279-7.359-3.328-7.01-6.137z"/>
	</g>
	<g>
		<path fill="#287D22" d="M-17.469-6.137c0,0,0,9.596,1.055,11.935c0,0,0-9.009,0.351-10.765L-17.469-6.137z"/>
	</g>
	<g>
		<path fill="#287D22" d="M0.107-10.019c0,0,0,9.595-1.053,11.937c0,0-0.002-9.011-0.352-10.767L0.107-10.019z"/>
	</g>
	<g>
		<path fill="#287D22" d="M-9.115-7.658c0,0,1.053,6.904,3.861,8.66c0,0-3.043-6.086-2.691-9.597L-9.115-7.658z"/>
	</g>
	<g>
		<path fill="#73BE1E" d="M-22.383-5.805c0,0-0.115,8.309,2.342,10.297c0,0-1.639-7.956-1.172-11.936L-22.383-5.805z"/>
	</g>
	<g>
		<path fill="#33A02C" d="M-17.234-8.362c0,0,0.352,9.481-1.17,13.343c0,0,0.584-12.756,0-14.979L-17.234-8.362z"/>
	</g>
	<g>
		<path fill="#73BE1E" d="M-15.123-4.439c0,0-0.117,6.555,0.586,9.129c0,0,0.115-9.947,0.818-12.756L-15.123-4.439z"/>
	</g>
	<g>
		<path fill="#33A02C" d="M-1.535-6.545c0,0-0.586,6.436-3.744,9.245c0,0,3.275-8.309,2.809-11.001L-1.535-6.545z"/>
	</g>
	<g>
		<path fill="#33A02C" d="M-5.604-7.541c0,0-0.35,2.574,1.404,4.914c0,0-0.818-5.732-0.352-7.605L-5.604-7.541z"/>
	</g>
	<g>
		<path fill="#287D22" d="M-6.324-9.003c0,0,0,7.518,2.062,10.309c0,0-1.578-9.581-1.093-13.221L-6.324-9.003z"/>
	</g>
	<g>
		<path fill="#73BE1E" d="M-13.82-6.722c0,0,1.254,10.487,1.912,11.485c0,0-0.836-10.928-0.316-12.98L-13.82-6.722z"/>
	</g>
	<g>
		<path fill="#73BE1E" d="M-10.326-8.275c0,0,0.848,8.854,2.062,11.401c0,0-0.486-7.157-0.486-9.097L-10.326-8.275z"/>
	</g>
	<g>
		<path fill="#73BE1E" d="M-4.141-8.762c0,0,0.848,8.855,2.062,11.402c0,0-0.486-7.158-0.486-9.098L-4.141-8.762z"/>
	</g>
	<g>
		<path fill="#73BE1E" d="M-18.314-6.215c0,0-1.336,10.309-0.365,13.706c0,0-1.939-10.189-0.969-15.525L-18.314-6.215z"/>
	</g>
	<g>
		<path fill="#287D22" d="M-12.26-8.023c0,0-1.054,6.905-3.861,8.66c0,0,3.043-6.084,2.691-9.596L-12.26-8.023z"/>
	</g>
	<g>
		<path fill="#33A02C" d="M-5.549-8.244c0,0-0.586,6.436-3.745,9.246c0,0,3.277-8.309,2.81-11.001L-5.549-8.244z"/>
	</g>
</symbol>
<g id="Calque_1">
	<rect fill="#579BCC" width="600" height="1000"/>
	<path fill="none" d="M270.021,637.854c13.382,0,23.093-0.933,30.15-2.286l0,0C293.114,636.921,283.403,637.854,270.021,637.854
		L270.021,637.854z"/>
	<path fill="none" d="M318.797,699.759c-0.003-1.491,0.033-2.647,0.062-3.315C318.83,697.111,318.794,698.268,318.797,699.759z"/>
	<path fill="none" d="M318.623,296.991c-0.28,0.357-0.801,0.964-1.61,1.738v0C317.822,297.955,318.343,297.348,318.623,296.991z"/>
	<path fill="none" d="M223.095,497.812c1.509,1.586,4.188,3.468,8.944,5.152l0,0C227.283,501.279,224.604,499.397,223.095,497.812z"
		/>
	<path fill="none" d="M318.623,426.228c-0.28,0.357-0.801,0.964-1.61,1.738v0C317.822,427.192,318.343,426.585,318.623,426.228z"/>
	<path fill="none" d="M270.021,507.532c13.382,0,23.093-0.933,30.15-2.286l0,0C293.114,506.6,283.403,507.532,270.021,507.532
		L270.021,507.532z"/>
	<path fill="none" d="M300.171,437.173L300.171,437.173c-8.007,2.624-19.116,4.671-34.353,4.671
		c-16.742,0-27.222-2.467-33.778-5.463c0,0,0,0,0,0.001v0c6.556,2.996,17.036,5.462,33.777,5.462
		C281.054,441.845,292.164,439.798,300.171,437.173z"/>
	<path fill="none" d="M280.331,311.92c-0.045,0.004-0.094,0.008-0.14,0.012C280.236,311.928,280.285,311.925,280.331,311.92z"/>
	<path fill="none" d="M265.817,572.166c-16.741,0-27.221-2.467-33.777-5.461l0,0C238.596,569.699,249.076,572.166,265.817,572.166
		L265.817,572.166z"/>
	<path fill="none" d="M284.607,311.405c6.168-0.847,11.307-2.074,15.563-3.47l0,0C295.915,309.331,290.775,310.558,284.607,311.405z
		"/>
	<path fill="none" d="M265.817,312.607c-16.741,0-27.221-2.467-33.777-5.462v0C238.596,310.141,249.076,312.607,265.817,312.607
		L265.817,312.607z"/>
	<path fill="none" d="M222.91,497.609c-0.042-0.046-0.087-0.093-0.126-0.139C222.823,497.516,222.868,497.562,222.91,497.609z"/>
	<path fill="none" d="M399.78,724.614c3.665-3.942,6.983-9.176,7.755-15.614C406.763,715.438,403.444,720.672,399.78,724.614
		L399.78,724.614z"/>
	<path fill="none" d="M388.351,733.371L388.351,733.371c0.042-0.021,5.954-2.958,11.234-8.555
		C394.305,730.412,388.393,733.35,388.351,733.371z"/>
	<path fill="none" d="M400.489,623.584c0.43,1.411,2.065,5.087,7.977,8.493c-0.267,21.289-0.62,50.837-0.729,66.565
		c6.482,3.097,18.646,6.002,41.477,6.002c32.074,0,43.098-5.354,46.887-9.033c-3.79,3.68-14.814,9.032-46.886,9.032
		c-22.831,0-34.995-2.905-41.477-6.002c0.108-15.728,0.461-45.276,0.729-66.565C402.556,628.671,400.92,624.996,400.489,623.584z"/>
	<path fill="none" d="M400.343,691.352v0.003c0.008,0.239,0.247,3.874,7.395,7.288C400.568,695.217,400.351,691.569,400.343,691.352
		z"/>
	<path fill="none" d="M395.456,723.865c0,0-0.521,1.385-2.287,3.748c-0.001,0.002-0.001,0.003-0.002,0.004
		C394.931,725.257,395.454,723.871,395.456,723.865L395.456,723.865z"/>
	<path fill="none" d="M407.737,698.643c-0.019,2.711-0.03,5.016-0.032,6.794C407.707,703.658,407.719,701.354,407.737,698.643z"/>
	<path fill="none" d="M221.851,718.049c0.839,8.629,2.473,17.03,4.829,25.127C224.324,735.079,222.69,726.679,221.851,718.049
		L221.851,718.049z"/>
	<path fill="none" d="M408.467,632.076c6.233,3.594,17.217,6.881,36.544,6.881c0,0,0,0,0.001,0
		C425.685,638.957,414.701,635.67,408.467,632.076c0.182-14.396,0.323-25.01,0.323-25.01s0.991-10.777,4.928-22.388
		c-3.937,11.611-4.929,22.388-4.929,22.388S408.648,617.681,408.467,632.076z"/>
	<polygon fill="none" points="221.849,718.048 221.851,718.049 221.849,718.047 	"/>
	<path fill="none" d="M322.109,720.404c0.008,0.02,0.019,0.04,0.027,0.061c0.102,0.237,0.22,0.464,0.325,0.699
		c-0.107-0.234-0.222-0.462-0.324-0.699C322.129,720.443,322.118,720.424,322.109,720.404c-0.001-0.005-0.003-0.01-0.006-0.016
		c-0.007-0.015-0.013-0.031-0.02-0.047c0.006,0.016,0.013,0.031,0.019,0.046C322.105,720.394,322.107,720.398,322.109,720.404z"/>
	<path fill="none" d="M388.554,733.161c1.569-1.585,3.002-3.301,4.294-5.124C391.556,729.861,390.122,731.576,388.554,733.161
		L388.554,733.161z"/>
	<path fill="none" d="M264.585,802.001c-0.268,0.006-0.519,0.008-0.755,0.009C264.066,802.009,264.318,802.007,264.585,802.001z"/>
	<path fill="none" d="M232.039,633.285L232.039,633.285c-6.123-2.168-8.804-4.664-9.977-6.434
		C223.235,628.621,225.915,631.118,232.039,633.285c6.483,2.296,16.842,4.216,33.344,4.521
		C248.881,637.501,238.521,635.58,232.039,633.285z"/>
	<path fill="none" d="M438.495,739.648c21.057,12.986,21.763,59.754,21.764,59.887c-0.017,0.018-0.033,0.037-0.051,0.055
		c-0.125,0.129-0.248,0.251-0.373,0.379c0.122-0.128,0.252-0.248,0.374-0.377c0.018-0.018,0.034-0.037,0.051-0.055
		C460.258,799.402,459.552,752.634,438.495,739.648z"/>
	<path fill="none" d="M453.831,805.867c0.036-0.033,0.072-0.066,0.108-0.1c1.073-1.008,2.152-2.045,3.236-3.116
		c0.036-0.035,0.071-0.071,0.107-0.107C456.127,803.688,454.976,804.794,453.831,805.867z"/>
	<path fill="#FFFFFF" d="M317.013,298.729c0.81-0.773,1.33-1.38,1.61-1.738c0.181-0.229,0.268-0.361,0.268-0.361v0l0.001-0.001
		V240.43c0,0,0,0.878-0.917,2.167c-0.247,0.347-0.563,0.726-0.962,1.124V298.729z"/>
	<path fill="#FFFFFF" d="M280.191,311.933c0.045-0.004,0.094-0.008,0.14-0.012c1.485-0.148,2.897-0.326,4.277-0.516
		c6.168-0.847,11.307-2.074,15.563-3.47v-57.362c-7.057,1.354-16.769,2.287-30.151,2.287c-19.245,0-30.908-2.066-37.98-4.568
		c0,18.335,0,38.124,0,58.854c6.556,2.995,17.036,5.462,33.777,5.462C271.088,312.607,275.863,312.361,280.191,311.933z"/>
	<path fill="#FFFFFF" d="M235.997,113.947c-2.334,4.984-3.957,10.757-3.957,17.172c0,3.747,0,22.263,0,50.59
		c6.556,2.995,17.036,5.462,33.778,5.462c42.607,0,53.074-15.978,53.074-15.978v-31.93c0-26.99-21.881-48.871-48.871-48.871
		c-8.208,0-15.937,2.033-22.728,5.608c1.654-0.85,3.398-1.653,5.269-2.384c0,0-0.003,0.002-0.003,0.002
		c0.001,0,0.002-0.001,0.003-0.001C252.562,93.617,241.96,101.208,235.997,113.947z"/>
	<path fill="#FFFFFF" d="M400.2,707.805c0.032-0.349,0.055-0.651,0.07-0.91C400.251,707.199,400.226,707.502,400.2,707.805z"/>
	<path fill="#FFFFFF" d="M318.887,695.898c-0.002,0.039-0.005,0.08-0.008,0.14c0,0.006-0.002,0.017-0.002,0.022
		c-0.005,0.102-0.012,0.226-0.019,0.383c-0.028,0.668-0.064,1.824-0.062,3.315c0.003,1.119,0.027,2.425,0.095,3.854v-7.802
		c0,0.006-0.001,0.017-0.002,0.031S318.888,695.876,318.887,695.898z"/>
	<path fill="#FFFFFF" d="M322.138,720.465c-0.011-0.024-0.022-0.051-0.034-0.076c0.003,0.006,0.005,0.011,0.007,0.017
		C322.118,720.424,322.129,720.443,322.138,720.465z"/>
	<path fill="#FFFFFF" d="M416.773,576.777c-7.486,6.654-12.91,15.569-15.204,25.68C405.106,588.163,415.377,578.096,416.773,576.777
		z"/>
	<path fill="#FFFFFF" d="M318.878,696.037c0.008-0.152,0.014-0.242,0.014-0.242v0.017c0-0.002,0.001-0.016,0.001-0.016v-70.369
		c0,0-0.004,1.415-1.88,3.289v73.61C318.524,699.141,318.822,696.771,318.878,696.037z"/>
	<path fill="#FFFFFF" d="M281.913,725.861c7.507-2.076,13.489-4.561,18.258-7.199v-83.095c-7.057,1.354-16.768,2.286-30.15,2.286h0
		h0c-1.604,0-3.136-0.02-4.637-0.047c-16.502-0.306-26.861-2.226-33.343-4.521c0,51.633,0,86.788,0,90.271l0,0
		C242.242,727.816,259.605,732.033,281.913,725.861z"/>
	<path fill="#FFFFFF" d="M318.89,695.843c0.001-0.015,0.002-0.025,0.002-0.031v-0.017
		C318.892,695.795,318.891,695.818,318.89,695.843z"/>
	<path fill="#FFFFFF" d="M318.879,696.038c0.003-0.06,0.006-0.101,0.008-0.14C318.885,695.938,318.883,695.977,318.879,696.038
		c-0.001,0.005-0.002,0.017-0.002,0.022C318.877,696.055,318.879,696.044,318.879,696.038z"/>
	<path fill="#FFFFFF" d="M300.171,567.494v-62.248c-7.057,1.354-16.768,2.286-30.15,2.286h0h0c-19.245,0-30.908-2.065-37.98-4.568
		c0,22.021,0,43.444,0,63.741c6.556,2.994,17.036,5.461,33.777,5.461C281.055,572.166,292.164,570.119,300.171,567.494z"/>
	<path fill="#FFFFFF" d="M318.891,556.189L318.891,556.189L318.891,556.189l0.001-61.085c0,0-0.003,1.415-1.879,3.289v59.895
		C318.344,557.017,318.891,556.189,318.891,556.189z"/>
	<path fill="#FFFFFF" d="M300.171,437.172v-61.163c-7.057,1.353-16.769,2.286-30.151,2.286c-19.245,0-30.908-2.066-37.98-4.568
		c0,20.667,0,41.691,0,62.654c6.556,2.996,17.036,5.463,33.778,5.463C281.055,441.844,292.164,439.797,300.171,437.172z"/>
	<path fill="#FFFFFF" d="M318.623,426.228c0.181-0.229,0.268-0.361,0.268-0.361v0l0.001-0.001v-60c0,0-0.003,1.416-1.879,3.29v58.81
		C317.822,427.192,318.343,426.585,318.623,426.228z"/>
	<path fill="#FFFFFF" d="M400.372,612.166c-0.01,0.381-0.029,0.762-0.029,1.146v9.668c0,0,0.006,0.037,0.017,0.092
		C400.363,618.686,400.368,614.95,400.372,612.166z"/>
	<path fill="#FFFFFF" d="M400.311,705.842c-0.006,0.214-0.008,0.428-0.017,0.639c0.016-0.369,0.017-0.579,0.017-0.579
		S400.311,705.876,400.311,705.842z"/>
	<path fill="#FFFFFF" d="M393.169,727.613c-0.001,0.002-0.002,0.003-0.003,0.005c0.347-0.511,0.673-1.022,0.986-1.534
		c-0.416,0.665-0.852,1.314-1.305,1.953c0.111-0.144,0.219-0.283,0.319-0.42C393.168,727.616,393.168,727.615,393.169,727.613z"/>
	<path fill="#FFFFFF" d="M457.176,802.651c-1.084,1.071-2.163,2.108-3.236,3.116C455.035,804.746,456.113,803.708,457.176,802.651z"
		/>
	<path fill="#FFFFFF" d="M451.076,808.397c-0.105,0.093-0.205,0.193-0.312,0.286c1.052-0.939,2.111-1.918,3.175-2.916
		c-0.036,0.033-0.072,0.066-0.108,0.1C452.909,806.731,451.99,807.577,451.076,808.397z"/>
	<path fill="#FFFFFF" d="M457.283,802.544c-0.036,0.036-0.071,0.072-0.107,0.107c1.008-0.995,2.019-2.008,3.033-3.06
		c-0.122,0.129-0.252,0.249-0.374,0.377C458.981,800.848,458.131,801.705,457.283,802.544z"/>
	<path fill="#FFFFFF" d="M408.817,775.062c-3.902-30.439-28.571-35.408-28.601-35.414c-6.048,3.562-13.087,5.614-20.601,5.614
		c-9.296,0-17.868-3.137-24.73-8.397c0.065,0.053,0.101,0.078,0.101,0.078s-0.082,3.835-1.082,9.524
		c4.396,3.109,9.871,5.521,16.692,6.478c4.606,0.646,7.816,4.903,7.171,9.509c-0.591,4.21-4.197,7.253-8.329,7.253
		c-0.39,0-0.783-0.026-1.18-0.082c-7.362-1.032-13.723-3.316-19.199-6.384c-4.03,9.648-10.789,19.707-22.155,25.878
		c-3.417,1.854-6.692,3.445-9.807,4.81c-15.577,6.821-27.162,7.972-32.512,8.072c-0.268,0.006-0.519,0.008-0.755,0.009
		c-1.647,0.002-2.521-0.095-2.526-0.096c25.1,25.354,59.896,41.092,98.313,41.092c12.052,0,23.747-1.551,34.9-4.457l0.001-0.001
		c-0.001,0-0.001,0-0.001,0C394.523,838.541,412.722,805.515,408.817,775.062z"/>
	<path fill="#FFFFFF" d="M496.101,695.611c-3.789,3.68-14.812,9.033-46.887,9.033c-22.831,0-34.994-2.905-41.477-6.002
		c-0.019,2.711-0.03,5.016-0.032,6.794c-0.001,0.254-0.001,0.497-0.001,0.729c0,0.969-0.059,1.914-0.169,2.834
		c-0.771,6.438-4.09,11.672-7.755,15.614l0,0l-0.001,0.001c7.423,1.483,23.295,5.521,38.716,15.033
		c21.057,12.985,21.763,59.754,21.765,59.889c23.436-24.812,37.825-58.256,37.825-95v-12.296
		C498.075,692.437,497.939,693.826,496.101,695.611z"/>
	<path fill="#FFFFFF" d="M261.207,801.814c-6.294-6.478-11.576-13.023-16.019-19.452
		C249.937,789.327,255.302,795.836,261.207,801.814z"/>
	<path fill="#FFFFFF" d="M449.214,564.441c-12.373,0-23.664,4.605-32.274,12.187c0,0.001-0.001,0.002-0.001,0.003
		c-0.001,0.001-0.002,0.001-0.002,0.002c-1.246,2.646-2.311,5.368-3.219,8.046c-3.937,11.61-4.928,22.388-4.928,22.388
		s-0.142,10.614-0.322,25.01c6.233,3.594,17.217,6.881,36.544,6.881c42.607,0,53.073-15.977,53.074-15.977v-9.669
		C498.085,586.322,476.204,564.441,449.214,564.441z"/>
	<path fill="#FF0000" d="M270.021,252.859c13.382,0,23.093-0.933,30.15-2.286v-50.434c0-4.651,3.771-8.421,8.421-8.421
		s8.421,3.77,8.421,8.421v43.582c0.398-0.398,0.715-0.776,0.962-1.124c0.916-1.288,0.916-2.165,0.916-2.165v-69.237
		c0.001-0.001-10.466,15.977-53.074,15.977c-16.741,0-27.221-2.466-33.777-5.461c0,18.476,0,41.13,0,66.58
		C239.112,250.794,250.775,252.859,270.021,252.859z"/>
	<path fill="#FF0000" d="M300.171,250.573L300.171,250.573c-7.057,1.353-16.768,2.286-30.15,2.286
		c-19.246,0-30.909-2.065-37.981-4.569c0,0,0,0.001,0,0.001c7.072,2.502,18.735,4.568,37.98,4.568
		C283.402,252.86,293.114,251.927,300.171,250.573z"/>
	<path fill="#FF0000" d="M317.013,243.72c0.398-0.398,0.715-0.776,0.962-1.124C317.728,242.944,317.411,243.322,317.013,243.72
		L317.013,243.72z"/>
	<path fill="#FF0000" d="M317.013,298.729v70.426c1.875-1.874,1.878-3.288,1.878-3.288V296.63c-0.002,0.002-0.089,0.132-0.268,0.36
		C318.343,297.348,317.822,297.955,317.013,298.729z"/>
	<path fill="#FF0000" d="M284.607,311.405c-1.38,0.189-2.792,0.367-4.277,0.516C281.815,311.772,283.228,311.594,284.607,311.405z"
		/>
	<path fill="#FF0000" d="M265.818,312.607c5.27,0,10.045-0.246,14.373-0.674C275.863,312.361,271.088,312.607,265.818,312.607
		L265.818,312.607z"/>
	<path fill="#FF0000" d="M318.623,296.991c0.179-0.228,0.266-0.358,0.268-0.36v0C318.891,296.63,318.804,296.761,318.623,296.991z"
		/>
	<path fill="#FF0000" d="M300.171,376.009L300.171,376.009c-7.057,1.353-16.768,2.285-30.15,2.285
		c-19.246,0-30.909-2.065-37.981-4.569c0,0,0,0,0,0.001c0,0,0,0,0,0c7.072,2.502,18.735,4.568,37.98,4.568
		C283.402,378.295,293.114,377.362,300.171,376.009z"/>
	<polygon fill="#FF0000" points="232.039,502.964 232.039,502.964 232.04,502.964 	"/>
	<path fill="#FF0000" d="M317.013,427.966v70.426c1.875-1.874,1.878-3.289,1.878-3.289v-69.236c-0.002,0.002-0.089,0.132-0.268,0.36
		C318.343,426.585,317.822,427.192,317.013,427.966z"/>
	<path fill="#FF0000" d="M270.021,507.532c-19.246,0-30.909-2.065-37.98-4.568l0,0C239.112,505.467,250.775,507.532,270.021,507.532
		L270.021,507.532z"/>
	<path fill="#FF0000" d="M318.623,426.228c0.179-0.228,0.266-0.358,0.268-0.36v0C318.891,425.867,318.804,425.999,318.623,426.228z"
		/>
	<path fill="#FF0000" d="M317.013,558.289v70.424c1.875-1.873,1.878-3.288,1.878-3.288V556.19
		C318.886,556.198,318.338,557.022,317.013,558.289z"/>
	<path fill="#FF0000" d="M270.02,637.854L270.02,637.854c-1.604,0-3.136-0.02-4.637-0.047
		C266.884,637.834,268.416,637.854,270.02,637.854z"/>
	<path fill="#FF0000" d="M317.013,558.288L317.013,558.288c1.325-1.266,1.873-2.09,1.878-2.098v-0.001
		C318.891,556.189,318.344,557.017,317.013,558.288z"/>
	<path fill="#FF0000" d="M265.818,572.166c15.237,0,26.346-2.047,34.353-4.672l0,0C292.164,570.119,281.055,572.166,265.818,572.166
		L265.818,572.166z"/>
	<path fill="#FF0000" d="M400.359,623.084c0-0.003,0-0.007,0-0.01c-0.011-0.056-0.017-0.093-0.017-0.093v22.259
		c0.006-8.112,0.011-15.809,0.018-22.152C400.36,623.087,400.359,623.085,400.359,623.084z"/>
	<path fill="#FF0000" d="M400.359,623.072c-0.011-0.055-0.017-0.092-0.017-0.092v0.001c0,0,0.006,0.037,0.017,0.093
		C400.359,623.073,400.359,623.073,400.359,623.072z"/>
	<path fill="#FF0000" d="M445.012,638.957L445.012,638.957C445.011,638.957,445.011,638.957,445.012,638.957
		c-19.328,0-30.312-3.287-36.545-6.881c-0.268,21.289-0.62,50.838-0.729,66.565c6.481,3.097,18.646,6.002,41.477,6.002
		c32.071,0,43.096-5.353,46.886-9.032c1.984-1.927,1.984-3.395,1.984-3.395v0.024c0.001-0.016,0.001-0.025,0.001-0.025V622.98
		C498.086,622.98,487.62,638.957,445.012,638.957z"/>
	<path fill="#FF0000" d="M496.101,695.611c1.839-1.785,1.975-3.175,1.984-3.37v-0.024
		C498.085,692.217,498.085,693.685,496.101,695.611z"/>
	<path fill="#FF0000" d="M445.012,638.957L445.012,638.957c42.608,0,53.074-15.977,53.074-15.977
		C498.085,622.98,487.619,638.957,445.012,638.957z"/>
	<path fill="#FF0000" d="M334.623,736.649c0.113,0.094,0.202,0.167,0.264,0.216C334.797,736.796,334.713,736.72,334.623,736.649z"/>
	<path fill="#FF0000" d="M334.623,736.649c-1.567-1.301-7.861-6.813-11.688-14.472C325.679,727.858,329.696,732.806,334.623,736.649
		z"/>
	<path fill="#FF0000" d="M322.928,722.164c0.003,0.005,0.006,0.009,0.008,0.014c-0.273-0.566-0.55-1.132-0.798-1.713
		c0.103,0.237,0.217,0.465,0.324,0.699C322.613,721.5,322.769,721.833,322.928,722.164z"/>
	<path fill="#FF0000" d="M321.632,719.197c-1.841-4.947-2.521-10.912-2.74-15.584v0.924
		C318.892,709.705,319.869,714.645,321.632,719.197z"/>
	<path fill="#FF0000" d="M229.273,751.168c-0.915-2.408-1.933-5.146-3.062-8.273c-0.001-0.002-0.001-0.004-0.002-0.006
		c1.875,6.389,4.562,13.683,8.396,21.471c-0.252-0.557-1.151-2.579-2.656-6.326C230.999,755.773,230.104,753.486,229.273,751.168z"
		/>
	<path fill="#FF0000" d="M234.684,764.517c2.792,5.653,6.183,11.562,10.321,17.58c-3.888-5.731-7.358-11.766-10.366-18.065
		C234.664,764.303,234.68,764.471,234.684,764.517z"/>
	<path fill="#FF0000" d="M245.005,782.097c0.016,0.024,0.031,0.049,0.047,0.073c0.044,0.064,0.091,0.129,0.136,0.192
		c-0.044-0.064-0.09-0.128-0.134-0.192C245.038,782.146,245.022,782.121,245.005,782.097z"/>
	<path fill="#FF0000" d="M261.303,801.914c-0.033-0.033-0.064-0.066-0.096-0.1c0.032,0.033,0.062,0.066,0.095,0.1H261.303
		L261.303,801.914L261.303,801.914L261.303,801.914z"/>
	<path fill="#FF0000" d="M318.797,699.759c-0.003-1.491,0.033-2.647,0.062-3.315c0.007-0.157,0.014-0.281,0.019-0.383
		c-0.06,0.756-0.365,3.109-1.864,6.269v17.675c0.689,3.191,4.431,17.652,16.892,26.464c1-5.689,1.082-9.524,1.082-9.524
		s-0.035-0.025-0.101-0.078c-5.054-3.875-9.164-8.913-11.958-14.701c-0.163-0.327-0.312-0.666-0.466-1
		c-0.105-0.235-0.224-0.462-0.325-0.699c-0.009-0.021-0.02-0.041-0.027-0.061c-0.002-0.006-0.004-0.011-0.007-0.017
		c-0.006-0.015-0.013-0.03-0.019-0.046c-0.004-0.011-0.009-0.021-0.013-0.031c0.004,0.01,0.009,0.021,0.013,0.031
		c-0.004-0.011-0.008-0.021-0.013-0.032c-0.153-0.362-0.298-0.735-0.439-1.112c-1.763-4.553-2.74-9.492-2.74-14.66v-0.924
		C318.824,702.185,318.8,700.878,318.797,699.759z"/>
	<path fill="#FF0000" d="M318.892,703.613c-0.067-1.43-0.092-2.735-0.095-3.854C318.8,700.878,318.824,702.185,318.892,703.613z"/>
	<path fill="#FF0000" d="M232.04,723.558C232.04,723.559,232.04,723.559,232.04,723.558c10.201,4.26,27.566,8.477,49.874,2.305
		c7.506-2.076,13.489-4.561,18.257-7.199v-0.001c-4.769,2.639-10.751,5.123-18.258,7.199
		C259.605,732.033,242.242,727.816,232.04,723.558z"/>
	<path fill="#FF0000" d="M318.877,696.061c0-0.006,0.001-0.018,0.001-0.023c-0.056,0.734-0.354,3.104-1.865,6.289v0.003
		C318.512,699.17,318.817,696.816,318.877,696.061z"/>
	<path fill="#FF0000" d="M297.097,793.929c-15.577,6.821-27.163,7.972-32.512,8.072C269.935,801.9,281.52,800.75,297.097,793.929z"
		/>
	<path fill="#FF0000" d="M263.83,802.01c-1.652,0.002-2.526-0.096-2.526-0.096l0,0C261.31,801.915,262.183,802.012,263.83,802.01z"
		/>
	<path fill="#FF0000" d="M245.054,782.17c0.044,0.064,0.09,0.128,0.134,0.192c4.443,6.429,9.724,12.975,16.019,19.452
		c0.032,0.033,0.063,0.066,0.096,0.1C254.903,795.34,249.547,788.693,245.054,782.17z"/>
	<path fill="#FF0000" d="M322.928,722.164c-0.159-0.331-0.314-0.664-0.466-1C322.616,721.498,322.765,721.837,322.928,722.164z"/>
	<path fill="#FF0000" d="M234.639,764.029c0,0.001,0,0.002,0,0.002c3.008,6.3,6.478,12.334,10.366,18.065
		c0.017,0.024,0.032,0.049,0.049,0.073C241.146,776.416,237.66,770.355,234.639,764.029z"/>
	<path fill="#FF0000" d="M231.949,758.033c-0.746-1.855-1.644-4.146-2.676-6.865C230.105,753.486,230.999,755.773,231.949,758.033z"
		/>
	<path fill="#FF0000" d="M231.949,758.033c-0.95-2.26-1.844-4.547-2.676-6.865C230.104,753.486,230.999,755.773,231.949,758.033z"/>
	<path fill="#FF0000" d="M318.89,695.843c-0.001,0.016-0.002,0.032-0.003,0.056C318.888,695.876,318.889,695.857,318.89,695.843z"/>
	<path fill="#FF0000" d="M318.89,695.843c0.001-0.024,0.002-0.048,0.002-0.048s-0.006,0.09-0.014,0.242
		c0.005-0.061,0.007-0.1,0.009-0.139C318.888,695.875,318.889,695.858,318.89,695.843z"/>
	<path fill="#FF0000" d="M460.26,799.541v-0.004c-0.017,0.018-0.033,0.037-0.051,0.055
		C460.227,799.574,460.243,799.559,460.26,799.541z"/>
	<path fill="#FF0000" d="M388.347,733.373c0.033-0.033,0.065-0.066,0.098-0.1c0.03-0.031,0.062-0.062,0.093-0.095
		c0.006-0.006,0.011-0.012,0.017-0.018c1.568-1.585,3.002-3.3,4.294-5.124c-2.178,2.822-6.024,6.885-12.631,11.611
		C383.187,737.898,385.921,735.791,388.347,733.373L388.347,733.373z"/>
	<path fill="#FF0000" d="M450.064,809.301c-15.81,13.668-34.732,23.822-55.546,29.248
		C394.519,838.549,419.574,836.227,450.064,809.301z"/>
	<path fill="#FF0000" d="M393.167,727.617c-0.101,0.137-0.208,0.276-0.319,0.42c-1.292,1.823-2.725,3.539-4.294,5.124
		C390.351,731.381,391.877,729.511,393.167,727.617z"/>
	<path fill="#FF0000" d="M457.283,802.544c0.855-0.853,1.718-1.7,2.552-2.575c0.125-0.128,0.248-0.25,0.373-0.379
		c0.018-0.018,0.034-0.037,0.051-0.055c-0.001-0.133-0.707-46.9-21.764-59.887c-15.421-9.513-31.293-13.55-38.716-15.033
		c-0.064,0.069-0.13,0.133-0.194,0.201c-5.28,5.597-11.192,8.534-11.235,8.556l-0.001,0.001c-2.427,2.418-5.161,4.525-8.131,6.275
		h-0.001c0.03,0.006,24.699,4.975,28.601,35.414c3.903,30.441-14.28,63.453-14.299,63.485c20.812-5.426,39.735-15.58,55.544-29.248
		c0.088-0.076,0.173-0.146,0.259-0.223c0.148-0.131,0.295-0.264,0.442-0.396c0.104-0.093,0.209-0.191,0.312-0.284
		c0.936-0.825,1.842-1.682,2.755-2.53C454.976,804.794,456.127,803.688,457.283,802.544z"/>
	<path fill="#FF0000" d="M459.835,799.969c-0.834,0.875-1.696,1.723-2.552,2.575C458.131,801.705,458.981,800.848,459.835,799.969z"
		/>
	<path fill="#FF0000" d="M451.076,808.397c0.914-0.82,1.833-1.666,2.755-2.53C452.918,806.716,452.012,807.572,451.076,808.397z"/>
	<path fill="#FF0000" d="M408.817,775.062c-3.901-30.439-28.57-35.408-28.601-35.414
		C380.246,739.654,404.915,744.623,408.817,775.062z"/>
	<path fill="#FF0000" d="M408.817,775.062c3.904,30.452-14.294,63.479-14.3,63.485c0,0,0,0,0.001,0
		C394.537,838.516,412.721,805.504,408.817,775.062z"/>
	<path fill="#FF0000" d="M388.349,733.373L388.349,733.373c-2.428,2.418-5.162,4.525-8.132,6.275h0.001
		C383.188,737.898,385.922,735.791,388.349,733.373z"/>
	<path fill="#B3B3B3" d="M221.659,132.236c-0.629,4.247-0.51,7.028-0.51,7.028C221.149,136.877,221.329,134.532,221.659,132.236z"/>
	<path fill="#B3B3B3" d="M247.293,96.001c-15.723,8.08-22.017,21.088-24.517,30.738c0.441-1.668,0.968-3.301,1.576-4.894
		C228.608,110.696,236.83,101.509,247.293,96.001z"/>
	<path fill="#B3B3B3" d="M221.849,718.048L221.849,718.048c0-0.001,0.001,0.001,0.002,0.001c-0.353-3.627-0.572-7.291-0.638-10.99
		c-0.041-0.835-0.063-1.675-0.063-2.521v-0.001c0,0-0.402,23.201,5.054,38.334C221.851,728.021,221.848,718.047,221.849,718.048
		L221.849,718.048z"/>
	<path fill="#B3B3B3" d="M232.04,307.145c0-20.729,0-40.518,0-58.854c0,0,0,0-0.001,0c0,0,0-0.001,0-0.001
		c-0.68-0.241-1.318-0.485-1.916-0.733c-8.971-3.713-8.975-8.014-8.974-8.014v57.086c0,0,0.004,0.025,0.008,0.051
		C221.243,297.185,222.38,302.732,232.04,307.145z"/>
	<rect x="232.039" y="248.29" fill="#B3B3B3" width="0.001" height="0.001"/>
	<path fill="#B3B3B3" d="M232.04,181.709c0-28.327,0-46.843,0-50.59c0-6.415,1.623-12.188,3.957-17.172
		c5.949-12.709,16.512-20.292,16.562-20.329c-1.869,0.73-3.611,1.533-5.266,2.382c-10.463,5.509-18.685,14.695-22.941,25.845
		c-0.608,1.593-1.135,3.226-1.576,4.894c-0.098,0.376-0.187,0.745-0.273,1.111c-0.053,0.221-0.104,0.442-0.153,0.664
		c-0.165,0.74-0.305,1.449-0.428,2.134c-0.042,0.239-0.089,0.477-0.128,0.717c-0.05,0.3-0.092,0.585-0.134,0.871
		c-0.331,2.296-0.51,4.641-0.51,7.028v31.93C221.15,171.194,221.912,177.082,232.04,181.709z M222.503,127.851
		c-0.052,0.221-0.103,0.442-0.153,0.664c-0.164,0.739-0.305,1.449-0.428,2.134c-0.043,0.239-0.089,0.477-0.128,0.717
		c0.039-0.24,0.085-0.478,0.128-0.717c0.123-0.685,0.264-1.395,0.428-2.134C222.4,128.293,222.451,128.072,222.503,127.851
		c0.086-0.366,0.175-0.734,0.273-1.111C222.678,127.117,222.589,127.485,222.503,127.851z"/>
	<path fill="#B3B3B3" d="M235.997,113.947c5.963-12.739,16.565-20.33,16.565-20.33c-0.001,0-0.002,0.001-0.003,0.001
		C252.509,93.655,241.946,101.238,235.997,113.947z"/>
	<path fill="#B3B3B3" d="M222.776,126.739c0.441-1.668,0.968-3.301,1.576-4.894C223.744,123.438,223.217,125.071,222.776,126.739z"
		/>
	<path fill="#B3B3B3" d="M224.352,121.846c4.256-11.149,12.478-20.336,22.941-25.845
		C236.83,101.509,228.608,110.696,224.352,121.846z"/>
	<path fill="#B3B3B3" d="M232.04,436.382C232.04,436.381,232.04,436.381,232.04,436.382c0-20.964,0-41.988,0-62.655c0,0,0,0-0.001,0
		v0c-0.68-0.241-1.318-0.485-1.916-0.733c-8.971-3.713-8.975-8.014-8.974-8.014v60.888
		C221.15,425.867,221.912,431.755,232.04,436.382z"/>
	<rect x="232.039" y="373.726" fill="#B3B3B3" width="0" height="0.001"/>
	<path fill="#B3B3B3" d="M221.851,718.049L221.851,718.049L221.851,718.049c0.022,0.018,3.626,2.771,10.189,5.509
		c0-3.483,0-38.639,0-90.271c-6.125-2.168-8.805-4.665-9.978-6.435c-0.899-1.355-0.913-2.282-0.913-2.31v-0.002v58.822v21.175
		c0,0.846,0.022,1.686,0.063,2.52C221.28,710.758,221.498,714.422,221.851,718.049z"/>
	<path fill="#B3B3B3" d="M221.213,707.059c0.066,3.699,0.285,7.363,0.638,10.99c-0.353-3.627-0.571-7.291-0.638-10.992
		c-0.041-0.834-0.063-1.674-0.063-2.52v0.001C221.15,705.384,221.172,706.224,221.213,707.059z"/>
	<path fill="#B3B3B3" d="M232.04,566.705c0-20.297,0-41.72,0-63.741c0,0,0,0-0.001,0l0,0c-4.756-1.685-7.435-3.566-8.944-5.152
		c-0.065-0.068-0.125-0.135-0.185-0.203c-0.042-0.046-0.087-0.093-0.126-0.139c-1.633-1.873-1.634-3.253-1.634-3.253v61.973
		C221.15,556.189,221.912,562.078,232.04,566.705z"/>
	<rect x="232.04" y="502.963" fill="#B3B3B3" width="0" height="0.001"/>
	<path fill="#C2000B" d="M230.124,247.557c0.598,0.248,1.235,0.492,1.916,0.733c0-25.45,0-48.105,0-66.58c0,0,0,0,0.001,0
		c0,0,0-0.001,0-0.001c-10.129-4.627-10.891-10.515-10.89-10.515v68.349C221.15,239.543,221.152,243.844,230.124,247.557z"/>
	<path fill="#C2000B" d="M232.039,248.29C232.04,248.29,232.04,248.29,232.039,248.29c0.001-25.449,0.001-48.104,0.001-66.579
		c0,0,0,0-0.001,0C232.039,200.185,232.039,222.84,232.039,248.29z"/>
	<path fill="#C2000B" d="M230.124,247.557c-8.971-3.713-8.974-8.014-8.974-8.014C221.149,239.543,221.152,243.844,230.124,247.557z"
		/>
	<path fill="#C2000B" d="M232.04,181.709c-10.128-4.627-10.89-10.515-10.89-10.515C221.149,171.194,221.911,177.082,232.04,181.709z
		"/>
	<path fill="#C2000B" d="M230.124,372.993c0.598,0.248,1.235,0.492,1.916,0.733c0-22.818,0-45.198,0-66.581c0,0,0,0,0.001,0v0
		c-9.652-4.409-10.796-9.952-10.882-10.465c-0.004-0.024-0.008-0.05-0.008-0.05v68.349
		C221.15,364.979,221.152,369.28,230.124,372.993z"/>
	<path fill="#C2000B" d="M232.04,373.725c0-22.818,0-45.196,0-66.58c0,0,0,0-0.001,0
		C232.039,328.528,232.039,350.907,232.04,373.725C232.04,373.726,232.04,373.726,232.04,373.725
		C232.04,373.726,232.04,373.726,232.04,373.725z"/>
	<path fill="#C2000B" d="M232.04,307.145c-9.66-4.413-10.797-9.96-10.882-10.465C221.244,297.193,222.388,302.736,232.04,307.145z"
		/>
	<path fill="#C2000B" d="M230.124,372.993c-8.971-3.713-8.974-8.014-8.974-8.014C221.149,364.979,221.152,369.28,230.124,372.993z"
		/>
	<path fill="#C2000B" d="M222.91,497.609c0.061,0.067,0.12,0.134,0.185,0.203c1.509,1.586,4.188,3.468,8.944,5.152
		c0-21.781,0-44.145,0-66.582c0,0,0,0,0.001,0v0c-10.129-4.627-10.891-10.515-10.89-10.515v68.35c0,0,0.001,1.381,1.634,3.253
		C222.823,497.516,222.868,497.562,222.91,497.609z"/>
	<path fill="#C2000B" d="M232.04,436.382C232.04,436.382,232.04,436.382,232.04,436.382c-0.001,22.437-0.001,44.8-0.001,66.582
		c0,0,0,0,0.001,0C232.04,481.183,232.04,458.819,232.04,436.382z"/>
	<path fill="#C2000B" d="M232.04,436.382c-10.128-4.627-10.89-10.515-10.89-10.515C221.149,425.867,221.911,431.755,232.04,436.382z
		"/>
	<path fill="#C2000B" d="M221.15,494.217c0,0,0,1.381,1.634,3.253C221.151,495.598,221.15,494.217,221.15,494.217z"/>
	<path fill="#C2000B" d="M223.095,497.812c-0.065-0.068-0.125-0.135-0.185-0.203C222.971,497.676,223.03,497.743,223.095,497.812z"
		/>
	<path fill="#C2000B" d="M232.039,633.285c0-20.019,0-42.502,0-66.58c0,0,0,0,0.001,0l0,0c-10.129-4.627-10.891-10.516-10.89-10.515
		v68.349v0.003c0,0.019,0.01,0.947,0.913,2.31C223.235,628.621,225.916,631.117,232.039,633.285z"/>
	<path fill="#C2000B" d="M232.04,566.705C232.04,566.705,232.04,566.705,232.04,566.705c-0.001,24.078-0.001,46.562-0.001,66.58
		c0,0,0,0,0.001,0C232.04,613.267,232.04,590.783,232.04,566.705z"/>
	<path fill="#C2000B" d="M221.15,624.542c0,0.027,0.014,0.954,0.913,2.31C221.16,625.489,221.15,624.561,221.15,624.542z"/>
	<path fill="#C2000B" d="M232.04,566.705c-10.128-4.627-10.89-10.516-10.89-10.516v0.001
		C221.149,556.189,221.911,562.078,232.04,566.705z"/>
	<path fill="#B3B3B3" d="M229.273,751.168c-0.943-2.629-1.808-5.293-2.593-7.992c-2.355-8.097-3.989-16.498-4.829-25.127
		l-0.002-0.001c0,0.014,0.006,9.993,4.361,24.841c-0.002-0.006-0.004-0.012-0.006-0.018c0.001,0.006,0.003,0.012,0.005,0.018
		c0.001,0.002,0.001,0.004,0.002,0.006C227.34,746.021,228.358,748.76,229.273,751.168z"/>
	<path fill="#B3B3B3" d="M221.849,718.048L221.849,718.048c-0.001-0.001,0.002,9.974,4.355,24.823
		c0.002,0.006,0.004,0.012,0.006,0.018C221.855,728.041,221.849,718.062,221.849,718.048z"/>
	<path fill="#B3B3B3" d="M234.64,764.031c0,0-0.001-0.001-0.001-0.002c0-0.001,0-0.002,0-0.003
		c-0.941-1.973-1.838-3.972-2.688-5.993c1.505,3.747,2.404,5.77,2.656,6.326c0.026,0.053,0.053,0.105,0.079,0.157
		C234.68,764.471,234.664,764.304,234.64,764.031z"/>
	<path fill="#B3B3B3" d="M234.686,764.537c0,0-0.001-0.013-0.002-0.021l0,0C234.685,764.525,234.686,764.537,234.686,764.537z"/>
	<path fill="#B3B3B3" d="M234.605,764.359c0.048,0.105,0.081,0.178,0.081,0.178s-0.001-0.012-0.002-0.021
		C234.658,764.465,234.631,764.412,234.605,764.359z"/>
	<path fill="#B3B3B3" d="M234.64,764.031c0.024,0.272,0.04,0.439,0.044,0.485l0,0C234.68,764.471,234.664,764.303,234.64,764.031
		L234.64,764.031z"/>
	<rect x="234.637" y="764.028" fill="#B3B3B3" width="0.002" height="0.002"/>
	<polygon fill="#B3B3B3" points="234.64,764.031 234.639,764.029 234.64,764.031 	"/>
	<path fill="#C2000B" d="M232.039,723.559c-6.562-2.738-10.165-5.49-10.188-5.51c0.839,8.63,2.473,17.03,4.829,25.127
		c0.785,2.699,1.65,5.363,2.593,7.992c1.032,2.719,1.93,5.01,2.676,6.865c0.85,2.021,1.747,4.021,2.688,5.993
		c-0.351-3.784-2.599-28.454-2.599-40.161C232.039,723.865,232.039,723.747,232.039,723.559z"/>
	<path fill="#C2000B" d="M232.04,723.559C232.04,723.559,232.04,723.559,232.04,723.559c-0.001,0.188-0.001,0.307-0.001,0.307
		c0,11.707,2.248,36.377,2.599,40.161c0,0.001,0.001,0.002,0.001,0.003c-0.351-3.777-2.599-28.455-2.599-40.164
		C232.04,723.865,232.04,723.748,232.04,723.559z"/>
	<path fill="#C2000B" d="M232.039,723.558C232.04,723.558,232.04,723.558,232.039,723.558L232.039,723.558
		c-6.562-2.737-10.166-5.491-10.188-5.51v0.001C221.875,718.068,225.478,720.82,232.039,723.558
		C232.039,723.558,232.039,723.558,232.039,723.558z"/>
	<rect x="232.039" y="723.558" fill="#C2000B" width="0.001" height="0.001"/>
	<path fill="#B3B3B3" d="M416.939,576.628c0-0.001,0-0.002,0.001-0.003c0,0-0.022,0.021-0.037,0.033
		c0.012-0.009,0.022-0.019,0.034-0.028C416.938,576.629,416.938,576.629,416.939,576.628z"/>
	<rect x="416.937" y="576.629" fill="#B3B3B3" width="0.003" height="0.003"/>
	<path fill="#B3B3B3" d="M400.373,611.955c0,0.048,0,0.1,0,0.148c0.071-2.924,0.385-5.785,0.947-8.558
		C400.731,606.221,400.377,609.03,400.373,611.955z"/>
	<path fill="#B3B3B3" d="M400.342,691.331c0,0,0.001,0.015,0.001,0.023v-0.003C400.343,691.346,400.342,691.331,400.342,691.331z"/>
	<path fill="#B3B3B3" d="M400.342,691.331v-43.18c-0.018,26.083-0.029,55.254-0.03,57.577c0.013-0.396,0.03-0.791,0.03-1.19V691.331
		z"/>
	<path fill="#B3B3B3" d="M394.973,724.686c2.625-4.59,4.375-9.731,5.04-15.21C399.532,713.03,398.271,718.79,394.973,724.686z"/>
	<path fill="#B3B3B3" d="M394.969,724.694c0.001-0.003,0.003-0.006,0.004-0.009c-0.266,0.465-0.528,0.933-0.812,1.386
		c-0.003,0.004-0.006,0.009-0.009,0.013c0.004-0.005,0.007-0.009,0.01-0.014C394.443,725.62,394.704,725.156,394.969,724.694z"/>
	<path fill="#B3B3B3" d="M400.184,708.004c-0.039,0.405-0.091,0.867-0.158,1.37c-0.655,5.52-2.412,10.7-5.057,15.32
		c-0.257,0.458-0.525,0.917-0.807,1.376c-0.315,0.515-0.644,1.031-0.993,1.543c1.767-2.363,2.287-3.748,2.287-3.748h0.001v-0.001
		c0,0,1.595,0.205,4.323,0.75c3.664-3.942,6.982-9.176,7.755-15.614c0.11-0.92,0.169-1.865,0.169-2.834c0-0.232,0-0.476,0.001-0.729
		c0.002-1.778,0.014-4.083,0.032-6.794c-7.147-3.414-7.387-7.049-7.395-7.288v13.184c0,0.412-0.018,0.82-0.031,1.229
		c0-0.009,0-0.028,0-0.039c0,0.013-0.001,0.026-0.001,0.039c0,0.03,0,0.053,0,0.074c0.001-0.025,0.001-0.05,0.002-0.074
		c0,0.08,0,0.133,0,0.133s0,0.23-0.021,0.645c0.001-0.021,0.001-0.043,0.002-0.064c-0.001,0.023-0.002,0.041-0.003,0.065
		c-0.003,0.062-0.007,0.123-0.01,0.187c-0.003,0.048-0.008,0.111-0.011,0.162c0.004-0.055,0.01-0.108,0.013-0.163
		C400.264,707.066,400.235,707.49,400.184,708.004c0.007-0.066,0.011-0.133,0.017-0.199
		C400.193,707.874,400.189,707.932,400.184,708.004c-0.043,0.496-0.111,0.982-0.171,1.472c0.005-0.035,0.009-0.066,0.013-0.102
		C400.08,708.918,400.145,708.465,400.184,708.004z M400.282,706.73c0.003-0.062,0.007-0.123,0.01-0.187
		C400.289,706.607,400.285,706.668,400.282,706.73z"/>
	<path fill="#B3B3B3" d="M400.283,706.731c-0.003,0.055-0.009,0.108-0.013,0.163c-0.016,0.259-0.038,0.562-0.07,0.91
		c-0.006,0.066-0.01,0.133-0.016,0.199C400.235,707.49,400.264,707.066,400.283,706.731z"/>
	<path fill="#B3B3B3" d="M400.312,705.9c0,0,0-0.053,0-0.133c-0.001,0.024-0.001,0.049-0.002,0.074c0,0.034,0,0.06,0,0.06
		s-0.001,0.21-0.017,0.579c-0.001,0.021-0.001,0.043-0.002,0.064C400.312,706.131,400.312,705.9,400.312,705.9z"/>
	<path fill="#B3B3B3" d="M393.169,727.613c0.35-0.512,0.678-1.028,0.993-1.543c-0.003,0.005-0.006,0.009-0.01,0.014
		c-0.313,0.512-0.64,1.023-0.986,1.534C393.167,727.616,393.168,727.615,393.169,727.613z"/>
	<path fill="#B3B3B3" d="M400.343,704.538v-13.184c0-0.009-0.001-0.023-0.001-0.023L400.343,704.538
		c-0.001,0.399-0.019,0.794-0.031,1.19c0,0.011,0,0.03,0,0.039C400.325,705.358,400.343,704.95,400.343,704.538z"/>
	<path fill="#B3B3B3" d="M400.025,709.374c0.067-0.503,0.119-0.965,0.158-1.37C400.145,708.465,400.08,708.918,400.025,709.374z"/>
	<path fill="#B3B3B3" d="M394.162,726.07c0.281-0.459,0.55-0.918,0.807-1.376C394.704,725.156,394.443,725.62,394.162,726.07z"/>
	<path fill="#B3B3B3" d="M400.025,709.374c-0.004,0.035-0.008,0.066-0.013,0.102c-0.665,5.479-2.415,10.62-5.04,15.21
		c-0.001,0.003-0.003,0.006-0.004,0.009C397.613,720.074,399.37,714.894,400.025,709.374z"/>
	<path fill="#B3B3B3" d="M416.903,576.658c-0.009,0.008-0.019,0.017-0.028,0.024c-0.025,0.023-0.061,0.057-0.102,0.095
		c0.035-0.03,0.068-0.063,0.103-0.094C416.893,576.669,416.893,576.668,416.903,576.658z"/>
	<path fill="#B3B3B3" d="M400.373,612.104c0,0.007-0.001,0.015-0.001,0.021c0,0.013,0,0.027,0,0.041
		c0-0.014,0.001-0.027,0.001-0.041C400.373,612.118,400.373,612.11,400.373,612.104z"/>
	<path fill="#B3B3B3" d="M401.348,603.412c0.062-0.297,0.138-0.586,0.203-0.881C401.485,602.826,401.409,603.115,401.348,603.412
		c-0.006,0.022-0.011,0.049-0.016,0.072c-0.571,2.799-0.889,5.689-0.959,8.641c-0.004,2.791-0.009,6.547-0.012,10.96l0,0
		c0,0.001,0,0.003,0,0.005c0.02,0.099,0.06,0.271,0.128,0.494c0.431,1.412,2.066,5.087,7.978,8.492
		c0.182-14.396,0.322-25.01,0.322-25.01s0.992-10.776,4.929-22.388c0.908-2.678,1.973-5.401,3.219-8.046
		c-0.021,0.018-0.04,0.034-0.061,0.051c-0.897,0.832-11.704,11.1-15.325,25.849c0.006-0.025,0.013-0.05,0.019-0.075
		c-0.006,0.025-0.014,0.049-0.02,0.074C401.484,602.826,401.407,603.115,401.348,603.412c-0.007,0.022-0.012,0.049-0.017,0.072
		c-0.004,0.021-0.007,0.041-0.011,0.062c0.004-0.021,0.007-0.041,0.012-0.062C401.337,603.461,401.342,603.435,401.348,603.412z"/>
	<path fill="#B3B3B3" d="M416.876,576.684c-0.034,0.03-0.067,0.063-0.103,0.094c-1.396,1.318-11.667,11.386-15.204,25.68
		c-0.006,0.025-0.013,0.05-0.019,0.075C405.172,587.783,415.979,577.516,416.876,576.684z"/>
	<path fill="#B3B3B3" d="M400.361,623.083c0,0.001,0,0.001,0,0.002l0,0c0.003-4.413,0.008-8.169,0.012-10.96
		c0,0.014-0.001,0.027-0.001,0.041c-0.004,2.784-0.009,6.52-0.013,10.906C400.36,623.078,400.36,623.076,400.361,623.083z"/>
	<path fill="#B3B3B3" d="M413.718,584.679c0.908-2.678,1.973-5.4,3.219-8.046l0,0C415.69,579.277,414.626,582.001,413.718,584.679z"
		/>
	<path fill="#B3B3B3" d="M400.361,623.09c0-0.002,0-0.004,0-0.005c-0.001-0.007-0.001-0.005-0.002-0.011c0,0.003,0,0.007,0,0.01
		c0,0.001,0.001,0.003,0.001,0.004c0-0.001,0-0.002,0-0.003C400.36,623.086,400.361,623.088,400.361,623.09z"/>
	<path fill="#B3B3B3" d="M400.361,623.083c-0.001-0.007-0.001-0.005-0.002-0.011c0,0.001,0,0.001,0,0.002
		c0.001,0.006,0.001,0.004,0.002,0.011C400.361,623.084,400.361,623.084,400.361,623.083z"/>
	<path fill="#B3B3B3" d="M416.937,576.633c0-0.001,0.001-0.002,0.001-0.003c-0.012,0.01-0.022,0.02-0.034,0.028
		c-0.011,0.01-0.011,0.011-0.027,0.025C416.896,576.667,416.916,576.65,416.937,576.633z"/>
	<polygon fill="#B3B3B3" points="416.937,576.633 416.937,576.633 416.938,576.63 	"/>
	<path fill="#B3B3B3" d="M401.332,603.484c-0.005,0.021-0.008,0.041-0.012,0.062c-0.562,2.772-0.876,5.634-0.947,8.558
		c0,0.007,0,0.015,0,0.021C400.443,609.174,400.761,606.283,401.332,603.484z"/>
	<path fill="#C2000B" d="M400.343,691.33v0.021c0.008,0.218,0.226,3.865,7.395,7.291c0.108-15.729,0.462-45.276,0.729-66.565
		c-5.911-3.406-7.547-7.082-7.977-8.493c-0.067-0.222-0.108-0.392-0.128-0.491c-0.006,6.715-0.013,14.939-0.019,23.576v-1.429
		c0,0.478-0.001,0.95-0.001,1.431v1.48c0-0.494,0.001-0.989,0.001-1.481V691.33z"/>
	<path fill="#C2000B" d="M400.361,623.093c0-0.001-0.001-0.003-0.001-0.005c-0.007,6.344-0.012,14.04-0.018,22.152v1.429
		C400.349,638.032,400.355,629.808,400.361,623.093z"/>
	<path fill="#C2000B" d="M400.343,691.352v-0.021v-44.66c0,0.492-0.001,0.987-0.001,1.481v43.18
		C400.342,691.331,400.343,691.346,400.343,691.352z"/>
	<path fill="#C2000B" d="M400.361,623.093c0.02,0.1,0.061,0.27,0.128,0.491c-0.068-0.224-0.108-0.396-0.128-0.494
		C400.361,623.091,400.361,623.092,400.361,623.093z"/>
	<circle fill="#C2000B" cx="400.361" cy="623.089" r="0.004"/>
	<path fill="#B3B3B3" d="M388.349,733.372c0.032-0.032,0.063-0.065,0.096-0.099c-0.032,0.033-0.064,0.066-0.098,0.1L388.349,733.372
		L388.349,733.372l0.002-0.001L388.349,733.372z"/>
	<polygon fill="#B3B3B3" points="388.349,733.373 388.35,733.372 388.348,733.373 	"/>
	<path fill="#C2000B" d="M388.554,733.161L388.554,733.161c-0.006,0.006-0.011,0.013-0.017,0.019
		C388.543,733.174,388.548,733.167,388.554,733.161z"/>
	<path fill="#C2000B" d="M395.457,723.865c-0.003,0.006-0.526,1.392-2.29,3.752c-1.294,1.9-2.825,3.777-4.63,5.562
		c-0.062,0.063-0.124,0.128-0.187,0.191c0.042-0.021,5.954-2.959,11.234-8.555c0.064-0.068,0.13-0.132,0.194-0.201
		C397.055,724.07,395.46,723.865,395.457,723.865z"/>
	<polygon fill="#C2000B" points="399.779,724.615 399.78,724.614 399.78,724.614 	"/>
	<rect x="399.779" y="724.615" fill="#C2000B" width="0.001" height="0"/>
	<path fill="#C2000B" d="M388.554,733.161c-0.006,0.006-0.011,0.012-0.017,0.018c-0.031,0.032-0.062,0.063-0.093,0.095
		c0.03-0.031,0.062-0.062,0.093-0.094C388.543,733.174,388.548,733.167,388.554,733.161z"/>
	<path fill="#C2000B" d="M393.167,727.617c-1.29,1.894-2.816,3.764-4.613,5.544c-0.006,0.006-0.011,0.013-0.017,0.019
		C390.342,731.395,391.873,729.518,393.167,727.617z"/>
	<path fill="#C2000B" d="M399.585,724.816c0.064-0.068,0.13-0.132,0.194-0.201l0,0C399.715,724.685,399.649,724.748,399.585,724.816
		z"/>
	<path fill="#C2000B" d="M399.78,724.614c-2.729-0.545-4.323-0.75-4.323-0.75v0.001C395.46,723.865,397.055,724.07,399.78,724.614
		L399.78,724.614z"/>
	<path fill="#C2000B" d="M388.351,733.371c0.062-0.063,0.124-0.128,0.187-0.191c-0.031,0.031-0.062,0.062-0.093,0.094
		c-0.032,0.033-0.063,0.066-0.096,0.099L388.351,733.371z"/>
	<path fill="#FFFFFF" d="M300.171,505.246L300.171,505.246c10.021-1.922,14.68-4.692,16.842-6.853v-0.001
		C314.851,500.553,310.192,503.323,300.171,505.246z"/>
	<path fill="#FFFFFF" d="M317.013,427.966L317.013,427.966c-2.438,2.329-7.539,6.156-16.842,9.206v0.001
		C309.475,434.123,314.576,430.295,317.013,427.966z"/>
	<path fill="#FFFFFF" d="M300.171,307.935c9.304-3.05,14.405-6.877,16.842-9.206v0C314.575,301.058,309.474,304.885,300.171,307.935
		L300.171,307.935z"/>
	<path fill="#FFFFFF" d="M314.094,371.358c1.287-0.765,2.23-1.515,2.919-2.203v0C316.324,369.844,315.381,370.593,314.094,371.358z"
		/>
	<path fill="#FFFFFF" d="M300.171,635.567L300.171,635.567c10.021-1.922,14.679-4.691,16.842-6.852v-0.003
		C314.851,630.874,310.192,633.645,300.171,635.567z"/>
	<path fill="#FFFFFF" d="M300.171,250.573v57.362c9.303-3.05,14.404-6.877,16.842-9.207V243.72
		C314.851,245.881,310.192,248.651,300.171,250.573z"/>
	<path fill="#FFFFFF" d="M300.171,635.567v83.095c10.031-5.552,14.681-11.781,16.842-16.336v-73.61
		C314.85,630.876,310.191,633.646,300.171,635.567z"/>
	<path fill="#FFFFFF" d="M300.171,505.246v62.248c9.304-3.05,14.405-6.877,16.842-9.206v-59.895
		C314.851,500.554,310.191,503.324,300.171,505.246z"/>
	<path fill="#FFFFFF" d="M314.094,371.358c-2.754,1.637-7.094,3.34-13.923,4.65v61.163c9.303-3.05,14.404-6.877,16.842-9.206v-58.81
		C316.324,369.844,315.381,370.594,314.094,371.358z"/>
	<path fill="#FFFFFF" d="M348.259,769.625c0.396,0.056,0.79,0.082,1.18,0.082c4.132,0,7.738-3.043,8.329-7.253
		c0.646-4.605-2.564-8.862-7.171-9.509c-6.821-0.956-12.296-3.368-16.692-6.478c-0.826,4.693-2.285,10.646-4.845,16.773
		C334.536,766.309,340.896,768.593,348.259,769.625z"/>
	<path fill="#FFFFFF" d="M317.013,243.72v-43.582c0-4.651-3.771-8.421-8.421-8.421s-8.421,3.77-8.421,8.421v50.434
		C310.191,248.651,314.851,245.881,317.013,243.72z"/>
	<path fill="#FFFFFF" d="M317.013,243.72L317.013,243.72c-2.162,2.161-6.821,4.931-16.842,6.853v0
		C310.192,248.651,314.851,245.881,317.013,243.72z"/>
	<path fill="#FFFFFF" d="M314.094,371.358c-2.754,1.637-7.094,3.34-13.923,4.649v0.001C307,374.699,311.34,372.995,314.094,371.358z
		"/>
	<path fill="#FFFFFF" d="M317.013,558.289L317.013,558.289c-2.437,2.328-7.538,6.155-16.842,9.205l0,0
		C309.474,564.445,314.575,560.618,317.013,558.289z"/>
	<g>
		<path fill="#FF0000" d="M300.171,376.008c6.829-1.31,11.169-3.013,13.923-4.649c1.287-0.765,2.23-1.515,2.919-2.203v-70.426
			c-2.437,2.329-7.538,6.156-16.842,9.206c-4.256,1.396-9.396,2.623-15.563,3.47c-1.38,0.189-2.792,0.367-4.277,0.516
			c-0.045,0.004-0.094,0.008-0.14,0.012c-4.328,0.428-9.103,0.674-14.373,0.674h0h0c-16.741,0-27.221-2.466-33.777-5.461
			c0,21.383,0,43.761,0,66.58c7.072,2.504,18.735,4.569,37.981,4.569C283.403,378.294,293.114,377.361,300.171,376.008z"/>
		<path fill="#FF0000" d="M300.171,505.246c10.021-1.923,14.68-4.693,16.842-6.854v-70.426c-2.437,2.329-7.538,6.157-16.842,9.207
			c-8.007,2.625-19.117,4.672-34.354,4.672c-16.741,0-27.221-2.466-33.777-5.462c0,22.437,0,44.8,0,66.582
			c7.072,2.503,18.735,4.568,37.98,4.568C283.403,507.532,293.114,506.6,300.171,505.246z"/>
		<path fill="#FF0000" d="M270.021,637.854c13.382,0,23.094-0.933,30.15-2.286c10.021-1.923,14.68-4.693,16.842-6.854v-70.424
			c-2.438,2.329-7.539,6.156-16.842,9.205c-8.007,2.625-19.116,4.672-34.353,4.672h0h0c-16.741,0-27.221-2.467-33.777-5.461
			c0,24.078,0,46.562,0,66.58c0,0,0,0-0.001,0c6.482,2.295,16.842,4.216,33.344,4.521
			C266.884,637.834,268.417,637.854,270.021,637.854z"/>
		<path fill="#FF0000" d="M317.013,720.004v-17.675c-2.161,4.555-6.812,10.784-16.842,16.334c-4.768,2.639-10.75,5.123-18.257,7.199
			c-22.308,6.172-39.673,1.955-49.874-2.304c0,0.189,0,0.307,0,0.307c0,11.709,2.248,36.387,2.599,40.164
			c3.021,6.326,6.507,12.387,10.415,18.141c4.493,6.523,9.849,13.17,16.249,19.744h0c0,0,0.875,0.098,2.526,0.096
			c0.236-0.001,0.488-0.003,0.755-0.009c5.349-0.101,16.935-1.251,32.512-8.072c3.115-1.364,6.39-2.955,9.807-4.81
			c11.366-6.171,18.125-16.229,22.155-25.878c2.56-6.127,4.019-12.08,4.845-16.773C321.443,737.656,317.702,723.195,317.013,720.004
			z"/>
	</g>
	<path fill="#FFFFFF" d="M317.013,702.329v-0.003c-2.161,4.555-6.811,10.784-16.842,16.336v0.001
		C310.201,713.113,314.852,706.884,317.013,702.329z"/>
	
		<circle fill="#FFFFFF" stroke="#FFFFFF" stroke-width="7.2125" stroke-linecap="round" stroke-linejoin="round" stroke-miterlimit="10" cx="335.629" cy="215.463" r="44.945"/>
	
		<circle stroke="#FFFFFF" stroke-width="8.1452" stroke-linecap="round" stroke-linejoin="round" stroke-miterlimit="10" cx="334.986" cy="215.257" r="40.866"/>
	
		<circle fill="#FFFFFF" stroke="#FFFFFF" stroke-width="8.1452" stroke-linecap="round" stroke-linejoin="round" stroke-miterlimit="10" cx="359.455" cy="213.296" r="3.645"/>
	<path d="M267.313,289.249c0,0,8.397-1.252,29.483-11.487c0,0,4.213,19.144-8.806,24.122
		C274.972,306.862,267.313,289.249,267.313,289.249z"/>
	
		<circle fill="#FFFFFF" stroke="#FFFFFF" stroke-width="7.3784" stroke-linecap="round" stroke-linejoin="round" stroke-miterlimit="10" cx="207.822" cy="215.429" r="45.979"/>
	
		<circle stroke="#FFFFFF" stroke-width="8.1452" stroke-linecap="round" stroke-linejoin="round" stroke-miterlimit="10" cx="207.921" cy="215.257" r="40.867"/>
	
		<circle fill="#FFFFFF" stroke="#FFFFFF" stroke-width="8.1452" stroke-linecap="round" stroke-linejoin="round" stroke-miterlimit="10" cx="229.855" cy="214.916" r="5.265"/>
	<path fill="#FFFFFF" d="M420.703,403.975c11.438,0.956,21.487-7.537,22.443-18.98l2.026-24.237
		c0.955-11.439-7.544-21.488-18.981-22.443l0,0c-8.218-14.696-21.029,4.624-21.985,16.066l-2.482,27.156
		C400.768,392.976,409.27,403.021,420.703,403.975L420.703,403.975z"/>
	
		<path fill="none" stroke="#FFFFFF" stroke-width="16.8422" stroke-linecap="round" stroke-linejoin="round" stroke-miterlimit="10" d="
		M340.121,292.661c0,0,48.226-20.359,64.716,23.993"/>
	
		<path fill="none" stroke="#FFFFFF" stroke-width="16.8422" stroke-linecap="round" stroke-linejoin="round" stroke-miterlimit="10" d="
		M208.312,349.221c0,0-4.169,36.142-30.813,65.215"/>
	<g>
		<path fill="#FFFFFF" d="M254.895,228.986l-1.094-1.208l-7.68-12.534c0.988-0.869,10.14-8.485,26.917-8.485
			c16.603,0,23.139,5.495,24.458,6.749l-5.475,12.877c0,0-1.507,1.826-1.337,1.961c-0.041-0.032-7.463-5.273-17.646-5.273
			C262.439,223.074,255.121,228.802,254.895,228.986z"/>
	</g>
	<path d="M221.66,132.236c0,0,8.805,28.4,63.248,23.282c54.442-5.118,51.267-20.671,32.505-28.223L221.66,132.236z"/>
	<g id="texte">
	</g>
	<path fill="#FFFFFF" d="M270.164,290.266l25.328-9.909c0,0,0.312,3.654,0,4.954l-23.683,9.117
		C271.809,294.429,270.061,291.986,270.164,290.266z"/>
	<path fill="#579BCC" d="M407.702,343.722"/>
	<path fill="#FFFFFF" d="M106.954,499.493c13.351,12.125,33.998,11.133,46.123-2.215l22.621-24.904
		c12.127-13.347,11.132-33.992-2.216-46.119l0,0c-3.524-3.201-7.558-5.488-11.808-6.875c-11.849-3.865-25.389-0.735-34.312,9.088
		l-22.621,24.903C92.615,466.716,93.607,487.365,106.954,499.493L106.954,499.493z"/>
	<path fill="#0B0146" d="M204.549,90.927c0.135,0.318,0.268,0.636,0.427,0.963c14.006,28.748,16.684,40.346,16.684,40.346
		s24.842,8.55,46.956,9.287c22.114,0.737,48.797-14.228,48.797-14.228s26.79-21.429,24.144-36.875
		c-13.103,3.384-36.373,5.513-74.244,5.582C235.159,96.059,215.974,93.793,204.549,90.927z"/>
	<path fill="#0B0117" d="M321.444,76.655c-47.37-8.987-128.587-13.407-116.895,14.272c11.424,2.866,30.61,5.132,62.764,5.074
		c37.871-0.068,61.141-2.197,74.244-5.582C340.519,84.358,334.948,79.217,321.444,76.655z"/>
	<circle fill="#579BCC" cx="294.12" cy="111.37" r="6.051"/>
	<path fill="#FC4C4C" d="M300.171,307.935v68.073c6.829-1.31,11.169-3.013,13.923-4.649c1.287-0.765,2.23-1.515,2.919-2.203v-70.426
		C314.576,301.058,309.475,304.885,300.171,307.935z"/>
	<path fill="#FC4C4C" d="M300.171,437.173v68.073c10.021-1.923,14.68-4.693,16.842-6.854v-70.426
		C314.576,430.295,309.475,434.123,300.171,437.173z"/>
	<path fill="#FC4C4C" d="M300.171,567.494v68.073c10.021-1.923,14.68-4.693,16.842-6.854v-70.424
		C314.575,560.618,309.474,564.445,300.171,567.494z"/>
	<path fill="#FC4C4C" d="M317.013,720.004v-17.675c-2.161,4.555-6.812,10.784-16.842,16.334v2.162c0,0.476,0.04,0.951,0.12,1.42
		c1.903,11.124,10.215,30.604,28.769,40.996c2.56-6.127,4.019-12.08,4.845-16.773C321.443,737.656,317.702,723.195,317.013,720.004z
		"/>
	<g>
		<ellipse fill="#FFFFFF" cx="450.318" cy="93.782" rx="57.526" ry="51.198"/>
		<ellipse fill="#FFFFFF" cx="508.703" cy="114.321" rx="45.505" ry="40.528"/>
		<circle fill="#FFFFFF" cx="508.577" cy="69.506" r="33.36"/>
	</g>
	<g>
		<ellipse fill="#FFFFFF" cx="135.208" cy="42.585" rx="24.257" ry="18.658"/>
		<ellipse fill="#FFFFFF" cx="161.332" cy="50.265" rx="26.124" ry="20.63"/>
		<ellipse fill="#FFFFFF" cx="115.616" cy="54.894" rx="27.057" ry="25.259"/>
		<circle fill="#FFFFFF" cx="126.812" cy="31.812" r="15.861"/>
		<circle fill="#FFFFFF" cx="147.337" cy="65.939" r="12.129"/>
	</g>
	<path fill="#FFFFFF" d="M144.557,456.215"/>
	<path fill="#B3B3B3" d="M147.557,458.215c0,0-25.976-0.758-32.955-4.636c0,0-4.354-2.295-5.876-4.595l4.981-5.486L147.557,458.215z
		"/>
	<path fill="#FFFFFF" d="M108.096,428.06c-2.513,11.199,4.525,22.316,15.73,24.83l23.731,5.325
		c11.201,2.511,22.318-4.533,24.829-15.732l0,0c2.514-11.195-4.532-22.314-15.736-24.829l-23.731-5.324
		C121.719,409.816,110.604,416.864,108.096,428.06L108.096,428.06z"/>
	
		<use xlink:href="#Herbe_4"  width="44.766" height="23.829" x="-22.384" y="-11.915" transform="matrix(7.6875 0 0 -7.6875 203.7617 988.6416)" overflow="visible"/>
	
		<use xlink:href="#Herbe_4"  width="44.766" height="23.829" x="-22.384" y="-11.915" transform="matrix(7.6875 0 0 -7.6875 427.0469 953.9873)" overflow="visible"/>
	
		<use xlink:href="#Herbe_4"  width="44.766" height="23.829" x="-22.384" y="-11.915" transform="matrix(7.6875 0 0 -7.6875 478.6055 953.9873)" overflow="visible"/>
</g>
<g id="Calque_2">
	
		<path fill="#F2F2F2" stroke="#FFFFFF" stroke-width="8.1452" stroke-linecap="round" stroke-linejoin="round" stroke-miterlimit="10" d="
		M579.24,439.705c0,26.604-21.565,48.169-48.17,48.169H396.368c-26.603,0-48.168-21.564-48.168-48.169l0,0
		c0-26.603,21.565-48.169,48.168-48.169H531.07C557.674,391.536,579.24,413.102,579.24,439.705L579.24,439.705z"/>
	<path fill="#B3B3B3" d="M406.475,343.858c0,0-3.619,6.162-2.318,16.68s5.096,18.65,8.023,21.903s6.506,5.313,6.506,5.313h8.357
		L406.475,343.858z"/>
</g>
<g id="Calque_3">
	<path fill="#FFFFFF" d="M492.001,392.74c10.184-14.884,6.376-35.202-8.507-45.386l-27.766-19.001
		c-14.881-10.187-35.195-6.375-45.382,8.506l0,0c-1.635,2.387-2.909,4.915-3.835,7.518c-4.845,13.623-0.156,29.315,12.338,37.866
		l27.764,19C461.495,411.43,481.813,407.621,492.001,392.74L492.001,392.74z"/>
</g>
</svg>
