<?xml version="1.0" encoding="utf-8"?>
<!-- Generator: Adobe Illustrator 16.0.4, SVG Export Plug-In . SVG Version: 6.00 Build 0)  -->
<!DOCTYPE svg PUBLIC "-//W3C//DTD SVG 1.1//EN" "http://www.w3.org/Graphics/SVG/1.1/DTD/svg11.dtd">
<svg version="1.1" xmlns="http://www.w3.org/2000/svg" xmlns:xlink="http://www.w3.org/1999/xlink" x="0px" y="0px" width="600px"
	 height="1000px" viewBox="0 0 600 1000" enable-background="new 0 0 600 1000" xml:space="preserve">
<g id="Calque_1">
	<rect fill="#579BCC" width="600" height="1000"/>
	<path fill="#437A99" d="M412.493,590.619c-12.377,0-23.669,4.502-32.278,11.91c0.003-0.002,0.003-0.004,0.003-0.006
		c0,0-0.025,0.025-0.066,0.061c-7.557,6.525-13.026,15.295-15.32,25.244c-0.073,0.289-0.14,0.582-0.207,0.873
		c-0.003,0.02-0.009,0.039-0.013,0.061c-0.598,2.631-0.954,5.396-0.961,8.279c0,0.055,0,0.113,0,0.166
		c-0.01,0.389-0.028,0.771-0.028,1.158v9.447v22.85c-0.02,26.111-0.032,56.156-0.032,58.057c-0.006,0.221-0.006,0.445-0.019,0.666
		c-0.003,0.113-0.013,0.246-0.022,0.393c-0.016,0.293-0.045,0.58-0.066,0.871c-0.3,3.314-1.486,10.707-6.15,18.049
		c-0.128,0.197-0.255,0.396-0.389,0.59c-0.238,0.365-0.502,0.727-0.76,1.088c-2.164,2.76-6.011,6.756-12.689,11.424
		c-6.048,3.48-13.086,5.488-20.598,5.488c-9.297,0-17.871-3.068-24.734-8.211c-0.977-0.766-8.86-7.145-12.775-16.08
		c-2.222-5.074-2.986-11.541-3.218-16.494v-76.299v-67.646v-59.682V455.23v-58.622v-67.646v-54.907v-67.646v-31.196
		c0-8.203-2.119-15.921-5.849-22.665c1.751-0.868,2.746-1.412,2.746-1.412s51.945-40.594,4.031-49.476
		S152.625,88.459,166.63,116.546c14.005,28.087,16.684,39.419,16.684,39.419s1.697,0.57,4.582,1.421
		c-0.772,1.944-1.374,3.826-1.842,5.593c-0.097,0.359-0.183,0.722-0.272,1.083c-0.052,0.219-0.103,0.435-0.152,0.648
		c-0.159,0.692-0.303,1.391-0.43,2.094c-0.043,0.232-0.089,0.468-0.127,0.693c-0.047,0.282-0.092,0.564-0.133,0.85
		c-0.63,4.149-0.511,6.867-0.511,6.867v31.196v66.778v55.774v66.778v59.489v66.778v60.549v66.777v57.471v20.691
		c0,0-0.403,22.689,5.062,37.475c0.013,0.033,0.024,0.062,0.035,0.094c3.29,10.93,9.042,24.533,19.12,38.721
		c0.921,1.312,1.884,2.596,2.849,3.873c0.026,0.035,0.048,0.066,0.073,0.1c3.682,4.865,7.69,9.477,11.99,13.814
		c0.347,0.352,0.673,0.709,1.025,1.061c0,0,0.019,0.002,0.033,0.004c25.099,24.762,59.872,40.143,98.281,40.143
		c12.052,0,23.748-1.518,34.903-4.359l-0.004,0.006c0,0,25.912-2.354,57.1-29.941c2.542-2.213,4.995-4.518,7.362-6.906
		c0.426-0.424,0.853-0.83,1.279-1.264c0,0,0-0.035,0-0.047c23.424-24.24,37.827-56.883,37.827-92.771v-12.037v-67.646v-9.447
		C461.364,611.996,439.483,590.619,412.493,590.619z"/>
	<g>
		<path fill="#FFFFFF" d="M270.021,252.859c-19.246,0-30.909-2.065-37.981-4.569c0,18.336,0,38.125,0,58.855
			c6.556,2.995,17.036,5.462,33.778,5.462c42.607,0,53.074-15.978,53.074-15.978v-56.199
			C318.892,240.431,318.892,252.859,270.021,252.859z"/>
		<path fill="#FFFFFF" d="M401.332,603.484c0.005-0.023,0.01-0.049,0.016-0.072C401.343,603.436,401.337,603.461,401.332,603.484z"
			/>
		<path fill="#FFFFFF" d="M232.04,131.119c0,3.747,0,22.263,0,50.59c6.556,2.995,17.036,5.462,33.778,5.462
			c42.607,0,53.074-15.978,53.074-15.978v-31.93c0-26.99-21.881-48.871-48.871-48.871c-8.208,0-15.937,2.033-22.728,5.608
			c1.654-0.85,3.398-1.653,5.269-2.384C252.562,93.617,232.04,108.312,232.04,131.119z"/>
		<path fill="#FFFFFF" d="M400.185,708.004c0.05-0.514,0.079-0.938,0.098-1.273C400.259,707.158,400.221,707.58,400.185,708.004z"/>
		<path fill="#FFFFFF" d="M321.632,719.197c0.141,0.377,0.286,0.75,0.439,1.113C321.917,719.943,321.776,719.57,321.632,719.197z"/>
		<path fill="#FFFFFF" d="M222.503,127.851c0.086-0.366,0.175-0.734,0.273-1.111C222.679,127.107,222.592,127.479,222.503,127.851z"
			/>
		<path fill="#FFFFFF" d="M318.892,703.613v-7.818c0,0-0.002,0.084-0.014,0.242C318.835,696.863,318.712,699.803,318.892,703.613z"
			/>
		<path fill="#FFFFFF" d="M322.138,720.465c-0.011-0.025-0.023-0.051-0.034-0.076c0.002,0.006,0.004,0.01,0.006,0.016
			C322.118,720.424,322.129,720.443,322.138,720.465z"/>
		<path fill="#FFFFFF" d="M416.876,576.684c-7.56,6.68-13.03,15.66-15.325,25.848C405.172,587.783,415.979,577.516,416.876,576.684z
			"/>
		<path fill="#FFFFFF" d="M221.922,130.649c0.123-0.685,0.264-1.395,0.428-2.134C222.191,129.221,222.05,129.932,221.922,130.649z"
			/>
		<path fill="#FFFFFF" d="M270.021,637.854c-19.246,0-30.909-2.064-37.981-4.568c0,51.637,0,86.793,0,90.273
			c10.201,4.258,27.566,8.475,49.874,2.303c34.343-9.498,36.792-27.541,36.965-29.824c0.008-0.152,0.014-0.242,0.014-0.242v-70.369
			C318.892,625.426,318.892,637.854,270.021,637.854z"/>
		<path fill="#FFFFFF" d="M270.021,507.532c-19.246,0-30.909-2.065-37.981-4.568c0,22.021,0,43.444,0,63.741
			c6.556,2.994,17.036,5.461,33.778,5.461c42.607,0,53.074-15.977,53.074-15.977v-61.085
			C318.892,495.104,318.892,507.532,270.021,507.532z"/>
		<path fill="#FFFFFF" d="M270.021,378.294c-19.246,0-30.909-2.065-37.981-4.569c0,20.668,0,41.692,0,62.656
			c6.556,2.996,17.036,5.463,33.778,5.463c42.607,0,53.074-15.978,53.074-15.978v-60
			C318.892,365.867,318.892,378.294,270.021,378.294z"/>
		<path fill="#FFFFFF" d="M400.373,612.125c-0.01,0.395-0.03,0.789-0.03,1.188v9.668c0,0,0.005,0.035,0.018,0.104
			C400.364,618.672,400.369,614.916,400.373,612.125z"/>
		<path fill="#FFFFFF" d="M400.312,705.768c-0.008,0.26-0.007,0.52-0.02,0.777c0.02-0.414,0.02-0.645,0.02-0.645
			S400.312,705.848,400.312,705.768z"/>
		<path fill="#FFFFFF" d="M221.66,132.236c0.042-0.286,0.084-0.571,0.134-0.871C221.747,131.655,221.702,131.945,221.66,132.236z"/>
		<path fill="#FFFFFF" d="M394.162,726.07c-0.419,0.67-0.858,1.324-1.314,1.967c0.111-0.143,0.218-0.283,0.319-0.42
			C393.518,727.104,393.846,726.586,394.162,726.07z"/>
		<path fill="#FFFFFF" d="M450.765,808.684c3.289-2.883,6.441-5.916,9.444-9.092C457.021,802.895,453.866,805.914,450.765,808.684z"
			/>
		<path fill="#FFFFFF" d="M408.817,775.062c-3.901-30.439-28.57-35.408-28.6-35.414c-6.048,3.562-13.087,5.615-20.601,5.615
			c-9.296,0-17.868-3.137-24.73-8.398c0.065,0.053,0.1,0.078,0.1,0.078s-0.748,37.336-28.082,52.176
			c-27.334,14.838-45.599,12.795-45.6,12.795c25.1,25.355,59.896,41.092,98.313,41.092c12.052,0,23.747-1.551,34.901-4.457
			C394.523,838.541,412.723,805.516,408.817,775.062z"/>
		<path fill="#FFFFFF" d="M449.214,704.645c-22.831,0-34.994-2.906-41.477-6.002c-0.021,3.098-0.033,5.666-0.033,7.523
			c0,7.752-3.735,13.943-7.925,18.449c7.423,1.484,23.295,5.521,38.716,15.033c21.057,12.986,21.763,59.754,21.765,59.889
			c23.435-24.812,37.825-58.256,37.825-95v-12.32C498.085,692.217,498.085,704.645,449.214,704.645z"/>
		<path fill="#FFFFFF" d="M261.303,801.914c-6.4-6.574-11.756-13.221-16.249-19.744
			C249.861,789.246,255.305,795.854,261.303,801.914z"/>
		<path fill="#FFFFFF" d="M449.214,564.441c-12.374,0-23.666,4.607-32.276,12.189c-6.646,14.111-8.148,30.436-8.148,30.436
			s-0.142,10.615-0.322,25.01c6.233,3.594,17.217,6.881,36.544,6.881c42.608,0,53.074-15.977,53.074-15.977v-9.668
			C498.085,586.322,476.204,564.441,449.214,564.441z"/>
		<path fill="#FFFFFF" d="M450.321,809.078c-0.086,0.076-0.171,0.146-0.258,0.223C450.149,809.227,450.235,809.152,450.321,809.078z
			"/>
		<path fill="#FF0000" d="M265.817,187.172c-16.742,0-27.222-2.467-33.778-5.462c0,18.475,0,41.131,0,66.581
			c7.072,2.503,18.735,4.569,37.981,4.569c48.871,0,48.871-12.428,48.871-12.428v-69.237
			C318.892,171.194,308.425,187.172,265.817,187.172z"/>
		<path fill="#FF0000" d="M265.817,312.607c-16.742,0-27.222-2.467-33.778-5.462c0,21.383,0,43.762,0,66.581
			c7.072,2.503,18.735,4.569,37.981,4.569c48.871,0,48.871-12.428,48.871-12.428V296.63
			C318.892,296.63,308.425,312.607,265.817,312.607z"/>
		<path fill="#FF0000" d="M265.817,441.845c-16.742,0-27.222-2.467-33.778-5.463c0,22.437,0,44.801,0,66.582
			c7.072,2.503,18.735,4.568,37.981,4.568c48.871,0,48.871-12.428,48.871-12.428v-69.237
			C318.892,425.867,308.425,441.845,265.817,441.845z"/>
		<path fill="#FF0000" d="M265.817,572.166c-16.742,0-27.222-2.467-33.778-5.461c0,24.078,0,46.562,0,66.58
			c7.072,2.504,18.735,4.568,37.981,4.568c48.871,0,48.871-12.428,48.871-12.428v-69.236
			C318.892,556.189,308.425,572.166,265.817,572.166z"/>
		<path fill="#FF0000" d="M400.343,622.98v23.689c0.006-8.641,0.012-16.869,0.018-23.586
			C400.348,623.016,400.343,622.98,400.343,622.98z"/>
		<path fill="#FF0000" d="M445.011,638.957c-19.327,0-30.311-3.287-36.544-6.881c-0.268,21.289-0.62,50.838-0.729,66.566
			c6.482,3.096,18.646,6.002,41.477,6.002c48.871,0,48.871-12.428,48.871-12.428V622.98
			C498.085,622.98,487.619,638.957,445.011,638.957z"/>
		<path fill="#FF0000" d="M334.887,736.865c-0.971-0.781-8.824-7.283-12.749-16.4C324.914,726.975,329.342,732.613,334.887,736.865z
			"/>
		<path fill="#FF0000" d="M321.632,719.197c-1.841-4.947-2.521-10.912-2.74-15.584v0.924
			C318.892,709.705,319.869,714.645,321.632,719.197z"/>
		<path fill="#FF0000" d="M234.686,764.537c0,0-0.946-2.045-2.737-6.504c-0.95-2.26-1.844-4.547-2.676-6.865
			c-0.915-2.408-1.933-5.146-3.062-8.273c-0.001-0.002-0.001-0.004-0.002-0.006c3.252,11.084,8.932,24.883,18.845,39.281
			c-3.908-5.754-7.394-11.814-10.415-18.141C234.668,764.35,234.686,764.537,234.686,764.537z"/>
		<polygon fill="#FF0000" points="261.304,801.914 261.304,801.914 261.303,801.914 		"/>
		<path fill="#FF0000" d="M322.071,720.311c0.011,0.025,0.021,0.053,0.032,0.078C322.093,720.363,322.083,720.336,322.071,720.311z"
			/>
		<path fill="#FF0000" d="M306.904,789.119c27.334-14.84,28.082-52.176,28.082-52.176s-0.034-0.025-0.1-0.078
			c-5.545-4.252-9.973-9.891-12.749-16.4c-0.009-0.021-0.02-0.041-0.028-0.061c-0.002-0.006-0.004-0.01-0.006-0.016
			c-0.011-0.025-0.021-0.053-0.032-0.078c-0.153-0.363-0.299-0.736-0.439-1.113c-1.763-4.553-2.74-9.492-2.74-14.66v-0.924
			c-0.18-3.811-0.057-6.75-0.014-7.576c-0.173,2.283-2.622,20.326-36.965,29.824c-22.308,6.172-39.672,1.955-49.874-2.303
			c0,0.189,0,0.307,0,0.307c0,11.709,2.249,36.387,2.599,40.164c3.021,6.326,6.507,12.387,10.415,18.141
			c4.493,6.523,9.849,13.17,16.249,19.744c0,0,0.001,0,0.001,0C261.306,801.914,279.57,803.957,306.904,789.119z"/>
		<path fill="#FF0000" d="M231.949,758.033c-0.746-1.855-1.644-4.146-2.676-6.865C230.104,753.486,230.999,755.773,231.949,758.033z
			"/>
		<path fill="#FF0000" d="M318.892,695.795c0,0-0.006,0.09-0.014,0.242C318.89,695.879,318.892,695.795,318.892,695.795z"/>
		<path fill="#FF0000" d="M460.26,799.541v-0.004c-0.017,0.018-0.033,0.037-0.051,0.055
			C460.227,799.574,460.243,799.559,460.26,799.541z"/>
		<path fill="#FF0000" d="M450.765,808.684c-0.148,0.131-0.294,0.264-0.443,0.395C450.47,808.945,450.617,808.816,450.765,808.684z"
			/>
		<path fill="#FF0000" d="M388.347,733.373c0.065-0.064,0.126-0.129,0.19-0.193c1.575-1.59,3.014-3.312,4.311-5.143
			c-2.178,2.822-6.025,6.885-12.631,11.611h0.001c2.97-1.75,5.704-3.857,8.131-6.275H388.347z"/>
		<path fill="#FF0000" d="M394.519,838.549c0,0,25.055-2.322,55.545-29.248C434.255,822.969,415.332,833.123,394.519,838.549
			L394.519,838.549z"/>
		<path fill="#FF0000" d="M393.167,727.617c-0.102,0.137-0.208,0.277-0.319,0.42c-1.297,1.83-2.735,3.553-4.311,5.143
			C390.342,731.395,391.873,729.518,393.167,727.617z"/>
		<path fill="#FF0000" d="M438.495,739.648c-15.421-9.512-31.293-13.549-38.716-15.033c-5.337,5.74-11.407,8.746-11.431,8.758
			c-2.427,2.418-5.161,4.525-8.131,6.275c0.029,0.006,24.698,4.975,28.6,35.414c3.905,30.453-14.294,63.479-14.299,63.486
			c20.813-5.426,39.736-15.58,55.545-29.248c0.087-0.076,0.172-0.146,0.258-0.223c0.149-0.131,0.295-0.264,0.443-0.395
			c3.102-2.77,6.256-5.789,9.444-9.092c0.018-0.018,0.034-0.037,0.051-0.055C460.258,799.402,459.552,752.635,438.495,739.648z"/>
		<path fill="#B3B3B3" d="M222.35,128.515c0.05-0.222,0.101-0.443,0.153-0.664C222.451,128.074,222.399,128.295,222.35,128.515z"/>
		<path fill="#B3B3B3" d="M221.794,131.366c0.039-0.24,0.085-0.478,0.128-0.717C221.879,130.889,221.833,131.133,221.794,131.366z"
			/>
		<path fill="#B3B3B3" d="M221.149,139.264c0-2.387,0.18-4.732,0.51-7.028C221.03,136.483,221.149,139.264,221.149,139.264z"/>
		<path fill="#B3B3B3" d="M247.293,96.001c-15.723,8.08-22.017,21.088-24.517,30.738
			C226.305,113.396,235.335,102.297,247.293,96.001z"/>
		<path fill="#B3B3B3" d="M221.851,718.049c-0.353-3.627-0.571-7.291-0.638-10.992c-0.041-0.834-0.063-1.674-0.063-2.52
			c0,0-0.403,23.219,5.06,38.352c-4.358-14.859-4.361-24.842-4.361-24.842S221.85,718.049,221.851,718.049z"/>
		<path fill="#FFFFFF" d="M232.04,307.145c0-20.73,0-40.519,0-58.855c-10.887-3.854-10.89-8.747-10.89-8.747v57.086
			C221.149,296.63,221.911,302.518,232.04,307.145z"/>
		<path fill="#B3B3B3" d="M232.04,307.145c0-20.73,0-40.519,0-58.855c-10.887-3.854-10.89-8.747-10.89-8.747v57.086
			C221.149,296.63,221.911,302.518,232.04,307.145z"/>
		<path fill="#FFFFFF" d="M232.04,181.709c0-28.328,0-46.844,0-50.59c0-22.807,20.522-37.502,20.522-37.502
			c-1.87,0.731-3.614,1.534-5.269,2.384c-11.958,6.295-20.988,17.395-24.517,30.738c-0.098,0.376-0.187,0.745-0.273,1.111
			c-0.053,0.221-0.104,0.442-0.153,0.664c-0.165,0.74-0.305,1.449-0.428,2.134c-0.042,0.239-0.089,0.477-0.128,0.717
			c-0.05,0.299-0.092,0.584-0.134,0.871c-0.331,2.296-0.51,4.641-0.51,7.028v31.93C221.149,171.194,221.911,177.082,232.04,181.709z
			"/>
		<path fill="#B3B3B3" d="M232.04,181.709c0-28.328,0-46.844,0-50.59c0-22.807,20.522-37.502,20.522-37.502
			c-1.87,0.731-3.614,1.534-5.269,2.384c-11.958,6.295-20.988,17.395-24.517,30.738c-0.098,0.376-0.187,0.745-0.273,1.111
			c-0.053,0.221-0.104,0.442-0.153,0.664c-0.165,0.74-0.305,1.449-0.428,2.134c-0.042,0.239-0.089,0.477-0.128,0.717
			c-0.05,0.299-0.092,0.584-0.134,0.871c-0.331,2.296-0.51,4.641-0.51,7.028v31.93C221.149,171.194,221.911,177.082,232.04,181.709z
			"/>
		<path fill="#FFFFFF" d="M232.04,436.382c0-20.964,0-41.988,0-62.656c-10.887-3.854-10.89-8.747-10.89-8.747v60.888
			C221.149,425.867,221.911,431.755,232.04,436.382z"/>
		<path fill="#B3B3B3" d="M232.04,436.382c0-20.964,0-41.988,0-62.656c-10.887-3.854-10.89-8.747-10.89-8.747v60.888
			C221.149,425.867,221.911,431.755,232.04,436.382z"/>
		<path fill="#FFFFFF" d="M221.851,718.049c0.022,0.018,3.626,2.771,10.189,5.51c0-3.48,0-38.637,0-90.273
			c-10.887-3.854-10.89-8.746-10.89-8.746v58.822v21.176c0,0.846,0.022,1.686,0.063,2.52
			C221.279,710.758,221.498,714.422,221.851,718.049z"/>
		<path fill="#B3B3B3" d="M221.851,718.049c0.022,0.018,3.626,2.771,10.189,5.51c0-3.48,0-38.637,0-90.273
			c-10.887-3.854-10.89-8.746-10.89-8.746v58.822v21.176c0,0.846,0.022,1.686,0.063,2.52
			C221.279,710.758,221.498,714.422,221.851,718.049z"/>
		<path fill="#FFFFFF" d="M232.04,566.705c0-20.297,0-41.72,0-63.741c-10.887-3.854-10.89-8.747-10.89-8.747v61.973
			C221.149,556.189,221.911,562.078,232.04,566.705z"/>
		<path fill="#B3B3B3" d="M232.04,566.705c0-20.297,0-41.72,0-63.741c-10.887-3.854-10.89-8.747-10.89-8.747v61.973
			C221.149,556.189,221.911,562.078,232.04,566.705z"/>
		<path fill="#FF0000" d="M232.04,248.29c0-25.45,0-48.105,0-66.581c-10.128-4.627-10.89-10.515-10.89-10.515v68.349
			C221.149,239.543,221.153,244.436,232.04,248.29z"/>
		<path fill="#C2000B" d="M232.04,248.29c0-25.45,0-48.105,0-66.581c-10.128-4.627-10.89-10.515-10.89-10.515v68.349
			C221.149,239.543,221.153,244.436,232.04,248.29z"/>
		<path fill="#FF0000" d="M232.04,373.726c0-22.819,0-45.197,0-66.581c-10.128-4.627-10.89-10.515-10.89-10.515v68.349
			C221.149,364.979,221.153,369.872,232.04,373.726z"/>
		<path fill="#C2000B" d="M232.04,373.726c0-22.819,0-45.197,0-66.581c-10.128-4.627-10.89-10.515-10.89-10.515v68.349
			C221.149,364.979,221.153,369.872,232.04,373.726z"/>
		<path fill="#FF0000" d="M232.04,502.964c0-21.781,0-44.146,0-66.582c-10.128-4.627-10.89-10.515-10.89-10.515v68.35
			C221.149,494.217,221.153,499.109,232.04,502.964z"/>
		<path fill="#C2000B" d="M232.04,502.964c0-21.781,0-44.146,0-66.582c-10.128-4.627-10.89-10.515-10.89-10.515v68.35
			C221.149,494.217,221.153,499.109,232.04,502.964z"/>
		<path fill="#FF0000" d="M232.04,633.285c0-20.018,0-42.502,0-66.58c-10.128-4.627-10.89-10.516-10.89-10.516v68.35
			C221.149,624.539,221.153,629.432,232.04,633.285z"/>
		<path fill="#C2000B" d="M232.04,633.285c0-20.018,0-42.502,0-66.58c-10.128-4.627-10.89-10.516-10.89-10.516v68.35
			C221.149,624.539,221.153,629.432,232.04,633.285z"/>
		<path fill="#FF0000" d="M229.273,751.168c-3.771-10.514-6.303-21.613-7.422-33.119c0,0-0.003-0.002-0.003-0.002
			s0.003,9.982,4.361,24.842c0.001,0.002,0.001,0.004,0.002,0.006C227.34,746.021,228.358,748.76,229.273,751.168z"/>
		<path fill="#B3B3B3" d="M229.273,751.168c-3.771-10.514-6.303-21.613-7.422-33.119c0,0-0.003-0.002-0.003-0.002
			s0.003,9.982,4.361,24.842c0.001,0.002,0.001,0.004,0.002,0.006C227.34,746.021,228.358,748.76,229.273,751.168z"/>
		<path fill="#FF0000" d="M234.686,764.537c0,0-0.018-0.188-0.047-0.508c-0.942-1.973-1.839-3.973-2.69-5.996
			C233.74,762.492,234.686,764.537,234.686,764.537z"/>
		<path fill="#B3B3B3" d="M234.686,764.537c0,0-0.018-0.188-0.047-0.508c-0.942-1.973-1.839-3.973-2.69-5.996
			C233.74,762.492,234.686,764.537,234.686,764.537z"/>
		<path fill="#FF0000" d="M229.273,751.168c1.032,2.719,1.93,5.01,2.676,6.865c0.851,2.023,1.748,4.023,2.69,5.996
			c-0.351-3.777-2.599-28.455-2.599-40.164c0,0,0-0.117,0-0.307c-6.563-2.738-10.167-5.492-10.189-5.51
			C222.97,729.555,225.502,740.654,229.273,751.168z"/>
		<path fill="#C2000B" d="M229.273,751.168c1.032,2.719,1.93,5.01,2.676,6.865c0.851,2.023,1.748,4.023,2.69,5.996
			c-0.351-3.777-2.599-28.455-2.599-40.164c0,0,0-0.117,0-0.307c-6.563-2.738-10.167-5.492-10.189-5.51
			C222.97,729.555,225.502,740.654,229.273,751.168z"/>
		<path fill="#B3B3B3" d="M416.94,576.625c0,0-0.025,0.023-0.064,0.059c0.021-0.018,0.041-0.035,0.062-0.053
			C416.938,576.629,416.939,576.627,416.94,576.625z"/>
		<path fill="#B3B3B3" d="M400.373,611.955c0,0.055,0,0.115,0,0.17c0.07-2.951,0.388-5.842,0.959-8.641
			C400.735,606.178,400.377,609.008,400.373,611.955z"/>
		<path fill="#B3B3B3" d="M400.282,706.73c0.003-0.062,0.007-0.123,0.01-0.186C400.289,706.602,400.285,706.666,400.282,706.73z"/>
		<path fill="#B3B3B3" d="M400.343,691.33v-44.66c-0.018,26.561-0.03,56.965-0.031,59.098c0.013-0.41,0.031-0.818,0.031-1.23V691.33
			z"/>
		<path fill="#B3B3B3" d="M394.162,726.07c3.333-5.328,5.464-11.475,6.022-18.066C399.851,711.488,398.624,718.799,394.162,726.07z"
			/>
		<path fill="#B3B3B3" d="M401.348,603.412c0.061-0.297,0.137-0.586,0.203-0.881C401.479,602.822,401.413,603.117,401.348,603.412z"
			/>
		<path fill="#FFFFFF" d="M395.456,723.865c0,0,1.596,0.205,4.323,0.75c4.189-4.506,7.925-10.697,7.925-18.449
			c0-1.857,0.012-4.426,0.033-7.523c-7.393-3.533-7.395-7.312-7.395-7.312v13.207c0,0.412-0.019,0.82-0.031,1.23
			c0,0.08,0,0.133,0,0.133s0,0.23-0.02,0.645c-0.003,0.062-0.007,0.123-0.01,0.186c-0.019,0.336-0.048,0.76-0.098,1.273
			c-0.559,6.592-2.689,12.738-6.022,18.066c-0.316,0.516-0.645,1.033-0.995,1.547C394.935,725.252,395.456,723.865,395.456,723.865z
			"/>
		<path fill="#B3B3B3" d="M395.456,723.865c0,0,1.596,0.205,4.323,0.75c4.189-4.506,7.925-10.697,7.925-18.449
			c0-1.857,0.012-4.426,0.033-7.523c-7.393-3.533-7.395-7.312-7.395-7.312v13.207c0,0.412-0.019,0.82-0.031,1.23
			c0,0.08,0,0.133,0,0.133s0,0.23-0.02,0.645c-0.003,0.062-0.007,0.123-0.01,0.186c-0.019,0.336-0.048,0.76-0.098,1.273
			c-0.559,6.592-2.689,12.738-6.022,18.066c-0.316,0.516-0.645,1.033-0.995,1.547C394.935,725.252,395.456,723.865,395.456,723.865z
			"/>
		<path fill="#FFFFFF" d="M408.467,632.076c0.181-14.395,0.322-25.01,0.322-25.01s1.503-16.324,8.148-30.436
			c-0.021,0.018-0.041,0.035-0.062,0.053c-0.896,0.832-11.704,11.1-15.325,25.848c-0.066,0.295-0.143,0.584-0.203,0.881
			c-0.006,0.023-0.011,0.049-0.016,0.072c-0.571,2.799-0.889,5.689-0.959,8.641c-0.004,2.791-0.009,6.547-0.013,10.959
			C400.5,623.799,401.605,628.123,408.467,632.076z"/>
		<path fill="#B3B3B3" d="M408.467,632.076c0.181-14.395,0.322-25.01,0.322-25.01s1.503-16.324,8.148-30.436
			c-0.021,0.018-0.041,0.035-0.062,0.053c-0.896,0.832-11.704,11.1-15.325,25.848c-0.066,0.295-0.143,0.584-0.203,0.881
			c-0.006,0.023-0.011,0.049-0.016,0.072c-0.571,2.799-0.889,5.689-0.959,8.641c-0.004,2.791-0.009,6.547-0.013,10.959
			C400.5,623.799,401.605,628.123,408.467,632.076z"/>
		<path fill="#FF0000" d="M407.737,698.643c0.109-15.729,0.462-45.277,0.729-66.566c-6.861-3.953-7.967-8.277-8.106-8.992
			c-0.006,6.717-0.012,14.945-0.018,23.586v44.66C400.343,691.33,400.345,695.109,407.737,698.643z"/>
		<path fill="#C2000B" d="M407.737,698.643c0.109-15.729,0.462-45.277,0.729-66.566c-6.861-3.953-7.967-8.277-8.106-8.992
			c-0.006,6.717-0.012,14.945-0.018,23.586v44.66C400.343,691.33,400.345,695.109,407.737,698.643z"/>
		<path fill="#FF0000" d="M388.537,733.18c-0.064,0.064-0.125,0.129-0.19,0.193h0.002
			C388.412,733.309,388.474,733.244,388.537,733.18z"/>
		<path fill="#B3B3B3" d="M388.537,733.18c-0.064,0.064-0.125,0.129-0.19,0.193h0.002
			C388.412,733.309,388.474,733.244,388.537,733.18z"/>
		<path fill="#FF0000" d="M393.167,727.617c-1.294,1.9-2.825,3.777-4.63,5.562c-0.063,0.064-0.125,0.129-0.188,0.193
			c0.023-0.012,6.094-3.018,11.431-8.758c-2.728-0.545-4.323-0.75-4.323-0.75S394.935,725.252,393.167,727.617z"/>
		<path fill="#C2000B" d="M393.167,727.617c-1.294,1.9-2.825,3.777-4.63,5.562c-0.063,0.064-0.125,0.129-0.188,0.193
			c0.023-0.012,6.094-3.018,11.431-8.758c-2.728-0.545-4.323-0.75-4.323-0.75S394.935,725.252,393.167,727.617z"/>
	</g>
	
		<circle fill="#FFFFFF" stroke="#FFFFFF" stroke-width="7.2125" stroke-linecap="round" stroke-linejoin="round" stroke-miterlimit="10" cx="335.629" cy="215.463" r="44.945"/>
	
		<circle stroke="#FFFFFF" stroke-width="8.1452" stroke-linecap="round" stroke-linejoin="round" stroke-miterlimit="10" cx="334.986" cy="215.257" r="40.866"/>
	
		<circle fill="#FFFFFF" stroke="#FFFFFF" stroke-width="8.1452" stroke-linecap="round" stroke-linejoin="round" stroke-miterlimit="10" cx="359.455" cy="213.296" r="3.645"/>
	<path d="M267.313,289.249c0,0,21.06,0.766,29.483-11.487c0,0,4.213,19.144-8.806,24.122
		C274.972,306.862,267.313,289.249,267.313,289.249z"/>
	
		<circle fill="#FFFFFF" stroke="#FFFFFF" stroke-width="7.3784" stroke-linecap="round" stroke-linejoin="round" stroke-miterlimit="10" cx="207.822" cy="215.429" r="45.979"/>
	
		<circle stroke="#FFFFFF" stroke-width="8.1452" stroke-linecap="round" stroke-linejoin="round" stroke-miterlimit="10" cx="207.921" cy="215.257" r="40.867"/>
	
		<circle fill="#FFFFFF" stroke="#FFFFFF" stroke-width="8.1452" stroke-linecap="round" stroke-linejoin="round" stroke-miterlimit="10" cx="229.855" cy="214.916" r="5.265"/>
	<path fill="#FFFFFF" d="M420.703,403.975c11.438,0.956,21.487-7.537,22.443-18.98l2.027-24.237
		c0.955-11.439-7.544-21.488-18.982-22.443l0,0c-11.434-0.958-21.484,7.543-22.44,18.985l-2.027,24.237
		C400.768,392.976,409.27,403.021,420.703,403.975L420.703,403.975z"/>
	
		<path fill="none" stroke="#FFFFFF" stroke-width="16.8422" stroke-linecap="round" stroke-linejoin="round" stroke-miterlimit="10" d="
		M340.121,292.661c0,0,48.226-20.359,64.716,23.993"/>
	<path fill="#FFFFFF" d="M105.096,426.06c-2.513,11.199,4.525,22.316,15.73,24.83l23.731,5.325
		c11.201,2.511,22.318-4.533,24.829-15.733l0,0c2.514-11.195-4.532-22.314-15.736-24.828l-23.731-5.324
		C118.719,407.816,107.604,414.864,105.096,426.06L105.096,426.06z"/>
	
		<path fill="none" stroke="#FFFFFF" stroke-width="16.8422" stroke-linecap="round" stroke-linejoin="round" stroke-miterlimit="10" d="
		M242.029,364.144c0,0-2.073,47.881-48.263,58.148"/>
	<g>
		<path fill="#FFFFFF" d="M254.895,228.986l-1.094-1.208l-7.68-12.534c0.988-0.869,10.14-8.485,26.917-8.485
			c16.603,0,23.139,5.495,24.458,6.749l-5.475,12.877c0,0-1.507,1.826-1.337,1.961c-0.041-0.032-7.463-5.273-17.646-5.273
			C262.439,223.074,255.121,228.802,254.895,228.986z"/>
	</g>
	<path d="M221.66,132.236c0,0,8.805,28.4,63.248,23.282s51.267-20.671,32.505-28.223L221.66,132.236z"/>
	<path fill="#0B0146" d="M221.66,132.236c0,0,24.842,8.55,46.956,9.287s48.797-14.228,48.797-14.228s51.945-41.549,4.031-50.64
		S190.97,63.142,204.976,91.89S221.66,132.236,221.66,132.236z"/>
</g>
<g id="Calque_2">
	
		<path fill="#F2F2F2" stroke="#FFFFFF" stroke-width="8.1452" stroke-linecap="round" stroke-linejoin="round" stroke-miterlimit="10" d="
		M580.468,439.171c0,26.604-21.566,48.169-48.17,48.169H397.596c-26.603,0-48.168-21.565-48.168-48.169l0,0
		c0-26.603,21.565-48.169,48.168-48.169h134.702C558.901,391.002,580.468,412.568,580.468,439.171L580.468,439.171z"/>
</g>
<g id="texte">
</g>
<g id="Calque_3">
	<path fill="#FFFFFF" d="M493.191,392.085c10.184-14.884,6.376-35.202-8.506-45.386l-27.766-19.001
		c-14.881-10.187-35.195-6.375-45.382,8.506l0,0c-10.185,14.882-6.379,35.199,8.503,45.384l27.764,19
		C462.686,410.775,483.004,406.966,493.191,392.085L493.191,392.085z"/>
	<path fill="#FFFFFF" d="M106.954,499.493c13.351,12.125,33.998,11.133,46.123-2.215l22.621-24.904
		c12.127-13.347,11.132-33.992-2.216-46.119l0,0c-13.348-12.125-33.995-11.135-46.12,2.213l-22.621,24.903
		C92.615,466.716,93.607,487.365,106.954,499.493L106.954,499.493z"/>
</g>
</svg>
