<?xml version="1.0" encoding="utf-8"?>
<!-- Generator: Adobe Illustrator 16.0.4, SVG Export Plug-In . SVG Version: 6.00 Build 0)  -->
<!DOCTYPE svg PUBLIC "-//W3C//DTD SVG 1.1//EN" "http://www.w3.org/Graphics/SVG/1.1/DTD/svg11.dtd">
<svg version="1.1" id="Calque_1" xmlns="http://www.w3.org/2000/svg" xmlns:xlink="http://www.w3.org/1999/xlink" x="0px" y="0px"
	 width="300px" height="300px" viewBox="0 0 300 300" enable-background="new 0 0 300 300" xml:space="preserve">
<path fill="#467F9F" d="M278.326,165.871c0-5.124-47.065-9.365-108.357-10.085l0.04,15.53l0.012,4.639
	C231.288,175.233,278.326,170.994,278.326,165.871z"/>
<path fill="#467F9F" d="M138.479,155.73c-63.977,0.521-113.901,4.862-113.901,10.141c0,5.279,49.951,9.621,113.953,10.141
	l-0.012-4.615L138.479,155.73z"/>
<path fill="#FFFFFF" d="M154.122,115.618c-6.198,0.016-9.958-0.639-12.237-1.439c0.014,5.906,0.03,12.283,0.047,18.959
	c2.113,0.961,5.493,1.748,10.886,1.734c13.727-0.035,17.085-5.191,17.085-5.191l-0.044-18.104
	C169.859,111.577,169.869,115.581,154.122,115.618z"/>
<path fill="#FFFFFF" d="M141.788,76.429c0.004,1.209,0.019,7.173,0.042,16.3c2.114,0.959,5.493,1.744,10.886,1.732
	c13.726-0.035,17.087-5.191,17.087-5.191l-0.027-10.286c-0.021-8.696-7.088-15.728-15.784-15.704
	c-2.644,0.006-5.133,0.666-7.317,1.823c0.532-0.274,1.093-0.535,1.696-0.772C148.371,64.332,141.77,69.083,141.788,76.429z"/>
<path fill="#FFFFFF" d="M141.986,154.588c0.001,0.37,0.002,0.747,0.003,1.118c1.729-0.011,3.469-0.018,5.217-0.022
	C144.922,155.418,143.231,155.025,141.986,154.588z"/>
<path fill="#FFFFFF" d="M146.58,176.057c1.725,0.282,3.804,0.457,6.344,0.449c2.481-0.006,4.619-0.182,6.464-0.462
	c-2.625,0.013-5.27,0.021-7.936,0.021C149.82,176.064,148.197,176.062,146.58,176.057z"/>
<path fill="#FFFFFF" d="M160.938,155.706c3.042,0.019,6.053,0.045,9.031,0.08l-0.01-3.8
	C169.959,151.986,169.957,154.746,160.938,155.706z"/>
<path fill="#FFFFFF" d="M154.225,156.031c-2.813,0.006-5.12-0.127-7.019-0.348c-1.748,0.005-3.488,0.012-5.217,0.022
	c0.015,6.301,0.031,12.688,0.047,19.069c1.119,0.509,2.605,0.963,4.544,1.281c1.617,0.005,3.24,0.008,4.872,0.008
	c2.666,0,5.311-0.008,7.936-0.021c8.362-1.27,10.621-4.728,10.621-4.728l-0.04-15.53c-2.979-0.035-5.989-0.062-9.031-0.08
	C159.098,155.901,156.893,156.024,154.225,156.031z"/>
<path fill="#FF0000" d="M152.717,94.462c-5.394,0.012-8.772-0.773-10.886-1.732c0.014,5.951,0.033,13.25,0.054,21.449
	c2.28,0.801,6.039,1.455,12.237,1.439c15.747-0.037,15.737-4.041,15.737-4.041l-0.056-22.306
	C169.804,89.271,166.442,94.427,152.717,94.462z"/>
<path fill="#FF0000" d="M152.818,134.872c-5.394,0.014-8.773-0.773-10.886-1.734c0.017,6.891,0.035,14.102,0.054,21.45
	c1.245,0.438,2.936,0.83,5.22,1.096c1.411-0.003,2.824-0.006,4.246-0.006c3.191,0,6.354,0.01,9.485,0.028
	c9.02-0.96,9.021-3.72,9.021-3.72l-0.056-22.306C169.903,129.681,166.545,134.837,152.818,134.872z"/>
<path fill="#FF0000" d="M160.938,155.706c-3.132-0.019-6.294-0.028-9.485-0.028c-1.422,0-2.835,0.003-4.246,0.006
	c1.898,0.221,4.205,0.354,7.019,0.348C156.893,156.024,159.098,155.901,160.938,155.706z"/>
<path fill="#FF0000" d="M170.021,175.955c-3.5,0.042-7.046,0.071-10.633,0.089c-1.845,0.28-3.982,0.456-6.464,0.462
	c-2.54,0.008-4.619-0.167-6.344-0.449c-1.52-0.005-3.035-0.012-4.541-0.021"/>
<path fill="#FF0000" d="M142.04,176.036c1.506,0.009,3.021,0.016,4.541,0.021c-1.938-0.318-3.425-0.772-4.544-1.281
	C142.037,175.196,142.038,175.616,142.04,176.036z"/>
<path fill="#FF0000" d="M159.388,176.044c3.587-0.018,7.133-0.047,10.633-0.089l-0.012-4.639
	C170.009,171.316,167.75,174.774,159.388,176.044z"/>
<path fill="#B3B3B3" d="M138.287,79.064c-0.002-0.771,0.055-1.523,0.159-2.266C138.247,78.167,138.287,79.064,138.287,79.064z"/>
<path fill="#B3B3B3" d="M146.675,65.104c-5.06,2.616-7.075,6.812-7.873,9.923C139.927,70.726,142.828,67.142,146.675,65.104z"/>
<path fill="#B3B3B3" d="M141.932,133.138c-0.018-6.676-0.033-13.053-0.047-18.959c-3.511-1.232-3.515-2.809-3.515-2.809
	l0.045,18.391C138.416,129.761,138.664,131.655,141.932,133.138z"/>
<path fill="#B3B3B3" d="M141.831,92.729c-0.024-9.127-0.039-15.091-0.042-16.3c-0.018-7.346,6.583-12.098,6.583-12.098
	c-0.604,0.237-1.164,0.498-1.696,0.772c-3.847,2.038-6.748,5.622-7.873,9.923c-0.032,0.121-0.06,0.24-0.087,0.357
	c-0.016,0.07-0.033,0.143-0.048,0.216c-0.052,0.237-0.097,0.466-0.137,0.688c-0.013,0.075-0.029,0.153-0.041,0.23
	c-0.015,0.096-0.03,0.188-0.042,0.28c-0.104,0.742-0.161,1.495-0.159,2.266l0.025,10.286
	C138.312,89.35,138.564,91.246,141.831,92.729z"/>
<path fill="#B3B3B3" d="M141.986,154.588c-3.511-1.23-3.518-2.809-3.518-2.809l0.01,3.951c1.165-0.01,2.336-0.018,3.51-0.024
	C141.988,155.335,141.987,154.958,141.986,154.588z"/>
<path fill="#B3B3B3" d="M142.036,174.775c-0.016-6.381-0.032-12.769-0.047-19.069c-1.174,0.007-2.345,0.015-3.51,0.024l0.041,15.666
	C138.52,171.396,138.77,173.291,142.036,174.775z"/>
<path fill="#C2000B" d="M141.885,114.179c-0.021-8.199-0.04-15.498-0.054-21.449c-3.267-1.484-3.518-3.379-3.518-3.379l0.058,22.02
	C138.37,111.37,138.374,112.946,141.885,114.179z"/>
<path fill="#C2000B" d="M141.986,154.588c-0.02-7.349-0.037-14.56-0.054-21.45c-3.268-1.482-3.517-3.377-3.517-3.377l0.053,22.019
	C138.469,151.779,138.475,153.357,141.986,154.588z"/>
<path fill="#C2000B" d="M142.04,176.036c-1.174-0.007-2.344-0.015-3.508-0.024"/>
<path fill="#C2000B" d="M142.036,174.775c-3.267-1.484-3.517-3.379-3.517-3.379l0.012,4.615c1.165,0.01,2.334,0.018,3.508,0.024
	C142.038,175.616,142.037,175.196,142.036,174.775z"/>
<path d="M150.756,124.479c0,0,6.449,0.001,10.179-0.588c0,0-0.614,6.285-5.097,6.517
	C151.353,130.64,150.756,124.479,150.756,124.479z"/>
<path fill="#FFFFFF" d="M179.278,203.638c9.688,0.064,17.401-8.268,17.238-18.621l-0.378-40.059
	c-0.164-10.353-8.158-18.803-17.845-18.867l0,0c-9.679-0.066-17.398,8.268-17.232,18.631l0.376,40.054
	C161.61,195.126,169.598,203.564,179.278,203.638L179.278,203.638z"/>
<g>
	
		<circle fill="#FFFFFF" stroke="#FFFFFF" stroke-width="2.7462" stroke-linecap="round" stroke-linejoin="round" stroke-miterlimit="10" cx="180.606" cy="106.188" r="17.112"/>
	
		<circle stroke="#FFFFFF" stroke-width="3.1013" stroke-linecap="round" stroke-linejoin="round" stroke-miterlimit="10" cx="177.813" cy="104.863" r="15.559"/>
	
		<path fill="#FFFFFF" stroke="#FFFFFF" stroke-width="3.1013" stroke-linecap="round" stroke-linejoin="round" stroke-miterlimit="10" d="
		M175.546,101.526c0.006,0.766-0.61,1.395-1.377,1.404c-0.766,0.004-1.393-0.613-1.398-1.379c-0.007-0.766,0.608-1.393,1.377-1.398
		C174.913,100.144,175.538,100.761,175.546,101.526z"/>
	
		<circle fill="#FFFFFF" stroke="#FFFFFF" stroke-width="2.8094" stroke-linecap="round" stroke-linejoin="round" stroke-miterlimit="10" cx="131.945" cy="106.584" r="17.507"/>
	<path stroke="#FFFFFF" stroke-width="3.1013" stroke-linecap="round" stroke-linejoin="round" stroke-miterlimit="10" d="
		M144.995,105.14c0.07,8.594-6.838,15.619-15.43,15.691c-8.594,0.072-15.619-6.836-15.691-15.428
		c-0.072-8.594,6.835-15.619,15.43-15.692C137.894,89.638,144.921,96.546,144.995,105.14z"/>
	
		<path fill="#FFFFFF" stroke="#FFFFFF" stroke-width="3.1013" stroke-linecap="round" stroke-linejoin="round" stroke-miterlimit="10" d="
		M132.231,102.511c0.009,1.105-0.881,2.012-1.988,2.018c-1.107,0.012-2.014-0.877-2.021-1.984c-0.01-1.107,0.88-2.014,1.988-2.021
		C131.319,100.515,132.223,101.403,132.231,102.511z"/>
	<g>
		<path fill="#FFFFFF" d="M149.912,111.595l-0.421-0.455l-2.965-4.75c0.373-0.332,3.834-3.26,10.221-3.314
			c6.323-0.055,5.769,0.611,6.275,1.082l1.018,6.328c0,0-0.57,0.701-0.504,0.75c-0.015-0.012-2.857-1.982-6.738-1.949
			C152.765,109.319,149.997,111.526,149.912,111.595z"/>
	</g>
</g>
<path fill="#FFFFFF" d="M234.979,189.713c-0.062-18.399-11.051-33.365-24.546-33.447l-25.18-0.141
	c-13.499-0.073-24.386,14.77-24.327,33.157l0,0c0.061,18.399,11.051,33.369,24.545,33.444l25.18,0.15
	C224.148,222.951,235.039,208.105,234.979,189.713L234.979,189.713z"/>
<path fill="#FFFFFF" d="M83.04,160.459c-0.168-7.572,6.411-14.265,14.693-14.954l15.452-1.283c8.285-0.688,15.132,4.887,15.3,12.455
	l0,0c0.166,7.572-6.413,14.265-14.694,14.952l-15.451,1.287C90.057,173.604,83.208,168.028,83.04,160.459L83.04,160.459z"/>
<path fill="none" stroke="#FFFFFF" stroke-width="5.4259" stroke-linecap="round" stroke-linejoin="round" stroke-miterlimit="10" d="
	M133.228,136.573c0,0-10.228,0-14.962,10.915"/>
<g>
	<path d="M138.29,71.903c0,0,3.234,9.017,20.686,6.604c17.449-2.412,16.209-7.374,10.062-9.54L138.29,71.903z"/>
	<path fill="#0B0146" d="M138.29,71.903c0,0,8.116,2.401,15.244,2.328c7.128-0.074,15.504-5.265,15.504-5.265
		s16.137-14.104,0.586-16.355c-15.548-2.253-42.182-2.517-37.271,6.539C137.267,68.207,138.29,71.903,138.29,71.903z"/>
</g>
</svg>
