<?xml version="1.0" encoding="utf-8"?>
<!-- Generator: Adobe Illustrator 16.0.4, SVG Export Plug-In . SVG Version: 6.00 Build 0)  -->
<!DOCTYPE svg PUBLIC "-//W3C//DTD SVG 1.1//EN" "http://www.w3.org/Graphics/SVG/1.1/DTD/svg11.dtd">
<svg version="1.1" xmlns="http://www.w3.org/2000/svg" xmlns:xlink="http://www.w3.org/1999/xlink" x="0px" y="0px" width="600px"
	 height="1000px" viewBox="0 0 600 1000" enable-background="new 0 0 600 1000" xml:space="preserve">
<g id="Calque_1">
	<rect fill="#579BCC" width="600" height="1000"/>
	<path fill="#437A99" d="M408.493,543.967c-12.377,0-23.669,4.609-32.278,12.191c0.003-0.002,0.003-0.004,0.003-0.006
		c0,0-0.025,0.025-0.066,0.062c-7.557,6.678-13.026,15.654-15.32,25.838c-0.073,0.295-0.14,0.596-0.207,0.893
		c-0.003,0.02-0.009,0.041-0.013,0.062c-0.598,2.693-0.954,5.523-0.961,8.475c0,0.055,0,0.115,0,0.17
		c-0.01,0.396-0.028,0.789-0.028,1.186v9.668v23.389c-0.02,26.725-0.032,57.477-0.032,59.422c-0.006,0.227-0.006,0.455-0.019,0.682
		c-0.003,0.115-0.013,0.252-0.022,0.402c-0.016,0.299-0.045,0.594-0.066,0.891c-0.3,3.393-1.486,10.959-6.15,18.475
		c-0.128,0.201-0.255,0.404-0.389,0.604c-0.238,0.373-0.502,0.742-0.76,1.113c-2.164,2.824-6.011,6.914-12.689,11.691l0,0
		c-6.048,3.562-13.086,5.617-20.598,5.617c-9.297,0-17.871-3.139-24.734-8.402c-0.977-0.785-8.86-7.312-12.775-16.459l0,0
		c-2.222-5.193-2.986-11.812-3.218-16.883v-78.094v-69.238V474.63v-69.237v-60v-69.237v-56.198V150.72v-31.93
		c0-26.991-21.88-48.871-48.871-48.871c-6.154,0-12.037,1.148-17.461,3.225l0.001-0.001c-0.005,0.002-0.009,0.004-0.014,0.006
		c-1.798,0.688-3.543,1.479-5.231,2.367c-15.74,8.079-22.04,21.096-24.541,30.751c-0.097,0.368-0.183,0.738-0.272,1.109
		c-0.052,0.224-0.103,0.445-0.152,0.664c-0.159,0.708-0.303,1.424-0.43,2.144c-0.043,0.238-0.089,0.479-0.127,0.709
		c-0.047,0.289-0.092,0.578-0.133,0.87c-0.63,4.247-0.511,7.028-0.511,7.028v31.93v68.35v57.086v68.35v60.888v68.35v61.972v68.35
		v58.822v21.178c0,0-0.403,23.225,5.062,38.357c0.013,0.033,0.024,0.062,0.035,0.096c3.29,11.186,9.042,25.109,19.12,39.631
		c0.921,1.344,1.884,2.656,2.849,3.965c0.026,0.035,0.048,0.068,0.073,0.102c3.682,4.98,7.69,9.699,11.99,14.139
		c0.347,0.361,0.673,0.727,1.025,1.086c0,0,0.019,0.002,0.033,0.004c25.099,25.346,59.872,41.088,98.281,41.088
		c12.052,0,23.748-1.555,34.903-4.463l-0.004,0.006c0,0,25.912-2.408,57.1-30.645c2.542-2.266,4.995-4.625,7.362-7.07
		c0.426-0.434,0.853-0.85,1.279-1.293c0,0,0-0.035,0-0.047c23.424-24.811,37.827-58.223,37.827-94.955v-12.32v-69.238v-9.668
		C457.364,565.848,435.483,543.967,408.493,543.967z"/>
	<g>
		<path fill="#FFFFFF" d="M270.021,212.61c-19.246,0-30.909-2.065-37.981-4.569c0,18.336,0,38.125,0,58.855
			c6.556,2.995,17.036,5.462,33.778,5.462c42.607,0,53.074-15.978,53.074-15.978v-56.199
			C318.892,200.183,318.892,212.61,270.021,212.61z"/>
		<path fill="#FFFFFF" d="M401.332,563.236c0.005-0.023,0.01-0.049,0.016-0.072C401.343,563.188,401.337,563.213,401.332,563.236z"
			/>
		<path fill="#FFFFFF" d="M232.04,90.871c0,3.747,0,22.263,0,50.59c6.556,2.995,17.036,5.462,33.778,5.462
			c42.607,0,53.074-15.978,53.074-15.978v-31.93c0-26.99-21.881-48.871-48.871-48.871c-8.208,0-15.937,2.033-22.728,5.608
			c1.654-0.85,3.398-1.653,5.269-2.384C252.562,53.369,232.04,68.064,232.04,90.871z"/>
		<path fill="#FFFFFF" d="M400.185,667.756c0.05-0.514,0.079-0.938,0.098-1.273C400.259,666.91,400.221,667.332,400.185,667.756z"/>
		<path fill="#FFFFFF" d="M321.632,678.949c0.141,0.377,0.286,0.75,0.439,1.113C321.917,679.695,321.776,679.322,321.632,678.949z"
			/>
		<path fill="#FFFFFF" d="M222.503,87.602c0.086-0.366,0.175-0.734,0.273-1.111C222.679,86.859,222.592,87.231,222.503,87.602z"/>
		<path fill="#FFFFFF" d="M318.892,663.365v-7.818c0,0-0.002,0.084-0.014,0.242C318.835,656.615,318.712,659.555,318.892,663.365z"
			/>
		<path fill="#FFFFFF" d="M322.138,680.217c-0.011-0.025-0.023-0.051-0.034-0.076c0.002,0.006,0.004,0.01,0.006,0.016
			C322.118,680.176,322.129,680.195,322.138,680.217z"/>
		<path fill="#FFFFFF" d="M416.876,536.436c-7.56,6.68-13.03,15.66-15.325,25.848C405.172,547.535,415.979,537.268,416.876,536.436z
			"/>
		<path fill="#FFFFFF" d="M221.922,90.4c0.123-0.685,0.264-1.395,0.428-2.134C222.191,88.972,222.05,89.683,221.922,90.4z"/>
		<path fill="#FFFFFF" d="M270.021,597.605c-19.246,0-30.909-2.064-37.981-4.568c0,51.637,0,86.793,0,90.273
			c10.201,4.258,27.566,8.475,49.874,2.303c34.343-9.498,36.792-27.541,36.965-29.824c0.008-0.152,0.014-0.242,0.014-0.242v-70.369
			C318.892,585.178,318.892,597.605,270.021,597.605z"/>
		<path fill="#FFFFFF" d="M270.021,467.284c-19.246,0-30.909-2.065-37.981-4.568c0,22.021,0,43.445,0,63.742
			c6.556,2.994,17.036,5.461,33.778,5.461c42.607,0,53.074-15.977,53.074-15.977v-61.085
			C318.892,454.856,318.892,467.284,270.021,467.284z"/>
		<path fill="#FFFFFF" d="M270.021,338.046c-19.246,0-30.909-2.065-37.981-4.569c0,20.668,0,41.692,0,62.656
			c6.556,2.996,17.036,5.463,33.778,5.463c42.607,0,53.074-15.978,53.074-15.978v-60
			C318.892,325.618,318.892,338.046,270.021,338.046z"/>
		<path fill="#FFFFFF" d="M400.373,571.877c-0.01,0.395-0.03,0.789-0.03,1.188v9.668c0,0,0.005,0.035,0.018,0.104
			C400.364,578.424,400.369,574.668,400.373,571.877z"/>
		<path fill="#FFFFFF" d="M400.312,665.52c-0.008,0.26-0.007,0.52-0.02,0.777c0.02-0.414,0.02-0.645,0.02-0.645
			S400.312,665.6,400.312,665.52z"/>
		<path fill="#FFFFFF" d="M221.66,91.988c0.042-0.286,0.084-0.571,0.134-0.871C221.747,91.407,221.702,91.697,221.66,91.988z"/>
		<path fill="#FFFFFF" d="M394.162,685.822c-0.419,0.67-0.858,1.324-1.314,1.967c0.111-0.143,0.218-0.283,0.319-0.42
			C393.518,686.855,393.846,686.338,394.162,685.822z"/>
		<path fill="#FFFFFF" d="M450.765,768.436c3.289-2.883,6.441-5.916,9.444-9.092C457.021,762.646,453.866,765.666,450.765,768.436z"
			/>
		<path fill="#FFFFFF" d="M408.817,734.814c-3.901-30.439-28.57-35.408-28.6-35.414c-6.048,3.562-13.087,5.615-20.601,5.615
			c-9.296,0-17.868-3.137-24.73-8.398c0.065,0.053,0.1,0.078,0.1,0.078s-0.748,37.336-28.082,52.176
			c-27.334,14.838-45.599,12.795-45.6,12.795c25.1,25.355,59.896,41.092,98.313,41.092c12.052,0,23.747-1.551,34.901-4.457
			C394.523,798.293,412.723,765.268,408.817,734.814z"/>
		<path fill="#FFFFFF" d="M449.214,664.396c-22.831,0-34.994-2.906-41.477-6.002c-0.021,3.098-0.033,5.666-0.033,7.523
			c0,7.752-3.735,13.943-7.925,18.449c7.423,1.484,23.295,5.521,38.716,15.033c21.057,12.986,21.763,59.754,21.765,59.889
			c23.435-24.812,37.825-58.256,37.825-95v-12.32C498.085,651.969,498.085,664.396,449.214,664.396z"/>
		<path fill="#FFFFFF" d="M261.303,761.666c-6.4-6.574-11.756-13.221-16.249-19.744
			C249.861,748.998,255.305,755.605,261.303,761.666z"/>
		<path fill="#FFFFFF" d="M449.214,524.193c-12.374,0-23.666,4.607-32.276,12.189c-6.646,14.111-8.148,30.436-8.148,30.436
			s-0.142,10.615-0.322,25.01c6.233,3.594,17.217,6.881,36.544,6.881c42.608,0,53.074-15.977,53.074-15.977v-9.668
			C498.085,546.074,476.204,524.193,449.214,524.193z"/>
		<path fill="#FFFFFF" d="M450.321,768.83c-0.086,0.076-0.171,0.146-0.258,0.223C450.149,768.979,450.235,768.904,450.321,768.83z"
			/>
		<path fill="#FF0000" d="M265.817,146.923c-16.742,0-27.222-2.467-33.778-5.462c0,18.475,0,41.131,0,66.581
			c7.072,2.503,18.735,4.569,37.981,4.569c48.871,0,48.871-12.428,48.871-12.428v-69.237
			C318.892,130.946,308.425,146.923,265.817,146.923z"/>
		<path fill="#FF0000" d="M265.817,272.359c-16.742,0-27.222-2.467-33.778-5.462c0,21.383,0,43.762,0,66.581
			c7.072,2.503,18.735,4.569,37.981,4.569c48.871,0,48.871-12.428,48.871-12.428v-69.237
			C318.892,256.381,308.425,272.359,265.817,272.359z"/>
		<path fill="#FF0000" d="M265.817,401.596c-16.742,0-27.222-2.467-33.778-5.463c0,22.437,0,44.801,0,66.582
			c7.072,2.503,18.735,4.568,37.981,4.568c48.871,0,48.871-12.428,48.871-12.428v-69.237
			C318.892,385.619,308.425,401.596,265.817,401.596z"/>
		<path fill="#FF0000" d="M265.817,531.918c-16.742,0-27.222-2.467-33.778-5.461c0,24.078,0,46.562,0,66.58
			c7.072,2.504,18.735,4.568,37.981,4.568c48.871,0,48.871-12.428,48.871-12.428v-69.236
			C318.892,515.941,308.425,531.918,265.817,531.918z"/>
		<path fill="#FF0000" d="M400.343,582.732v23.689c0.006-8.641,0.012-16.869,0.018-23.586
			C400.348,582.768,400.343,582.732,400.343,582.732z"/>
		<path fill="#FF0000" d="M445.011,598.709c-19.327,0-30.311-3.287-36.544-6.881c-0.268,21.289-0.62,50.838-0.729,66.566
			c6.482,3.096,18.646,6.002,41.477,6.002c48.871,0,48.871-12.428,48.871-12.428v-69.236
			C498.085,582.732,487.619,598.709,445.011,598.709z"/>
		<path fill="#FF0000" d="M334.887,696.617c-0.971-0.781-8.824-7.283-12.749-16.4C324.914,686.727,329.342,692.365,334.887,696.617z
			"/>
		<path fill="#FF0000" d="M321.632,678.949c-1.841-4.947-2.521-10.912-2.74-15.584v0.924
			C318.892,669.457,319.869,674.396,321.632,678.949z"/>
		<path fill="#FF0000" d="M234.686,724.289c0,0-0.946-2.045-2.737-6.504c-0.95-2.26-1.844-4.547-2.676-6.865
			c-0.915-2.408-1.933-5.146-3.062-8.273c-0.001-0.002-0.001-0.004-0.002-0.006c3.252,11.084,8.932,24.883,18.845,39.281
			c-3.908-5.754-7.394-11.814-10.415-18.141C234.668,724.102,234.686,724.289,234.686,724.289z"/>
		<polygon fill="#FF0000" points="261.304,761.666 261.304,761.666 261.303,761.666 		"/>
		<path fill="#FF0000" d="M322.071,680.062c0.011,0.025,0.021,0.053,0.032,0.078C322.093,680.115,322.083,680.088,322.071,680.062z"
			/>
		<path fill="#FF0000" d="M306.904,748.871c27.334-14.84,28.082-52.176,28.082-52.176s-0.034-0.025-0.1-0.078
			c-5.545-4.252-9.973-9.891-12.749-16.4c-0.009-0.021-0.02-0.041-0.028-0.061c-0.002-0.006-0.004-0.01-0.006-0.016
			c-0.011-0.025-0.021-0.053-0.032-0.078c-0.153-0.363-0.299-0.736-0.439-1.113c-1.763-4.553-2.74-9.492-2.74-14.66v-0.924
			c-0.18-3.811-0.057-6.75-0.014-7.576c-0.173,2.283-2.622,20.326-36.965,29.824c-22.308,6.172-39.672,1.955-49.874-2.303
			c0,0.189,0,0.307,0,0.307c0,11.709,2.249,36.387,2.599,40.164c3.021,6.326,6.507,12.387,10.415,18.141
			c4.493,6.523,9.849,13.17,16.249,19.744c0,0,0.001,0,0.001,0C261.306,761.666,279.57,763.709,306.904,748.871z"/>
		<path fill="#FF0000" d="M231.949,717.785c-0.746-1.855-1.644-4.146-2.676-6.865C230.104,713.238,230.999,715.525,231.949,717.785z
			"/>
		<path fill="#FF0000" d="M318.892,655.547c0,0-0.006,0.09-0.014,0.242C318.89,655.631,318.892,655.547,318.892,655.547z"/>
		<path fill="#FF0000" d="M460.26,759.293v-0.004c-0.017,0.018-0.033,0.037-0.051,0.055
			C460.227,759.326,460.243,759.311,460.26,759.293z"/>
		<path fill="#FF0000" d="M450.765,768.436c-0.148,0.131-0.294,0.264-0.443,0.395C450.47,768.697,450.617,768.568,450.765,768.436z"
			/>
		<path fill="#FF0000" d="M388.347,693.125c0.065-0.064,0.126-0.129,0.19-0.193c1.575-1.59,3.014-3.312,4.311-5.143
			c-2.178,2.822-6.025,6.885-12.631,11.611h0.001c2.97-1.75,5.704-3.857,8.131-6.275H388.347z"/>
		<path fill="#FF0000" d="M394.519,798.301c0,0,25.055-2.322,55.545-29.248C434.255,782.721,415.332,792.875,394.519,798.301
			L394.519,798.301z"/>
		<path fill="#FF0000" d="M393.167,687.369c-0.102,0.137-0.208,0.277-0.319,0.42c-1.297,1.83-2.735,3.553-4.311,5.143
			C390.342,691.146,391.873,689.27,393.167,687.369z"/>
		<path fill="#FF0000" d="M438.495,699.4c-15.421-9.512-31.293-13.549-38.716-15.033c-5.337,5.74-11.407,8.746-11.431,8.758
			c-2.427,2.418-5.161,4.525-8.131,6.275c0.029,0.006,24.698,4.975,28.6,35.414c3.905,30.453-14.294,63.479-14.299,63.486
			c20.813-5.426,39.736-15.58,55.545-29.248c0.087-0.076,0.172-0.146,0.258-0.223c0.149-0.131,0.295-0.264,0.443-0.395
			c3.102-2.77,6.256-5.789,9.444-9.092c0.018-0.018,0.034-0.037,0.051-0.055C460.258,759.154,459.552,712.387,438.495,699.4z"/>
		<path fill="#B3B3B3" d="M222.35,88.266c0.05-0.222,0.101-0.443,0.153-0.664C222.451,87.826,222.399,88.047,222.35,88.266z"/>
		<path fill="#B3B3B3" d="M221.794,91.117c0.039-0.24,0.085-0.478,0.128-0.717C221.879,90.64,221.833,90.885,221.794,91.117z"/>
		<path fill="#B3B3B3" d="M221.149,99.016c0-2.387,0.18-4.732,0.51-7.028C221.03,96.234,221.149,99.016,221.149,99.016z"/>
		<path fill="#B3B3B3" d="M247.293,55.753c-15.723,8.08-22.017,21.088-24.517,30.738C226.305,73.148,235.335,62.048,247.293,55.753z
			"/>
		<path fill="#B3B3B3" d="M221.851,677.801c-0.353-3.627-0.571-7.291-0.638-10.992c-0.041-0.834-0.063-1.674-0.063-2.52
			c0,0-0.403,23.219,5.06,38.352c-4.358-14.859-4.361-24.842-4.361-24.842S221.85,677.801,221.851,677.801z"/>
		<path fill="#FFFFFF" d="M232.04,266.896c0-20.73,0-40.519,0-58.855c-10.887-3.854-10.89-8.747-10.89-8.747v57.086
			C221.149,256.381,221.911,262.269,232.04,266.896z"/>
		<path fill="#B3B3B3" d="M232.04,266.896c0-20.73,0-40.519,0-58.855c-10.887-3.854-10.89-8.747-10.89-8.747v57.086
			C221.149,256.381,221.911,262.269,232.04,266.896z"/>
		<path fill="#FFFFFF" d="M232.04,141.461c0-28.328,0-46.844,0-50.59c0-22.807,20.522-37.502,20.522-37.502
			c-1.87,0.731-3.614,1.534-5.269,2.384c-11.958,6.295-20.988,17.395-24.517,30.738c-0.098,0.376-0.187,0.745-0.273,1.111
			c-0.053,0.221-0.104,0.442-0.153,0.664c-0.165,0.74-0.305,1.449-0.428,2.134c-0.042,0.239-0.089,0.477-0.128,0.717
			c-0.05,0.299-0.092,0.584-0.134,0.871c-0.331,2.296-0.51,4.641-0.51,7.028v31.93C221.149,130.946,221.911,136.833,232.04,141.461z
			"/>
		<path fill="#B3B3B3" d="M232.04,141.461c0-28.328,0-46.844,0-50.59c0-22.807,20.522-37.502,20.522-37.502
			c-1.87,0.731-3.614,1.534-5.269,2.384c-11.958,6.295-20.988,17.395-24.517,30.738c-0.098,0.376-0.187,0.745-0.273,1.111
			c-0.053,0.221-0.104,0.442-0.153,0.664c-0.165,0.74-0.305,1.449-0.428,2.134c-0.042,0.239-0.089,0.477-0.128,0.717
			c-0.05,0.299-0.092,0.584-0.134,0.871c-0.331,2.296-0.51,4.641-0.51,7.028v31.93C221.149,130.946,221.911,136.833,232.04,141.461z
			"/>
		<path fill="#FFFFFF" d="M232.04,396.133c0-20.964,0-41.988,0-62.656c-10.887-3.854-10.89-8.747-10.89-8.747v60.888
			C221.149,385.619,221.911,391.506,232.04,396.133z"/>
		<path fill="#B3B3B3" d="M232.04,396.133c0-20.964,0-41.988,0-62.656c-10.887-3.854-10.89-8.747-10.89-8.747v60.888
			C221.149,385.619,221.911,391.506,232.04,396.133z"/>
		<path fill="#FFFFFF" d="M221.851,677.801c0.022,0.018,3.626,2.771,10.189,5.51c0-3.48,0-38.637,0-90.273
			c-10.887-3.854-10.89-8.746-10.89-8.746v58.822v21.176c0,0.846,0.022,1.686,0.063,2.52
			C221.279,670.51,221.498,674.174,221.851,677.801z"/>
		<path fill="#B3B3B3" d="M221.851,677.801c0.022,0.018,3.626,2.771,10.189,5.51c0-3.48,0-38.637,0-90.273
			c-10.887-3.854-10.89-8.746-10.89-8.746v58.822v21.176c0,0.846,0.022,1.686,0.063,2.52
			C221.279,670.51,221.498,674.174,221.851,677.801z"/>
		<path fill="#FFFFFF" d="M232.04,526.457c0-20.297,0-41.72,0-63.742c-10.887-3.854-10.89-8.747-10.89-8.747v61.973
			C221.149,515.941,221.911,521.83,232.04,526.457z"/>
		<path fill="#B3B3B3" d="M232.04,526.457c0-20.297,0-41.72,0-63.742c-10.887-3.854-10.89-8.747-10.89-8.747v61.973
			C221.149,515.941,221.911,521.83,232.04,526.457z"/>
		<path fill="#FF0000" d="M232.04,208.042c0-25.45,0-48.105,0-66.581c-10.128-4.627-10.89-10.515-10.89-10.515v68.349
			C221.149,199.295,221.153,204.188,232.04,208.042z"/>
		<path fill="#C2000B" d="M232.04,208.042c0-25.45,0-48.105,0-66.581c-10.128-4.627-10.89-10.515-10.89-10.515v68.349
			C221.149,199.295,221.153,204.188,232.04,208.042z"/>
		<path fill="#FF0000" d="M232.04,333.477c0-22.819,0-45.197,0-66.581c-10.128-4.627-10.89-10.515-10.89-10.515v68.349
			C221.149,324.73,221.153,329.623,232.04,333.477z"/>
		<path fill="#C2000B" d="M232.04,333.477c0-22.819,0-45.197,0-66.581c-10.128-4.627-10.89-10.515-10.89-10.515v68.349
			C221.149,324.73,221.153,329.623,232.04,333.477z"/>
		<path fill="#FF0000" d="M232.04,462.715c0-21.781,0-44.146,0-66.582c-10.128-4.627-10.89-10.515-10.89-10.515v68.35
			C221.149,453.968,221.153,458.861,232.04,462.715z"/>
		<path fill="#C2000B" d="M232.04,462.715c0-21.781,0-44.146,0-66.582c-10.128-4.627-10.89-10.515-10.89-10.515v68.35
			C221.149,453.968,221.153,458.861,232.04,462.715z"/>
		<path fill="#FF0000" d="M232.04,593.037c0-20.018,0-42.502,0-66.58c-10.128-4.627-10.89-10.516-10.89-10.516v68.35
			C221.149,584.291,221.153,589.184,232.04,593.037z"/>
		<path fill="#C2000B" d="M232.04,593.037c0-20.018,0-42.502,0-66.58c-10.128-4.627-10.89-10.516-10.89-10.516v68.35
			C221.149,584.291,221.153,589.184,232.04,593.037z"/>
		<path fill="#FF0000" d="M229.273,710.92c-3.771-10.514-6.303-21.613-7.422-33.119c0,0-0.003-0.002-0.003-0.002
			s0.003,9.982,4.361,24.842c0.001,0.002,0.001,0.004,0.002,0.006C227.34,705.773,228.358,708.512,229.273,710.92z"/>
		<path fill="#B3B3B3" d="M229.273,710.92c-3.771-10.514-6.303-21.613-7.422-33.119c0,0-0.003-0.002-0.003-0.002
			s0.003,9.982,4.361,24.842c0.001,0.002,0.001,0.004,0.002,0.006C227.34,705.773,228.358,708.512,229.273,710.92z"/>
		<path fill="#FF0000" d="M234.686,724.289c0,0-0.018-0.188-0.047-0.508c-0.942-1.973-1.839-3.973-2.69-5.996
			C233.74,722.244,234.686,724.289,234.686,724.289z"/>
		<path fill="#B3B3B3" d="M234.686,724.289c0,0-0.018-0.188-0.047-0.508c-0.942-1.973-1.839-3.973-2.69-5.996
			C233.74,722.244,234.686,724.289,234.686,724.289z"/>
		<path fill="#FF0000" d="M229.273,710.92c1.032,2.719,1.93,5.01,2.676,6.865c0.851,2.023,1.748,4.023,2.69,5.996
			c-0.351-3.777-2.599-28.455-2.599-40.164c0,0,0-0.117,0-0.307c-6.563-2.738-10.167-5.492-10.189-5.51
			C222.97,689.307,225.502,700.406,229.273,710.92z"/>
		<path fill="#C2000B" d="M229.273,710.92c1.032,2.719,1.93,5.01,2.676,6.865c0.851,2.023,1.748,4.023,2.69,5.996
			c-0.351-3.777-2.599-28.455-2.599-40.164c0,0,0-0.117,0-0.307c-6.563-2.738-10.167-5.492-10.189-5.51
			C222.97,689.307,225.502,700.406,229.273,710.92z"/>
		<path fill="#B3B3B3" d="M416.94,536.377c0,0-0.025,0.023-0.064,0.059c0.021-0.018,0.041-0.035,0.062-0.053
			C416.938,536.381,416.939,536.379,416.94,536.377z"/>
		<path fill="#B3B3B3" d="M400.373,571.707c0,0.055,0,0.115,0,0.17c0.07-2.951,0.388-5.842,0.959-8.641
			C400.735,565.93,400.377,568.76,400.373,571.707z"/>
		<path fill="#B3B3B3" d="M400.282,666.482c0.003-0.062,0.007-0.123,0.01-0.186C400.289,666.354,400.285,666.418,400.282,666.482z"
			/>
		<path fill="#B3B3B3" d="M400.343,651.082v-44.66c-0.018,26.561-0.03,56.965-0.031,59.098c0.013-0.41,0.031-0.818,0.031-1.23
			V651.082z"/>
		<path fill="#B3B3B3" d="M394.162,685.822c3.333-5.328,5.464-11.475,6.022-18.066C399.851,671.24,398.624,678.551,394.162,685.822z
			"/>
		<path fill="#B3B3B3" d="M401.348,563.164c0.061-0.297,0.137-0.586,0.203-0.881C401.479,562.574,401.413,562.869,401.348,563.164z"
			/>
		<path fill="#FFFFFF" d="M395.456,683.617c0,0,1.596,0.205,4.323,0.75c4.189-4.506,7.925-10.697,7.925-18.449
			c0-1.857,0.012-4.426,0.033-7.523c-7.393-3.533-7.395-7.312-7.395-7.312v13.207c0,0.412-0.019,0.82-0.031,1.23
			c0,0.08,0,0.133,0,0.133s0,0.23-0.02,0.645c-0.003,0.062-0.007,0.123-0.01,0.186c-0.019,0.336-0.048,0.76-0.098,1.273
			c-0.559,6.592-2.689,12.738-6.022,18.066c-0.316,0.516-0.645,1.033-0.995,1.547C394.935,685.004,395.456,683.617,395.456,683.617z
			"/>
		<path fill="#B3B3B3" d="M395.456,683.617c0,0,1.596,0.205,4.323,0.75c4.189-4.506,7.925-10.697,7.925-18.449
			c0-1.857,0.012-4.426,0.033-7.523c-7.393-3.533-7.395-7.312-7.395-7.312v13.207c0,0.412-0.019,0.82-0.031,1.23
			c0,0.08,0,0.133,0,0.133s0,0.23-0.02,0.645c-0.003,0.062-0.007,0.123-0.01,0.186c-0.019,0.336-0.048,0.76-0.098,1.273
			c-0.559,6.592-2.689,12.738-6.022,18.066c-0.316,0.516-0.645,1.033-0.995,1.547C394.935,685.004,395.456,683.617,395.456,683.617z
			"/>
		<path fill="#FFFFFF" d="M408.467,591.828c0.181-14.395,0.322-25.01,0.322-25.01s1.503-16.324,8.148-30.436
			c-0.021,0.018-0.041,0.035-0.062,0.053c-0.896,0.832-11.704,11.1-15.325,25.848c-0.066,0.295-0.143,0.584-0.203,0.881
			c-0.006,0.023-0.011,0.049-0.016,0.072c-0.571,2.799-0.889,5.689-0.959,8.641c-0.004,2.791-0.009,6.547-0.013,10.959
			C400.5,583.551,401.605,587.875,408.467,591.828z"/>
		<path fill="#B3B3B3" d="M408.467,591.828c0.181-14.395,0.322-25.01,0.322-25.01s1.503-16.324,8.148-30.436
			c-0.021,0.018-0.041,0.035-0.062,0.053c-0.896,0.832-11.704,11.1-15.325,25.848c-0.066,0.295-0.143,0.584-0.203,0.881
			c-0.006,0.023-0.011,0.049-0.016,0.072c-0.571,2.799-0.889,5.689-0.959,8.641c-0.004,2.791-0.009,6.547-0.013,10.959
			C400.5,583.551,401.605,587.875,408.467,591.828z"/>
		<path fill="#FF0000" d="M407.737,658.395c0.109-15.729,0.462-45.277,0.729-66.566c-6.861-3.953-7.967-8.277-8.106-8.992
			c-0.006,6.717-0.012,14.945-0.018,23.586v44.66C400.343,651.082,400.345,654.861,407.737,658.395z"/>
		<path fill="#C2000B" d="M407.737,658.395c0.109-15.729,0.462-45.277,0.729-66.566c-6.861-3.953-7.967-8.277-8.106-8.992
			c-0.006,6.717-0.012,14.945-0.018,23.586v44.66C400.343,651.082,400.345,654.861,407.737,658.395z"/>
		<path fill="#FF0000" d="M388.537,692.932c-0.064,0.064-0.125,0.129-0.19,0.193h0.002
			C388.412,693.061,388.474,692.996,388.537,692.932z"/>
		<path fill="#B3B3B3" d="M388.537,692.932c-0.064,0.064-0.125,0.129-0.19,0.193h0.002
			C388.412,693.061,388.474,692.996,388.537,692.932z"/>
		<path fill="#FF0000" d="M393.167,687.369c-1.294,1.9-2.825,3.777-4.63,5.562c-0.063,0.064-0.125,0.129-0.188,0.193
			c0.023-0.012,6.094-3.018,11.431-8.758c-2.728-0.545-4.323-0.75-4.323-0.75S394.935,685.004,393.167,687.369z"/>
		<path fill="#C2000B" d="M393.167,687.369c-1.294,1.9-2.825,3.777-4.63,5.562c-0.063,0.064-0.125,0.129-0.188,0.193
			c0.023-0.012,6.094-3.018,11.431-8.758c-2.728-0.545-4.323-0.75-4.323-0.75S394.935,685.004,393.167,687.369z"/>
	</g>
	
		<circle fill="#FFFFFF" stroke="#FFFFFF" stroke-width="8.1452" stroke-linecap="round" stroke-linejoin="round" stroke-miterlimit="10" cx="341.441" cy="154.403" r="50.757"/>
	
		<circle stroke="#FFFFFF" stroke-width="8.1452" stroke-linecap="round" stroke-linejoin="round" stroke-miterlimit="10" cx="334.986" cy="160.008" r="40.866"/>
	
		<circle stroke="#FFFFFF" stroke-width="8.1452" stroke-linecap="round" stroke-linejoin="round" stroke-miterlimit="10" cx="359.455" cy="158.047" r="3.645"/>
	<path d="M267.313,249c0,0,21.06,0.766,29.483-11.487c0,0,4.213,19.144-8.806,24.122C274.972,266.614,267.313,249,267.313,249z"/>
	
		<circle fill="#FFFFFF" stroke="#FFFFFF" stroke-width="8.1452" stroke-linecap="round" stroke-linejoin="round" stroke-miterlimit="10" cx="205.044" cy="154.403" r="50.757"/>
	
		<circle stroke="#FFFFFF" stroke-width="8.1452" stroke-linecap="round" stroke-linejoin="round" stroke-miterlimit="10" cx="207.921" cy="160.008" r="40.867"/>
	
		<circle stroke="#FFFFFF" stroke-width="8.1452" stroke-linecap="round" stroke-linejoin="round" stroke-miterlimit="10" cx="229.855" cy="159.667" r="5.265"/>
	<path fill="#FFFFFF" d="M420.703,363.726c11.438,0.956,21.487-7.537,22.443-18.98l2.027-24.237
		c0.955-11.439-7.544-21.488-18.982-22.443l0,0c-11.434-0.958-21.484,7.543-22.44,18.985l-2.027,24.237
		C400.768,352.727,409.27,362.772,420.703,363.726L420.703,363.726z"/>
	
		<path fill="none" stroke="#FFFFFF" stroke-width="16.8422" stroke-linecap="round" stroke-linejoin="round" stroke-miterlimit="10" d="
		M340.121,252.413c0,0,48.226-20.359,64.716,23.993"/>
</g>
<g id="Calque_2">
	
		<path fill="#F2F2F2" stroke="#FFFFFF" stroke-width="8.1452" stroke-linecap="round" stroke-linejoin="round" stroke-miterlimit="10" d="
		M580.468,398.922c0,26.604-21.566,48.169-48.17,48.169H397.596c-26.603,0-48.168-21.565-48.168-48.169l0,0
		c0-26.603,21.565-48.169,48.168-48.169h134.702C558.901,350.753,580.468,372.32,580.468,398.922L580.468,398.922z"/>
</g>
<g id="texte">
</g>
<g id="Calque_3">
	<path fill="#FFFFFF" d="M493.191,351.837c10.184-14.884,6.376-35.202-8.506-45.386L456.92,287.45
		c-14.881-10.187-35.195-6.375-45.382,8.506l0,0c-10.185,14.882-6.379,35.199,8.503,45.384l27.764,19
		C462.686,370.526,483.004,366.718,493.191,351.837L493.191,351.837z"/>
</g>
</svg>
